G04 #@! TF.GenerationSoftware,KiCad,Pcbnew,7.0.6*
G04 #@! TF.CreationDate,2023-09-01T17:47:30-07:00*
G04 #@! TF.ProjectId,procon_gcc_main_pcb,70726f63-6f6e-45f6-9763-635f6d61696e,1*
G04 #@! TF.SameCoordinates,Original*
G04 #@! TF.FileFunction,Other,User*
%FSLAX46Y46*%
G04 Gerber Fmt 4.6, Leading zero omitted, Abs format (unit mm)*
G04 Created by KiCad (PCBNEW 7.0.6) date 2023-09-01 17:47:30*
%MOMM*%
%LPD*%
G01*
G04 APERTURE LIST*
%ADD10C,0.050000*%
G04 APERTURE END LIST*
D10*
X90770011Y-138595882D02*
X89370011Y-138595882D01*
X90770011Y-137895882D02*
X90770011Y-138595882D01*
X89370011Y-138595882D02*
X89370011Y-137895882D01*
X89370011Y-137895882D02*
X90770011Y-137895882D01*
X152816600Y-116943800D02*
X152816600Y-115543800D01*
X153516600Y-116943800D02*
X152816600Y-116943800D01*
X152816600Y-115543800D02*
X153516600Y-115543800D01*
X153516600Y-115543800D02*
X153516600Y-116943800D01*
X139961100Y-108163094D02*
X139961100Y-109563094D01*
X139261100Y-108163094D02*
X139961100Y-108163094D01*
X139961100Y-109563094D02*
X139261100Y-109563094D01*
X139261100Y-109563094D02*
X139261100Y-108163094D01*
X152774400Y-108417400D02*
X152774400Y-106517400D01*
X152774400Y-108417400D02*
X148774400Y-108417400D01*
X152774400Y-106517400D02*
X148774400Y-106517400D01*
X148774400Y-108417400D02*
X148774400Y-106517400D01*
X160387200Y-119776000D02*
X158087200Y-119776000D01*
X160387200Y-119776000D02*
X160387200Y-124476000D01*
X160387200Y-124476000D02*
X158087200Y-124476000D01*
X158087200Y-124476000D02*
X158087200Y-119776000D01*
X120748689Y-122553755D02*
X120748689Y-125513755D01*
X119288689Y-122553755D02*
X120748689Y-122553755D01*
X120748689Y-125513755D02*
X119288689Y-125513755D01*
X119288689Y-125513755D02*
X119288689Y-122553755D01*
X153375400Y-122216400D02*
X153375400Y-120816400D01*
X154075400Y-122216400D02*
X153375400Y-122216400D01*
X153375400Y-120816400D02*
X154075400Y-120816400D01*
X154075400Y-120816400D02*
X154075400Y-122216400D01*
X154786400Y-110623000D02*
X152966400Y-110623000D01*
X154786400Y-109703000D02*
X154786400Y-110623000D01*
X152966400Y-110623000D02*
X152966400Y-109703000D01*
X152966400Y-109703000D02*
X154786400Y-109703000D01*
X170389623Y-139668477D02*
X170389623Y-138268477D01*
X171089623Y-139668477D02*
X170389623Y-139668477D01*
X170389623Y-138268477D02*
X171089623Y-138268477D01*
X171089623Y-138268477D02*
X171089623Y-139668477D01*
X110975200Y-128859200D02*
X114475200Y-128859200D01*
X114475200Y-128859200D02*
X114475200Y-122499200D01*
X110975200Y-122499200D02*
X110975200Y-128859200D01*
X114475200Y-122499200D02*
X110975200Y-122499200D01*
X96047457Y-129230391D02*
X96047457Y-132530391D01*
X94587457Y-129230391D02*
X96047457Y-129230391D01*
X96047457Y-132530391D02*
X94587457Y-132530391D01*
X94587457Y-132530391D02*
X94587457Y-129230391D01*
X123796600Y-111206100D02*
X126596600Y-111206100D01*
X123796600Y-111206100D02*
X123796600Y-108006100D01*
X126596600Y-111206100D02*
X126596600Y-108006100D01*
X126596600Y-108006100D02*
X123796600Y-108006100D01*
X149948800Y-126710800D02*
X149948800Y-124850800D01*
X150888800Y-126710800D02*
X149948800Y-126710800D01*
X149948800Y-124850800D02*
X150888800Y-124850800D01*
X150888800Y-124850800D02*
X150888800Y-126710800D01*
X142427000Y-133233600D02*
X143827000Y-133233600D01*
X142427000Y-133933600D02*
X142427000Y-133233600D01*
X143827000Y-133233600D02*
X143827000Y-133933600D01*
X143827000Y-133933600D02*
X142427000Y-133933600D01*
X164100004Y-151428757D02*
X160800004Y-151428757D01*
X164100004Y-149968757D02*
X164100004Y-151428757D01*
X160800004Y-151428757D02*
X160800004Y-149968757D01*
X160800004Y-149968757D02*
X164100004Y-149968757D01*
X148754000Y-108409600D02*
X143854000Y-108409600D01*
X148754000Y-106169600D02*
X148754000Y-108409600D01*
X143854000Y-108409600D02*
X143854000Y-106169600D01*
X143854000Y-106169600D02*
X148754000Y-106169600D01*
X128040800Y-111962700D02*
X126640800Y-111962700D01*
X128040800Y-111262700D02*
X128040800Y-111962700D01*
X126640800Y-111962700D02*
X126640800Y-111262700D01*
X126640800Y-111262700D02*
X128040800Y-111262700D01*
X158007600Y-122200400D02*
X158007600Y-118800400D01*
X158007600Y-118800400D02*
X154167600Y-118800400D01*
X154167600Y-122200400D02*
X158007600Y-122200400D01*
X154167600Y-118800400D02*
X154167600Y-122200400D01*
X156068400Y-112936600D02*
X156068400Y-109976600D01*
X157528400Y-112936600D02*
X156068400Y-112936600D01*
X156068400Y-109976600D02*
X157528400Y-109976600D01*
X157528400Y-109976600D02*
X157528400Y-112936600D01*
X134600900Y-105264294D02*
X134600900Y-103864294D01*
X135300900Y-105264294D02*
X134600900Y-105264294D01*
X134600900Y-103864294D02*
X135300900Y-103864294D01*
X135300900Y-103864294D02*
X135300900Y-105264294D01*
X134665700Y-109988094D02*
X134665700Y-118228094D01*
X134665700Y-118228094D02*
X142905700Y-118228094D01*
X142905700Y-109988094D02*
X134665700Y-109988094D01*
X142905700Y-118228094D02*
X142905700Y-109988094D01*
X146817400Y-109016800D02*
G75*
G03*
X146817400Y-109016800I-1250000J0D01*
G01*
X124894200Y-137398800D02*
X141994200Y-137398800D01*
X141994200Y-137398800D02*
X141994200Y-123698800D01*
X124894200Y-123698800D02*
X124894200Y-137398800D01*
X141994200Y-123698800D02*
X124894200Y-123698800D01*
X141691100Y-109567294D02*
X141691100Y-107747294D01*
X142611100Y-109567294D02*
X141691100Y-109567294D01*
X141691100Y-107747294D02*
X142611100Y-107747294D01*
X142611100Y-107747294D02*
X142611100Y-109567294D01*
X124826800Y-111262700D02*
X126226800Y-111262700D01*
X124826800Y-111962700D02*
X124826800Y-111262700D01*
X126226800Y-111262700D02*
X126226800Y-111962700D01*
X126226800Y-111962700D02*
X124826800Y-111962700D01*
X146691600Y-111699000D02*
X146691600Y-113599000D01*
X146691600Y-111699000D02*
X150691600Y-111699000D01*
X146691600Y-113599000D02*
X150691600Y-113599000D01*
X150691600Y-111699000D02*
X150691600Y-113599000D01*
X148754000Y-106174400D02*
X143854000Y-106174400D01*
X148754000Y-103934400D02*
X148754000Y-106174400D01*
X143854000Y-106174400D02*
X143854000Y-103934400D01*
X143854000Y-103934400D02*
X148754000Y-103934400D01*
X152799800Y-106487000D02*
X152799800Y-104587000D01*
X152799800Y-106487000D02*
X148799800Y-106487000D01*
X152799800Y-104587000D02*
X148799800Y-104587000D01*
X148799800Y-106487000D02*
X148799800Y-104587000D01*
X133901700Y-111544294D02*
X133901700Y-110144294D01*
X134601700Y-111544294D02*
X133901700Y-111544294D01*
X133901700Y-110144294D02*
X134601700Y-110144294D01*
X134601700Y-110144294D02*
X134601700Y-111544294D01*
X124414600Y-104927400D02*
G75*
G03*
X124414600Y-104927400I-1250000J0D01*
G01*
X141624800Y-102728800D02*
X141624800Y-104128800D01*
X140924800Y-102728800D02*
X141624800Y-102728800D01*
X141624800Y-104128800D02*
X140924800Y-104128800D01*
X140924800Y-104128800D02*
X140924800Y-102728800D01*
X124801400Y-107249500D02*
X126201400Y-107249500D01*
X124801400Y-107949500D02*
X124801400Y-107249500D01*
X126201400Y-107249500D02*
X126201400Y-107949500D01*
X126201400Y-107949500D02*
X124801400Y-107949500D01*
X143827000Y-134746400D02*
X142427000Y-134746400D01*
X143827000Y-134046400D02*
X143827000Y-134746400D01*
X142427000Y-134746400D02*
X142427000Y-134046400D01*
X142427000Y-134046400D02*
X143827000Y-134046400D01*
X153313400Y-120816400D02*
X153313400Y-122216400D01*
X152613400Y-120816400D02*
X153313400Y-120816400D01*
X153313400Y-122216400D02*
X152613400Y-122216400D01*
X152613400Y-122216400D02*
X152613400Y-120816400D01*
X115763023Y-119631101D02*
X117163023Y-119631101D01*
X115763023Y-120331101D02*
X115763023Y-119631101D01*
X117163023Y-119631101D02*
X117163023Y-120331101D01*
X117163023Y-120331101D02*
X115763023Y-120331101D01*
X163636200Y-109693200D02*
X163636200Y-114693200D01*
X163636200Y-109693200D02*
X157936200Y-109693200D01*
X157936200Y-114693200D02*
X163636200Y-114693200D01*
X157936200Y-114693200D02*
X157936200Y-109693200D01*
X119019100Y-127277002D02*
X116059100Y-127277002D01*
X119019100Y-125817002D02*
X119019100Y-127277002D01*
X116059100Y-127277002D02*
X116059100Y-125817002D01*
X116059100Y-125817002D02*
X119019100Y-125817002D01*
X158004200Y-124513200D02*
X153104200Y-124513200D01*
X158004200Y-122273200D02*
X158004200Y-124513200D01*
X153104200Y-124513200D02*
X153104200Y-122273200D01*
X153104200Y-122273200D02*
X158004200Y-122273200D01*
X153583400Y-115320600D02*
X153583400Y-118720600D01*
X153583400Y-118720600D02*
X157423400Y-118720600D01*
X157423400Y-115320600D02*
X153583400Y-115320600D01*
X157423400Y-118720600D02*
X157423400Y-115320600D01*
X140672300Y-108163094D02*
X140672300Y-109563094D01*
X139972300Y-108163094D02*
X140672300Y-108163094D01*
X140672300Y-109563094D02*
X139972300Y-109563094D01*
X139972300Y-109563094D02*
X139972300Y-108163094D01*
X106631309Y-118767056D02*
X109931309Y-118767056D01*
X106631309Y-120227056D02*
X106631309Y-118767056D01*
X109931309Y-118767056D02*
X109931309Y-120227056D01*
X109931309Y-120227056D02*
X106631309Y-120227056D01*
X141692400Y-102723200D02*
X143092400Y-102723200D01*
X141692400Y-103423200D02*
X141692400Y-102723200D01*
X143092400Y-102723200D02*
X143092400Y-103423200D01*
X143092400Y-103423200D02*
X141692400Y-103423200D01*
X165824000Y-112738000D02*
X165824000Y-117338000D01*
X163724000Y-112738000D02*
X165824000Y-112738000D01*
X165824000Y-117338000D02*
X163724000Y-117338000D01*
X163724000Y-117338000D02*
X163724000Y-112738000D01*
X115762223Y-116172901D02*
X115762223Y-119572901D01*
X115762223Y-119572901D02*
X119602223Y-119572901D01*
X119602223Y-116172901D02*
X115762223Y-116172901D01*
X119602223Y-119572901D02*
X119602223Y-116172901D01*
X142668323Y-120333129D02*
X142668323Y-123293129D01*
X141208323Y-120333129D02*
X142668323Y-120333129D01*
X142668323Y-123293129D02*
X141208323Y-123293129D01*
X141208323Y-123293129D02*
X141208323Y-120333129D01*
X81774400Y-141682600D02*
X90774400Y-141682600D01*
X90774400Y-141682600D02*
X90774400Y-138682600D01*
X81774400Y-138682600D02*
X81774400Y-141682600D01*
X90774400Y-138682600D02*
X81774400Y-138682600D01*
X136358400Y-101402400D02*
X137758400Y-101402400D01*
X136358400Y-102102400D02*
X136358400Y-101402400D01*
X137758400Y-101402400D02*
X137758400Y-102102400D01*
X137758400Y-102102400D02*
X136358400Y-102102400D01*
X134625600Y-109944094D02*
X134625600Y-108544094D01*
X135325600Y-109944094D02*
X134625600Y-109944094D01*
X134625600Y-108544094D02*
X135325600Y-108544094D01*
X135325600Y-108544094D02*
X135325600Y-109944094D01*
X115752423Y-115414701D02*
X117152423Y-115414701D01*
X115752423Y-116114701D02*
X115752423Y-115414701D01*
X117152423Y-115414701D02*
X117152423Y-116114701D01*
X117152423Y-116114701D02*
X115752423Y-116114701D01*
X139795100Y-118686494D02*
X139795100Y-122186494D01*
X137395100Y-118686494D02*
X139795100Y-118686494D01*
X139795100Y-122186494D02*
X137395100Y-122186494D01*
X137395100Y-122186494D02*
X137395100Y-118686494D01*
X143011900Y-111627294D02*
X143011900Y-109807294D01*
X143931900Y-111627294D02*
X143011900Y-111627294D01*
X143011900Y-109807294D02*
X143931900Y-109807294D01*
X143931900Y-109807294D02*
X143931900Y-111627294D01*
X137021800Y-103855000D02*
X135621800Y-103855000D01*
X137021800Y-103155000D02*
X137021800Y-103855000D01*
X135621800Y-103855000D02*
X135621800Y-103155000D01*
X135621800Y-103155000D02*
X137021800Y-103155000D01*
X133749600Y-137496800D02*
X136709600Y-137496800D01*
X133749600Y-138956800D02*
X133749600Y-137496800D01*
X136709600Y-137496800D02*
X136709600Y-138956800D01*
X136709600Y-138956800D02*
X133749600Y-138956800D01*
X171468456Y-134564581D02*
X171468456Y-137864581D01*
X170008456Y-134564581D02*
X171468456Y-134564581D01*
X171468456Y-137864581D02*
X170008456Y-137864581D01*
X170008456Y-137864581D02*
X170008456Y-134564581D01*
X126641400Y-111206100D02*
X129441400Y-111206100D01*
X126641400Y-111206100D02*
X126641400Y-108006100D01*
X129441400Y-111206100D02*
X129441400Y-108006100D01*
X129441400Y-108006100D02*
X126641400Y-108006100D01*
X158945629Y-150497756D02*
X160345629Y-150497756D01*
X158945629Y-151197756D02*
X158945629Y-150497756D01*
X160345629Y-150497756D02*
X160345629Y-151197756D01*
X160345629Y-151197756D02*
X158945629Y-151197756D01*
X115690623Y-119572901D02*
X115690623Y-116172901D01*
X115690623Y-116172901D02*
X111850623Y-116172901D01*
X111850623Y-119572901D02*
X115690623Y-119572901D01*
X111850623Y-116172901D02*
X111850623Y-119572901D01*
X134253200Y-123616200D02*
X132853200Y-123616200D01*
X134253200Y-122916200D02*
X134253200Y-123616200D01*
X132853200Y-123616200D02*
X132853200Y-122916200D01*
X132853200Y-122916200D02*
X134253200Y-122916200D01*
X107985401Y-117627059D02*
X109385401Y-117627059D01*
X107985401Y-118327059D02*
X107985401Y-117627059D01*
X109385401Y-117627059D02*
X109385401Y-118327059D01*
X109385401Y-118327059D02*
X107985401Y-118327059D01*
X142973194Y-120330800D02*
X145933194Y-120330800D01*
X142973194Y-121790800D02*
X142973194Y-120330800D01*
X145933194Y-120330800D02*
X145933194Y-121790800D01*
X145933194Y-121790800D02*
X142973194Y-121790800D01*
X143525500Y-107747294D02*
X143525500Y-109567294D01*
X142605500Y-107747294D02*
X143525500Y-107747294D01*
X143525500Y-109567294D02*
X142605500Y-109567294D01*
X142605500Y-109567294D02*
X142605500Y-107747294D01*
X152973200Y-108924000D02*
X154373200Y-108924000D01*
X152973200Y-109624000D02*
X152973200Y-108924000D01*
X154373200Y-108924000D02*
X154373200Y-109624000D01*
X154373200Y-109624000D02*
X152973200Y-109624000D01*
X140353300Y-121501094D02*
X140353300Y-120101094D01*
X141053300Y-121501094D02*
X140353300Y-121501094D01*
X140353300Y-120101094D02*
X141053300Y-120101094D01*
X141053300Y-120101094D02*
X141053300Y-121501094D01*
X120575902Y-113356302D02*
X120575902Y-114756302D01*
X119875902Y-113356302D02*
X120575902Y-113356302D01*
X120575902Y-114756302D02*
X119875902Y-114756302D01*
X119875902Y-114756302D02*
X119875902Y-113356302D01*
X139207500Y-107749894D02*
X139207500Y-109569894D01*
X138287500Y-107749894D02*
X139207500Y-107749894D01*
X139207500Y-109569894D02*
X138287500Y-109569894D01*
X138287500Y-109569894D02*
X138287500Y-107749894D01*
X124420000Y-98728400D02*
X119420000Y-98728400D01*
X119420000Y-98728400D02*
X119420000Y-101728400D01*
X124420000Y-101728400D02*
X124420000Y-98728400D01*
X119420000Y-101728400D02*
X124420000Y-101728400D01*
X121849200Y-104952800D02*
G75*
G03*
X121849200Y-104952800I-1250000J0D01*
G01*
X141696700Y-107749894D02*
X141696700Y-109569894D01*
X140776700Y-107749894D02*
X141696700Y-107749894D01*
X141696700Y-109569894D02*
X140776700Y-109569894D01*
X140776700Y-109569894D02*
X140776700Y-107749894D01*
X158254700Y-116275600D02*
X158254700Y-119675600D01*
X158254700Y-119675600D02*
X162094700Y-119675600D01*
X162094700Y-116275600D02*
X158254700Y-116275600D01*
X162094700Y-119675600D02*
X162094700Y-116275600D01*
X153345200Y-103149400D02*
G75*
G03*
X153345200Y-103149400I-1250000J0D01*
G01*
X126929200Y-104724200D02*
G75*
G03*
X126929200Y-104724200I-1250000J0D01*
G01*
X128004800Y-107949500D02*
X126604800Y-107949500D01*
X128004800Y-107249500D02*
X128004800Y-107949500D01*
X126604800Y-107949500D02*
X126604800Y-107249500D01*
X126604800Y-107249500D02*
X128004800Y-107249500D01*
X137107000Y-105213000D02*
X140007000Y-105213000D01*
X140007000Y-105213000D02*
X140007000Y-102813000D01*
X137107000Y-102813000D02*
X137107000Y-105213000D01*
X140007000Y-102813000D02*
X137107000Y-102813000D01*
X142090200Y-131983400D02*
X145590200Y-131983400D01*
X145590200Y-131983400D02*
X145590200Y-125623400D01*
X142090200Y-125623400D02*
X142090200Y-131983400D01*
X145590200Y-125623400D02*
X142090200Y-125623400D01*
X128052600Y-107249500D02*
X129452600Y-107249500D01*
X128052600Y-107949500D02*
X128052600Y-107249500D01*
X129452600Y-107249500D02*
X129452600Y-107949500D01*
X129452600Y-107949500D02*
X128052600Y-107949500D01*
X139870700Y-120044294D02*
X139870700Y-118644294D01*
X140570700Y-120044294D02*
X139870700Y-120044294D01*
X139870700Y-118644294D02*
X140570700Y-118644294D01*
X140570700Y-118644294D02*
X140570700Y-120044294D01*
X97283652Y-130552363D02*
X97283652Y-131952363D01*
X96583652Y-130552363D02*
X97283652Y-130552363D01*
X97283652Y-131952363D02*
X96583652Y-131952363D01*
X96583652Y-131952363D02*
X96583652Y-130552363D01*
X132898400Y-138901400D02*
X132898400Y-137501400D01*
X133598400Y-138901400D02*
X132898400Y-138901400D01*
X132898400Y-137501400D02*
X133598400Y-137501400D01*
X133598400Y-137501400D02*
X133598400Y-138901400D01*
X128063200Y-111262700D02*
X129463200Y-111262700D01*
X128063200Y-111962700D02*
X128063200Y-111262700D01*
X129463200Y-111262700D02*
X129463200Y-111962700D01*
X129463200Y-111962700D02*
X128063200Y-111962700D01*
X150763400Y-111514800D02*
X152163400Y-111514800D01*
X150763400Y-112214800D02*
X150763400Y-111514800D01*
X152163400Y-111514800D02*
X152163400Y-112214800D01*
X152163400Y-112214800D02*
X150763400Y-112214800D01*
X158190200Y-116650800D02*
X158190200Y-118050800D01*
X157490200Y-116650800D02*
X158190200Y-116650800D01*
X158190200Y-118050800D02*
X157490200Y-118050800D01*
X157490200Y-118050800D02*
X157490200Y-116650800D01*
X132607800Y-103338400D02*
X132607800Y-104738400D01*
X131907800Y-103338400D02*
X132607800Y-103338400D01*
X132607800Y-104738400D02*
X131907800Y-104738400D01*
X131907800Y-104738400D02*
X131907800Y-103338400D01*
X163738200Y-111724800D02*
X163738200Y-110324800D01*
X164438200Y-111724800D02*
X163738200Y-111724800D01*
X163738200Y-110324800D02*
X164438200Y-110324800D01*
X164438200Y-110324800D02*
X164438200Y-111724800D01*
X123708200Y-108642400D02*
X121808200Y-108642400D01*
X123708200Y-108642400D02*
X123708200Y-112642400D01*
X121808200Y-108642400D02*
X121808200Y-112642400D01*
X123708200Y-112642400D02*
X121808200Y-112642400D01*
X152816600Y-118417000D02*
X152816600Y-117017000D01*
X153516600Y-118417000D02*
X152816600Y-118417000D01*
X152816600Y-117017000D02*
X153516600Y-117017000D01*
X153516600Y-117017000D02*
X153516600Y-118417000D01*
X163637800Y-116225200D02*
X160677800Y-116225200D01*
X163637800Y-114765200D02*
X163637800Y-116225200D01*
X160677800Y-116225200D02*
X160677800Y-114765200D01*
X160677800Y-114765200D02*
X163637800Y-114765200D01*
X165689600Y-121589800D02*
G75*
G03*
X165689600Y-121589800I-1250000J0D01*
G01*
X140676400Y-101961200D02*
X142076400Y-101961200D01*
X140676400Y-102661200D02*
X140676400Y-101961200D01*
X142076400Y-101961200D02*
X142076400Y-102661200D01*
X142076400Y-102661200D02*
X140676400Y-102661200D01*
X120369023Y-116182301D02*
X120369023Y-117582301D01*
X119669023Y-116182301D02*
X120369023Y-116182301D01*
X120369023Y-117582301D02*
X119669023Y-117582301D01*
X119669023Y-117582301D02*
X119669023Y-116182301D01*
X135726400Y-123616200D02*
X134326400Y-123616200D01*
X135726400Y-122916200D02*
X135726400Y-123616200D01*
X134326400Y-123616200D02*
X134326400Y-122916200D01*
X134326400Y-122916200D02*
X135726400Y-122916200D01*
M02*
