G04 #@! TF.GenerationSoftware,KiCad,Pcbnew,7.0.6*
G04 #@! TF.CreationDate,2023-09-01T17:33:17-07:00*
G04 #@! TF.ProjectId,procon_gcc_main_pcb,70726f63-6f6e-45f6-9763-635f6d61696e,1*
G04 #@! TF.SameCoordinates,Original*
G04 #@! TF.FileFunction,Paste,Top*
G04 #@! TF.FilePolarity,Positive*
%FSLAX46Y46*%
G04 Gerber Fmt 4.6, Leading zero omitted, Abs format (unit mm)*
G04 Created by KiCad (PCBNEW 7.0.6) date 2023-09-01 17:33:17*
%MOMM*%
%LPD*%
G01*
G04 APERTURE LIST*
G04 Aperture macros list*
%AMRoundRect*
0 Rectangle with rounded corners*
0 $1 Rounding radius*
0 $2 $3 $4 $5 $6 $7 $8 $9 X,Y pos of 4 corners*
0 Add a 4 corners polygon primitive as box body*
4,1,4,$2,$3,$4,$5,$6,$7,$8,$9,$2,$3,0*
0 Add four circle primitives for the rounded corners*
1,1,$1+$1,$2,$3*
1,1,$1+$1,$4,$5*
1,1,$1+$1,$6,$7*
1,1,$1+$1,$8,$9*
0 Add four rect primitives between the rounded corners*
20,1,$1+$1,$2,$3,$4,$5,0*
20,1,$1+$1,$4,$5,$6,$7,0*
20,1,$1+$1,$6,$7,$8,$9,0*
20,1,$1+$1,$8,$9,$2,$3,0*%
%AMFreePoly0*
4,1,13,0.900000,0.500000,2.600000,0.500000,2.600000,-0.500000,0.900000,-0.500000,0.400000,-1.000000,-0.400000,-1.000000,-0.900000,-0.500000,-2.600000,-0.500000,-2.600000,0.500000,-0.900000,0.500000,-0.400000,1.000000,0.400000,1.000000,0.900000,0.500000,0.900000,0.500000,$1*%
G04 Aperture macros list end*
%ADD10C,0.010000*%
%ADD11R,0.745000X0.280000*%
%ADD12R,0.280000X0.745000*%
%ADD13R,0.550000X0.550000*%
%ADD14R,0.400000X0.800000*%
%ADD15R,0.800000X0.400000*%
%ADD16R,1.450000X1.450000*%
%ADD17R,0.700000X0.700000*%
%ADD18R,1.300000X0.600000*%
%ADD19R,2.300000X3.200000*%
%ADD20RoundRect,0.079500X0.100500X-0.079500X0.100500X0.079500X-0.100500X0.079500X-0.100500X-0.079500X0*%
%ADD21RoundRect,0.225000X-0.225000X-0.250000X0.225000X-0.250000X0.225000X0.250000X-0.225000X0.250000X0*%
%ADD22RoundRect,0.225000X0.225000X0.250000X-0.225000X0.250000X-0.225000X-0.250000X0.225000X-0.250000X0*%
%ADD23RoundRect,0.079500X-0.079500X-0.100500X0.079500X-0.100500X0.079500X0.100500X-0.079500X0.100500X0*%
%ADD24RoundRect,0.237500X-0.237500X0.300000X-0.237500X-0.300000X0.237500X-0.300000X0.237500X0.300000X0*%
%ADD25RoundRect,0.140000X-0.170000X0.140000X-0.170000X-0.140000X0.170000X-0.140000X0.170000X0.140000X0*%
%ADD26RoundRect,0.225000X-0.250000X0.225000X-0.250000X-0.225000X0.250000X-0.225000X0.250000X0.225000X0*%
%ADD27RoundRect,0.250000X-0.425000X0.450000X-0.425000X-0.450000X0.425000X-0.450000X0.425000X0.450000X0*%
%ADD28RoundRect,0.140000X0.170000X-0.140000X0.170000X0.140000X-0.170000X0.140000X-0.170000X-0.140000X0*%
%ADD29RoundRect,0.225000X0.250000X-0.225000X0.250000X0.225000X-0.250000X0.225000X-0.250000X-0.225000X0*%
%ADD30RoundRect,0.140000X0.140000X0.170000X-0.140000X0.170000X-0.140000X-0.170000X0.140000X-0.170000X0*%
%ADD31RoundRect,0.225000X-0.375000X0.225000X-0.375000X-0.225000X0.375000X-0.225000X0.375000X0.225000X0*%
%ADD32RoundRect,0.250000X-0.250000X0.250000X-0.250000X-0.250000X0.250000X-0.250000X0.250000X0.250000X0*%
%ADD33R,0.300000X1.300000*%
%ADD34R,1.800000X2.200000*%
%ADD35RoundRect,0.150000X-0.587500X-0.150000X0.587500X-0.150000X0.587500X0.150000X-0.587500X0.150000X0*%
%ADD36R,0.400000X0.650000*%
%ADD37RoundRect,0.135000X0.185000X-0.135000X0.185000X0.135000X-0.185000X0.135000X-0.185000X-0.135000X0*%
%ADD38RoundRect,0.079500X-0.100500X0.079500X-0.100500X-0.079500X0.100500X-0.079500X0.100500X0.079500X0*%
%ADD39R,1.000000X1.000000*%
%ADD40RoundRect,0.050000X-0.387500X-0.050000X0.387500X-0.050000X0.387500X0.050000X-0.387500X0.050000X0*%
%ADD41RoundRect,0.050000X-0.050000X-0.387500X0.050000X-0.387500X0.050000X0.387500X-0.050000X0.387500X0*%
%ADD42RoundRect,0.249999X-0.395001X-0.395001X0.395001X-0.395001X0.395001X0.395001X-0.395001X0.395001X0*%
%ADD43RoundRect,0.100000X0.100000X-0.712500X0.100000X0.712500X-0.100000X0.712500X-0.100000X-0.712500X0*%
%ADD44RoundRect,0.050000X0.075000X-0.225000X0.075000X0.225000X-0.075000X0.225000X-0.075000X-0.225000X0*%
%ADD45RoundRect,0.050000X0.050000X-0.225000X0.050000X0.225000X-0.050000X0.225000X-0.050000X-0.225000X0*%
%ADD46RoundRect,0.050000X0.250000X-0.100000X0.250000X0.100000X-0.250000X0.100000X-0.250000X-0.100000X0*%
%ADD47R,0.300000X0.400000*%
%ADD48R,1.600000X0.200000*%
%ADD49R,1.500000X0.700000*%
%ADD50FreePoly0,180.000000*%
%ADD51RoundRect,0.079500X0.079500X0.100500X-0.079500X0.100500X-0.079500X-0.100500X0.079500X-0.100500X0*%
%ADD52R,0.950000X1.700000*%
%ADD53R,0.900000X1.700000*%
%ADD54R,1.200000X0.600000*%
%ADD55RoundRect,0.250000X0.250000X0.250000X-0.250000X0.250000X-0.250000X-0.250000X0.250000X-0.250000X0*%
%ADD56RoundRect,0.237500X0.300000X0.237500X-0.300000X0.237500X-0.300000X-0.237500X0.300000X-0.237500X0*%
%ADD57RoundRect,0.250001X0.462499X0.624999X-0.462499X0.624999X-0.462499X-0.624999X0.462499X-0.624999X0*%
%ADD58RoundRect,0.150000X0.587500X0.150000X-0.587500X0.150000X-0.587500X-0.150000X0.587500X-0.150000X0*%
%ADD59RoundRect,0.250000X-0.250000X-0.250000X0.250000X-0.250000X0.250000X0.250000X-0.250000X0.250000X0*%
%ADD60RoundRect,0.237500X-0.300000X-0.237500X0.300000X-0.237500X0.300000X0.237500X-0.300000X0.237500X0*%
%ADD61R,1.900000X0.400000*%
%ADD62R,0.500000X0.550000*%
%ADD63R,0.300000X0.900000*%
G04 APERTURE END LIST*
D10*
X134919200Y-133223800D02*
X134069200Y-133223800D01*
X133469200Y-132623800D01*
X133469200Y-131773800D01*
X134919200Y-131773800D01*
X134919200Y-133223800D01*
G36*
X134919200Y-133223800D02*
G01*
X134069200Y-133223800D01*
X133469200Y-132623800D01*
X133469200Y-131773800D01*
X134919200Y-131773800D01*
X134919200Y-133223800D01*
G37*
D11*
X146159800Y-124295600D03*
X146159800Y-123795600D03*
X146159800Y-123295600D03*
X146159800Y-122795600D03*
D12*
X145261800Y-122397600D03*
X144761800Y-122397600D03*
X144261800Y-122397600D03*
D11*
X143363800Y-122795600D03*
X143363800Y-123295600D03*
X143363800Y-123795600D03*
X143363800Y-124295600D03*
D12*
X144261800Y-124693600D03*
X144761800Y-124693600D03*
X145261800Y-124693600D03*
D11*
X115841200Y-123303600D03*
X115841200Y-123803600D03*
X115841200Y-124303600D03*
X115841200Y-124803600D03*
D12*
X116739200Y-125201600D03*
X117239200Y-125201600D03*
X117739200Y-125201600D03*
D11*
X118637200Y-124803600D03*
X118637200Y-124303600D03*
X118637200Y-123803600D03*
X118637200Y-123303600D03*
D12*
X117739200Y-122905600D03*
X117239200Y-122905600D03*
X116739200Y-122905600D03*
D13*
X86902000Y-125407600D03*
X87852000Y-125407600D03*
X87852000Y-124457600D03*
X86902000Y-124457600D03*
X86902000Y-112407600D03*
X87852000Y-112407600D03*
X87852000Y-111457600D03*
X86902000Y-111457600D03*
X104902000Y-112407600D03*
X105852000Y-112407600D03*
X105852000Y-111457600D03*
X104902000Y-111457600D03*
X104902000Y-125407600D03*
X105852000Y-125407600D03*
X105852000Y-124457600D03*
X104902000Y-124457600D03*
X148845200Y-146997000D03*
X149795200Y-146997000D03*
X149795200Y-146047000D03*
X148845200Y-146047000D03*
X166845200Y-146997000D03*
X167795200Y-146997000D03*
X167795200Y-146047000D03*
X166845200Y-146047000D03*
X166845200Y-133997000D03*
X167795200Y-133997000D03*
X167795200Y-133047000D03*
X166845200Y-133047000D03*
X148845200Y-133997000D03*
X149795200Y-133997000D03*
X149795200Y-133047000D03*
X148845200Y-133047000D03*
D14*
X132144200Y-136448800D03*
X132944200Y-136448800D03*
X133744200Y-136448800D03*
X134544200Y-136448800D03*
X135344200Y-136448800D03*
X136144200Y-136448800D03*
X136944200Y-136448800D03*
X137744200Y-136448800D03*
X138544200Y-136448800D03*
X139344200Y-136448800D03*
X140144200Y-136448800D03*
D15*
X141044200Y-135348800D03*
X141044200Y-134548800D03*
X141044200Y-133748800D03*
X141044200Y-132948800D03*
X141044200Y-132148800D03*
X141044200Y-131348800D03*
X141044200Y-130548800D03*
X141044200Y-129748800D03*
X141044200Y-128948800D03*
X141044200Y-128148800D03*
X141044200Y-127348800D03*
X141044200Y-126548800D03*
X141044200Y-125748800D03*
D14*
X140144200Y-124648800D03*
X139344200Y-124648800D03*
X138544200Y-124648800D03*
X137744200Y-124648800D03*
X136944200Y-124648800D03*
X136144200Y-124648800D03*
X135344200Y-124648800D03*
X134544200Y-124648800D03*
X133744200Y-124648800D03*
X132944200Y-124648800D03*
X132144200Y-124648800D03*
D15*
X131244200Y-125748800D03*
X131244200Y-126548800D03*
X131244200Y-127348800D03*
X131244200Y-128148800D03*
X131244200Y-128948800D03*
X131244200Y-129748800D03*
X131244200Y-130548800D03*
X131244200Y-131348800D03*
X131244200Y-132148800D03*
X131244200Y-132948800D03*
X131244200Y-133748800D03*
X131244200Y-134548800D03*
X131244200Y-135348800D03*
D16*
X136144200Y-130548800D03*
D17*
X131194200Y-124598800D03*
X141094200Y-124598800D03*
X141094200Y-136498800D03*
X131194200Y-136498800D03*
D16*
X136144200Y-132498800D03*
X138094200Y-132498800D03*
X138094200Y-130548800D03*
X138094200Y-128598800D03*
X136144200Y-128598800D03*
X134194200Y-128598800D03*
X134194200Y-130548800D03*
D18*
X113227302Y-110726102D03*
X113227302Y-111726102D03*
X113227302Y-112726102D03*
X113227302Y-113726102D03*
X113227302Y-114726102D03*
X118727302Y-114726102D03*
X118727302Y-113726102D03*
X118727302Y-112726102D03*
X118727302Y-111726102D03*
X118727302Y-110726102D03*
D19*
X115977302Y-112726102D03*
D20*
X134950900Y-104909294D03*
X134950900Y-104219294D03*
D21*
X134454600Y-138226800D03*
X136004600Y-138226800D03*
D22*
X118314100Y-126547002D03*
X116764100Y-126547002D03*
D21*
X143678194Y-121060800D03*
X145228194Y-121060800D03*
D23*
X142047400Y-103073200D03*
X142737400Y-103073200D03*
D24*
X170738456Y-135352081D03*
X170738456Y-137077081D03*
X95317457Y-130017891D03*
X95317457Y-131742891D03*
D25*
X141236700Y-108179894D03*
X141236700Y-109139894D03*
D26*
X141938323Y-121038129D03*
X141938323Y-122588129D03*
D27*
X164774000Y-113688000D03*
X164774000Y-116388000D03*
D20*
X134251700Y-111189294D03*
X134251700Y-110499294D03*
D28*
X143471900Y-111197294D03*
X143471900Y-110237294D03*
X142151100Y-109137294D03*
X142151100Y-108177294D03*
D25*
X138747500Y-108179894D03*
X138747500Y-109139894D03*
D20*
X164088200Y-111369800D03*
X164088200Y-110679800D03*
D29*
X156798400Y-112231600D03*
X156798400Y-110681600D03*
D23*
X153328200Y-109274000D03*
X154018200Y-109274000D03*
D30*
X154356400Y-110163000D03*
X153396400Y-110163000D03*
D31*
X159237200Y-120476000D03*
X159237200Y-123776000D03*
D32*
X122758200Y-109392400D03*
X122758200Y-111892400D03*
D33*
X96741205Y-141917846D03*
X97241205Y-141917846D03*
X97741205Y-141917846D03*
X98241205Y-141917846D03*
X98741205Y-141917846D03*
X99241205Y-141917846D03*
X99741205Y-141917846D03*
X100241205Y-141917846D03*
X100741205Y-141917846D03*
X101241205Y-141917846D03*
X101741205Y-141917846D03*
X102241205Y-141917846D03*
X102741205Y-141917846D03*
X103241205Y-141917846D03*
D34*
X94841205Y-145167846D03*
X105141205Y-145167846D03*
D35*
X159237200Y-117025600D03*
X159237200Y-118925600D03*
X161112200Y-117975600D03*
X154565900Y-116070600D03*
X154565900Y-117970600D03*
X156440900Y-117020600D03*
D36*
X124546600Y-110556100D03*
X125196600Y-110556100D03*
X125846600Y-110556100D03*
X125846600Y-108656100D03*
X125196600Y-108656100D03*
X124546600Y-108656100D03*
X127391400Y-110556100D03*
X128041400Y-110556100D03*
X128691400Y-110556100D03*
X128691400Y-108656100D03*
X128041400Y-108656100D03*
X127391400Y-108656100D03*
D37*
X150418800Y-126290800D03*
X150418800Y-125270800D03*
D38*
X120019023Y-116537301D03*
X120019023Y-117227301D03*
D39*
X95427000Y-127532600D03*
X97327000Y-127532600D03*
X96377000Y-125032600D03*
X105477000Y-119382600D03*
X105477000Y-117482600D03*
X102977000Y-118432600D03*
X157370200Y-149122000D03*
X159270200Y-149122000D03*
X158320200Y-146622000D03*
X167420200Y-140972000D03*
X167420200Y-139072000D03*
X164920200Y-140022000D03*
D40*
X135348200Y-111508094D03*
X135348200Y-111908094D03*
X135348200Y-112308094D03*
X135348200Y-112708094D03*
X135348200Y-113108094D03*
X135348200Y-113508094D03*
X135348200Y-113908094D03*
X135348200Y-114308094D03*
X135348200Y-114708094D03*
X135348200Y-115108094D03*
X135348200Y-115508094D03*
X135348200Y-115908094D03*
X135348200Y-116308094D03*
X135348200Y-116708094D03*
D41*
X136185700Y-117545594D03*
X136585700Y-117545594D03*
X136985700Y-117545594D03*
X137385700Y-117545594D03*
X137785700Y-117545594D03*
X138185700Y-117545594D03*
X138585700Y-117545594D03*
X138985700Y-117545594D03*
X139385700Y-117545594D03*
X139785700Y-117545594D03*
X140185700Y-117545594D03*
X140585700Y-117545594D03*
X140985700Y-117545594D03*
X141385700Y-117545594D03*
D40*
X142223200Y-116708094D03*
X142223200Y-116308094D03*
X142223200Y-115908094D03*
X142223200Y-115508094D03*
X142223200Y-115108094D03*
X142223200Y-114708094D03*
X142223200Y-114308094D03*
X142223200Y-113908094D03*
X142223200Y-113508094D03*
X142223200Y-113108094D03*
X142223200Y-112708094D03*
X142223200Y-112308094D03*
X142223200Y-111908094D03*
X142223200Y-111508094D03*
D41*
X141385700Y-110670594D03*
X140985700Y-110670594D03*
X140585700Y-110670594D03*
X140185700Y-110670594D03*
X139785700Y-110670594D03*
X139385700Y-110670594D03*
X138985700Y-110670594D03*
X138585700Y-110670594D03*
X138185700Y-110670594D03*
X137785700Y-110670594D03*
X137385700Y-110670594D03*
X136985700Y-110670594D03*
X136585700Y-110670594D03*
X136185700Y-110670594D03*
D42*
X137985700Y-113308094D03*
X137985700Y-114908094D03*
X139585700Y-113308094D03*
X139585700Y-114908094D03*
D43*
X111750200Y-127791700D03*
X112400200Y-127791700D03*
X113050200Y-127791700D03*
X113700200Y-127791700D03*
X113700200Y-123566700D03*
X113050200Y-123566700D03*
X112400200Y-123566700D03*
X111750200Y-123566700D03*
D44*
X137807000Y-104688000D03*
D45*
X138307000Y-104688000D03*
X138807000Y-104688000D03*
D44*
X139307000Y-104688000D03*
D46*
X139457000Y-104013000D03*
D44*
X139307000Y-103338000D03*
D45*
X138807000Y-103338000D03*
X138307000Y-103338000D03*
D44*
X137807000Y-103338000D03*
D46*
X137657000Y-104013000D03*
D47*
X134949500Y-108081894D03*
X135449500Y-108081894D03*
X135949500Y-108081894D03*
X136449500Y-108081894D03*
X136449500Y-105681894D03*
X135949500Y-105681894D03*
X135449500Y-105681894D03*
X134949500Y-105681894D03*
D48*
X135699500Y-106881894D03*
D49*
X162636200Y-113693200D03*
D50*
X160786200Y-112193200D03*
D49*
X162636200Y-110693200D03*
X158936200Y-110693200D03*
X158936200Y-113693200D03*
D51*
X90415011Y-138245882D03*
X89725011Y-138245882D03*
D52*
X127208519Y-102740000D03*
D53*
X128483519Y-102740000D03*
D52*
X129758519Y-102740000D03*
D54*
X126583519Y-100840000D03*
X130383519Y-100840000D03*
D20*
X153166600Y-116588800D03*
X153166600Y-115898800D03*
D38*
X139611100Y-108518094D03*
X139611100Y-109208094D03*
D55*
X152024400Y-107467400D03*
X149524400Y-107467400D03*
D26*
X120018689Y-123258755D03*
X120018689Y-124808755D03*
D20*
X153725400Y-121861400D03*
X153725400Y-121171400D03*
X170739623Y-139313477D03*
X170739623Y-138623477D03*
D23*
X142782000Y-133583600D03*
X143472000Y-133583600D03*
D56*
X163312504Y-150698757D03*
X161587504Y-150698757D03*
D57*
X147791500Y-107289600D03*
X144816500Y-107289600D03*
D51*
X127685800Y-111612700D03*
X126995800Y-111612700D03*
D58*
X157025100Y-121450400D03*
X157025100Y-119550400D03*
X155150100Y-120500400D03*
D23*
X125181800Y-111612700D03*
X125871800Y-111612700D03*
D59*
X147441600Y-112649000D03*
X149941600Y-112649000D03*
D57*
X147791500Y-105054400D03*
X144816500Y-105054400D03*
D55*
X152049800Y-105537000D03*
X149549800Y-105537000D03*
D38*
X141274800Y-103083800D03*
X141274800Y-103773800D03*
D23*
X125156400Y-107599500D03*
X125846400Y-107599500D03*
D51*
X143472000Y-134396400D03*
X142782000Y-134396400D03*
D38*
X152963400Y-121171400D03*
X152963400Y-121861400D03*
D23*
X116118023Y-119981101D03*
X116808023Y-119981101D03*
D57*
X157041700Y-123393200D03*
X154066700Y-123393200D03*
D38*
X140322300Y-108518094D03*
X140322300Y-109208094D03*
D60*
X107418809Y-119497056D03*
X109143809Y-119497056D03*
D35*
X116744723Y-116922901D03*
X116744723Y-118822901D03*
X118619723Y-117872901D03*
D23*
X136713400Y-101752400D03*
X137403400Y-101752400D03*
D20*
X134975600Y-109589094D03*
X134975600Y-108899094D03*
D23*
X116107423Y-115764701D03*
X116797423Y-115764701D03*
D61*
X138595100Y-119236494D03*
X138595100Y-120436494D03*
X138595100Y-121636494D03*
D51*
X136666800Y-103505000D03*
X135976800Y-103505000D03*
D23*
X159300629Y-150847756D03*
X159990629Y-150847756D03*
D58*
X114708123Y-118822901D03*
X114708123Y-116922901D03*
X112833123Y-117872901D03*
D51*
X133898200Y-123266200D03*
X133208200Y-123266200D03*
D62*
X130435400Y-112119800D03*
X131235400Y-112119800D03*
X130435400Y-109469800D03*
X131235400Y-109469800D03*
D23*
X108340401Y-117977059D03*
X109030401Y-117977059D03*
D25*
X143065500Y-108177294D03*
X143065500Y-109137294D03*
D20*
X140703300Y-121146094D03*
X140703300Y-120456094D03*
D38*
X120225902Y-113711302D03*
X120225902Y-114401302D03*
D51*
X127649800Y-107599500D03*
X126959800Y-107599500D03*
D63*
X141210000Y-98835000D03*
X140710000Y-98835000D03*
X140210000Y-98835000D03*
X139710000Y-98835000D03*
X139210000Y-98835000D03*
X138710000Y-98835000D03*
X138210000Y-98835000D03*
X137710000Y-98835000D03*
X137210000Y-98835000D03*
X136710000Y-98835000D03*
X136210000Y-98835000D03*
X135710000Y-98835000D03*
D43*
X142865200Y-130915900D03*
X143515200Y-130915900D03*
X144165200Y-130915900D03*
X144815200Y-130915900D03*
X144815200Y-126690900D03*
X144165200Y-126690900D03*
X143515200Y-126690900D03*
X142865200Y-126690900D03*
D62*
X132861000Y-118385200D03*
X132061000Y-118385200D03*
X132861000Y-121035200D03*
X132061000Y-121035200D03*
D23*
X128407600Y-107599500D03*
X129097600Y-107599500D03*
D20*
X140220700Y-119689294D03*
X140220700Y-118999294D03*
D38*
X96933652Y-130907363D03*
X96933652Y-131597363D03*
D20*
X133248400Y-138546400D03*
X133248400Y-137856400D03*
D23*
X128418200Y-111612700D03*
X129108200Y-111612700D03*
X151118400Y-111864800D03*
X151808400Y-111864800D03*
D38*
X157840200Y-117005800D03*
X157840200Y-117695800D03*
X132257800Y-103693400D03*
X132257800Y-104383400D03*
D20*
X153166600Y-118062000D03*
X153166600Y-117372000D03*
D22*
X162932800Y-115495200D03*
X161382800Y-115495200D03*
D23*
X141031400Y-102311200D03*
X141721400Y-102311200D03*
D51*
X135371400Y-123266200D03*
X134681400Y-123266200D03*
M02*
