M48
; DRILL file {KiCad 8.0.2} date 2025-02-05T20:19:19-0800
; FORMAT={-:-/ absolute / inch / decimal}
; #@! TF.CreationDate,2025-02-05T20:19:19-08:00
; #@! TF.GenerationSoftware,Kicad,Pcbnew,8.0.2
; #@! TF.FileFunction,Plated,1,4,PTH
FMAT,2
INCH
; #@! TA.AperFunction,Plated,PTH,ViaDrill
T1C0.0138
; #@! TA.AperFunction,Plated,PTH,ViaDrill
T2C0.0157
; #@! TA.AperFunction,Plated,PTH,ComponentDrill
T3C0.0157
; #@! TA.AperFunction,Plated,PTH,ComponentDrill
T4C0.0197
; #@! TA.AperFunction,Plated,PTH,ComponentDrill
T5C0.0315
; #@! TA.AperFunction,Plated,PTH,ComponentDrill
T6C0.0354
; #@! TA.AperFunction,Plated,PTH,ViaDrill
T7C0.0394
; #@! TA.AperFunction,Plated,PTH,ComponentDrill
T8C0.0394
; #@! TA.AperFunction,Plated,PTH,ComponentDrill
T9C0.0472
%
G90
G05
T1
X3.3909Y-5.1717
X3.48Y-4.473
X3.485Y-4.983
X3.7634Y-5.461
X3.7681Y-5.5031
X4.081Y-4.94
X4.176Y-4.472
X4.177Y-4.982
X4.401Y-5.718
X4.439Y-4.4193
X4.4606Y-4.5315
X4.4882Y-4.687
X4.4936Y-4.7476
X4.5079Y-4.8524
X4.5413Y-4.4626
X4.546Y-4.5945
X4.5709Y-4.3622
X4.612Y-5.649
X4.6339Y-4.7028
X4.6535Y-4.6358
X4.6594Y-4.7697
X4.6594Y-4.8406
X4.6673Y-4.4409
X4.671Y-5.725
X4.678Y-5.46
X4.7047Y-4.5787
X4.732Y-4.781
X4.7323Y-4.5315
X4.7618Y-4.5138
X4.8Y-5.313
X4.81Y-5.352
X4.834Y-5.594
X4.838Y-5.313
X4.873Y-5.53
X4.873Y-5.568
X4.8816Y-4.7909
X4.891Y-4.2362
X5.0253Y-4.1053
X5.04Y-4.2162
X5.1043Y-4.4291
X5.1535Y-5.3839
X5.1575Y-4.9961
X5.185Y-4.0728
X5.2028Y-4.0413
X5.2199Y-4.4115
X5.2202Y-4.3788
X5.2323Y-4.3406
X5.254Y-4.3673
X5.2717Y-5.378
X5.284Y-4.182
X5.2865Y-4.2259
X5.3116Y-3.9695
X5.3175Y-3.9355
X5.3307Y-5.376
X5.3429Y-3.9822
X5.3643Y-4.0461
X5.3656Y-3.9461
X5.372Y-4.532
X5.3799Y-4.75
X5.3898Y-5.378
X5.3965Y-4.5886
X5.4159Y-4.4437
X5.4333Y-4.016
X5.4413Y-4.2304
X5.4415Y-4.194
X5.4544Y-4.0913
X5.4575Y-4.5859
X5.4756Y-4.0155
X5.4941Y-5.1831
X5.495Y-5.3871
X5.4985Y-4.5839
X5.5336Y-4.3969
X5.535Y-3.956
X5.556Y-4.556
X5.5669Y-4.1043
X5.5748Y-4.8973
X5.61Y-4.925
X5.6142Y-4.6937
X5.6358Y-4.7346
X5.6417Y-5.1555
X5.6499Y-4.541
X5.6594Y-4.1083
X5.665Y-4.293
X5.6732Y-5.2756
X5.6736Y-4.2587
X5.6783Y-4.3695
X5.6865Y-4.5343
X5.6883Y-4.4286
X5.6988Y-4.3425
X5.6988Y-5.1654
X5.7111Y-4.5092
X5.7165Y-4.4456
X5.7609Y-5.189
X5.7717Y-4.4665
X5.7736Y-4.4291
X5.7756Y-4.5787
X5.7776Y-5.1614
X5.787Y-5.461
X5.787Y-5.497
X5.824Y-4.079
X5.8484Y-4.6713
X5.8563Y-5.0256
X5.882Y-4.151
X5.888Y-4.24
X5.9567Y-4.6102
X5.9626Y-4.876
X5.9783Y-4.5256
X5.9853Y-4.2979
X6.008Y-5.068
X6.0086Y-4.3733
X6.0217Y-4.8878
X6.026Y-5.006
X6.0287Y-4.7567
X6.0394Y-4.5256
X6.1434Y-4.3357
X6.198Y-4.1598
X6.309Y-5.653
X6.36Y-5.702
X6.409Y-5.649
X6.442Y-5.427
X6.598Y-5.697
X6.647Y-5.466
X6.805Y-5.251
X6.852Y-5.568
X6.856Y-5.215
X6.863Y-5.395
X6.864Y-5.604
X6.992Y-5.604
X7.116Y-5.746
X7.433Y-5.48
X7.46Y-5.524
X7.47Y-5.567
T2
X3.302Y-5.328
X3.5161Y-5.2492
X3.6756Y-5.3417
X3.7157Y-5.348
X4.345Y-5.553
X4.345Y-5.623
X4.449Y-5.477
X4.748Y-4.132
X4.834Y-4.358
X4.849Y-4.131
X4.948Y-4.123
X5.007Y-4.1941
X5.126Y-4.1907
X5.235Y-3.932
X5.2457Y-5.7902
X5.415Y-5.7949
X5.5713Y-5.7949
X5.6079Y-4.0067
X5.613Y-3.963
X5.7215Y-4.1852
X5.7311Y-5.7358
X5.947Y-5.287
X5.947Y-5.809
X6.0101Y-4.3371
X6.0988Y-4.2028
X6.1232Y-4.4462
X6.2119Y-4.3579
X6.2227Y-4.542
X6.2837Y-4.41
X6.3464Y-4.4098
X6.3811Y-4.5083
X6.3849Y-4.3496
X6.505Y-4.419
X6.608Y-5.315
X6.656Y-5.794
X7.313Y-5.523
T3
X5.3409Y-3.8435
X5.3567Y-3.8159
X5.3882Y-3.8159
X5.4039Y-3.8435
X5.4197Y-3.8159
X5.4354Y-3.8435
X5.4669Y-3.8435
X5.4827Y-3.8159
X5.4984Y-3.8435
X5.5142Y-3.8159
X5.5457Y-3.8159
X5.5614Y-3.8435
T5
X3.2602Y-5.524
X3.339Y-5.524
X3.4177Y-5.524
X3.4965Y-5.524
X4.7606Y-3.946
X4.8394Y-3.946
T6
X3.3948Y-4.5347
X3.3948Y-4.7907
X3.5719Y-4.5347
X3.5719Y-4.7907
X5.8335Y-5.3847
X5.8335Y-5.6406
X6.0106Y-5.3847
X6.0106Y-5.6406
T7
X5.771Y-4.034
X5.8753Y-4.034
X5.9797Y-4.034
X6.084Y-4.034
T8
X3.6959Y-5.0052
X3.7944Y-5.0052
X3.8928Y-5.0052
X4.1369Y-4.5643
X4.1369Y-4.6627
X4.1369Y-4.7611
X6.1347Y-5.8552
X6.2331Y-5.8552
X6.3315Y-5.8552
X6.5756Y-5.4143
X6.5756Y-5.5127
X6.5756Y-5.6111
T9
X3.5975Y-4.4137
X3.5975Y-4.9117
X3.6072Y-5.3323
X3.7693Y-5.3311
X3.9912Y-4.4137
X3.9912Y-4.9117
X6.0362Y-5.2637
X6.0362Y-5.7617
X6.4299Y-5.2637
X6.4299Y-5.7617
X6.966Y-5.7489
X7.266Y-5.7479
T4
G00X5.2744Y-3.6589
M15
G01X5.2744Y-3.6352
M16
G05
G00X5.2886Y-3.8317
M15
G01X5.2886Y-3.8081
M16
G05
G00X5.6138Y-3.8317
M15
G01X5.6138Y-3.8081
M16
G05
G00X5.628Y-3.6589
M15
G01X5.628Y-3.6352
M16
G05
M30
