G04 #@! TF.GenerationSoftware,KiCad,Pcbnew,8.0.2*
G04 #@! TF.CreationDate,2025-02-05T20:19:13-08:00*
G04 #@! TF.ProjectId,progcc_3.3_main,70726f67-6363-45f3-932e-335f6d61696e,1*
G04 #@! TF.SameCoordinates,Original*
G04 #@! TF.FileFunction,Soldermask,Top*
G04 #@! TF.FilePolarity,Negative*
%FSLAX46Y46*%
G04 Gerber Fmt 4.6, Leading zero omitted, Abs format (unit mm)*
G04 Created by KiCad (PCBNEW 8.0.2) date 2025-02-05 20:19:13*
%MOMM*%
%LPD*%
G01*
G04 APERTURE LIST*
G04 Aperture macros list*
%AMRoundRect*
0 Rectangle with rounded corners*
0 $1 Rounding radius*
0 $2 $3 $4 $5 $6 $7 $8 $9 X,Y pos of 4 corners*
0 Add a 4 corners polygon primitive as box body*
4,1,4,$2,$3,$4,$5,$6,$7,$8,$9,$2,$3,0*
0 Add four circle primitives for the rounded corners*
1,1,$1+$1,$2,$3*
1,1,$1+$1,$4,$5*
1,1,$1+$1,$6,$7*
1,1,$1+$1,$8,$9*
0 Add four rect primitives between the rounded corners*
20,1,$1+$1,$2,$3,$4,$5,0*
20,1,$1+$1,$4,$5,$6,$7,0*
20,1,$1+$1,$6,$7,$8,$9,0*
20,1,$1+$1,$8,$9,$2,$3,0*%
G04 Aperture macros list end*
%ADD10C,1.050000*%
%ADD11C,0.025000*%
%ADD12C,0.010000*%
%ADD13RoundRect,0.100000X-0.130000X-0.100000X0.130000X-0.100000X0.130000X0.100000X-0.130000X0.100000X0*%
%ADD14RoundRect,0.250000X-0.250000X-0.475000X0.250000X-0.475000X0.250000X0.475000X-0.250000X0.475000X0*%
%ADD15O,0.400000X0.900000*%
%ADD16R,0.950000X1.700000*%
%ADD17R,0.900000X1.700000*%
%ADD18R,1.200000X0.600000*%
%ADD19RoundRect,0.100000X-0.100000X0.130000X-0.100000X-0.130000X0.100000X-0.130000X0.100000X0.130000X0*%
%ADD20RoundRect,0.150000X-0.150000X-0.200000X0.150000X-0.200000X0.150000X0.200000X-0.150000X0.200000X0*%
%ADD21R,0.370000X0.370000*%
%ADD22RoundRect,0.100000X0.100000X-0.130000X0.100000X0.130000X-0.100000X0.130000X-0.100000X-0.130000X0*%
%ADD23RoundRect,0.250000X0.475000X-0.250000X0.475000X0.250000X-0.475000X0.250000X-0.475000X-0.250000X0*%
%ADD24RoundRect,0.225000X-0.250000X0.225000X-0.250000X-0.225000X0.250000X-0.225000X0.250000X0.225000X0*%
%ADD25R,0.400000X0.650000*%
%ADD26RoundRect,0.225000X0.225000X0.250000X-0.225000X0.250000X-0.225000X-0.250000X0.225000X-0.250000X0*%
%ADD27RoundRect,0.250000X0.250000X0.250000X-0.250000X0.250000X-0.250000X-0.250000X0.250000X-0.250000X0*%
%ADD28RoundRect,0.100000X0.130000X0.100000X-0.130000X0.100000X-0.130000X-0.100000X0.130000X-0.100000X0*%
%ADD29R,2.000000X2.000000*%
%ADD30RoundRect,0.050000X-0.387500X-0.050000X0.387500X-0.050000X0.387500X0.050000X-0.387500X0.050000X0*%
%ADD31RoundRect,0.050000X-0.050000X-0.387500X0.050000X-0.387500X0.050000X0.387500X-0.050000X0.387500X0*%
%ADD32R,3.200000X3.200000*%
%ADD33RoundRect,0.093750X-0.093750X0.156250X-0.093750X-0.156250X0.093750X-0.156250X0.093750X0.156250X0*%
%ADD34RoundRect,0.075000X-0.075000X0.250000X-0.075000X-0.250000X0.075000X-0.250000X0.075000X0.250000X0*%
%ADD35C,1.500000*%
%ADD36RoundRect,0.250000X-0.250000X-0.250000X0.250000X-0.250000X0.250000X0.250000X-0.250000X0.250000X0*%
%ADD37RoundRect,0.093750X0.093750X-0.156250X0.093750X0.156250X-0.093750X0.156250X-0.093750X-0.156250X0*%
%ADD38RoundRect,0.075000X0.075000X-0.250000X0.075000X0.250000X-0.075000X0.250000X-0.075000X-0.250000X0*%
%ADD39RoundRect,0.150000X0.150000X0.200000X-0.150000X0.200000X-0.150000X-0.200000X0.150000X-0.200000X0*%
%ADD40RoundRect,0.140000X-0.170000X0.140000X-0.170000X-0.140000X0.170000X-0.140000X0.170000X0.140000X0*%
%ADD41RoundRect,0.150000X-0.587500X-0.150000X0.587500X-0.150000X0.587500X0.150000X-0.587500X0.150000X0*%
%ADD42C,0.230000*%
%ADD43RoundRect,0.102000X-0.250000X-0.500000X0.250000X-0.500000X0.250000X0.500000X-0.250000X0.500000X0*%
%ADD44RoundRect,0.102000X-0.600000X-0.850000X0.600000X-0.850000X0.600000X0.850000X-0.600000X0.850000X0*%
%ADD45R,0.300000X0.400000*%
%ADD46R,1.600000X0.200000*%
%ADD47RoundRect,0.225000X-0.225000X-0.250000X0.225000X-0.250000X0.225000X0.250000X-0.225000X0.250000X0*%
%ADD48RoundRect,0.250000X-0.450000X-0.425000X0.450000X-0.425000X0.450000X0.425000X-0.450000X0.425000X0*%
%ADD49R,1.350000X1.350000*%
%ADD50O,1.350000X1.350000*%
%ADD51R,1.400000X1.200000*%
%ADD52RoundRect,0.140000X0.140000X0.170000X-0.140000X0.170000X-0.140000X-0.170000X0.140000X-0.170000X0*%
%ADD53C,2.450000*%
%ADD54C,1.600000*%
%ADD55C,1.250000*%
%ADD56C,2.000000*%
%ADD57R,0.500000X0.550000*%
%ADD58R,0.565000X0.200000*%
%ADD59R,0.565000X0.400000*%
%ADD60RoundRect,0.150000X0.587500X0.150000X-0.587500X0.150000X-0.587500X-0.150000X0.587500X-0.150000X0*%
%ADD61R,1.000000X2.000000*%
%ADD62R,2.000000X1.000000*%
%ADD63RoundRect,0.140000X-0.140000X-0.170000X0.140000X-0.170000X0.140000X0.170000X-0.140000X0.170000X0*%
%ADD64R,0.300000X1.300000*%
%ADD65R,1.800000X2.200000*%
%ADD66C,0.700000*%
%ADD67R,0.300000X0.900000*%
%ADD68C,0.650000*%
%ADD69O,1.000000X1.600000*%
%ADD70RoundRect,0.150000X-0.200000X0.150000X-0.200000X-0.150000X0.200000X-0.150000X0.200000X0.150000X0*%
%ADD71R,0.745000X0.280000*%
%ADD72R,0.280000X0.745000*%
%ADD73RoundRect,0.150000X0.200000X-0.150000X0.200000X0.150000X-0.200000X0.150000X-0.200000X-0.150000X0*%
%ADD74RoundRect,0.250000X-0.375000X-0.850000X0.375000X-0.850000X0.375000X0.850000X-0.375000X0.850000X0*%
%ADD75RoundRect,0.250000X-0.250000X0.250000X-0.250000X-0.250000X0.250000X-0.250000X0.250000X0.250000X0*%
%ADD76RoundRect,0.250000X-0.475000X0.250000X-0.475000X-0.250000X0.475000X-0.250000X0.475000X0.250000X0*%
%ADD77RoundRect,0.218750X-0.256250X0.218750X-0.256250X-0.218750X0.256250X-0.218750X0.256250X0.218750X0*%
G04 APERTURE END LIST*
D10*
X149758400Y-102463600D02*
G75*
G02*
X148708400Y-102463600I-525000J0D01*
G01*
X148708400Y-102463600D02*
G75*
G02*
X149758400Y-102463600I525000J0D01*
G01*
X152408400Y-102463600D02*
G75*
G02*
X151358400Y-102463600I-525000J0D01*
G01*
X151358400Y-102463600D02*
G75*
G02*
X152408400Y-102463600I525000J0D01*
G01*
X147108400Y-102463600D02*
G75*
G02*
X146058400Y-102463600I-525000J0D01*
G01*
X146058400Y-102463600D02*
G75*
G02*
X147108400Y-102463600I525000J0D01*
G01*
X155058400Y-102463600D02*
G75*
G02*
X154008400Y-102463600I-525000J0D01*
G01*
X154008400Y-102463600D02*
G75*
G02*
X155058400Y-102463600I525000J0D01*
G01*
D11*
X160727911Y-119284910D02*
X161681866Y-119284910D01*
X161681866Y-119954279D01*
X160095252Y-119954279D01*
X160095252Y-117401107D01*
X160727911Y-117401107D01*
X160727911Y-119284910D01*
G36*
X160727911Y-119284910D02*
G01*
X161681866Y-119284910D01*
X161681866Y-119954279D01*
X160095252Y-119954279D01*
X160095252Y-117401107D01*
X160727911Y-117401107D01*
X160727911Y-119284910D01*
G37*
X157961777Y-119954279D02*
X157280916Y-119954279D01*
X157280916Y-118986157D01*
X157041260Y-118986157D01*
X157041260Y-119954279D01*
X156355960Y-119954279D01*
X156355960Y-117401627D01*
X157038974Y-117401107D01*
X157038974Y-118323909D01*
X157280916Y-118323909D01*
X157280916Y-117401107D01*
X157961777Y-117401107D01*
X157961777Y-119954279D01*
G36*
X157961777Y-119954279D02*
G01*
X157280916Y-119954279D01*
X157280916Y-118986157D01*
X157041260Y-118986157D01*
X157041260Y-119954279D01*
X156355960Y-119954279D01*
X156355960Y-117401627D01*
X157038974Y-117401107D01*
X157038974Y-118323909D01*
X157280916Y-118323909D01*
X157280916Y-117401107D01*
X157961777Y-117401107D01*
X157961777Y-119954279D01*
G37*
X159811777Y-119954279D02*
X159130916Y-119954279D01*
X159130916Y-118986157D01*
X158891260Y-118986157D01*
X158891260Y-119954279D01*
X158205960Y-119954279D01*
X158205960Y-117401627D01*
X158888974Y-117401107D01*
X158888974Y-118323909D01*
X159130916Y-118323909D01*
X159130916Y-117401107D01*
X159811777Y-117401107D01*
X159811777Y-119954279D01*
G36*
X159811777Y-119954279D02*
G01*
X159130916Y-119954279D01*
X159130916Y-118986157D01*
X158891260Y-118986157D01*
X158891260Y-119954279D01*
X158205960Y-119954279D01*
X158205960Y-117401627D01*
X158888974Y-117401107D01*
X158888974Y-118323909D01*
X159130916Y-118323909D01*
X159130916Y-117401107D01*
X159811777Y-117401107D01*
X159811777Y-119954279D01*
G37*
D12*
X159590000Y-110970000D02*
X159210000Y-110970000D01*
X159210000Y-110230000D01*
X159590000Y-110230000D01*
X159590000Y-110970000D01*
G36*
X159590000Y-110970000D02*
G01*
X159210000Y-110970000D01*
X159210000Y-110230000D01*
X159590000Y-110230000D01*
X159590000Y-110970000D01*
G37*
X159590000Y-113770000D02*
X159210000Y-113770000D01*
X159210000Y-113030000D01*
X159590000Y-113030000D01*
X159590000Y-113770000D01*
G36*
X159590000Y-113770000D02*
G01*
X159210000Y-113770000D01*
X159210000Y-113030000D01*
X159590000Y-113030000D01*
X159590000Y-113770000D01*
G37*
X160090000Y-110970000D02*
X159710000Y-110970000D01*
X159710000Y-110230000D01*
X160090000Y-110230000D01*
X160090000Y-110970000D01*
G36*
X160090000Y-110970000D02*
G01*
X159710000Y-110970000D01*
X159710000Y-110230000D01*
X160090000Y-110230000D01*
X160090000Y-110970000D01*
G37*
X160090000Y-113770000D02*
X159710000Y-113770000D01*
X159710000Y-113030000D01*
X160090000Y-113030000D01*
X160090000Y-113770000D01*
G36*
X160090000Y-113770000D02*
G01*
X159710000Y-113770000D01*
X159710000Y-113030000D01*
X160090000Y-113030000D01*
X160090000Y-113770000D01*
G37*
X160590000Y-110970000D02*
X160210000Y-110970000D01*
X160210000Y-110230000D01*
X160590000Y-110230000D01*
X160590000Y-110970000D01*
G36*
X160590000Y-110970000D02*
G01*
X160210000Y-110970000D01*
X160210000Y-110230000D01*
X160590000Y-110230000D01*
X160590000Y-110970000D01*
G37*
X160590000Y-113770000D02*
X160210000Y-113770000D01*
X160210000Y-113030000D01*
X160590000Y-113030000D01*
X160590000Y-113770000D01*
G36*
X160590000Y-113770000D02*
G01*
X160210000Y-113770000D01*
X160210000Y-113030000D01*
X160590000Y-113030000D01*
X160590000Y-113770000D01*
G37*
X161090000Y-110970000D02*
X160710000Y-110970000D01*
X160710000Y-110230000D01*
X161090000Y-110230000D01*
X161090000Y-110970000D01*
G36*
X161090000Y-110970000D02*
G01*
X160710000Y-110970000D01*
X160710000Y-110230000D01*
X161090000Y-110230000D01*
X161090000Y-110970000D01*
G37*
X161090000Y-113770000D02*
X160710000Y-113770000D01*
X160710000Y-113030000D01*
X161090000Y-113030000D01*
X161090000Y-113770000D01*
G36*
X161090000Y-113770000D02*
G01*
X160710000Y-113770000D01*
X160710000Y-113030000D01*
X161090000Y-113030000D01*
X161090000Y-113770000D01*
G37*
X161590000Y-110970000D02*
X161210000Y-110970000D01*
X161210000Y-110230000D01*
X161590000Y-110230000D01*
X161590000Y-110970000D01*
G36*
X161590000Y-110970000D02*
G01*
X161210000Y-110970000D01*
X161210000Y-110230000D01*
X161590000Y-110230000D01*
X161590000Y-110970000D01*
G37*
X161590000Y-113770000D02*
X161210000Y-113770000D01*
X161210000Y-113030000D01*
X161590000Y-113030000D01*
X161590000Y-113770000D01*
G36*
X161590000Y-113770000D02*
G01*
X161210000Y-113770000D01*
X161210000Y-113030000D01*
X161590000Y-113030000D01*
X161590000Y-113770000D01*
G37*
X161670000Y-111555000D02*
X162170000Y-111555000D01*
X162170000Y-111945000D01*
X161670000Y-111945000D01*
X161670000Y-112055000D01*
X162170000Y-112055000D01*
X162170000Y-112445000D01*
X161670000Y-112445000D01*
X161670000Y-112895000D01*
X159130000Y-112895000D01*
X159130000Y-112445000D01*
X158630000Y-112445000D01*
X158630000Y-112055000D01*
X159130000Y-112055000D01*
X159130000Y-111945000D01*
X158630000Y-111945000D01*
X158630000Y-111555000D01*
X159130000Y-111555000D01*
X159130000Y-111105000D01*
X161670000Y-111105000D01*
X161670000Y-111555000D01*
G36*
X161670000Y-111555000D02*
G01*
X162170000Y-111555000D01*
X162170000Y-111945000D01*
X161670000Y-111945000D01*
X161670000Y-112055000D01*
X162170000Y-112055000D01*
X162170000Y-112445000D01*
X161670000Y-112445000D01*
X161670000Y-112895000D01*
X159130000Y-112895000D01*
X159130000Y-112445000D01*
X158630000Y-112445000D01*
X158630000Y-112055000D01*
X159130000Y-112055000D01*
X159130000Y-111945000D01*
X158630000Y-111945000D01*
X158630000Y-111555000D01*
X159130000Y-111555000D01*
X159130000Y-111105000D01*
X161670000Y-111105000D01*
X161670000Y-111555000D01*
G37*
D13*
X85360000Y-137280000D03*
X86000000Y-137280000D03*
D14*
X163320000Y-110770000D03*
X165220000Y-110770000D03*
D15*
X126333519Y-101965000D03*
X130633519Y-101965000D03*
D16*
X127208519Y-102740000D03*
D17*
X128483519Y-102740000D03*
D16*
X129758519Y-102740000D03*
D18*
X126583519Y-100840000D03*
X130383519Y-100840000D03*
D19*
X139611100Y-108543094D03*
X139611100Y-109183094D03*
D20*
X181421000Y-142494000D03*
X180021000Y-142494000D03*
D21*
X166985200Y-133857000D03*
X167655200Y-133857000D03*
X167655200Y-133187000D03*
X166985200Y-133187000D03*
D22*
X118900000Y-118370000D03*
X118900000Y-117730000D03*
D13*
X156120000Y-113670000D03*
X156760000Y-113670000D03*
D23*
X154080000Y-113070000D03*
X154080000Y-111170000D03*
D22*
X170739623Y-139288477D03*
X170739623Y-138648477D03*
D24*
X95317457Y-130105391D03*
X95317457Y-131655391D03*
D25*
X124546600Y-110556100D03*
X125196600Y-110556100D03*
X125846600Y-110556100D03*
X125846600Y-108656100D03*
X125196600Y-108656100D03*
X124546600Y-108656100D03*
D22*
X150418800Y-126100800D03*
X150418800Y-125460800D03*
D20*
X115685800Y-142773400D03*
X114285800Y-142773400D03*
D13*
X120838000Y-141224000D03*
X121478000Y-141224000D03*
D26*
X163225004Y-150698757D03*
X161675004Y-150698757D03*
D21*
X87042000Y-112267600D03*
X87712000Y-112267600D03*
X87712000Y-111597600D03*
X87042000Y-111597600D03*
D27*
X149352626Y-108746930D03*
X146852626Y-108746930D03*
D28*
X127660800Y-111612700D03*
X127020800Y-111612700D03*
D13*
X183931600Y-140411200D03*
X184571600Y-140411200D03*
D28*
X134220000Y-105550000D03*
X133580000Y-105550000D03*
D29*
X176936400Y-146021300D03*
D22*
X113055400Y-141848800D03*
X113055400Y-141208800D03*
D30*
X135348200Y-111508094D03*
X135348200Y-111908094D03*
X135348200Y-112308094D03*
X135348200Y-112708094D03*
X135348200Y-113108094D03*
X135348200Y-113508094D03*
X135348200Y-113908094D03*
X135348200Y-114308094D03*
X135348200Y-114708094D03*
X135348200Y-115108094D03*
X135348200Y-115508094D03*
X135348200Y-115908094D03*
X135348200Y-116308094D03*
X135348200Y-116708094D03*
D31*
X136185700Y-117545594D03*
X136585700Y-117545594D03*
X136985700Y-117545594D03*
X137385700Y-117545594D03*
X137785700Y-117545594D03*
X138185700Y-117545594D03*
X138585700Y-117545594D03*
X138985700Y-117545594D03*
X139385700Y-117545594D03*
X139785700Y-117545594D03*
X140185700Y-117545594D03*
X140585700Y-117545594D03*
X140985700Y-117545594D03*
X141385700Y-117545594D03*
D30*
X142223200Y-116708094D03*
X142223200Y-116308094D03*
X142223200Y-115908094D03*
X142223200Y-115508094D03*
X142223200Y-115108094D03*
X142223200Y-114708094D03*
X142223200Y-114308094D03*
X142223200Y-113908094D03*
X142223200Y-113508094D03*
X142223200Y-113108094D03*
X142223200Y-112708094D03*
X142223200Y-112308094D03*
X142223200Y-111908094D03*
X142223200Y-111508094D03*
D31*
X141385700Y-110670594D03*
X140985700Y-110670594D03*
X140585700Y-110670594D03*
X140185700Y-110670594D03*
X139785700Y-110670594D03*
X139385700Y-110670594D03*
X138985700Y-110670594D03*
X138585700Y-110670594D03*
X138185700Y-110670594D03*
X137785700Y-110670594D03*
X137385700Y-110670594D03*
X136985700Y-110670594D03*
X136585700Y-110670594D03*
X136185700Y-110670594D03*
D32*
X138785700Y-114108094D03*
D33*
X139087500Y-102750000D03*
D34*
X138550000Y-102675000D03*
D33*
X138012500Y-102750000D03*
X138012500Y-104450000D03*
D34*
X138550000Y-104525000D03*
D33*
X139087500Y-104450000D03*
D21*
X105042000Y-125267600D03*
X105712000Y-125267600D03*
X105712000Y-124597600D03*
X105042000Y-124597600D03*
D35*
X145872200Y-106324400D03*
D22*
X142151100Y-108977294D03*
X142151100Y-108337294D03*
D13*
X125206800Y-111612700D03*
X125846800Y-111612700D03*
D36*
X148200000Y-114050000D03*
X150700000Y-114050000D03*
D29*
X91623896Y-135440000D03*
D19*
X175412400Y-139938800D03*
X175412400Y-140578800D03*
D37*
X135725000Y-103600000D03*
D38*
X136262500Y-103675000D03*
D37*
X136800000Y-103600000D03*
X136800000Y-101900000D03*
D38*
X136262500Y-101825000D03*
D37*
X135725000Y-101900000D03*
D21*
X143746226Y-149724357D03*
X144416226Y-149724357D03*
X144416226Y-149054357D03*
X143746226Y-149054357D03*
D27*
X153599200Y-107238800D03*
X151099200Y-107238800D03*
D39*
X182738800Y-142494000D03*
X184138800Y-142494000D03*
D40*
X114500000Y-124870000D03*
X114500000Y-125830000D03*
D22*
X134251700Y-111164294D03*
X134251700Y-110524294D03*
D41*
X178005500Y-139015300D03*
X178005500Y-140915300D03*
X179880500Y-139965300D03*
D35*
X123164600Y-104927400D03*
D13*
X125181400Y-107599500D03*
X125821400Y-107599500D03*
D22*
X176326800Y-140807400D03*
X176326800Y-140167400D03*
X93268800Y-134762200D03*
X93268800Y-134122200D03*
D19*
X120853200Y-142275600D03*
X120853200Y-142915600D03*
D13*
X156120000Y-112140000D03*
X156760000Y-112140000D03*
D28*
X115566855Y-119144024D03*
X114926855Y-119144024D03*
D19*
X140322300Y-108543094D03*
X140322300Y-109183094D03*
X94056200Y-134122200D03*
X94056200Y-134762200D03*
D42*
X151288800Y-109969400D03*
X151688800Y-109969400D03*
X151288800Y-110369400D03*
X151688800Y-110369400D03*
X151288800Y-110769400D03*
X151688800Y-110769400D03*
X151288800Y-111169400D03*
X151688800Y-111169400D03*
D43*
X91840000Y-138495000D03*
X92640000Y-138495000D03*
D44*
X90540000Y-140445000D03*
X93940000Y-140445000D03*
D45*
X134949500Y-108081894D03*
X135449500Y-108081894D03*
X135949500Y-108081894D03*
X136449500Y-108081894D03*
X136449500Y-105681894D03*
X135949500Y-105681894D03*
X135449500Y-105681894D03*
X134949500Y-105681894D03*
D46*
X135699500Y-106881894D03*
D47*
X107506309Y-119497056D03*
X109056309Y-119497056D03*
D43*
X180330000Y-144055000D03*
X181130000Y-144055000D03*
D44*
X179030000Y-146005000D03*
X182430000Y-146005000D03*
D48*
X151304000Y-105130600D03*
X154004000Y-105130600D03*
D21*
X148985200Y-146857000D03*
X149655200Y-146857000D03*
X149655200Y-146187000D03*
X148985200Y-146187000D03*
D19*
X142460000Y-121610000D03*
X142460000Y-122250000D03*
D49*
X82810000Y-140310000D03*
D50*
X84810000Y-140310000D03*
X86810000Y-140310000D03*
X88810000Y-140310000D03*
D22*
X134975600Y-109564094D03*
X134975600Y-108924094D03*
D51*
X138690000Y-122650000D03*
X140890000Y-122650000D03*
X140890000Y-120950000D03*
X138690000Y-120950000D03*
D13*
X143480000Y-133150000D03*
X144120000Y-133150000D03*
D22*
X143471900Y-111037294D03*
X143471900Y-110397294D03*
D21*
X105042000Y-112267600D03*
X105712000Y-112267600D03*
X105712000Y-111597600D03*
X105042000Y-111597600D03*
D24*
X170738456Y-135439581D03*
X170738456Y-136989581D03*
D52*
X138370000Y-119540000D03*
X137410000Y-119540000D03*
D19*
X84175600Y-132329400D03*
X84175600Y-132969400D03*
D21*
X166985200Y-146857000D03*
X167655200Y-146857000D03*
X167655200Y-146187000D03*
X166985200Y-146187000D03*
D25*
X127391400Y-110556100D03*
X128041400Y-110556100D03*
X128691400Y-110556100D03*
X128691400Y-108656100D03*
X128041400Y-108656100D03*
X127391400Y-108656100D03*
D13*
X159325629Y-150847756D03*
X159965629Y-150847756D03*
D22*
X118550000Y-115720000D03*
X118550000Y-115080000D03*
D53*
X153320200Y-133697000D03*
X153320200Y-146347000D03*
D54*
X158320200Y-135722000D03*
X158320200Y-144322000D03*
D53*
X163320200Y-133697000D03*
X163320200Y-146347000D03*
D55*
X152670200Y-136772000D03*
X152670200Y-143272000D03*
X148170200Y-136772000D03*
X148170200Y-143272000D03*
D56*
X155820200Y-148722000D03*
X158320200Y-148722000D03*
X160820200Y-148722000D03*
X167020200Y-142522000D03*
X167020200Y-140022000D03*
X167020200Y-137522000D03*
D13*
X137280000Y-140800000D03*
X137920000Y-140800000D03*
D19*
X148570432Y-112053571D03*
X148570432Y-112693571D03*
D57*
X130435400Y-112119800D03*
X131235400Y-112119800D03*
X130435400Y-109469800D03*
X131235400Y-109469800D03*
D13*
X181315400Y-141300200D03*
X181955400Y-141300200D03*
X108365401Y-117977059D03*
X109005401Y-117977059D03*
D28*
X113370000Y-111100000D03*
X112730000Y-111100000D03*
D19*
X143065500Y-108337294D03*
X143065500Y-108977294D03*
D13*
X153353200Y-109274000D03*
X153993200Y-109274000D03*
D28*
X141840000Y-119420000D03*
X141200000Y-119420000D03*
D58*
X115483000Y-121050000D03*
X115483000Y-121550000D03*
D59*
X115483000Y-122050000D03*
D58*
X115483000Y-122550000D03*
X115483000Y-123050000D03*
X116317000Y-123050000D03*
X116317000Y-122550000D03*
D59*
X116317000Y-122050000D03*
D58*
X116317000Y-121550000D03*
X116317000Y-121050000D03*
D60*
X119301500Y-143088400D03*
X119301500Y-141188400D03*
X117426500Y-142138400D03*
D13*
X182788600Y-141300200D03*
X183428600Y-141300200D03*
D19*
X138747500Y-108339894D03*
X138747500Y-108979894D03*
D49*
X122920000Y-100228400D03*
D50*
X120920000Y-100228400D03*
D21*
X135646226Y-149724357D03*
X136316226Y-149724357D03*
X136316226Y-149054357D03*
X135646226Y-149054357D03*
D22*
X118550000Y-114220000D03*
X118550000Y-113580000D03*
D61*
X130900000Y-138425000D03*
X132400000Y-138425000D03*
X133900000Y-138425000D03*
X135400000Y-138425000D03*
X136900000Y-138425000D03*
X138400000Y-138425000D03*
X139900000Y-138425000D03*
D62*
X141200000Y-136175000D03*
X141200000Y-134675000D03*
X141200000Y-133175000D03*
X141200000Y-131675000D03*
X141200000Y-130175000D03*
X141200000Y-128675000D03*
X141200000Y-127175000D03*
D61*
X139900000Y-124925000D03*
X138400000Y-124925000D03*
X136900000Y-124925000D03*
X135400000Y-124925000D03*
X133900000Y-124925000D03*
X132400000Y-124925000D03*
X130900000Y-124925000D03*
D63*
X139290000Y-119540000D03*
X140250000Y-119540000D03*
D35*
X120599200Y-104952800D03*
D19*
X141236700Y-108339894D03*
X141236700Y-108979894D03*
D64*
X96540000Y-141530000D03*
X97040000Y-141530000D03*
X97540000Y-141530000D03*
X98040000Y-141530000D03*
X98540000Y-141530000D03*
X99040000Y-141530000D03*
X99540000Y-141530000D03*
X100040000Y-141530000D03*
X100540000Y-141530000D03*
X101040000Y-141530000D03*
X101540000Y-141530000D03*
X102040000Y-141530000D03*
X102540000Y-141530000D03*
X103040000Y-141530000D03*
D65*
X94640000Y-144780000D03*
X104940000Y-144780000D03*
D35*
X125679200Y-104724200D03*
D19*
X83075375Y-133229089D03*
X83075375Y-133869089D03*
D28*
X127624800Y-107599500D03*
X126984800Y-107599500D03*
D66*
X142060000Y-98275000D03*
X134710000Y-98275000D03*
D67*
X141210000Y-98835000D03*
X140710000Y-98835000D03*
X140210000Y-98835000D03*
X139710000Y-98835000D03*
X139210000Y-98835000D03*
X138710000Y-98835000D03*
X138210000Y-98835000D03*
X137710000Y-98835000D03*
X137210000Y-98835000D03*
X136710000Y-98835000D03*
X136210000Y-98835000D03*
X135710000Y-98835000D03*
D68*
X135660000Y-97625000D03*
X136060000Y-96925000D03*
X136860000Y-96925000D03*
X137260000Y-97625000D03*
X137660000Y-96925000D03*
X138060000Y-97625000D03*
X138860000Y-97625000D03*
X139260000Y-96925000D03*
X139660000Y-97625000D03*
X140060000Y-96925000D03*
X140860000Y-96925000D03*
X141260000Y-97625000D03*
D69*
X142950000Y-92635000D03*
X142590000Y-97025000D03*
X134330000Y-97025000D03*
X133970000Y-92635000D03*
D70*
X181635400Y-139968200D03*
X181635400Y-138568200D03*
D39*
X114285800Y-141300200D03*
X115685800Y-141300200D03*
D13*
X128432600Y-107599500D03*
X129072600Y-107599500D03*
X138710000Y-118630000D03*
X139350000Y-118630000D03*
D19*
X96933652Y-130932363D03*
X96933652Y-131572363D03*
D21*
X87042000Y-125267600D03*
X87712000Y-125267600D03*
X87712000Y-124597600D03*
X87042000Y-124597600D03*
D71*
X116596000Y-113800000D03*
X116596000Y-113300000D03*
X116596000Y-112800000D03*
X116596000Y-112300000D03*
D72*
X115698000Y-111902000D03*
X115198000Y-111902000D03*
X114698000Y-111902000D03*
D71*
X113800000Y-112300000D03*
X113800000Y-112800000D03*
X113800000Y-113300000D03*
X113800000Y-113800000D03*
D72*
X114698000Y-114198000D03*
X115198000Y-114198000D03*
X115698000Y-114198000D03*
D73*
X111785400Y-141590800D03*
X111785400Y-142990800D03*
D13*
X128443200Y-111612700D03*
X129083200Y-111612700D03*
X151143400Y-111864800D03*
X151783400Y-111864800D03*
D37*
X133212500Y-103600000D03*
D38*
X133750000Y-103675000D03*
D37*
X134287500Y-103600000D03*
X134287500Y-101900000D03*
D38*
X133750000Y-101825000D03*
D37*
X133212500Y-101900000D03*
D21*
X131596226Y-149724357D03*
X132266226Y-149724357D03*
X132266226Y-149054357D03*
X131596226Y-149054357D03*
D71*
X114302000Y-116250000D03*
X114302000Y-116750000D03*
X114302000Y-117250000D03*
X114302000Y-117750000D03*
D72*
X115200000Y-118148000D03*
X115700000Y-118148000D03*
X116200000Y-118148000D03*
D71*
X117098000Y-117750000D03*
X117098000Y-117250000D03*
X117098000Y-116750000D03*
X117098000Y-116250000D03*
D72*
X116200000Y-115852000D03*
X115700000Y-115852000D03*
X115200000Y-115852000D03*
D74*
X160015000Y-108340000D03*
X162165000Y-108340000D03*
D19*
X132250000Y-100830000D03*
X132250000Y-101470000D03*
D53*
X91377000Y-112107600D03*
X91377000Y-124757600D03*
D54*
X96377000Y-114132600D03*
X96377000Y-122732600D03*
D53*
X101377000Y-112107600D03*
X101377000Y-124757600D03*
D55*
X90727000Y-115182600D03*
X90727000Y-121682600D03*
X86227000Y-115182600D03*
X86227000Y-121682600D03*
D56*
X93877000Y-127132600D03*
X96377000Y-127132600D03*
X98877000Y-127132600D03*
X105077000Y-120932600D03*
X105077000Y-118432600D03*
X105077000Y-115932600D03*
D28*
X160538077Y-114402950D03*
X159898077Y-114402950D03*
D75*
X122758200Y-109392400D03*
X122758200Y-111892400D03*
D22*
X83003941Y-136079076D03*
X83003941Y-135439076D03*
D13*
X159258348Y-115214226D03*
X159898348Y-115214226D03*
D21*
X148985200Y-133857000D03*
X149655200Y-133857000D03*
X149655200Y-133187000D03*
X148985200Y-133187000D03*
X139696226Y-149724357D03*
X140366226Y-149724357D03*
X140366226Y-149054357D03*
X139696226Y-149054357D03*
D22*
X121894600Y-142915600D03*
X121894600Y-142275600D03*
D29*
X95740000Y-135410000D03*
X184556400Y-145995900D03*
D13*
X175676600Y-138988800D03*
X176316600Y-138988800D03*
D76*
X157782026Y-107324670D03*
X157782026Y-109224670D03*
D13*
X141056400Y-102311200D03*
X141696400Y-102311200D03*
D77*
X143650000Y-125612500D03*
X143650000Y-127187500D03*
D19*
X147815723Y-110808301D03*
X147815723Y-111448301D03*
M02*
