G04 #@! TF.GenerationSoftware,KiCad,Pcbnew,8.0.2*
G04 #@! TF.CreationDate,2025-02-05T20:19:13-08:00*
G04 #@! TF.ProjectId,progcc_3.3_main,70726f67-6363-45f3-932e-335f6d61696e,1*
G04 #@! TF.SameCoordinates,Original*
G04 #@! TF.FileFunction,Paste,Top*
G04 #@! TF.FilePolarity,Positive*
%FSLAX46Y46*%
G04 Gerber Fmt 4.6, Leading zero omitted, Abs format (unit mm)*
G04 Created by KiCad (PCBNEW 8.0.2) date 2025-02-05 20:19:13*
%MOMM*%
%LPD*%
G01*
G04 APERTURE LIST*
G04 Aperture macros list*
%AMRoundRect*
0 Rectangle with rounded corners*
0 $1 Rounding radius*
0 $2 $3 $4 $5 $6 $7 $8 $9 X,Y pos of 4 corners*
0 Add a 4 corners polygon primitive as box body*
4,1,4,$2,$3,$4,$5,$6,$7,$8,$9,$2,$3,0*
0 Add four circle primitives for the rounded corners*
1,1,$1+$1,$2,$3*
1,1,$1+$1,$4,$5*
1,1,$1+$1,$6,$7*
1,1,$1+$1,$8,$9*
0 Add four rect primitives between the rounded corners*
20,1,$1+$1,$2,$3,$4,$5,0*
20,1,$1+$1,$4,$5,$6,$7,0*
20,1,$1+$1,$6,$7,$8,$9,0*
20,1,$1+$1,$8,$9,$2,$3,0*%
G04 Aperture macros list end*
%ADD10C,0.010000*%
%ADD11RoundRect,0.079500X-0.079500X-0.100500X0.079500X-0.100500X0.079500X0.100500X-0.079500X0.100500X0*%
%ADD12RoundRect,0.250000X-0.250000X-0.475000X0.250000X-0.475000X0.250000X0.475000X-0.250000X0.475000X0*%
%ADD13R,0.950000X1.700000*%
%ADD14R,0.900000X1.700000*%
%ADD15R,1.200000X0.600000*%
%ADD16RoundRect,0.079500X-0.100500X0.079500X-0.100500X-0.079500X0.100500X-0.079500X0.100500X0.079500X0*%
%ADD17RoundRect,0.150000X-0.150000X-0.200000X0.150000X-0.200000X0.150000X0.200000X-0.150000X0.200000X0*%
%ADD18R,0.370000X0.370000*%
%ADD19RoundRect,0.079500X0.100500X-0.079500X0.100500X0.079500X-0.100500X0.079500X-0.100500X-0.079500X0*%
%ADD20RoundRect,0.250000X0.475000X-0.250000X0.475000X0.250000X-0.475000X0.250000X-0.475000X-0.250000X0*%
%ADD21RoundRect,0.225000X-0.250000X0.225000X-0.250000X-0.225000X0.250000X-0.225000X0.250000X0.225000X0*%
%ADD22R,0.400000X0.650000*%
%ADD23RoundRect,0.225000X0.225000X0.250000X-0.225000X0.250000X-0.225000X-0.250000X0.225000X-0.250000X0*%
%ADD24RoundRect,0.250000X0.250000X0.250000X-0.250000X0.250000X-0.250000X-0.250000X0.250000X-0.250000X0*%
%ADD25RoundRect,0.079500X0.079500X0.100500X-0.079500X0.100500X-0.079500X-0.100500X0.079500X-0.100500X0*%
%ADD26RoundRect,0.249999X-0.395001X-0.395001X0.395001X-0.395001X0.395001X0.395001X-0.395001X0.395001X0*%
%ADD27RoundRect,0.050000X-0.387500X-0.050000X0.387500X-0.050000X0.387500X0.050000X-0.387500X0.050000X0*%
%ADD28RoundRect,0.050000X-0.050000X-0.387500X0.050000X-0.387500X0.050000X0.387500X-0.050000X0.387500X0*%
%ADD29RoundRect,0.093750X-0.093750X0.156250X-0.093750X-0.156250X0.093750X-0.156250X0.093750X0.156250X0*%
%ADD30RoundRect,0.075000X-0.075000X0.250000X-0.075000X-0.250000X0.075000X-0.250000X0.075000X0.250000X0*%
%ADD31RoundRect,0.250000X-0.250000X-0.250000X0.250000X-0.250000X0.250000X0.250000X-0.250000X0.250000X0*%
%ADD32RoundRect,0.093750X0.093750X-0.156250X0.093750X0.156250X-0.093750X0.156250X-0.093750X-0.156250X0*%
%ADD33RoundRect,0.075000X0.075000X-0.250000X0.075000X0.250000X-0.075000X0.250000X-0.075000X-0.250000X0*%
%ADD34RoundRect,0.150000X0.150000X0.200000X-0.150000X0.200000X-0.150000X-0.200000X0.150000X-0.200000X0*%
%ADD35RoundRect,0.140000X-0.170000X0.140000X-0.170000X-0.140000X0.170000X-0.140000X0.170000X0.140000X0*%
%ADD36RoundRect,0.150000X-0.587500X-0.150000X0.587500X-0.150000X0.587500X0.150000X-0.587500X0.150000X0*%
%ADD37RoundRect,0.007200X-0.112800X0.292800X-0.112800X-0.292800X0.112800X-0.292800X0.112800X0.292800X0*%
%ADD38R,0.500000X1.000000*%
%ADD39R,1.200000X1.700000*%
%ADD40R,0.300000X0.400000*%
%ADD41R,1.600000X0.200000*%
%ADD42RoundRect,0.225000X-0.225000X-0.250000X0.225000X-0.250000X0.225000X0.250000X-0.225000X0.250000X0*%
%ADD43RoundRect,0.250000X-0.450000X-0.425000X0.450000X-0.425000X0.450000X0.425000X-0.450000X0.425000X0*%
%ADD44R,1.400000X1.200000*%
%ADD45RoundRect,0.140000X0.140000X0.170000X-0.140000X0.170000X-0.140000X-0.170000X0.140000X-0.170000X0*%
%ADD46R,0.500000X0.550000*%
%ADD47R,0.565000X0.200000*%
%ADD48R,0.565000X0.400000*%
%ADD49RoundRect,0.150000X0.587500X0.150000X-0.587500X0.150000X-0.587500X-0.150000X0.587500X-0.150000X0*%
%ADD50R,1.000000X2.000000*%
%ADD51R,2.000000X1.000000*%
%ADD52RoundRect,0.140000X-0.140000X-0.170000X0.140000X-0.170000X0.140000X0.170000X-0.140000X0.170000X0*%
%ADD53R,0.300000X1.300000*%
%ADD54R,1.800000X2.200000*%
%ADD55R,0.300000X0.900000*%
%ADD56RoundRect,0.150000X-0.200000X0.150000X-0.200000X-0.150000X0.200000X-0.150000X0.200000X0.150000X0*%
%ADD57R,0.745000X0.280000*%
%ADD58R,0.280000X0.745000*%
%ADD59RoundRect,0.150000X0.200000X-0.150000X0.200000X0.150000X-0.200000X0.150000X-0.200000X-0.150000X0*%
%ADD60RoundRect,0.250000X-0.375000X-0.850000X0.375000X-0.850000X0.375000X0.850000X-0.375000X0.850000X0*%
%ADD61RoundRect,0.250000X-0.250000X0.250000X-0.250000X-0.250000X0.250000X-0.250000X0.250000X0.250000X0*%
%ADD62RoundRect,0.250000X-0.475000X0.250000X-0.475000X-0.250000X0.475000X-0.250000X0.475000X0.250000X0*%
%ADD63RoundRect,0.218750X-0.256250X0.218750X-0.256250X-0.218750X0.256250X-0.218750X0.256250X0.218750X0*%
G04 APERTURE END LIST*
D10*
X159040000Y-111875000D02*
X158700000Y-111875000D01*
X158700000Y-111625000D01*
X159040000Y-111625000D01*
X159040000Y-111875000D01*
G36*
X159040000Y-111875000D02*
G01*
X158700000Y-111875000D01*
X158700000Y-111625000D01*
X159040000Y-111625000D01*
X159040000Y-111875000D01*
G37*
X159040000Y-112375000D02*
X158700000Y-112375000D01*
X158700000Y-112125000D01*
X159040000Y-112125000D01*
X159040000Y-112375000D01*
G36*
X159040000Y-112375000D02*
G01*
X158700000Y-112375000D01*
X158700000Y-112125000D01*
X159040000Y-112125000D01*
X159040000Y-112375000D01*
G37*
X160300000Y-112750000D02*
X159240000Y-112750000D01*
X159240000Y-111250000D01*
X160300000Y-111250000D01*
X160300000Y-112750000D01*
G36*
X160300000Y-112750000D02*
G01*
X159240000Y-112750000D01*
X159240000Y-111250000D01*
X160300000Y-111250000D01*
X160300000Y-112750000D01*
G37*
X161560000Y-112750000D02*
X160500000Y-112750000D01*
X160500000Y-111250000D01*
X161560000Y-111250000D01*
X161560000Y-112750000D01*
G36*
X161560000Y-112750000D02*
G01*
X160500000Y-112750000D01*
X160500000Y-111250000D01*
X161560000Y-111250000D01*
X161560000Y-112750000D01*
G37*
X162100000Y-111875000D02*
X161760000Y-111875000D01*
X161760000Y-111625000D01*
X162100000Y-111625000D01*
X162100000Y-111875000D01*
G36*
X162100000Y-111875000D02*
G01*
X161760000Y-111875000D01*
X161760000Y-111625000D01*
X162100000Y-111625000D01*
X162100000Y-111875000D01*
G37*
X162100000Y-112375000D02*
X161760000Y-112375000D01*
X161760000Y-112125000D01*
X162100000Y-112125000D01*
X162100000Y-112375000D01*
G36*
X162100000Y-112375000D02*
G01*
X161760000Y-112375000D01*
X161760000Y-112125000D01*
X162100000Y-112125000D01*
X162100000Y-112375000D01*
G37*
D11*
X85335000Y-137280000D03*
X86025000Y-137280000D03*
D12*
X163320000Y-110770000D03*
X165220000Y-110770000D03*
D13*
X127208519Y-102740000D03*
D14*
X128483519Y-102740000D03*
D13*
X129758519Y-102740000D03*
D15*
X126583519Y-100840000D03*
X130383519Y-100840000D03*
D16*
X139611100Y-108518094D03*
X139611100Y-109208094D03*
D17*
X181421000Y-142494000D03*
X180021000Y-142494000D03*
D18*
X166985200Y-133857000D03*
X167655200Y-133857000D03*
X167655200Y-133187000D03*
X166985200Y-133187000D03*
D19*
X118900000Y-118395000D03*
X118900000Y-117705000D03*
D11*
X156095000Y-113670000D03*
X156785000Y-113670000D03*
D20*
X154080000Y-113070000D03*
X154080000Y-111170000D03*
D19*
X170739623Y-139313477D03*
X170739623Y-138623477D03*
D21*
X95317457Y-130105391D03*
X95317457Y-131655391D03*
D22*
X124546600Y-110556100D03*
X125196600Y-110556100D03*
X125846600Y-110556100D03*
X125846600Y-108656100D03*
X125196600Y-108656100D03*
X124546600Y-108656100D03*
D19*
X150418800Y-126125800D03*
X150418800Y-125435800D03*
D17*
X115685800Y-142773400D03*
X114285800Y-142773400D03*
D11*
X120813000Y-141224000D03*
X121503000Y-141224000D03*
D23*
X163225004Y-150698757D03*
X161675004Y-150698757D03*
D18*
X87042000Y-112267600D03*
X87712000Y-112267600D03*
X87712000Y-111597600D03*
X87042000Y-111597600D03*
D24*
X149352626Y-108746930D03*
X146852626Y-108746930D03*
D25*
X127685800Y-111612700D03*
X126995800Y-111612700D03*
D11*
X183906600Y-140411200D03*
X184596600Y-140411200D03*
D25*
X134245000Y-105550000D03*
X133555000Y-105550000D03*
D19*
X113055400Y-141873800D03*
X113055400Y-141183800D03*
D26*
X137985700Y-113308094D03*
X137985700Y-114908094D03*
X139585700Y-113308094D03*
X139585700Y-114908094D03*
D27*
X135348200Y-111508094D03*
X135348200Y-111908094D03*
X135348200Y-112308094D03*
X135348200Y-112708094D03*
X135348200Y-113108094D03*
X135348200Y-113508094D03*
X135348200Y-113908094D03*
X135348200Y-114308094D03*
X135348200Y-114708094D03*
X135348200Y-115108094D03*
X135348200Y-115508094D03*
X135348200Y-115908094D03*
X135348200Y-116308094D03*
X135348200Y-116708094D03*
D28*
X136185700Y-117545594D03*
X136585700Y-117545594D03*
X136985700Y-117545594D03*
X137385700Y-117545594D03*
X137785700Y-117545594D03*
X138185700Y-117545594D03*
X138585700Y-117545594D03*
X138985700Y-117545594D03*
X139385700Y-117545594D03*
X139785700Y-117545594D03*
X140185700Y-117545594D03*
X140585700Y-117545594D03*
X140985700Y-117545594D03*
X141385700Y-117545594D03*
D27*
X142223200Y-116708094D03*
X142223200Y-116308094D03*
X142223200Y-115908094D03*
X142223200Y-115508094D03*
X142223200Y-115108094D03*
X142223200Y-114708094D03*
X142223200Y-114308094D03*
X142223200Y-113908094D03*
X142223200Y-113508094D03*
X142223200Y-113108094D03*
X142223200Y-112708094D03*
X142223200Y-112308094D03*
X142223200Y-111908094D03*
X142223200Y-111508094D03*
D28*
X141385700Y-110670594D03*
X140985700Y-110670594D03*
X140585700Y-110670594D03*
X140185700Y-110670594D03*
X139785700Y-110670594D03*
X139385700Y-110670594D03*
X138985700Y-110670594D03*
X138585700Y-110670594D03*
X138185700Y-110670594D03*
X137785700Y-110670594D03*
X137385700Y-110670594D03*
X136985700Y-110670594D03*
X136585700Y-110670594D03*
X136185700Y-110670594D03*
D29*
X139087500Y-102750000D03*
D30*
X138550000Y-102675000D03*
D29*
X138012500Y-102750000D03*
X138012500Y-104450000D03*
D30*
X138550000Y-104525000D03*
D29*
X139087500Y-104450000D03*
D18*
X105042000Y-125267600D03*
X105712000Y-125267600D03*
X105712000Y-124597600D03*
X105042000Y-124597600D03*
D19*
X142151100Y-109002294D03*
X142151100Y-108312294D03*
D11*
X125181800Y-111612700D03*
X125871800Y-111612700D03*
D31*
X148200000Y-114050000D03*
X150700000Y-114050000D03*
D16*
X175412400Y-139913800D03*
X175412400Y-140603800D03*
D32*
X135725000Y-103600000D03*
D33*
X136262500Y-103675000D03*
D32*
X136800000Y-103600000D03*
X136800000Y-101900000D03*
D33*
X136262500Y-101825000D03*
D32*
X135725000Y-101900000D03*
D18*
X143746226Y-149724357D03*
X144416226Y-149724357D03*
X144416226Y-149054357D03*
X143746226Y-149054357D03*
D24*
X153599200Y-107238800D03*
X151099200Y-107238800D03*
D34*
X182738800Y-142494000D03*
X184138800Y-142494000D03*
D35*
X114500000Y-124870000D03*
X114500000Y-125830000D03*
D19*
X134251700Y-111189294D03*
X134251700Y-110499294D03*
D36*
X178005500Y-139015300D03*
X178005500Y-140915300D03*
X179880500Y-139965300D03*
D11*
X125156400Y-107599500D03*
X125846400Y-107599500D03*
D19*
X176326800Y-140832400D03*
X176326800Y-140142400D03*
X93268800Y-134787200D03*
X93268800Y-134097200D03*
D16*
X120853200Y-142250600D03*
X120853200Y-142940600D03*
D37*
X161400000Y-110600000D03*
X160900000Y-110600000D03*
X160400000Y-110600000D03*
X159900000Y-110600000D03*
X159400000Y-110600000D03*
X159400000Y-113400000D03*
X159900000Y-113400000D03*
X160400000Y-113400000D03*
X160900000Y-113400000D03*
X161400000Y-113400000D03*
D11*
X156095000Y-112140000D03*
X156785000Y-112140000D03*
D25*
X115591855Y-119144024D03*
X114901855Y-119144024D03*
D16*
X140322300Y-108518094D03*
X140322300Y-109208094D03*
X94056200Y-134097200D03*
X94056200Y-134787200D03*
D38*
X91840000Y-138495000D03*
X92640000Y-138495000D03*
D39*
X90540000Y-140445000D03*
X93940000Y-140445000D03*
D40*
X134949500Y-108081894D03*
X135449500Y-108081894D03*
X135949500Y-108081894D03*
X136449500Y-108081894D03*
X136449500Y-105681894D03*
X135949500Y-105681894D03*
X135449500Y-105681894D03*
X134949500Y-105681894D03*
D41*
X135699500Y-106881894D03*
D42*
X107506309Y-119497056D03*
X109056309Y-119497056D03*
D38*
X180330000Y-144055000D03*
X181130000Y-144055000D03*
D39*
X179030000Y-146005000D03*
X182430000Y-146005000D03*
D43*
X151304000Y-105130600D03*
X154004000Y-105130600D03*
D18*
X148985200Y-146857000D03*
X149655200Y-146857000D03*
X149655200Y-146187000D03*
X148985200Y-146187000D03*
D16*
X142460000Y-121585000D03*
X142460000Y-122275000D03*
D19*
X134975600Y-109589094D03*
X134975600Y-108899094D03*
D44*
X138690000Y-122650000D03*
X140890000Y-122650000D03*
X140890000Y-120950000D03*
X138690000Y-120950000D03*
D11*
X143455000Y-133150000D03*
X144145000Y-133150000D03*
D19*
X143471900Y-111062294D03*
X143471900Y-110372294D03*
D18*
X105042000Y-112267600D03*
X105712000Y-112267600D03*
X105712000Y-111597600D03*
X105042000Y-111597600D03*
D21*
X170738456Y-135439581D03*
X170738456Y-136989581D03*
D45*
X138370000Y-119540000D03*
X137410000Y-119540000D03*
D16*
X84175600Y-132304400D03*
X84175600Y-132994400D03*
D18*
X166985200Y-146857000D03*
X167655200Y-146857000D03*
X167655200Y-146187000D03*
X166985200Y-146187000D03*
D22*
X127391400Y-110556100D03*
X128041400Y-110556100D03*
X128691400Y-110556100D03*
X128691400Y-108656100D03*
X128041400Y-108656100D03*
X127391400Y-108656100D03*
D11*
X159300629Y-150847756D03*
X159990629Y-150847756D03*
D19*
X118550000Y-115745000D03*
X118550000Y-115055000D03*
D11*
X137255000Y-140800000D03*
X137945000Y-140800000D03*
D16*
X148570432Y-112028571D03*
X148570432Y-112718571D03*
D46*
X130435400Y-112119800D03*
X131235400Y-112119800D03*
X130435400Y-109469800D03*
X131235400Y-109469800D03*
D11*
X181290400Y-141300200D03*
X181980400Y-141300200D03*
X108340401Y-117977059D03*
X109030401Y-117977059D03*
D25*
X113395000Y-111100000D03*
X112705000Y-111100000D03*
D16*
X143065500Y-108312294D03*
X143065500Y-109002294D03*
D11*
X153328200Y-109274000D03*
X154018200Y-109274000D03*
D25*
X141865000Y-119420000D03*
X141175000Y-119420000D03*
D47*
X115483000Y-121050000D03*
X115483000Y-121550000D03*
D48*
X115483000Y-122050000D03*
D47*
X115483000Y-122550000D03*
X115483000Y-123050000D03*
X116317000Y-123050000D03*
X116317000Y-122550000D03*
D48*
X116317000Y-122050000D03*
D47*
X116317000Y-121550000D03*
X116317000Y-121050000D03*
D49*
X119301500Y-143088400D03*
X119301500Y-141188400D03*
X117426500Y-142138400D03*
D11*
X182763600Y-141300200D03*
X183453600Y-141300200D03*
D16*
X138747500Y-108314894D03*
X138747500Y-109004894D03*
D18*
X135646226Y-149724357D03*
X136316226Y-149724357D03*
X136316226Y-149054357D03*
X135646226Y-149054357D03*
D19*
X118550000Y-114245000D03*
X118550000Y-113555000D03*
D50*
X130900000Y-138425000D03*
X132400000Y-138425000D03*
X133900000Y-138425000D03*
X135400000Y-138425000D03*
X136900000Y-138425000D03*
X138400000Y-138425000D03*
X139900000Y-138425000D03*
D51*
X141200000Y-136175000D03*
X141200000Y-134675000D03*
X141200000Y-133175000D03*
X141200000Y-131675000D03*
X141200000Y-130175000D03*
X141200000Y-128675000D03*
X141200000Y-127175000D03*
D50*
X139900000Y-124925000D03*
X138400000Y-124925000D03*
X136900000Y-124925000D03*
X135400000Y-124925000D03*
X133900000Y-124925000D03*
X132400000Y-124925000D03*
X130900000Y-124925000D03*
D52*
X139290000Y-119540000D03*
X140250000Y-119540000D03*
D16*
X141236700Y-108314894D03*
X141236700Y-109004894D03*
D53*
X96540000Y-141530000D03*
X97040000Y-141530000D03*
X97540000Y-141530000D03*
X98040000Y-141530000D03*
X98540000Y-141530000D03*
X99040000Y-141530000D03*
X99540000Y-141530000D03*
X100040000Y-141530000D03*
X100540000Y-141530000D03*
X101040000Y-141530000D03*
X101540000Y-141530000D03*
X102040000Y-141530000D03*
X102540000Y-141530000D03*
X103040000Y-141530000D03*
D54*
X94640000Y-144780000D03*
X104940000Y-144780000D03*
D16*
X83075375Y-133204089D03*
X83075375Y-133894089D03*
D25*
X127649800Y-107599500D03*
X126959800Y-107599500D03*
D55*
X141210000Y-98835000D03*
X140710000Y-98835000D03*
X140210000Y-98835000D03*
X139710000Y-98835000D03*
X139210000Y-98835000D03*
X138710000Y-98835000D03*
X138210000Y-98835000D03*
X137710000Y-98835000D03*
X137210000Y-98835000D03*
X136710000Y-98835000D03*
X136210000Y-98835000D03*
X135710000Y-98835000D03*
D56*
X181635400Y-139968200D03*
X181635400Y-138568200D03*
D34*
X114285800Y-141300200D03*
X115685800Y-141300200D03*
D11*
X128407600Y-107599500D03*
X129097600Y-107599500D03*
X138685000Y-118630000D03*
X139375000Y-118630000D03*
D16*
X96933652Y-130907363D03*
X96933652Y-131597363D03*
D18*
X87042000Y-125267600D03*
X87712000Y-125267600D03*
X87712000Y-124597600D03*
X87042000Y-124597600D03*
D57*
X116596000Y-113800000D03*
X116596000Y-113300000D03*
X116596000Y-112800000D03*
X116596000Y-112300000D03*
D58*
X115698000Y-111902000D03*
X115198000Y-111902000D03*
X114698000Y-111902000D03*
D57*
X113800000Y-112300000D03*
X113800000Y-112800000D03*
X113800000Y-113300000D03*
X113800000Y-113800000D03*
D58*
X114698000Y-114198000D03*
X115198000Y-114198000D03*
X115698000Y-114198000D03*
D59*
X111785400Y-141590800D03*
X111785400Y-142990800D03*
D11*
X128418200Y-111612700D03*
X129108200Y-111612700D03*
X151118400Y-111864800D03*
X151808400Y-111864800D03*
D32*
X133212500Y-103600000D03*
D33*
X133750000Y-103675000D03*
D32*
X134287500Y-103600000D03*
X134287500Y-101900000D03*
D33*
X133750000Y-101825000D03*
D32*
X133212500Y-101900000D03*
D18*
X131596226Y-149724357D03*
X132266226Y-149724357D03*
X132266226Y-149054357D03*
X131596226Y-149054357D03*
D57*
X114302000Y-116250000D03*
X114302000Y-116750000D03*
X114302000Y-117250000D03*
X114302000Y-117750000D03*
D58*
X115200000Y-118148000D03*
X115700000Y-118148000D03*
X116200000Y-118148000D03*
D57*
X117098000Y-117750000D03*
X117098000Y-117250000D03*
X117098000Y-116750000D03*
X117098000Y-116250000D03*
D58*
X116200000Y-115852000D03*
X115700000Y-115852000D03*
X115200000Y-115852000D03*
D60*
X160015000Y-108340000D03*
X162165000Y-108340000D03*
D16*
X132250000Y-100805000D03*
X132250000Y-101495000D03*
D25*
X160563077Y-114402950D03*
X159873077Y-114402950D03*
D61*
X122758200Y-109392400D03*
X122758200Y-111892400D03*
D19*
X83003941Y-136104076D03*
X83003941Y-135414076D03*
D11*
X159233348Y-115214226D03*
X159923348Y-115214226D03*
D18*
X148985200Y-133857000D03*
X149655200Y-133857000D03*
X149655200Y-133187000D03*
X148985200Y-133187000D03*
X139696226Y-149724357D03*
X140366226Y-149724357D03*
X140366226Y-149054357D03*
X139696226Y-149054357D03*
D19*
X121894600Y-142940600D03*
X121894600Y-142250600D03*
D11*
X175651600Y-138988800D03*
X176341600Y-138988800D03*
D62*
X157782026Y-107324670D03*
X157782026Y-109224670D03*
D11*
X141031400Y-102311200D03*
X141721400Y-102311200D03*
D63*
X143650000Y-125612500D03*
X143650000Y-127187500D03*
D16*
X147815723Y-110783301D03*
X147815723Y-111473301D03*
M02*
