%TF.GenerationSoftware,KiCad,Pcbnew,8.0.2*%
%TF.CreationDate,2025-02-05T20:19:19-08:00*%
%TF.ProjectId,progcc_3.3_main,70726f67-6363-45f3-932e-335f6d61696e,1*%
%TF.SameCoordinates,Original*%
%TF.FileFunction,Drillmap*%
%TF.FilePolarity,Positive*%
%FSLAX45Y45*%
G04 Gerber Fmt 4.5, Leading zero omitted, Abs format (unit mm)*
G04 Created by KiCad (PCBNEW 8.0.2) date 2025-02-05 20:19:19*
%MOMM*%
%LPD*%
G01*
G04 APERTURE LIST*
%ADD10C,0.200000*%
%ADD11C,0.100000*%
%ADD12C,0.120000*%
G04 APERTURE END LIST*
D10*
X16360622Y-10811436D02*
X16630622Y-10811436D01*
X17155623Y-14761436D02*
X16765622Y-15161436D01*
X12765623Y-15161436D02*
X12765623Y-14671436D01*
X13378123Y-10771436D02*
G75*
G02*
X13103123Y-10771436I-137500J0D01*
G01*
X13103123Y-10771436D02*
G75*
G02*
X13378123Y-10771436I137500J0D01*
G01*
X19155623Y-13761436D02*
X19155623Y-14761436D01*
X13075623Y-14270000D02*
G75*
G02*
X13355623Y-14270000I140000J-105000D01*
G01*
X16630622Y-12561436D02*
X17500623Y-12561436D01*
X16360622Y-10411436D02*
X16360622Y-10811436D01*
X13240623Y-9871436D02*
X13240623Y-9186436D01*
X11765623Y-14421436D02*
X11365623Y-14421436D01*
X9295623Y-14141436D02*
X8205623Y-14141436D01*
X17500623Y-12561436D02*
X17500623Y-13761436D01*
X12765623Y-14671436D02*
X11765623Y-14671436D01*
X8705623Y-10791436D02*
X11240623Y-10791436D01*
X18900000Y-14311000D02*
G75*
G02*
X18650000Y-14311000I-125000J0D01*
G01*
X18650000Y-14311000D02*
G75*
G02*
X18900000Y-14311000I125000J0D01*
G01*
X14470622Y-9186436D02*
X14470622Y-10111436D01*
X9295623Y-14671436D02*
X9295623Y-14141436D01*
X11940623Y-9871436D02*
X13240623Y-9871436D01*
X15740622Y-10111436D02*
X15740622Y-10411436D01*
X11365623Y-14671436D02*
X9295623Y-14671436D01*
X16765622Y-15161436D02*
X12765623Y-15161436D01*
X8101675Y-11525814D02*
X8249271Y-11525814D01*
X8205623Y-14141436D02*
X8205623Y-12541436D01*
X15740622Y-10411436D02*
X16360622Y-10411436D01*
X8862500Y-13491436D02*
G75*
G02*
X8632500Y-13491436I-115000J0D01*
G01*
X8632500Y-13491436D02*
G75*
G02*
X8862500Y-13491436I115000J0D01*
G01*
X11240623Y-10411436D02*
X11940623Y-10411436D01*
X11765623Y-14671436D02*
X11765623Y-14421436D01*
X11230000Y-13677500D02*
G75*
G02*
X10770000Y-13677500I-230000J0D01*
G01*
X10770000Y-13677500D02*
G75*
G02*
X11230000Y-13677500I230000J0D01*
G01*
X11240623Y-10791436D02*
X11240623Y-10411436D01*
X13240623Y-9186436D02*
X14470622Y-9186436D01*
X11365623Y-14421436D02*
X11365623Y-14671436D01*
X17500623Y-13761436D02*
X19155623Y-13761436D01*
X19155623Y-14761436D02*
X17155623Y-14761436D01*
X11940623Y-10411436D02*
X11940623Y-9871436D01*
X8205623Y-12541436D02*
G75*
G02*
X8101678Y-11525815I1434997J659996D01*
G01*
X8249271Y-11525814D02*
G75*
G02*
X8705623Y-10791436I1391351J-355621D01*
G01*
X17315000Y-12825000D02*
G75*
G02*
X17085000Y-12825000I-115000J0D01*
G01*
X17085000Y-12825000D02*
G75*
G02*
X17315000Y-12825000I115000J0D01*
G01*
X16630622Y-10811436D02*
X16630622Y-12561436D01*
X13355623Y-14480000D02*
G75*
G02*
X13075623Y-14480000I-140000J105000D01*
G01*
X14470622Y-10111436D02*
X15740622Y-10111436D01*
X13075623Y-14480000D02*
X13075623Y-14270000D01*
X13355623Y-14270000D02*
X13355623Y-14480000D01*
D11*
X8595500Y-13118500D02*
X8630500Y-13153500D01*
X8630500Y-13118500D02*
X8595500Y-13153500D01*
X8821700Y-11343920D02*
X8856700Y-11378920D01*
X8856700Y-11343920D02*
X8821700Y-11378920D01*
X8834400Y-12639320D02*
X8869400Y-12674320D01*
X8869400Y-12639320D02*
X8834400Y-12674320D01*
X9541500Y-13853500D02*
X9576500Y-13888500D01*
X9576500Y-13853500D02*
X9541500Y-13888500D01*
X9553500Y-13960500D02*
X9588500Y-13995500D01*
X9588500Y-13960500D02*
X9553500Y-13995500D01*
X10348240Y-12530100D02*
X10383240Y-12565100D01*
X10383240Y-12530100D02*
X10348240Y-12565100D01*
X10589540Y-11341380D02*
X10624540Y-11376380D01*
X10624540Y-11341380D02*
X10589540Y-11376380D01*
X10592080Y-12636780D02*
X10627080Y-12671780D01*
X10627080Y-12636780D02*
X10592080Y-12671780D01*
X11161040Y-14506220D02*
X11196040Y-14541220D01*
X11196040Y-14506220D02*
X11161040Y-14541220D01*
X11257500Y-11207500D02*
X11292500Y-11242500D01*
X11292500Y-11207500D02*
X11257500Y-11242500D01*
X11312500Y-11492500D02*
X11347500Y-11527500D01*
X11347500Y-11492500D02*
X11312500Y-11527500D01*
X11382500Y-11887500D02*
X11417500Y-11922500D01*
X11417500Y-11887500D02*
X11382500Y-11922500D01*
X11396358Y-12041300D02*
X11431358Y-12076300D01*
X11431358Y-12041300D02*
X11396358Y-12076300D01*
X11432500Y-12307500D02*
X11467500Y-12342500D01*
X11467500Y-12307500D02*
X11432500Y-12342500D01*
X11517500Y-11317500D02*
X11552500Y-11352500D01*
X11552500Y-11317500D02*
X11517500Y-11352500D01*
X11529388Y-11652497D02*
X11564388Y-11687497D01*
X11564388Y-11652497D02*
X11529388Y-11687497D01*
X11592500Y-11062500D02*
X11627500Y-11097500D01*
X11627500Y-11062500D02*
X11592500Y-11097500D01*
X11696980Y-14330960D02*
X11731980Y-14365960D01*
X11731980Y-14330960D02*
X11696980Y-14365960D01*
X11752500Y-11927500D02*
X11787500Y-11962500D01*
X11787500Y-11927500D02*
X11752500Y-11962500D01*
X11802500Y-11757500D02*
X11837500Y-11792500D01*
X11837500Y-11757500D02*
X11802500Y-11792500D01*
X11817500Y-12097500D02*
X11852500Y-12132500D01*
X11852500Y-12097500D02*
X11817500Y-12132500D01*
X11817500Y-12277500D02*
X11852500Y-12312500D01*
X11852500Y-12277500D02*
X11817500Y-12312500D01*
X11837500Y-11262500D02*
X11872500Y-11297500D01*
X11872500Y-11262500D02*
X11837500Y-11297500D01*
X11846840Y-14524000D02*
X11881840Y-14559000D01*
X11881840Y-14524000D02*
X11846840Y-14559000D01*
X11864620Y-13850900D02*
X11899620Y-13885900D01*
X11899620Y-13850900D02*
X11864620Y-13885900D01*
X11932500Y-11612500D02*
X11967500Y-11647500D01*
X11967500Y-11612500D02*
X11932500Y-11647500D01*
X12001780Y-12126240D02*
X12036780Y-12161240D01*
X12036780Y-12126240D02*
X12001780Y-12161240D01*
X12002500Y-11492500D02*
X12037500Y-11527500D01*
X12037500Y-11492500D02*
X12002500Y-11527500D01*
X12077500Y-11447500D02*
X12112500Y-11482500D01*
X12112500Y-11447500D02*
X12077500Y-11482500D01*
X12174500Y-13477520D02*
X12209500Y-13512520D01*
X12209500Y-13477520D02*
X12174500Y-13512520D01*
X12199900Y-13576580D02*
X12234900Y-13611580D01*
X12234900Y-13576580D02*
X12199900Y-13611580D01*
X12260860Y-14191260D02*
X12295860Y-14226260D01*
X12295860Y-14191260D02*
X12260860Y-14226260D01*
X12271020Y-13477520D02*
X12306020Y-13512520D01*
X12306020Y-13477520D02*
X12271020Y-13512520D01*
X12359920Y-14028700D02*
X12394920Y-14063700D01*
X12394920Y-14028700D02*
X12359920Y-14063700D01*
X12359920Y-14125220D02*
X12394920Y-14160220D01*
X12394920Y-14125220D02*
X12359920Y-14160220D01*
X12381792Y-12151321D02*
X12416792Y-12186321D01*
X12416792Y-12151321D02*
X12381792Y-12186321D01*
X12405640Y-10742450D02*
X12440640Y-10777450D01*
X12440640Y-10742450D02*
X12405640Y-10777450D01*
X12746647Y-10409847D02*
X12781647Y-10444847D01*
X12781647Y-10409847D02*
X12746647Y-10444847D01*
X12784100Y-10691650D02*
X12819100Y-10726650D01*
X12819100Y-10691650D02*
X12784100Y-10726650D01*
X12947500Y-11232500D02*
X12982500Y-11267500D01*
X12982500Y-11232500D02*
X12947500Y-11267500D01*
X13072500Y-13657500D02*
X13107500Y-13692500D01*
X13107500Y-13657500D02*
X13072500Y-13692500D01*
X13082500Y-12672500D02*
X13117500Y-12707500D01*
X13117500Y-12672500D02*
X13082500Y-12707500D01*
X13152500Y-10327500D02*
X13187500Y-10362500D01*
X13187500Y-10327500D02*
X13152500Y-10362500D01*
X13197500Y-10247500D02*
X13232500Y-10282500D01*
X13232500Y-10247500D02*
X13197500Y-10282500D01*
X13241085Y-11187781D02*
X13276085Y-11222781D01*
X13276085Y-11187781D02*
X13241085Y-11222781D01*
X13241714Y-11104763D02*
X13276714Y-11139763D01*
X13276714Y-11104763D02*
X13241714Y-11139763D01*
X13272500Y-11007500D02*
X13307500Y-11042500D01*
X13307500Y-11007500D02*
X13272500Y-11042500D01*
X13327562Y-11075519D02*
X13362562Y-11110519D01*
X13362562Y-11075519D02*
X13327562Y-11110519D01*
X13372500Y-13642500D02*
X13407500Y-13677500D01*
X13407500Y-13642500D02*
X13372500Y-13677500D01*
X13403860Y-10604780D02*
X13438860Y-10639780D01*
X13438860Y-10604780D02*
X13403860Y-10639780D01*
X13410210Y-10716409D02*
X13445210Y-10751409D01*
X13445210Y-10716409D02*
X13410210Y-10751409D01*
X13474020Y-10065110D02*
X13509020Y-10100110D01*
X13509020Y-10065110D02*
X13474020Y-10100110D01*
X13489043Y-9978728D02*
X13524043Y-10013728D01*
X13524043Y-9978728D02*
X13489043Y-10013728D01*
X13522500Y-13637500D02*
X13557500Y-13672500D01*
X13557500Y-13637500D02*
X13522500Y-13672500D01*
X13553530Y-10097293D02*
X13588530Y-10132293D01*
X13588530Y-10097293D02*
X13553530Y-10132293D01*
X13607787Y-10259621D02*
X13642787Y-10294621D01*
X13642787Y-10259621D02*
X13607787Y-10294621D01*
X13611104Y-10005644D02*
X13646104Y-10040644D01*
X13646104Y-10005644D02*
X13611104Y-10040644D01*
X13627380Y-11493780D02*
X13662380Y-11528780D01*
X13662380Y-11493780D02*
X13627380Y-11528780D01*
X13647500Y-12047500D02*
X13682500Y-12082500D01*
X13682500Y-12047500D02*
X13647500Y-12082500D01*
X13672500Y-13642500D02*
X13707500Y-13677500D01*
X13707500Y-13642500D02*
X13672500Y-13677500D01*
X13689500Y-11637500D02*
X13724500Y-11672500D01*
X13724500Y-11637500D02*
X13689500Y-11672500D01*
X13738869Y-11269388D02*
X13773869Y-11304388D01*
X13773869Y-11269388D02*
X13738869Y-11304388D01*
X13782974Y-10183034D02*
X13817974Y-10218034D01*
X13817974Y-10183034D02*
X13782974Y-10218034D01*
X13803369Y-10727702D02*
X13838369Y-10762702D01*
X13838369Y-10727702D02*
X13803369Y-10762702D01*
X13803940Y-10635161D02*
X13838940Y-10670161D01*
X13838940Y-10635161D02*
X13803940Y-10670161D01*
X13836698Y-10374331D02*
X13871698Y-10409331D01*
X13871698Y-10374331D02*
X13836698Y-10409331D01*
X13844550Y-11630809D02*
X13879550Y-11665809D01*
X13879550Y-11630809D02*
X13844550Y-11665809D01*
X13890639Y-10181782D02*
X13925639Y-10216782D01*
X13925639Y-10181782D02*
X13890639Y-10216782D01*
X13937500Y-13147500D02*
X13972500Y-13182500D01*
X13972500Y-13147500D02*
X13937500Y-13182500D01*
X13939927Y-13665849D02*
X13974927Y-13700849D01*
X13974927Y-13665849D02*
X13939927Y-13700849D01*
X13948690Y-11625729D02*
X13983690Y-11660729D01*
X13983690Y-11625729D02*
X13948690Y-11660729D01*
X14037753Y-11150548D02*
X14072753Y-11185548D01*
X14072753Y-11150548D02*
X14037753Y-11185548D01*
X14041400Y-10030740D02*
X14076400Y-10065740D01*
X14076400Y-10030740D02*
X14041400Y-10065740D01*
X14094740Y-11554740D02*
X14129740Y-11589740D01*
X14129740Y-11554740D02*
X14094740Y-11589740D01*
X14122500Y-10407500D02*
X14157500Y-10442500D01*
X14157500Y-10407500D02*
X14122500Y-10442500D01*
X14142487Y-12421566D02*
X14177487Y-12456566D01*
X14177487Y-12421566D02*
X14142487Y-12456566D01*
X14231900Y-12492000D02*
X14266900Y-12527000D01*
X14266900Y-12492000D02*
X14231900Y-12527000D01*
X14242500Y-11904500D02*
X14277500Y-11939500D01*
X14277500Y-11904500D02*
X14242500Y-11939500D01*
X14297500Y-12008500D02*
X14332500Y-12043500D01*
X14332500Y-12008500D02*
X14297500Y-12043500D01*
X14312500Y-13077500D02*
X14347500Y-13112500D01*
X14347500Y-13077500D02*
X14312500Y-13112500D01*
X14333160Y-11516744D02*
X14368160Y-11551744D01*
X14368160Y-11516744D02*
X14333160Y-11551744D01*
X14357500Y-10417500D02*
X14392500Y-10452500D01*
X14392500Y-10417500D02*
X14357500Y-10452500D01*
X14371600Y-10886720D02*
X14406600Y-10921720D01*
X14406600Y-10886720D02*
X14371600Y-10921720D01*
X14392500Y-13382500D02*
X14427500Y-13417500D01*
X14427500Y-13382500D02*
X14392500Y-13417500D01*
X14393500Y-10799500D02*
X14428500Y-10834500D01*
X14428500Y-10799500D02*
X14393500Y-10834500D01*
X14405470Y-11081039D02*
X14440470Y-11116039D01*
X14440470Y-11081039D02*
X14405470Y-11116039D01*
X14426319Y-11499575D02*
X14461319Y-11534575D01*
X14461319Y-11499575D02*
X14426319Y-11534575D01*
X14430708Y-11231242D02*
X14465708Y-11266242D01*
X14465708Y-11231242D02*
X14430708Y-11266242D01*
X14457500Y-11012500D02*
X14492500Y-11047500D01*
X14492500Y-11012500D02*
X14457500Y-11047500D01*
X14457500Y-13102500D02*
X14492500Y-13137500D01*
X14492500Y-13102500D02*
X14457500Y-13137500D01*
X14488582Y-11435897D02*
X14523582Y-11470897D01*
X14523582Y-11435897D02*
X14488582Y-11470897D01*
X14502403Y-11274198D02*
X14537403Y-11309198D01*
X14537403Y-11274198D02*
X14502403Y-11309198D01*
X14615280Y-13162502D02*
X14650280Y-13197502D01*
X14650280Y-13162502D02*
X14615280Y-13197502D01*
X14642500Y-11327500D02*
X14677500Y-11362500D01*
X14677500Y-11327500D02*
X14642500Y-11362500D01*
X14647500Y-11232500D02*
X14682500Y-11267500D01*
X14682500Y-11232500D02*
X14647500Y-11267500D01*
X14652500Y-11612500D02*
X14687500Y-11647500D01*
X14687500Y-11612500D02*
X14652500Y-11647500D01*
X14657500Y-13092500D02*
X14692500Y-13127500D01*
X14692500Y-13092500D02*
X14657500Y-13127500D01*
X14681480Y-13853440D02*
X14716480Y-13888440D01*
X14716480Y-13853440D02*
X14681480Y-13888440D01*
X14681480Y-13944880D02*
X14716480Y-13979880D01*
X14716480Y-13944880D02*
X14681480Y-13979880D01*
X14775460Y-10343160D02*
X14810460Y-10378160D01*
X14810460Y-10343160D02*
X14775460Y-10378160D01*
X14837500Y-11847500D02*
X14872500Y-11882500D01*
X14872500Y-11847500D02*
X14837500Y-11882500D01*
X14857500Y-12747500D02*
X14892500Y-12782500D01*
X14892500Y-12747500D02*
X14857500Y-12782500D01*
X14922780Y-10526040D02*
X14957780Y-10561040D01*
X14957780Y-10526040D02*
X14922780Y-10561040D01*
X14938020Y-10752100D02*
X14973020Y-10787100D01*
X14973020Y-10752100D02*
X14938020Y-10787100D01*
X15112500Y-11692500D02*
X15147500Y-11727500D01*
X15147500Y-11692500D02*
X15112500Y-11727500D01*
X15127500Y-12367500D02*
X15162500Y-12402500D01*
X15162500Y-12367500D02*
X15127500Y-12402500D01*
X15167500Y-11477500D02*
X15202500Y-11512500D01*
X15202500Y-11477500D02*
X15167500Y-11512500D01*
X15185239Y-10899148D02*
X15220239Y-10934148D01*
X15220239Y-10899148D02*
X15185239Y-10934148D01*
X15242820Y-12855220D02*
X15277820Y-12890220D01*
X15277820Y-12855220D02*
X15242820Y-12890220D01*
X15244320Y-11090686D02*
X15279320Y-11125686D01*
X15279320Y-11090686D02*
X15244320Y-11125686D01*
X15277500Y-12397500D02*
X15312500Y-12432500D01*
X15312500Y-12397500D02*
X15277500Y-12432500D01*
X15288540Y-12697740D02*
X15323540Y-12732740D01*
X15323540Y-12697740D02*
X15288540Y-12732740D01*
X15295424Y-12064574D02*
X15330424Y-12099574D01*
X15330424Y-12064574D02*
X15295424Y-12099574D01*
X15322500Y-11477500D02*
X15357500Y-11512500D01*
X15357500Y-11477500D02*
X15322500Y-11512500D01*
X15586709Y-10995054D02*
X15621709Y-11030054D01*
X15621709Y-10995054D02*
X15586709Y-11030054D01*
X15725500Y-10548500D02*
X15760500Y-10583500D01*
X15760500Y-10548500D02*
X15725500Y-10583500D01*
X16007360Y-14341120D02*
X16042360Y-14376120D01*
X16042360Y-14341120D02*
X16007360Y-14376120D01*
X16136900Y-14465580D02*
X16171900Y-14500580D01*
X16171900Y-14465580D02*
X16136900Y-14500580D01*
X16261360Y-14330960D02*
X16296360Y-14365960D01*
X16296360Y-14330960D02*
X16261360Y-14365960D01*
X16345180Y-13767080D02*
X16380180Y-13802080D01*
X16380180Y-13767080D02*
X16345180Y-13802080D01*
X16741420Y-14452880D02*
X16776420Y-14487880D01*
X16776420Y-14452880D02*
X16741420Y-14487880D01*
X16865880Y-13866140D02*
X16900880Y-13901140D01*
X16900880Y-13866140D02*
X16865880Y-13901140D01*
X17267200Y-13320040D02*
X17302200Y-13355040D01*
X17302200Y-13320040D02*
X17267200Y-13355040D01*
X17386580Y-14125220D02*
X17421580Y-14160220D01*
X17421580Y-14125220D02*
X17386580Y-14160220D01*
X17396740Y-13228600D02*
X17431740Y-13263600D01*
X17431740Y-13228600D02*
X17396740Y-13263600D01*
X17414520Y-13685800D02*
X17449520Y-13720800D01*
X17449520Y-13685800D02*
X17414520Y-13720800D01*
X17417060Y-14216660D02*
X17452060Y-14251660D01*
X17452060Y-14216660D02*
X17417060Y-14251660D01*
X17742180Y-14216660D02*
X17777180Y-14251660D01*
X17777180Y-14216660D02*
X17742180Y-14251660D01*
X18057140Y-14577340D02*
X18092140Y-14612340D01*
X18092140Y-14577340D02*
X18057140Y-14612340D01*
X18862320Y-13901700D02*
X18897320Y-13936700D01*
X18897320Y-13901700D02*
X18862320Y-13936700D01*
X18930900Y-14013460D02*
X18965900Y-14048460D01*
X18965900Y-14013460D02*
X18930900Y-14048460D01*
X18956300Y-14122680D02*
X18991300Y-14157680D01*
X18991300Y-14122680D02*
X18956300Y-14157680D01*
X8407080Y-13533120D02*
G75*
G02*
X8367080Y-13533120I-20000J0D01*
G01*
X8367080Y-13533120D02*
G75*
G02*
X8407080Y-13533120I20000J0D01*
G01*
X8951000Y-13333000D02*
G75*
G02*
X8911000Y-13333000I-20000J0D01*
G01*
X8911000Y-13333000D02*
G75*
G02*
X8951000Y-13333000I20000J0D01*
G01*
X9356000Y-13568000D02*
G75*
G02*
X9316000Y-13568000I-20000J0D01*
G01*
X9316000Y-13568000D02*
G75*
G02*
X9356000Y-13568000I20000J0D01*
G01*
X9458000Y-13584000D02*
G75*
G02*
X9418000Y-13584000I-20000J0D01*
G01*
X9418000Y-13584000D02*
G75*
G02*
X9458000Y-13584000I20000J0D01*
G01*
X11056300Y-14104620D02*
G75*
G02*
X11016300Y-14104620I-20000J0D01*
G01*
X11016300Y-14104620D02*
G75*
G02*
X11056300Y-14104620I20000J0D01*
G01*
X11056300Y-14282420D02*
G75*
G02*
X11016300Y-14282420I-20000J0D01*
G01*
X11016300Y-14282420D02*
G75*
G02*
X11056300Y-14282420I20000J0D01*
G01*
X11320460Y-13911580D02*
G75*
G02*
X11280460Y-13911580I-20000J0D01*
G01*
X11280460Y-13911580D02*
G75*
G02*
X11320460Y-13911580I20000J0D01*
G01*
X12079920Y-10495280D02*
G75*
G02*
X12039920Y-10495280I-20000J0D01*
G01*
X12039920Y-10495280D02*
G75*
G02*
X12079920Y-10495280I20000J0D01*
G01*
X12298360Y-11069320D02*
G75*
G02*
X12258360Y-11069320I-20000J0D01*
G01*
X12258360Y-11069320D02*
G75*
G02*
X12298360Y-11069320I20000J0D01*
G01*
X12336460Y-10492740D02*
G75*
G02*
X12296460Y-10492740I-20000J0D01*
G01*
X12296460Y-10492740D02*
G75*
G02*
X12336460Y-10492740I20000J0D01*
G01*
X12587920Y-10472420D02*
G75*
G02*
X12547920Y-10472420I-20000J0D01*
G01*
X12547920Y-10472420D02*
G75*
G02*
X12587920Y-10472420I20000J0D01*
G01*
X12737724Y-10652945D02*
G75*
G02*
X12697724Y-10652945I-20000J0D01*
G01*
X12697724Y-10652945D02*
G75*
G02*
X12737724Y-10652945I20000J0D01*
G01*
X13039984Y-10644452D02*
G75*
G02*
X12999984Y-10644452I-20000J0D01*
G01*
X12999984Y-10644452D02*
G75*
G02*
X13039984Y-10644452I20000J0D01*
G01*
X13316900Y-9987280D02*
G75*
G02*
X13276900Y-9987280I-20000J0D01*
G01*
X13276900Y-9987280D02*
G75*
G02*
X13316900Y-9987280I20000J0D01*
G01*
X13344000Y-14707000D02*
G75*
G02*
X13304000Y-14707000I-20000J0D01*
G01*
X13304000Y-14707000D02*
G75*
G02*
X13344000Y-14707000I20000J0D01*
G01*
X13774000Y-14719000D02*
G75*
G02*
X13734000Y-14719000I-20000J0D01*
G01*
X13734000Y-14719000D02*
G75*
G02*
X13774000Y-14719000I20000J0D01*
G01*
X14171000Y-14719000D02*
G75*
G02*
X14131000Y-14719000I-20000J0D01*
G01*
X14131000Y-14719000D02*
G75*
G02*
X14171000Y-14719000I20000J0D01*
G01*
X14264071Y-10177059D02*
G75*
G02*
X14224071Y-10177059I-20000J0D01*
G01*
X14224071Y-10177059D02*
G75*
G02*
X14264071Y-10177059I20000J0D01*
G01*
X14277020Y-10066020D02*
G75*
G02*
X14237020Y-10066020I-20000J0D01*
G01*
X14237020Y-10066020D02*
G75*
G02*
X14277020Y-10066020I20000J0D01*
G01*
X14552615Y-10630374D02*
G75*
G02*
X14512615Y-10630374I-20000J0D01*
G01*
X14512615Y-10630374D02*
G75*
G02*
X14552615Y-10630374I20000J0D01*
G01*
X14577000Y-14569000D02*
G75*
G02*
X14537000Y-14569000I-20000J0D01*
G01*
X14537000Y-14569000D02*
G75*
G02*
X14577000Y-14569000I20000J0D01*
G01*
X15125380Y-13428980D02*
G75*
G02*
X15085380Y-13428980I-20000J0D01*
G01*
X15085380Y-13428980D02*
G75*
G02*
X15125380Y-13428980I20000J0D01*
G01*
X15125380Y-14754860D02*
G75*
G02*
X15085380Y-14754860I-20000J0D01*
G01*
X15085380Y-14754860D02*
G75*
G02*
X15125380Y-14754860I20000J0D01*
G01*
X15285720Y-11016300D02*
G75*
G02*
X15245720Y-11016300I-20000J0D01*
G01*
X15245720Y-11016300D02*
G75*
G02*
X15285720Y-11016300I20000J0D01*
G01*
X15511000Y-10675000D02*
G75*
G02*
X15471000Y-10675000I-20000J0D01*
G01*
X15471000Y-10675000D02*
G75*
G02*
X15511000Y-10675000I20000J0D01*
G01*
X15572894Y-11293235D02*
G75*
G02*
X15532894Y-11293235I-20000J0D01*
G01*
X15532894Y-11293235D02*
G75*
G02*
X15572894Y-11293235I20000J0D01*
G01*
X15798203Y-11069043D02*
G75*
G02*
X15758203Y-11069043I-20000J0D01*
G01*
X15758203Y-11069043D02*
G75*
G02*
X15798203Y-11069043I20000J0D01*
G01*
X15825574Y-11536680D02*
G75*
G02*
X15785574Y-11536680I-20000J0D01*
G01*
X15785574Y-11536680D02*
G75*
G02*
X15825574Y-11536680I20000J0D01*
G01*
X15980710Y-11201515D02*
G75*
G02*
X15940710Y-11201515I-20000J0D01*
G01*
X15940710Y-11201515D02*
G75*
G02*
X15980710Y-11201515I20000J0D01*
G01*
X16139927Y-11200979D02*
G75*
G02*
X16099927Y-11200979I-20000J0D01*
G01*
X16099927Y-11200979D02*
G75*
G02*
X16139927Y-11200979I20000J0D01*
G01*
X16228000Y-11451000D02*
G75*
G02*
X16188000Y-11451000I-20000J0D01*
G01*
X16188000Y-11451000D02*
G75*
G02*
X16228000Y-11451000I20000J0D01*
G01*
X16237590Y-11047859D02*
G75*
G02*
X16197590Y-11047859I-20000J0D01*
G01*
X16197590Y-11047859D02*
G75*
G02*
X16237590Y-11047859I20000J0D01*
G01*
X16542700Y-11224260D02*
G75*
G02*
X16502700Y-11224260I-20000J0D01*
G01*
X16502700Y-11224260D02*
G75*
G02*
X16542700Y-11224260I20000J0D01*
G01*
X16804320Y-13500100D02*
G75*
G02*
X16764320Y-13500100I-20000J0D01*
G01*
X16764320Y-13500100D02*
G75*
G02*
X16804320Y-13500100I20000J0D01*
G01*
X16926240Y-14716760D02*
G75*
G02*
X16886240Y-14716760I-20000J0D01*
G01*
X16886240Y-14716760D02*
G75*
G02*
X16926240Y-14716760I20000J0D01*
G01*
X18595020Y-14028420D02*
G75*
G02*
X18555020Y-14028420I-20000J0D01*
G01*
X18555020Y-14028420D02*
G75*
G02*
X18595020Y-14028420I20000J0D01*
G01*
X13566000Y-9742500D02*
X13566000Y-9782500D01*
X13546000Y-9762500D02*
X13586000Y-9762500D01*
X13606000Y-9672500D02*
X13606000Y-9712500D01*
X13586000Y-9692500D02*
X13626000Y-9692500D01*
X13686000Y-9672500D02*
X13686000Y-9712500D01*
X13666000Y-9692500D02*
X13706000Y-9692500D01*
X13726000Y-9742500D02*
X13726000Y-9782500D01*
X13706000Y-9762500D02*
X13746000Y-9762500D01*
X13766000Y-9672500D02*
X13766000Y-9712500D01*
X13746000Y-9692500D02*
X13786000Y-9692500D01*
X13806000Y-9742500D02*
X13806000Y-9782500D01*
X13786000Y-9762500D02*
X13826000Y-9762500D01*
X13886000Y-9742500D02*
X13886000Y-9782500D01*
X13866000Y-9762500D02*
X13906000Y-9762500D01*
X13926000Y-9672500D02*
X13926000Y-9712500D01*
X13906000Y-9692500D02*
X13946000Y-9692500D01*
X13966000Y-9742500D02*
X13966000Y-9782500D01*
X13946000Y-9762500D02*
X13986000Y-9762500D01*
X14006000Y-9672500D02*
X14006000Y-9712500D01*
X13986000Y-9692500D02*
X14026000Y-9692500D01*
X14086000Y-9672500D02*
X14086000Y-9712500D01*
X14066000Y-9692500D02*
X14106000Y-9692500D01*
X14126000Y-9742500D02*
X14126000Y-9782500D01*
X14106000Y-9762500D02*
X14146000Y-9762500D01*
X13414678Y-9281178D02*
X13414678Y-9245822D01*
X13379322Y-9245822D01*
X13379322Y-9281178D01*
X13414678Y-9281178D01*
X13422000Y-9293500D02*
X13422000Y-9233500D01*
X13372000Y-9233500D02*
G75*
G02*
X13422000Y-9233500I25000J0D01*
G01*
X13372000Y-9233500D02*
X13372000Y-9293500D01*
X13372000Y-9293500D02*
G75*
G03*
X13422000Y-9293500I25000J0D01*
G01*
X13450678Y-9720178D02*
X13450678Y-9684822D01*
X13415322Y-9684822D01*
X13415322Y-9720178D01*
X13450678Y-9720178D01*
X13458000Y-9732500D02*
X13458000Y-9672500D01*
X13408000Y-9672500D02*
G75*
G02*
X13458000Y-9672500I25000J0D01*
G01*
X13408000Y-9672500D02*
X13408000Y-9732500D01*
X13408000Y-9732500D02*
G75*
G03*
X13458000Y-9732500I25000J0D01*
G01*
X14276678Y-9720178D02*
X14276678Y-9684822D01*
X14241322Y-9684822D01*
X14241322Y-9720178D01*
X14276678Y-9720178D01*
X14284000Y-9732500D02*
X14284000Y-9672500D01*
X14234000Y-9672500D02*
G75*
G02*
X14284000Y-9672500I25000J0D01*
G01*
X14234000Y-9672500D02*
X14234000Y-9732500D01*
X14234000Y-9732500D02*
G75*
G03*
X14284000Y-9732500I25000J0D01*
G01*
X14312678Y-9281178D02*
X14312678Y-9245822D01*
X14277322Y-9245822D01*
X14277322Y-9281178D01*
X14312678Y-9281178D01*
X14320000Y-9293500D02*
X14320000Y-9233500D01*
X14270000Y-9233500D02*
G75*
G02*
X14320000Y-9233500I25000J0D01*
G01*
X14270000Y-9233500D02*
X14270000Y-9293500D01*
X14270000Y-9293500D02*
G75*
G03*
X14320000Y-9293500I25000J0D01*
G01*
X8281000Y-14071000D02*
X8321000Y-14031000D01*
X8281000Y-13991000D01*
X8241000Y-14031000D01*
X8281000Y-14071000D01*
X8481000Y-14071000D02*
X8521000Y-14031000D01*
X8481000Y-13991000D01*
X8441000Y-14031000D01*
X8481000Y-14071000D01*
X8681000Y-14071000D02*
X8721000Y-14031000D01*
X8681000Y-13991000D01*
X8641000Y-14031000D01*
X8681000Y-14071000D01*
X8881000Y-14071000D02*
X8921000Y-14031000D01*
X8881000Y-13991000D01*
X8841000Y-14031000D01*
X8881000Y-14071000D01*
X12092000Y-10062840D02*
X12132000Y-10022840D01*
X12092000Y-9982840D01*
X12052000Y-10022840D01*
X12092000Y-10062840D01*
X12292000Y-10062840D02*
X12332000Y-10022840D01*
X12292000Y-9982840D01*
X12252000Y-10022840D01*
X12292000Y-10062840D01*
X8577700Y-11473260D02*
X8667700Y-11563260D01*
X8667700Y-11473260D02*
X8577700Y-11563260D01*
X8667700Y-11518260D02*
G75*
G02*
X8577700Y-11518260I-45000J0D01*
G01*
X8577700Y-11518260D02*
G75*
G02*
X8667700Y-11518260I45000J0D01*
G01*
X8577700Y-12123260D02*
X8667700Y-12213260D01*
X8667700Y-12123260D02*
X8577700Y-12213260D01*
X8667700Y-12168260D02*
G75*
G02*
X8577700Y-12168260I-45000J0D01*
G01*
X8577700Y-12168260D02*
G75*
G02*
X8667700Y-12168260I45000J0D01*
G01*
X9027700Y-11473260D02*
X9117700Y-11563260D01*
X9117700Y-11473260D02*
X9027700Y-11563260D01*
X9117700Y-11518260D02*
G75*
G02*
X9027700Y-11518260I-45000J0D01*
G01*
X9027700Y-11518260D02*
G75*
G02*
X9117700Y-11518260I45000J0D01*
G01*
X9027700Y-12123260D02*
X9117700Y-12213260D01*
X9117700Y-12123260D02*
X9027700Y-12213260D01*
X9117700Y-12168260D02*
G75*
G02*
X9027700Y-12168260I-45000J0D01*
G01*
X9027700Y-12168260D02*
G75*
G02*
X9117700Y-12168260I45000J0D01*
G01*
X14772020Y-13632200D02*
X14862020Y-13722200D01*
X14862020Y-13632200D02*
X14772020Y-13722200D01*
X14862020Y-13677200D02*
G75*
G02*
X14772020Y-13677200I-45000J0D01*
G01*
X14772020Y-13677200D02*
G75*
G02*
X14862020Y-13677200I45000J0D01*
G01*
X14772020Y-14282200D02*
X14862020Y-14372200D01*
X14862020Y-14282200D02*
X14772020Y-14372200D01*
X14862020Y-14327200D02*
G75*
G02*
X14772020Y-14327200I-45000J0D01*
G01*
X14772020Y-14327200D02*
G75*
G02*
X14862020Y-14327200I45000J0D01*
G01*
X15222020Y-13632200D02*
X15312020Y-13722200D01*
X15312020Y-13632200D02*
X15222020Y-13722200D01*
X15312020Y-13677200D02*
G75*
G02*
X15222020Y-13677200I-45000J0D01*
G01*
X15222020Y-13677200D02*
G75*
G02*
X15312020Y-13677200I45000J0D01*
G01*
X15222020Y-14282200D02*
X15312020Y-14372200D01*
X15312020Y-14282200D02*
X15222020Y-14372200D01*
X15312020Y-14327200D02*
G75*
G02*
X15222020Y-14327200I-45000J0D01*
G01*
X15222020Y-14327200D02*
G75*
G02*
X15312020Y-14327200I45000J0D01*
G01*
X14608340Y-10196360D02*
X14708340Y-10296360D01*
X14708340Y-10196360D02*
X14608340Y-10296360D01*
X14658340Y-10196360D02*
X14658340Y-10296360D01*
X14608340Y-10246360D02*
X14708340Y-10246360D01*
X14873340Y-10196360D02*
X14973340Y-10296360D01*
X14973340Y-10196360D02*
X14873340Y-10296360D01*
X14923340Y-10196360D02*
X14923340Y-10296360D01*
X14873340Y-10246360D02*
X14973340Y-10246360D01*
X15138340Y-10196360D02*
X15238340Y-10296360D01*
X15238340Y-10196360D02*
X15138340Y-10296360D01*
X15188340Y-10196360D02*
X15188340Y-10296360D01*
X15138340Y-10246360D02*
X15238340Y-10246360D01*
X15403340Y-10196360D02*
X15503340Y-10296360D01*
X15503340Y-10196360D02*
X15403340Y-10296360D01*
X15453340Y-10196360D02*
X15453340Y-10296360D01*
X15403340Y-10246360D02*
X15503340Y-10246360D01*
X9337700Y-12663260D02*
X9437700Y-12763260D01*
X9437700Y-12663260D02*
X9337700Y-12763260D01*
X9423056Y-12748616D02*
X9423056Y-12677904D01*
X9352344Y-12677904D01*
X9352344Y-12748616D01*
X9423056Y-12748616D01*
X9587700Y-12663260D02*
X9687700Y-12763260D01*
X9687700Y-12663260D02*
X9587700Y-12763260D01*
X9673056Y-12748616D02*
X9673056Y-12677904D01*
X9602344Y-12677904D01*
X9602344Y-12748616D01*
X9673056Y-12748616D01*
X9837700Y-12663260D02*
X9937700Y-12763260D01*
X9937700Y-12663260D02*
X9837700Y-12763260D01*
X9923056Y-12748616D02*
X9923056Y-12677904D01*
X9852344Y-12677904D01*
X9852344Y-12748616D01*
X9923056Y-12748616D01*
X10457700Y-11543260D02*
X10557700Y-11643260D01*
X10557700Y-11543260D02*
X10457700Y-11643260D01*
X10543056Y-11628616D02*
X10543056Y-11557904D01*
X10472344Y-11557904D01*
X10472344Y-11628616D01*
X10543056Y-11628616D01*
X10457700Y-11793260D02*
X10557700Y-11893260D01*
X10557700Y-11793260D02*
X10457700Y-11893260D01*
X10543056Y-11878616D02*
X10543056Y-11807904D01*
X10472344Y-11807904D01*
X10472344Y-11878616D01*
X10543056Y-11878616D01*
X10457700Y-12043260D02*
X10557700Y-12143260D01*
X10557700Y-12043260D02*
X10457700Y-12143260D01*
X10543056Y-12128616D02*
X10543056Y-12057904D01*
X10472344Y-12057904D01*
X10472344Y-12128616D01*
X10543056Y-12128616D01*
X15532020Y-14822200D02*
X15632020Y-14922200D01*
X15632020Y-14822200D02*
X15532020Y-14922200D01*
X15617376Y-14907556D02*
X15617376Y-14836844D01*
X15546664Y-14836844D01*
X15546664Y-14907556D01*
X15617376Y-14907556D01*
X15782020Y-14822200D02*
X15882020Y-14922200D01*
X15882020Y-14822200D02*
X15782020Y-14922200D01*
X15867376Y-14907556D02*
X15867376Y-14836844D01*
X15796664Y-14836844D01*
X15796664Y-14907556D01*
X15867376Y-14907556D01*
X16032020Y-14822200D02*
X16132020Y-14922200D01*
X16132020Y-14822200D02*
X16032020Y-14922200D01*
X16117376Y-14907556D02*
X16117376Y-14836844D01*
X16046664Y-14836844D01*
X16046664Y-14907556D01*
X16117376Y-14907556D01*
X16652020Y-13702200D02*
X16752020Y-13802200D01*
X16752020Y-13702200D02*
X16652020Y-13802200D01*
X16737376Y-13787556D02*
X16737376Y-13716844D01*
X16666664Y-13716844D01*
X16666664Y-13787556D01*
X16737376Y-13787556D01*
X16652020Y-13952200D02*
X16752020Y-14052200D01*
X16752020Y-13952200D02*
X16652020Y-14052200D01*
X16737376Y-14037556D02*
X16737376Y-13966844D01*
X16666664Y-13966844D01*
X16666664Y-14037556D01*
X16737376Y-14037556D01*
X16652020Y-14202200D02*
X16752020Y-14302200D01*
X16752020Y-14202200D02*
X16652020Y-14302200D01*
X16737376Y-14287556D02*
X16737376Y-14216844D01*
X16666664Y-14216844D01*
X16666664Y-14287556D01*
X16737376Y-14287556D01*
D12*
X9077700Y-11150760D02*
X9197700Y-11270760D01*
X9197700Y-11150760D02*
X9077700Y-11270760D01*
X9137700Y-11270760D02*
X9197700Y-11210760D01*
X9137700Y-11150760D01*
X9077700Y-11210760D01*
X9137700Y-11270760D01*
X9077700Y-12415760D02*
X9197700Y-12535760D01*
X9197700Y-12415760D02*
X9077700Y-12535760D01*
X9137700Y-12535760D02*
X9197700Y-12475760D01*
X9137700Y-12415760D01*
X9077700Y-12475760D01*
X9137700Y-12535760D01*
X9102390Y-13484000D02*
X9222390Y-13604000D01*
X9222390Y-13484000D02*
X9102390Y-13604000D01*
X9162390Y-13604000D02*
X9222390Y-13544000D01*
X9162390Y-13484000D01*
X9102390Y-13544000D01*
X9162390Y-13604000D01*
X9514000Y-13481000D02*
X9634000Y-13601000D01*
X9634000Y-13481000D02*
X9514000Y-13601000D01*
X9574000Y-13601000D02*
X9634000Y-13541000D01*
X9574000Y-13481000D01*
X9514000Y-13541000D01*
X9574000Y-13601000D01*
X10077700Y-11150760D02*
X10197700Y-11270760D01*
X10197700Y-11150760D02*
X10077700Y-11270760D01*
X10137700Y-11270760D02*
X10197700Y-11210760D01*
X10137700Y-11150760D01*
X10077700Y-11210760D01*
X10137700Y-11270760D01*
X10077700Y-12415760D02*
X10197700Y-12535760D01*
X10197700Y-12415760D02*
X10077700Y-12535760D01*
X10137700Y-12535760D02*
X10197700Y-12475760D01*
X10137700Y-12415760D01*
X10077700Y-12475760D01*
X10137700Y-12535760D01*
X15272020Y-13309700D02*
X15392020Y-13429700D01*
X15392020Y-13309700D02*
X15272020Y-13429700D01*
X15332020Y-13429700D02*
X15392020Y-13369700D01*
X15332020Y-13309700D01*
X15272020Y-13369700D01*
X15332020Y-13429700D01*
X15272020Y-14574700D02*
X15392020Y-14694700D01*
X15392020Y-14574700D02*
X15272020Y-14694700D01*
X15332020Y-14694700D02*
X15392020Y-14634700D01*
X15332020Y-14574700D01*
X15272020Y-14634700D01*
X15332020Y-14694700D01*
X16272020Y-13309700D02*
X16392020Y-13429700D01*
X16392020Y-13309700D02*
X16272020Y-13429700D01*
X16332020Y-13429700D02*
X16392020Y-13369700D01*
X16332020Y-13309700D01*
X16272020Y-13369700D01*
X16332020Y-13429700D01*
X16272020Y-14574700D02*
X16392020Y-14694700D01*
X16392020Y-14574700D02*
X16272020Y-14694700D01*
X16332020Y-14694700D02*
X16392020Y-14634700D01*
X16332020Y-14574700D01*
X16272020Y-14634700D01*
X16332020Y-14694700D01*
X17633640Y-14542130D02*
X17753640Y-14662130D01*
X17753640Y-14542130D02*
X17633640Y-14662130D01*
X17693640Y-14662130D02*
X17753640Y-14602130D01*
X17693640Y-14542130D01*
X17633640Y-14602130D01*
X17693640Y-14662130D01*
X18395640Y-14539590D02*
X18515640Y-14659590D01*
X18515640Y-14539590D02*
X18395640Y-14659590D01*
X18455640Y-14659590D02*
X18515640Y-14599590D01*
X18455640Y-14539590D01*
X18395640Y-14599590D01*
X18455640Y-14659590D01*
D10*
X8311899Y-15482919D02*
X8311899Y-15282919D01*
X8311899Y-15282919D02*
X8359518Y-15282919D01*
X8359518Y-15282919D02*
X8388090Y-15292443D01*
X8388090Y-15292443D02*
X8407138Y-15311491D01*
X8407138Y-15311491D02*
X8416661Y-15330538D01*
X8416661Y-15330538D02*
X8426185Y-15368634D01*
X8426185Y-15368634D02*
X8426185Y-15397205D01*
X8426185Y-15397205D02*
X8416661Y-15435300D01*
X8416661Y-15435300D02*
X8407138Y-15454348D01*
X8407138Y-15454348D02*
X8388090Y-15473396D01*
X8388090Y-15473396D02*
X8359518Y-15482919D01*
X8359518Y-15482919D02*
X8311899Y-15482919D01*
X8511899Y-15482919D02*
X8511899Y-15349586D01*
X8511899Y-15387681D02*
X8521423Y-15368634D01*
X8521423Y-15368634D02*
X8530947Y-15359110D01*
X8530947Y-15359110D02*
X8549995Y-15349586D01*
X8549995Y-15349586D02*
X8569042Y-15349586D01*
X8635709Y-15482919D02*
X8635709Y-15349586D01*
X8635709Y-15282919D02*
X8626185Y-15292443D01*
X8626185Y-15292443D02*
X8635709Y-15301967D01*
X8635709Y-15301967D02*
X8645233Y-15292443D01*
X8645233Y-15292443D02*
X8635709Y-15282919D01*
X8635709Y-15282919D02*
X8635709Y-15301967D01*
X8759518Y-15482919D02*
X8740471Y-15473396D01*
X8740471Y-15473396D02*
X8730947Y-15454348D01*
X8730947Y-15454348D02*
X8730947Y-15282919D01*
X8864280Y-15482919D02*
X8845233Y-15473396D01*
X8845233Y-15473396D02*
X8835709Y-15454348D01*
X8835709Y-15454348D02*
X8835709Y-15282919D01*
X9092852Y-15482919D02*
X9092852Y-15282919D01*
X9092852Y-15282919D02*
X9159519Y-15425777D01*
X9159519Y-15425777D02*
X9226185Y-15282919D01*
X9226185Y-15282919D02*
X9226185Y-15482919D01*
X9407138Y-15482919D02*
X9407138Y-15378158D01*
X9407138Y-15378158D02*
X9397614Y-15359110D01*
X9397614Y-15359110D02*
X9378566Y-15349586D01*
X9378566Y-15349586D02*
X9340471Y-15349586D01*
X9340471Y-15349586D02*
X9321423Y-15359110D01*
X9407138Y-15473396D02*
X9388090Y-15482919D01*
X9388090Y-15482919D02*
X9340471Y-15482919D01*
X9340471Y-15482919D02*
X9321423Y-15473396D01*
X9321423Y-15473396D02*
X9311899Y-15454348D01*
X9311899Y-15454348D02*
X9311899Y-15435300D01*
X9311899Y-15435300D02*
X9321423Y-15416253D01*
X9321423Y-15416253D02*
X9340471Y-15406729D01*
X9340471Y-15406729D02*
X9388090Y-15406729D01*
X9388090Y-15406729D02*
X9407138Y-15397205D01*
X9502376Y-15349586D02*
X9502376Y-15549586D01*
X9502376Y-15359110D02*
X9521423Y-15349586D01*
X9521423Y-15349586D02*
X9559519Y-15349586D01*
X9559519Y-15349586D02*
X9578566Y-15359110D01*
X9578566Y-15359110D02*
X9588090Y-15368634D01*
X9588090Y-15368634D02*
X9597614Y-15387681D01*
X9597614Y-15387681D02*
X9597614Y-15444824D01*
X9597614Y-15444824D02*
X9588090Y-15463872D01*
X9588090Y-15463872D02*
X9578566Y-15473396D01*
X9578566Y-15473396D02*
X9559519Y-15482919D01*
X9559519Y-15482919D02*
X9521423Y-15482919D01*
X9521423Y-15482919D02*
X9502376Y-15473396D01*
X9683328Y-15463872D02*
X9692852Y-15473396D01*
X9692852Y-15473396D02*
X9683328Y-15482919D01*
X9683328Y-15482919D02*
X9673804Y-15473396D01*
X9673804Y-15473396D02*
X9683328Y-15463872D01*
X9683328Y-15463872D02*
X9683328Y-15482919D01*
X9683328Y-15359110D02*
X9692852Y-15368634D01*
X9692852Y-15368634D02*
X9683328Y-15378158D01*
X9683328Y-15378158D02*
X9673804Y-15368634D01*
X9673804Y-15368634D02*
X9683328Y-15359110D01*
X9683328Y-15359110D02*
X9683328Y-15378158D01*
D11*
X8016123Y-15793936D02*
X8051123Y-15828936D01*
X8051123Y-15793936D02*
X8016123Y-15828936D01*
D10*
X8349995Y-15702919D02*
X8369042Y-15702919D01*
X8369042Y-15702919D02*
X8388090Y-15712443D01*
X8388090Y-15712443D02*
X8397614Y-15721967D01*
X8397614Y-15721967D02*
X8407138Y-15741015D01*
X8407138Y-15741015D02*
X8416661Y-15779110D01*
X8416661Y-15779110D02*
X8416661Y-15826729D01*
X8416661Y-15826729D02*
X8407138Y-15864824D01*
X8407138Y-15864824D02*
X8397614Y-15883872D01*
X8397614Y-15883872D02*
X8388090Y-15893396D01*
X8388090Y-15893396D02*
X8369042Y-15902919D01*
X8369042Y-15902919D02*
X8349995Y-15902919D01*
X8349995Y-15902919D02*
X8330947Y-15893396D01*
X8330947Y-15893396D02*
X8321423Y-15883872D01*
X8321423Y-15883872D02*
X8311899Y-15864824D01*
X8311899Y-15864824D02*
X8302376Y-15826729D01*
X8302376Y-15826729D02*
X8302376Y-15779110D01*
X8302376Y-15779110D02*
X8311899Y-15741015D01*
X8311899Y-15741015D02*
X8321423Y-15721967D01*
X8321423Y-15721967D02*
X8330947Y-15712443D01*
X8330947Y-15712443D02*
X8349995Y-15702919D01*
X8502376Y-15883872D02*
X8511899Y-15893396D01*
X8511899Y-15893396D02*
X8502376Y-15902919D01*
X8502376Y-15902919D02*
X8492852Y-15893396D01*
X8492852Y-15893396D02*
X8502376Y-15883872D01*
X8502376Y-15883872D02*
X8502376Y-15902919D01*
X8578566Y-15702919D02*
X8702376Y-15702919D01*
X8702376Y-15702919D02*
X8635709Y-15779110D01*
X8635709Y-15779110D02*
X8664280Y-15779110D01*
X8664280Y-15779110D02*
X8683328Y-15788634D01*
X8683328Y-15788634D02*
X8692852Y-15798158D01*
X8692852Y-15798158D02*
X8702376Y-15817205D01*
X8702376Y-15817205D02*
X8702376Y-15864824D01*
X8702376Y-15864824D02*
X8692852Y-15883872D01*
X8692852Y-15883872D02*
X8683328Y-15893396D01*
X8683328Y-15893396D02*
X8664280Y-15902919D01*
X8664280Y-15902919D02*
X8607138Y-15902919D01*
X8607138Y-15902919D02*
X8588090Y-15893396D01*
X8588090Y-15893396D02*
X8578566Y-15883872D01*
X8883328Y-15702919D02*
X8788090Y-15702919D01*
X8788090Y-15702919D02*
X8778566Y-15798158D01*
X8778566Y-15798158D02*
X8788090Y-15788634D01*
X8788090Y-15788634D02*
X8807138Y-15779110D01*
X8807138Y-15779110D02*
X8854757Y-15779110D01*
X8854757Y-15779110D02*
X8873804Y-15788634D01*
X8873804Y-15788634D02*
X8883328Y-15798158D01*
X8883328Y-15798158D02*
X8892852Y-15817205D01*
X8892852Y-15817205D02*
X8892852Y-15864824D01*
X8892852Y-15864824D02*
X8883328Y-15883872D01*
X8883328Y-15883872D02*
X8873804Y-15893396D01*
X8873804Y-15893396D02*
X8854757Y-15902919D01*
X8854757Y-15902919D02*
X8807138Y-15902919D01*
X8807138Y-15902919D02*
X8788090Y-15893396D01*
X8788090Y-15893396D02*
X8778566Y-15883872D01*
X9016661Y-15702919D02*
X9035709Y-15702919D01*
X9035709Y-15702919D02*
X9054757Y-15712443D01*
X9054757Y-15712443D02*
X9064280Y-15721967D01*
X9064280Y-15721967D02*
X9073804Y-15741015D01*
X9073804Y-15741015D02*
X9083328Y-15779110D01*
X9083328Y-15779110D02*
X9083328Y-15826729D01*
X9083328Y-15826729D02*
X9073804Y-15864824D01*
X9073804Y-15864824D02*
X9064280Y-15883872D01*
X9064280Y-15883872D02*
X9054757Y-15893396D01*
X9054757Y-15893396D02*
X9035709Y-15902919D01*
X9035709Y-15902919D02*
X9016661Y-15902919D01*
X9016661Y-15902919D02*
X8997614Y-15893396D01*
X8997614Y-15893396D02*
X8988090Y-15883872D01*
X8988090Y-15883872D02*
X8978566Y-15864824D01*
X8978566Y-15864824D02*
X8969042Y-15826729D01*
X8969042Y-15826729D02*
X8969042Y-15779110D01*
X8969042Y-15779110D02*
X8978566Y-15741015D01*
X8978566Y-15741015D02*
X8988090Y-15721967D01*
X8988090Y-15721967D02*
X8997614Y-15712443D01*
X8997614Y-15712443D02*
X9016661Y-15702919D01*
X9169042Y-15902919D02*
X9169042Y-15769586D01*
X9169042Y-15788634D02*
X9178566Y-15779110D01*
X9178566Y-15779110D02*
X9197614Y-15769586D01*
X9197614Y-15769586D02*
X9226185Y-15769586D01*
X9226185Y-15769586D02*
X9245233Y-15779110D01*
X9245233Y-15779110D02*
X9254757Y-15798158D01*
X9254757Y-15798158D02*
X9254757Y-15902919D01*
X9254757Y-15798158D02*
X9264280Y-15779110D01*
X9264280Y-15779110D02*
X9283328Y-15769586D01*
X9283328Y-15769586D02*
X9311899Y-15769586D01*
X9311899Y-15769586D02*
X9330947Y-15779110D01*
X9330947Y-15779110D02*
X9340471Y-15798158D01*
X9340471Y-15798158D02*
X9340471Y-15902919D01*
X9435709Y-15902919D02*
X9435709Y-15769586D01*
X9435709Y-15788634D02*
X9445233Y-15779110D01*
X9445233Y-15779110D02*
X9464280Y-15769586D01*
X9464280Y-15769586D02*
X9492852Y-15769586D01*
X9492852Y-15769586D02*
X9511900Y-15779110D01*
X9511900Y-15779110D02*
X9521423Y-15798158D01*
X9521423Y-15798158D02*
X9521423Y-15902919D01*
X9521423Y-15798158D02*
X9530947Y-15779110D01*
X9530947Y-15779110D02*
X9549995Y-15769586D01*
X9549995Y-15769586D02*
X9578566Y-15769586D01*
X9578566Y-15769586D02*
X9597614Y-15779110D01*
X9597614Y-15779110D02*
X9607138Y-15798158D01*
X9607138Y-15798158D02*
X9607138Y-15902919D01*
X9997614Y-15693396D02*
X9826185Y-15950538D01*
X10254757Y-15702919D02*
X10273804Y-15702919D01*
X10273804Y-15702919D02*
X10292852Y-15712443D01*
X10292852Y-15712443D02*
X10302376Y-15721967D01*
X10302376Y-15721967D02*
X10311900Y-15741015D01*
X10311900Y-15741015D02*
X10321423Y-15779110D01*
X10321423Y-15779110D02*
X10321423Y-15826729D01*
X10321423Y-15826729D02*
X10311900Y-15864824D01*
X10311900Y-15864824D02*
X10302376Y-15883872D01*
X10302376Y-15883872D02*
X10292852Y-15893396D01*
X10292852Y-15893396D02*
X10273804Y-15902919D01*
X10273804Y-15902919D02*
X10254757Y-15902919D01*
X10254757Y-15902919D02*
X10235709Y-15893396D01*
X10235709Y-15893396D02*
X10226185Y-15883872D01*
X10226185Y-15883872D02*
X10216662Y-15864824D01*
X10216662Y-15864824D02*
X10207138Y-15826729D01*
X10207138Y-15826729D02*
X10207138Y-15779110D01*
X10207138Y-15779110D02*
X10216662Y-15741015D01*
X10216662Y-15741015D02*
X10226185Y-15721967D01*
X10226185Y-15721967D02*
X10235709Y-15712443D01*
X10235709Y-15712443D02*
X10254757Y-15702919D01*
X10407138Y-15883872D02*
X10416662Y-15893396D01*
X10416662Y-15893396D02*
X10407138Y-15902919D01*
X10407138Y-15902919D02*
X10397614Y-15893396D01*
X10397614Y-15893396D02*
X10407138Y-15883872D01*
X10407138Y-15883872D02*
X10407138Y-15902919D01*
X10540471Y-15702919D02*
X10559519Y-15702919D01*
X10559519Y-15702919D02*
X10578566Y-15712443D01*
X10578566Y-15712443D02*
X10588090Y-15721967D01*
X10588090Y-15721967D02*
X10597614Y-15741015D01*
X10597614Y-15741015D02*
X10607138Y-15779110D01*
X10607138Y-15779110D02*
X10607138Y-15826729D01*
X10607138Y-15826729D02*
X10597614Y-15864824D01*
X10597614Y-15864824D02*
X10588090Y-15883872D01*
X10588090Y-15883872D02*
X10578566Y-15893396D01*
X10578566Y-15893396D02*
X10559519Y-15902919D01*
X10559519Y-15902919D02*
X10540471Y-15902919D01*
X10540471Y-15902919D02*
X10521423Y-15893396D01*
X10521423Y-15893396D02*
X10511900Y-15883872D01*
X10511900Y-15883872D02*
X10502376Y-15864824D01*
X10502376Y-15864824D02*
X10492852Y-15826729D01*
X10492852Y-15826729D02*
X10492852Y-15779110D01*
X10492852Y-15779110D02*
X10502376Y-15741015D01*
X10502376Y-15741015D02*
X10511900Y-15721967D01*
X10511900Y-15721967D02*
X10521423Y-15712443D01*
X10521423Y-15712443D02*
X10540471Y-15702919D01*
X10797614Y-15902919D02*
X10683328Y-15902919D01*
X10740471Y-15902919D02*
X10740471Y-15702919D01*
X10740471Y-15702919D02*
X10721423Y-15731491D01*
X10721423Y-15731491D02*
X10702376Y-15750538D01*
X10702376Y-15750538D02*
X10683328Y-15760062D01*
X10864281Y-15702919D02*
X10988090Y-15702919D01*
X10988090Y-15702919D02*
X10921423Y-15779110D01*
X10921423Y-15779110D02*
X10949995Y-15779110D01*
X10949995Y-15779110D02*
X10969043Y-15788634D01*
X10969043Y-15788634D02*
X10978566Y-15798158D01*
X10978566Y-15798158D02*
X10988090Y-15817205D01*
X10988090Y-15817205D02*
X10988090Y-15864824D01*
X10988090Y-15864824D02*
X10978566Y-15883872D01*
X10978566Y-15883872D02*
X10969043Y-15893396D01*
X10969043Y-15893396D02*
X10949995Y-15902919D01*
X10949995Y-15902919D02*
X10892852Y-15902919D01*
X10892852Y-15902919D02*
X10873804Y-15893396D01*
X10873804Y-15893396D02*
X10864281Y-15883872D01*
X11102376Y-15788634D02*
X11083328Y-15779110D01*
X11083328Y-15779110D02*
X11073804Y-15769586D01*
X11073804Y-15769586D02*
X11064281Y-15750538D01*
X11064281Y-15750538D02*
X11064281Y-15741015D01*
X11064281Y-15741015D02*
X11073804Y-15721967D01*
X11073804Y-15721967D02*
X11083328Y-15712443D01*
X11083328Y-15712443D02*
X11102376Y-15702919D01*
X11102376Y-15702919D02*
X11140471Y-15702919D01*
X11140471Y-15702919D02*
X11159519Y-15712443D01*
X11159519Y-15712443D02*
X11169043Y-15721967D01*
X11169043Y-15721967D02*
X11178566Y-15741015D01*
X11178566Y-15741015D02*
X11178566Y-15750538D01*
X11178566Y-15750538D02*
X11169043Y-15769586D01*
X11169043Y-15769586D02*
X11159519Y-15779110D01*
X11159519Y-15779110D02*
X11140471Y-15788634D01*
X11140471Y-15788634D02*
X11102376Y-15788634D01*
X11102376Y-15788634D02*
X11083328Y-15798158D01*
X11083328Y-15798158D02*
X11073804Y-15807681D01*
X11073804Y-15807681D02*
X11064281Y-15826729D01*
X11064281Y-15826729D02*
X11064281Y-15864824D01*
X11064281Y-15864824D02*
X11073804Y-15883872D01*
X11073804Y-15883872D02*
X11083328Y-15893396D01*
X11083328Y-15893396D02*
X11102376Y-15902919D01*
X11102376Y-15902919D02*
X11140471Y-15902919D01*
X11140471Y-15902919D02*
X11159519Y-15893396D01*
X11159519Y-15893396D02*
X11169043Y-15883872D01*
X11169043Y-15883872D02*
X11178566Y-15864824D01*
X11178566Y-15864824D02*
X11178566Y-15826729D01*
X11178566Y-15826729D02*
X11169043Y-15807681D01*
X11169043Y-15807681D02*
X11159519Y-15798158D01*
X11159519Y-15798158D02*
X11140471Y-15788634D01*
X11254757Y-15702919D02*
X11254757Y-15741015D01*
X11330947Y-15702919D02*
X11330947Y-15741015D01*
X11626185Y-15979110D02*
X11616662Y-15969586D01*
X11616662Y-15969586D02*
X11597614Y-15941015D01*
X11597614Y-15941015D02*
X11588090Y-15921967D01*
X11588090Y-15921967D02*
X11578566Y-15893396D01*
X11578566Y-15893396D02*
X11569043Y-15845777D01*
X11569043Y-15845777D02*
X11569043Y-15807681D01*
X11569043Y-15807681D02*
X11578566Y-15760062D01*
X11578566Y-15760062D02*
X11588090Y-15731491D01*
X11588090Y-15731491D02*
X11597614Y-15712443D01*
X11597614Y-15712443D02*
X11616662Y-15683872D01*
X11616662Y-15683872D02*
X11626185Y-15674348D01*
X11807138Y-15902919D02*
X11692852Y-15902919D01*
X11749995Y-15902919D02*
X11749995Y-15702919D01*
X11749995Y-15702919D02*
X11730947Y-15731491D01*
X11730947Y-15731491D02*
X11711900Y-15750538D01*
X11711900Y-15750538D02*
X11692852Y-15760062D01*
X11873804Y-15702919D02*
X11997614Y-15702919D01*
X11997614Y-15702919D02*
X11930947Y-15779110D01*
X11930947Y-15779110D02*
X11959519Y-15779110D01*
X11959519Y-15779110D02*
X11978566Y-15788634D01*
X11978566Y-15788634D02*
X11988090Y-15798158D01*
X11988090Y-15798158D02*
X11997614Y-15817205D01*
X11997614Y-15817205D02*
X11997614Y-15864824D01*
X11997614Y-15864824D02*
X11988090Y-15883872D01*
X11988090Y-15883872D02*
X11978566Y-15893396D01*
X11978566Y-15893396D02*
X11959519Y-15902919D01*
X11959519Y-15902919D02*
X11902376Y-15902919D01*
X11902376Y-15902919D02*
X11883328Y-15893396D01*
X11883328Y-15893396D02*
X11873804Y-15883872D01*
X12073804Y-15721967D02*
X12083328Y-15712443D01*
X12083328Y-15712443D02*
X12102376Y-15702919D01*
X12102376Y-15702919D02*
X12149995Y-15702919D01*
X12149995Y-15702919D02*
X12169043Y-15712443D01*
X12169043Y-15712443D02*
X12178566Y-15721967D01*
X12178566Y-15721967D02*
X12188090Y-15741015D01*
X12188090Y-15741015D02*
X12188090Y-15760062D01*
X12188090Y-15760062D02*
X12178566Y-15788634D01*
X12178566Y-15788634D02*
X12064281Y-15902919D01*
X12064281Y-15902919D02*
X12188090Y-15902919D01*
X12426185Y-15902919D02*
X12426185Y-15702919D01*
X12511900Y-15902919D02*
X12511900Y-15798158D01*
X12511900Y-15798158D02*
X12502376Y-15779110D01*
X12502376Y-15779110D02*
X12483328Y-15769586D01*
X12483328Y-15769586D02*
X12454757Y-15769586D01*
X12454757Y-15769586D02*
X12435709Y-15779110D01*
X12435709Y-15779110D02*
X12426185Y-15788634D01*
X12635709Y-15902919D02*
X12616662Y-15893396D01*
X12616662Y-15893396D02*
X12607138Y-15883872D01*
X12607138Y-15883872D02*
X12597614Y-15864824D01*
X12597614Y-15864824D02*
X12597614Y-15807681D01*
X12597614Y-15807681D02*
X12607138Y-15788634D01*
X12607138Y-15788634D02*
X12616662Y-15779110D01*
X12616662Y-15779110D02*
X12635709Y-15769586D01*
X12635709Y-15769586D02*
X12664281Y-15769586D01*
X12664281Y-15769586D02*
X12683328Y-15779110D01*
X12683328Y-15779110D02*
X12692852Y-15788634D01*
X12692852Y-15788634D02*
X12702376Y-15807681D01*
X12702376Y-15807681D02*
X12702376Y-15864824D01*
X12702376Y-15864824D02*
X12692852Y-15883872D01*
X12692852Y-15883872D02*
X12683328Y-15893396D01*
X12683328Y-15893396D02*
X12664281Y-15902919D01*
X12664281Y-15902919D02*
X12635709Y-15902919D01*
X12816662Y-15902919D02*
X12797614Y-15893396D01*
X12797614Y-15893396D02*
X12788090Y-15874348D01*
X12788090Y-15874348D02*
X12788090Y-15702919D01*
X12969043Y-15893396D02*
X12949995Y-15902919D01*
X12949995Y-15902919D02*
X12911900Y-15902919D01*
X12911900Y-15902919D02*
X12892852Y-15893396D01*
X12892852Y-15893396D02*
X12883328Y-15874348D01*
X12883328Y-15874348D02*
X12883328Y-15798158D01*
X12883328Y-15798158D02*
X12892852Y-15779110D01*
X12892852Y-15779110D02*
X12911900Y-15769586D01*
X12911900Y-15769586D02*
X12949995Y-15769586D01*
X12949995Y-15769586D02*
X12969043Y-15779110D01*
X12969043Y-15779110D02*
X12978566Y-15798158D01*
X12978566Y-15798158D02*
X12978566Y-15817205D01*
X12978566Y-15817205D02*
X12883328Y-15836253D01*
X13054757Y-15893396D02*
X13073805Y-15902919D01*
X13073805Y-15902919D02*
X13111900Y-15902919D01*
X13111900Y-15902919D02*
X13130947Y-15893396D01*
X13130947Y-15893396D02*
X13140471Y-15874348D01*
X13140471Y-15874348D02*
X13140471Y-15864824D01*
X13140471Y-15864824D02*
X13130947Y-15845777D01*
X13130947Y-15845777D02*
X13111900Y-15836253D01*
X13111900Y-15836253D02*
X13083328Y-15836253D01*
X13083328Y-15836253D02*
X13064281Y-15826729D01*
X13064281Y-15826729D02*
X13054757Y-15807681D01*
X13054757Y-15807681D02*
X13054757Y-15798158D01*
X13054757Y-15798158D02*
X13064281Y-15779110D01*
X13064281Y-15779110D02*
X13083328Y-15769586D01*
X13083328Y-15769586D02*
X13111900Y-15769586D01*
X13111900Y-15769586D02*
X13130947Y-15779110D01*
X13207138Y-15979110D02*
X13216662Y-15969586D01*
X13216662Y-15969586D02*
X13235709Y-15941015D01*
X13235709Y-15941015D02*
X13245233Y-15921967D01*
X13245233Y-15921967D02*
X13254757Y-15893396D01*
X13254757Y-15893396D02*
X13264281Y-15845777D01*
X13264281Y-15845777D02*
X13264281Y-15807681D01*
X13264281Y-15807681D02*
X13254757Y-15760062D01*
X13254757Y-15760062D02*
X13245233Y-15731491D01*
X13245233Y-15731491D02*
X13235709Y-15712443D01*
X13235709Y-15712443D02*
X13216662Y-15683872D01*
X13216662Y-15683872D02*
X13207138Y-15674348D01*
D11*
X8051123Y-16075436D02*
G75*
G02*
X8011123Y-16075436I-20000J0D01*
G01*
X8011123Y-16075436D02*
G75*
G02*
X8051123Y-16075436I20000J0D01*
G01*
D10*
X8349995Y-15966919D02*
X8369042Y-15966919D01*
X8369042Y-15966919D02*
X8388090Y-15976443D01*
X8388090Y-15976443D02*
X8397614Y-15985967D01*
X8397614Y-15985967D02*
X8407138Y-16005015D01*
X8407138Y-16005015D02*
X8416661Y-16043110D01*
X8416661Y-16043110D02*
X8416661Y-16090729D01*
X8416661Y-16090729D02*
X8407138Y-16128824D01*
X8407138Y-16128824D02*
X8397614Y-16147872D01*
X8397614Y-16147872D02*
X8388090Y-16157396D01*
X8388090Y-16157396D02*
X8369042Y-16166919D01*
X8369042Y-16166919D02*
X8349995Y-16166919D01*
X8349995Y-16166919D02*
X8330947Y-16157396D01*
X8330947Y-16157396D02*
X8321423Y-16147872D01*
X8321423Y-16147872D02*
X8311899Y-16128824D01*
X8311899Y-16128824D02*
X8302376Y-16090729D01*
X8302376Y-16090729D02*
X8302376Y-16043110D01*
X8302376Y-16043110D02*
X8311899Y-16005015D01*
X8311899Y-16005015D02*
X8321423Y-15985967D01*
X8321423Y-15985967D02*
X8330947Y-15976443D01*
X8330947Y-15976443D02*
X8349995Y-15966919D01*
X8502376Y-16147872D02*
X8511899Y-16157396D01*
X8511899Y-16157396D02*
X8502376Y-16166919D01*
X8502376Y-16166919D02*
X8492852Y-16157396D01*
X8492852Y-16157396D02*
X8502376Y-16147872D01*
X8502376Y-16147872D02*
X8502376Y-16166919D01*
X8683328Y-16033586D02*
X8683328Y-16166919D01*
X8635709Y-15957396D02*
X8588090Y-16100253D01*
X8588090Y-16100253D02*
X8711899Y-16100253D01*
X8826185Y-15966919D02*
X8845233Y-15966919D01*
X8845233Y-15966919D02*
X8864280Y-15976443D01*
X8864280Y-15976443D02*
X8873804Y-15985967D01*
X8873804Y-15985967D02*
X8883328Y-16005015D01*
X8883328Y-16005015D02*
X8892852Y-16043110D01*
X8892852Y-16043110D02*
X8892852Y-16090729D01*
X8892852Y-16090729D02*
X8883328Y-16128824D01*
X8883328Y-16128824D02*
X8873804Y-16147872D01*
X8873804Y-16147872D02*
X8864280Y-16157396D01*
X8864280Y-16157396D02*
X8845233Y-16166919D01*
X8845233Y-16166919D02*
X8826185Y-16166919D01*
X8826185Y-16166919D02*
X8807138Y-16157396D01*
X8807138Y-16157396D02*
X8797614Y-16147872D01*
X8797614Y-16147872D02*
X8788090Y-16128824D01*
X8788090Y-16128824D02*
X8778566Y-16090729D01*
X8778566Y-16090729D02*
X8778566Y-16043110D01*
X8778566Y-16043110D02*
X8788090Y-16005015D01*
X8788090Y-16005015D02*
X8797614Y-15985967D01*
X8797614Y-15985967D02*
X8807138Y-15976443D01*
X8807138Y-15976443D02*
X8826185Y-15966919D01*
X9016661Y-15966919D02*
X9035709Y-15966919D01*
X9035709Y-15966919D02*
X9054757Y-15976443D01*
X9054757Y-15976443D02*
X9064280Y-15985967D01*
X9064280Y-15985967D02*
X9073804Y-16005015D01*
X9073804Y-16005015D02*
X9083328Y-16043110D01*
X9083328Y-16043110D02*
X9083328Y-16090729D01*
X9083328Y-16090729D02*
X9073804Y-16128824D01*
X9073804Y-16128824D02*
X9064280Y-16147872D01*
X9064280Y-16147872D02*
X9054757Y-16157396D01*
X9054757Y-16157396D02*
X9035709Y-16166919D01*
X9035709Y-16166919D02*
X9016661Y-16166919D01*
X9016661Y-16166919D02*
X8997614Y-16157396D01*
X8997614Y-16157396D02*
X8988090Y-16147872D01*
X8988090Y-16147872D02*
X8978566Y-16128824D01*
X8978566Y-16128824D02*
X8969042Y-16090729D01*
X8969042Y-16090729D02*
X8969042Y-16043110D01*
X8969042Y-16043110D02*
X8978566Y-16005015D01*
X8978566Y-16005015D02*
X8988090Y-15985967D01*
X8988090Y-15985967D02*
X8997614Y-15976443D01*
X8997614Y-15976443D02*
X9016661Y-15966919D01*
X9169042Y-16166919D02*
X9169042Y-16033586D01*
X9169042Y-16052634D02*
X9178566Y-16043110D01*
X9178566Y-16043110D02*
X9197614Y-16033586D01*
X9197614Y-16033586D02*
X9226185Y-16033586D01*
X9226185Y-16033586D02*
X9245233Y-16043110D01*
X9245233Y-16043110D02*
X9254757Y-16062158D01*
X9254757Y-16062158D02*
X9254757Y-16166919D01*
X9254757Y-16062158D02*
X9264280Y-16043110D01*
X9264280Y-16043110D02*
X9283328Y-16033586D01*
X9283328Y-16033586D02*
X9311899Y-16033586D01*
X9311899Y-16033586D02*
X9330947Y-16043110D01*
X9330947Y-16043110D02*
X9340471Y-16062158D01*
X9340471Y-16062158D02*
X9340471Y-16166919D01*
X9435709Y-16166919D02*
X9435709Y-16033586D01*
X9435709Y-16052634D02*
X9445233Y-16043110D01*
X9445233Y-16043110D02*
X9464280Y-16033586D01*
X9464280Y-16033586D02*
X9492852Y-16033586D01*
X9492852Y-16033586D02*
X9511900Y-16043110D01*
X9511900Y-16043110D02*
X9521423Y-16062158D01*
X9521423Y-16062158D02*
X9521423Y-16166919D01*
X9521423Y-16062158D02*
X9530947Y-16043110D01*
X9530947Y-16043110D02*
X9549995Y-16033586D01*
X9549995Y-16033586D02*
X9578566Y-16033586D01*
X9578566Y-16033586D02*
X9597614Y-16043110D01*
X9597614Y-16043110D02*
X9607138Y-16062158D01*
X9607138Y-16062158D02*
X9607138Y-16166919D01*
X9997614Y-15957396D02*
X9826185Y-16214538D01*
X10254757Y-15966919D02*
X10273804Y-15966919D01*
X10273804Y-15966919D02*
X10292852Y-15976443D01*
X10292852Y-15976443D02*
X10302376Y-15985967D01*
X10302376Y-15985967D02*
X10311900Y-16005015D01*
X10311900Y-16005015D02*
X10321423Y-16043110D01*
X10321423Y-16043110D02*
X10321423Y-16090729D01*
X10321423Y-16090729D02*
X10311900Y-16128824D01*
X10311900Y-16128824D02*
X10302376Y-16147872D01*
X10302376Y-16147872D02*
X10292852Y-16157396D01*
X10292852Y-16157396D02*
X10273804Y-16166919D01*
X10273804Y-16166919D02*
X10254757Y-16166919D01*
X10254757Y-16166919D02*
X10235709Y-16157396D01*
X10235709Y-16157396D02*
X10226185Y-16147872D01*
X10226185Y-16147872D02*
X10216662Y-16128824D01*
X10216662Y-16128824D02*
X10207138Y-16090729D01*
X10207138Y-16090729D02*
X10207138Y-16043110D01*
X10207138Y-16043110D02*
X10216662Y-16005015D01*
X10216662Y-16005015D02*
X10226185Y-15985967D01*
X10226185Y-15985967D02*
X10235709Y-15976443D01*
X10235709Y-15976443D02*
X10254757Y-15966919D01*
X10407138Y-16147872D02*
X10416662Y-16157396D01*
X10416662Y-16157396D02*
X10407138Y-16166919D01*
X10407138Y-16166919D02*
X10397614Y-16157396D01*
X10397614Y-16157396D02*
X10407138Y-16147872D01*
X10407138Y-16147872D02*
X10407138Y-16166919D01*
X10540471Y-15966919D02*
X10559519Y-15966919D01*
X10559519Y-15966919D02*
X10578566Y-15976443D01*
X10578566Y-15976443D02*
X10588090Y-15985967D01*
X10588090Y-15985967D02*
X10597614Y-16005015D01*
X10597614Y-16005015D02*
X10607138Y-16043110D01*
X10607138Y-16043110D02*
X10607138Y-16090729D01*
X10607138Y-16090729D02*
X10597614Y-16128824D01*
X10597614Y-16128824D02*
X10588090Y-16147872D01*
X10588090Y-16147872D02*
X10578566Y-16157396D01*
X10578566Y-16157396D02*
X10559519Y-16166919D01*
X10559519Y-16166919D02*
X10540471Y-16166919D01*
X10540471Y-16166919D02*
X10521423Y-16157396D01*
X10521423Y-16157396D02*
X10511900Y-16147872D01*
X10511900Y-16147872D02*
X10502376Y-16128824D01*
X10502376Y-16128824D02*
X10492852Y-16090729D01*
X10492852Y-16090729D02*
X10492852Y-16043110D01*
X10492852Y-16043110D02*
X10502376Y-16005015D01*
X10502376Y-16005015D02*
X10511900Y-15985967D01*
X10511900Y-15985967D02*
X10521423Y-15976443D01*
X10521423Y-15976443D02*
X10540471Y-15966919D01*
X10797614Y-16166919D02*
X10683328Y-16166919D01*
X10740471Y-16166919D02*
X10740471Y-15966919D01*
X10740471Y-15966919D02*
X10721423Y-15995491D01*
X10721423Y-15995491D02*
X10702376Y-16014538D01*
X10702376Y-16014538D02*
X10683328Y-16024062D01*
X10978566Y-15966919D02*
X10883328Y-15966919D01*
X10883328Y-15966919D02*
X10873804Y-16062158D01*
X10873804Y-16062158D02*
X10883328Y-16052634D01*
X10883328Y-16052634D02*
X10902376Y-16043110D01*
X10902376Y-16043110D02*
X10949995Y-16043110D01*
X10949995Y-16043110D02*
X10969043Y-16052634D01*
X10969043Y-16052634D02*
X10978566Y-16062158D01*
X10978566Y-16062158D02*
X10988090Y-16081205D01*
X10988090Y-16081205D02*
X10988090Y-16128824D01*
X10988090Y-16128824D02*
X10978566Y-16147872D01*
X10978566Y-16147872D02*
X10969043Y-16157396D01*
X10969043Y-16157396D02*
X10949995Y-16166919D01*
X10949995Y-16166919D02*
X10902376Y-16166919D01*
X10902376Y-16166919D02*
X10883328Y-16157396D01*
X10883328Y-16157396D02*
X10873804Y-16147872D01*
X11054757Y-15966919D02*
X11188090Y-15966919D01*
X11188090Y-15966919D02*
X11102376Y-16166919D01*
X11254757Y-15966919D02*
X11254757Y-16005015D01*
X11330947Y-15966919D02*
X11330947Y-16005015D01*
X11626185Y-16243110D02*
X11616662Y-16233586D01*
X11616662Y-16233586D02*
X11597614Y-16205015D01*
X11597614Y-16205015D02*
X11588090Y-16185967D01*
X11588090Y-16185967D02*
X11578566Y-16157396D01*
X11578566Y-16157396D02*
X11569043Y-16109777D01*
X11569043Y-16109777D02*
X11569043Y-16071681D01*
X11569043Y-16071681D02*
X11578566Y-16024062D01*
X11578566Y-16024062D02*
X11588090Y-15995491D01*
X11588090Y-15995491D02*
X11597614Y-15976443D01*
X11597614Y-15976443D02*
X11616662Y-15947872D01*
X11616662Y-15947872D02*
X11626185Y-15938348D01*
X11683328Y-15966919D02*
X11807138Y-15966919D01*
X11807138Y-15966919D02*
X11740471Y-16043110D01*
X11740471Y-16043110D02*
X11769043Y-16043110D01*
X11769043Y-16043110D02*
X11788090Y-16052634D01*
X11788090Y-16052634D02*
X11797614Y-16062158D01*
X11797614Y-16062158D02*
X11807138Y-16081205D01*
X11807138Y-16081205D02*
X11807138Y-16128824D01*
X11807138Y-16128824D02*
X11797614Y-16147872D01*
X11797614Y-16147872D02*
X11788090Y-16157396D01*
X11788090Y-16157396D02*
X11769043Y-16166919D01*
X11769043Y-16166919D02*
X11711900Y-16166919D01*
X11711900Y-16166919D02*
X11692852Y-16157396D01*
X11692852Y-16157396D02*
X11683328Y-16147872D01*
X11978566Y-15966919D02*
X11940471Y-15966919D01*
X11940471Y-15966919D02*
X11921423Y-15976443D01*
X11921423Y-15976443D02*
X11911900Y-15985967D01*
X11911900Y-15985967D02*
X11892852Y-16014538D01*
X11892852Y-16014538D02*
X11883328Y-16052634D01*
X11883328Y-16052634D02*
X11883328Y-16128824D01*
X11883328Y-16128824D02*
X11892852Y-16147872D01*
X11892852Y-16147872D02*
X11902376Y-16157396D01*
X11902376Y-16157396D02*
X11921423Y-16166919D01*
X11921423Y-16166919D02*
X11959519Y-16166919D01*
X11959519Y-16166919D02*
X11978566Y-16157396D01*
X11978566Y-16157396D02*
X11988090Y-16147872D01*
X11988090Y-16147872D02*
X11997614Y-16128824D01*
X11997614Y-16128824D02*
X11997614Y-16081205D01*
X11997614Y-16081205D02*
X11988090Y-16062158D01*
X11988090Y-16062158D02*
X11978566Y-16052634D01*
X11978566Y-16052634D02*
X11959519Y-16043110D01*
X11959519Y-16043110D02*
X11921423Y-16043110D01*
X11921423Y-16043110D02*
X11902376Y-16052634D01*
X11902376Y-16052634D02*
X11892852Y-16062158D01*
X11892852Y-16062158D02*
X11883328Y-16081205D01*
X12235709Y-16166919D02*
X12235709Y-15966919D01*
X12321424Y-16166919D02*
X12321424Y-16062158D01*
X12321424Y-16062158D02*
X12311900Y-16043110D01*
X12311900Y-16043110D02*
X12292852Y-16033586D01*
X12292852Y-16033586D02*
X12264281Y-16033586D01*
X12264281Y-16033586D02*
X12245233Y-16043110D01*
X12245233Y-16043110D02*
X12235709Y-16052634D01*
X12445233Y-16166919D02*
X12426185Y-16157396D01*
X12426185Y-16157396D02*
X12416662Y-16147872D01*
X12416662Y-16147872D02*
X12407138Y-16128824D01*
X12407138Y-16128824D02*
X12407138Y-16071681D01*
X12407138Y-16071681D02*
X12416662Y-16052634D01*
X12416662Y-16052634D02*
X12426185Y-16043110D01*
X12426185Y-16043110D02*
X12445233Y-16033586D01*
X12445233Y-16033586D02*
X12473805Y-16033586D01*
X12473805Y-16033586D02*
X12492852Y-16043110D01*
X12492852Y-16043110D02*
X12502376Y-16052634D01*
X12502376Y-16052634D02*
X12511900Y-16071681D01*
X12511900Y-16071681D02*
X12511900Y-16128824D01*
X12511900Y-16128824D02*
X12502376Y-16147872D01*
X12502376Y-16147872D02*
X12492852Y-16157396D01*
X12492852Y-16157396D02*
X12473805Y-16166919D01*
X12473805Y-16166919D02*
X12445233Y-16166919D01*
X12626185Y-16166919D02*
X12607138Y-16157396D01*
X12607138Y-16157396D02*
X12597614Y-16138348D01*
X12597614Y-16138348D02*
X12597614Y-15966919D01*
X12778566Y-16157396D02*
X12759519Y-16166919D01*
X12759519Y-16166919D02*
X12721424Y-16166919D01*
X12721424Y-16166919D02*
X12702376Y-16157396D01*
X12702376Y-16157396D02*
X12692852Y-16138348D01*
X12692852Y-16138348D02*
X12692852Y-16062158D01*
X12692852Y-16062158D02*
X12702376Y-16043110D01*
X12702376Y-16043110D02*
X12721424Y-16033586D01*
X12721424Y-16033586D02*
X12759519Y-16033586D01*
X12759519Y-16033586D02*
X12778566Y-16043110D01*
X12778566Y-16043110D02*
X12788090Y-16062158D01*
X12788090Y-16062158D02*
X12788090Y-16081205D01*
X12788090Y-16081205D02*
X12692852Y-16100253D01*
X12864281Y-16157396D02*
X12883328Y-16166919D01*
X12883328Y-16166919D02*
X12921424Y-16166919D01*
X12921424Y-16166919D02*
X12940471Y-16157396D01*
X12940471Y-16157396D02*
X12949995Y-16138348D01*
X12949995Y-16138348D02*
X12949995Y-16128824D01*
X12949995Y-16128824D02*
X12940471Y-16109777D01*
X12940471Y-16109777D02*
X12921424Y-16100253D01*
X12921424Y-16100253D02*
X12892852Y-16100253D01*
X12892852Y-16100253D02*
X12873805Y-16090729D01*
X12873805Y-16090729D02*
X12864281Y-16071681D01*
X12864281Y-16071681D02*
X12864281Y-16062158D01*
X12864281Y-16062158D02*
X12873805Y-16043110D01*
X12873805Y-16043110D02*
X12892852Y-16033586D01*
X12892852Y-16033586D02*
X12921424Y-16033586D01*
X12921424Y-16033586D02*
X12940471Y-16043110D01*
X13016662Y-16243110D02*
X13026186Y-16233586D01*
X13026186Y-16233586D02*
X13045233Y-16205015D01*
X13045233Y-16205015D02*
X13054757Y-16185967D01*
X13054757Y-16185967D02*
X13064281Y-16157396D01*
X13064281Y-16157396D02*
X13073805Y-16109777D01*
X13073805Y-16109777D02*
X13073805Y-16071681D01*
X13073805Y-16071681D02*
X13064281Y-16024062D01*
X13064281Y-16024062D02*
X13054757Y-15995491D01*
X13054757Y-15995491D02*
X13045233Y-15976443D01*
X13045233Y-15976443D02*
X13026186Y-15947872D01*
X13026186Y-15947872D02*
X13016662Y-15938348D01*
D11*
X8031123Y-16319436D02*
X8031123Y-16359436D01*
X8011123Y-16339436D02*
X8051123Y-16339436D01*
D10*
X8349995Y-16230919D02*
X8369042Y-16230919D01*
X8369042Y-16230919D02*
X8388090Y-16240443D01*
X8388090Y-16240443D02*
X8397614Y-16249967D01*
X8397614Y-16249967D02*
X8407138Y-16269015D01*
X8407138Y-16269015D02*
X8416661Y-16307110D01*
X8416661Y-16307110D02*
X8416661Y-16354729D01*
X8416661Y-16354729D02*
X8407138Y-16392824D01*
X8407138Y-16392824D02*
X8397614Y-16411872D01*
X8397614Y-16411872D02*
X8388090Y-16421396D01*
X8388090Y-16421396D02*
X8369042Y-16430919D01*
X8369042Y-16430919D02*
X8349995Y-16430919D01*
X8349995Y-16430919D02*
X8330947Y-16421396D01*
X8330947Y-16421396D02*
X8321423Y-16411872D01*
X8321423Y-16411872D02*
X8311899Y-16392824D01*
X8311899Y-16392824D02*
X8302376Y-16354729D01*
X8302376Y-16354729D02*
X8302376Y-16307110D01*
X8302376Y-16307110D02*
X8311899Y-16269015D01*
X8311899Y-16269015D02*
X8321423Y-16249967D01*
X8321423Y-16249967D02*
X8330947Y-16240443D01*
X8330947Y-16240443D02*
X8349995Y-16230919D01*
X8502376Y-16411872D02*
X8511899Y-16421396D01*
X8511899Y-16421396D02*
X8502376Y-16430919D01*
X8502376Y-16430919D02*
X8492852Y-16421396D01*
X8492852Y-16421396D02*
X8502376Y-16411872D01*
X8502376Y-16411872D02*
X8502376Y-16430919D01*
X8683328Y-16297586D02*
X8683328Y-16430919D01*
X8635709Y-16221396D02*
X8588090Y-16364253D01*
X8588090Y-16364253D02*
X8711899Y-16364253D01*
X8826185Y-16230919D02*
X8845233Y-16230919D01*
X8845233Y-16230919D02*
X8864280Y-16240443D01*
X8864280Y-16240443D02*
X8873804Y-16249967D01*
X8873804Y-16249967D02*
X8883328Y-16269015D01*
X8883328Y-16269015D02*
X8892852Y-16307110D01*
X8892852Y-16307110D02*
X8892852Y-16354729D01*
X8892852Y-16354729D02*
X8883328Y-16392824D01*
X8883328Y-16392824D02*
X8873804Y-16411872D01*
X8873804Y-16411872D02*
X8864280Y-16421396D01*
X8864280Y-16421396D02*
X8845233Y-16430919D01*
X8845233Y-16430919D02*
X8826185Y-16430919D01*
X8826185Y-16430919D02*
X8807138Y-16421396D01*
X8807138Y-16421396D02*
X8797614Y-16411872D01*
X8797614Y-16411872D02*
X8788090Y-16392824D01*
X8788090Y-16392824D02*
X8778566Y-16354729D01*
X8778566Y-16354729D02*
X8778566Y-16307110D01*
X8778566Y-16307110D02*
X8788090Y-16269015D01*
X8788090Y-16269015D02*
X8797614Y-16249967D01*
X8797614Y-16249967D02*
X8807138Y-16240443D01*
X8807138Y-16240443D02*
X8826185Y-16230919D01*
X9016661Y-16230919D02*
X9035709Y-16230919D01*
X9035709Y-16230919D02*
X9054757Y-16240443D01*
X9054757Y-16240443D02*
X9064280Y-16249967D01*
X9064280Y-16249967D02*
X9073804Y-16269015D01*
X9073804Y-16269015D02*
X9083328Y-16307110D01*
X9083328Y-16307110D02*
X9083328Y-16354729D01*
X9083328Y-16354729D02*
X9073804Y-16392824D01*
X9073804Y-16392824D02*
X9064280Y-16411872D01*
X9064280Y-16411872D02*
X9054757Y-16421396D01*
X9054757Y-16421396D02*
X9035709Y-16430919D01*
X9035709Y-16430919D02*
X9016661Y-16430919D01*
X9016661Y-16430919D02*
X8997614Y-16421396D01*
X8997614Y-16421396D02*
X8988090Y-16411872D01*
X8988090Y-16411872D02*
X8978566Y-16392824D01*
X8978566Y-16392824D02*
X8969042Y-16354729D01*
X8969042Y-16354729D02*
X8969042Y-16307110D01*
X8969042Y-16307110D02*
X8978566Y-16269015D01*
X8978566Y-16269015D02*
X8988090Y-16249967D01*
X8988090Y-16249967D02*
X8997614Y-16240443D01*
X8997614Y-16240443D02*
X9016661Y-16230919D01*
X9169042Y-16430919D02*
X9169042Y-16297586D01*
X9169042Y-16316634D02*
X9178566Y-16307110D01*
X9178566Y-16307110D02*
X9197614Y-16297586D01*
X9197614Y-16297586D02*
X9226185Y-16297586D01*
X9226185Y-16297586D02*
X9245233Y-16307110D01*
X9245233Y-16307110D02*
X9254757Y-16326158D01*
X9254757Y-16326158D02*
X9254757Y-16430919D01*
X9254757Y-16326158D02*
X9264280Y-16307110D01*
X9264280Y-16307110D02*
X9283328Y-16297586D01*
X9283328Y-16297586D02*
X9311899Y-16297586D01*
X9311899Y-16297586D02*
X9330947Y-16307110D01*
X9330947Y-16307110D02*
X9340471Y-16326158D01*
X9340471Y-16326158D02*
X9340471Y-16430919D01*
X9435709Y-16430919D02*
X9435709Y-16297586D01*
X9435709Y-16316634D02*
X9445233Y-16307110D01*
X9445233Y-16307110D02*
X9464280Y-16297586D01*
X9464280Y-16297586D02*
X9492852Y-16297586D01*
X9492852Y-16297586D02*
X9511900Y-16307110D01*
X9511900Y-16307110D02*
X9521423Y-16326158D01*
X9521423Y-16326158D02*
X9521423Y-16430919D01*
X9521423Y-16326158D02*
X9530947Y-16307110D01*
X9530947Y-16307110D02*
X9549995Y-16297586D01*
X9549995Y-16297586D02*
X9578566Y-16297586D01*
X9578566Y-16297586D02*
X9597614Y-16307110D01*
X9597614Y-16307110D02*
X9607138Y-16326158D01*
X9607138Y-16326158D02*
X9607138Y-16430919D01*
X9997614Y-16221396D02*
X9826185Y-16478538D01*
X10254757Y-16230919D02*
X10273804Y-16230919D01*
X10273804Y-16230919D02*
X10292852Y-16240443D01*
X10292852Y-16240443D02*
X10302376Y-16249967D01*
X10302376Y-16249967D02*
X10311900Y-16269015D01*
X10311900Y-16269015D02*
X10321423Y-16307110D01*
X10321423Y-16307110D02*
X10321423Y-16354729D01*
X10321423Y-16354729D02*
X10311900Y-16392824D01*
X10311900Y-16392824D02*
X10302376Y-16411872D01*
X10302376Y-16411872D02*
X10292852Y-16421396D01*
X10292852Y-16421396D02*
X10273804Y-16430919D01*
X10273804Y-16430919D02*
X10254757Y-16430919D01*
X10254757Y-16430919D02*
X10235709Y-16421396D01*
X10235709Y-16421396D02*
X10226185Y-16411872D01*
X10226185Y-16411872D02*
X10216662Y-16392824D01*
X10216662Y-16392824D02*
X10207138Y-16354729D01*
X10207138Y-16354729D02*
X10207138Y-16307110D01*
X10207138Y-16307110D02*
X10216662Y-16269015D01*
X10216662Y-16269015D02*
X10226185Y-16249967D01*
X10226185Y-16249967D02*
X10235709Y-16240443D01*
X10235709Y-16240443D02*
X10254757Y-16230919D01*
X10407138Y-16411872D02*
X10416662Y-16421396D01*
X10416662Y-16421396D02*
X10407138Y-16430919D01*
X10407138Y-16430919D02*
X10397614Y-16421396D01*
X10397614Y-16421396D02*
X10407138Y-16411872D01*
X10407138Y-16411872D02*
X10407138Y-16430919D01*
X10540471Y-16230919D02*
X10559519Y-16230919D01*
X10559519Y-16230919D02*
X10578566Y-16240443D01*
X10578566Y-16240443D02*
X10588090Y-16249967D01*
X10588090Y-16249967D02*
X10597614Y-16269015D01*
X10597614Y-16269015D02*
X10607138Y-16307110D01*
X10607138Y-16307110D02*
X10607138Y-16354729D01*
X10607138Y-16354729D02*
X10597614Y-16392824D01*
X10597614Y-16392824D02*
X10588090Y-16411872D01*
X10588090Y-16411872D02*
X10578566Y-16421396D01*
X10578566Y-16421396D02*
X10559519Y-16430919D01*
X10559519Y-16430919D02*
X10540471Y-16430919D01*
X10540471Y-16430919D02*
X10521423Y-16421396D01*
X10521423Y-16421396D02*
X10511900Y-16411872D01*
X10511900Y-16411872D02*
X10502376Y-16392824D01*
X10502376Y-16392824D02*
X10492852Y-16354729D01*
X10492852Y-16354729D02*
X10492852Y-16307110D01*
X10492852Y-16307110D02*
X10502376Y-16269015D01*
X10502376Y-16269015D02*
X10511900Y-16249967D01*
X10511900Y-16249967D02*
X10521423Y-16240443D01*
X10521423Y-16240443D02*
X10540471Y-16230919D01*
X10797614Y-16430919D02*
X10683328Y-16430919D01*
X10740471Y-16430919D02*
X10740471Y-16230919D01*
X10740471Y-16230919D02*
X10721423Y-16259491D01*
X10721423Y-16259491D02*
X10702376Y-16278538D01*
X10702376Y-16278538D02*
X10683328Y-16288062D01*
X10978566Y-16230919D02*
X10883328Y-16230919D01*
X10883328Y-16230919D02*
X10873804Y-16326158D01*
X10873804Y-16326158D02*
X10883328Y-16316634D01*
X10883328Y-16316634D02*
X10902376Y-16307110D01*
X10902376Y-16307110D02*
X10949995Y-16307110D01*
X10949995Y-16307110D02*
X10969043Y-16316634D01*
X10969043Y-16316634D02*
X10978566Y-16326158D01*
X10978566Y-16326158D02*
X10988090Y-16345205D01*
X10988090Y-16345205D02*
X10988090Y-16392824D01*
X10988090Y-16392824D02*
X10978566Y-16411872D01*
X10978566Y-16411872D02*
X10969043Y-16421396D01*
X10969043Y-16421396D02*
X10949995Y-16430919D01*
X10949995Y-16430919D02*
X10902376Y-16430919D01*
X10902376Y-16430919D02*
X10883328Y-16421396D01*
X10883328Y-16421396D02*
X10873804Y-16411872D01*
X11054757Y-16230919D02*
X11188090Y-16230919D01*
X11188090Y-16230919D02*
X11102376Y-16430919D01*
X11254757Y-16230919D02*
X11254757Y-16269015D01*
X11330947Y-16230919D02*
X11330947Y-16269015D01*
X11626185Y-16507110D02*
X11616662Y-16497586D01*
X11616662Y-16497586D02*
X11597614Y-16469015D01*
X11597614Y-16469015D02*
X11588090Y-16449967D01*
X11588090Y-16449967D02*
X11578566Y-16421396D01*
X11578566Y-16421396D02*
X11569043Y-16373777D01*
X11569043Y-16373777D02*
X11569043Y-16335681D01*
X11569043Y-16335681D02*
X11578566Y-16288062D01*
X11578566Y-16288062D02*
X11588090Y-16259491D01*
X11588090Y-16259491D02*
X11597614Y-16240443D01*
X11597614Y-16240443D02*
X11616662Y-16211872D01*
X11616662Y-16211872D02*
X11626185Y-16202348D01*
X11807138Y-16430919D02*
X11692852Y-16430919D01*
X11749995Y-16430919D02*
X11749995Y-16230919D01*
X11749995Y-16230919D02*
X11730947Y-16259491D01*
X11730947Y-16259491D02*
X11711900Y-16278538D01*
X11711900Y-16278538D02*
X11692852Y-16288062D01*
X11883328Y-16249967D02*
X11892852Y-16240443D01*
X11892852Y-16240443D02*
X11911900Y-16230919D01*
X11911900Y-16230919D02*
X11959519Y-16230919D01*
X11959519Y-16230919D02*
X11978566Y-16240443D01*
X11978566Y-16240443D02*
X11988090Y-16249967D01*
X11988090Y-16249967D02*
X11997614Y-16269015D01*
X11997614Y-16269015D02*
X11997614Y-16288062D01*
X11997614Y-16288062D02*
X11988090Y-16316634D01*
X11988090Y-16316634D02*
X11873804Y-16430919D01*
X11873804Y-16430919D02*
X11997614Y-16430919D01*
X12235709Y-16430919D02*
X12235709Y-16230919D01*
X12321424Y-16430919D02*
X12321424Y-16326158D01*
X12321424Y-16326158D02*
X12311900Y-16307110D01*
X12311900Y-16307110D02*
X12292852Y-16297586D01*
X12292852Y-16297586D02*
X12264281Y-16297586D01*
X12264281Y-16297586D02*
X12245233Y-16307110D01*
X12245233Y-16307110D02*
X12235709Y-16316634D01*
X12445233Y-16430919D02*
X12426185Y-16421396D01*
X12426185Y-16421396D02*
X12416662Y-16411872D01*
X12416662Y-16411872D02*
X12407138Y-16392824D01*
X12407138Y-16392824D02*
X12407138Y-16335681D01*
X12407138Y-16335681D02*
X12416662Y-16316634D01*
X12416662Y-16316634D02*
X12426185Y-16307110D01*
X12426185Y-16307110D02*
X12445233Y-16297586D01*
X12445233Y-16297586D02*
X12473805Y-16297586D01*
X12473805Y-16297586D02*
X12492852Y-16307110D01*
X12492852Y-16307110D02*
X12502376Y-16316634D01*
X12502376Y-16316634D02*
X12511900Y-16335681D01*
X12511900Y-16335681D02*
X12511900Y-16392824D01*
X12511900Y-16392824D02*
X12502376Y-16411872D01*
X12502376Y-16411872D02*
X12492852Y-16421396D01*
X12492852Y-16421396D02*
X12473805Y-16430919D01*
X12473805Y-16430919D02*
X12445233Y-16430919D01*
X12626185Y-16430919D02*
X12607138Y-16421396D01*
X12607138Y-16421396D02*
X12597614Y-16402348D01*
X12597614Y-16402348D02*
X12597614Y-16230919D01*
X12778566Y-16421396D02*
X12759519Y-16430919D01*
X12759519Y-16430919D02*
X12721424Y-16430919D01*
X12721424Y-16430919D02*
X12702376Y-16421396D01*
X12702376Y-16421396D02*
X12692852Y-16402348D01*
X12692852Y-16402348D02*
X12692852Y-16326158D01*
X12692852Y-16326158D02*
X12702376Y-16307110D01*
X12702376Y-16307110D02*
X12721424Y-16297586D01*
X12721424Y-16297586D02*
X12759519Y-16297586D01*
X12759519Y-16297586D02*
X12778566Y-16307110D01*
X12778566Y-16307110D02*
X12788090Y-16326158D01*
X12788090Y-16326158D02*
X12788090Y-16345205D01*
X12788090Y-16345205D02*
X12692852Y-16364253D01*
X12864281Y-16421396D02*
X12883328Y-16430919D01*
X12883328Y-16430919D02*
X12921424Y-16430919D01*
X12921424Y-16430919D02*
X12940471Y-16421396D01*
X12940471Y-16421396D02*
X12949995Y-16402348D01*
X12949995Y-16402348D02*
X12949995Y-16392824D01*
X12949995Y-16392824D02*
X12940471Y-16373777D01*
X12940471Y-16373777D02*
X12921424Y-16364253D01*
X12921424Y-16364253D02*
X12892852Y-16364253D01*
X12892852Y-16364253D02*
X12873805Y-16354729D01*
X12873805Y-16354729D02*
X12864281Y-16335681D01*
X12864281Y-16335681D02*
X12864281Y-16326158D01*
X12864281Y-16326158D02*
X12873805Y-16307110D01*
X12873805Y-16307110D02*
X12892852Y-16297586D01*
X12892852Y-16297586D02*
X12921424Y-16297586D01*
X12921424Y-16297586D02*
X12940471Y-16307110D01*
X13016662Y-16507110D02*
X13026186Y-16497586D01*
X13026186Y-16497586D02*
X13045233Y-16469015D01*
X13045233Y-16469015D02*
X13054757Y-16449967D01*
X13054757Y-16449967D02*
X13064281Y-16421396D01*
X13064281Y-16421396D02*
X13073805Y-16373777D01*
X13073805Y-16373777D02*
X13073805Y-16335681D01*
X13073805Y-16335681D02*
X13064281Y-16288062D01*
X13064281Y-16288062D02*
X13054757Y-16259491D01*
X13054757Y-16259491D02*
X13045233Y-16240443D01*
X13045233Y-16240443D02*
X13026186Y-16211872D01*
X13026186Y-16211872D02*
X13016662Y-16202348D01*
D11*
X8043800Y-16621113D02*
X8043800Y-16585758D01*
X8008445Y-16585758D01*
X8008445Y-16621113D01*
X8043800Y-16621113D01*
D10*
X8349995Y-16494919D02*
X8369042Y-16494919D01*
X8369042Y-16494919D02*
X8388090Y-16504443D01*
X8388090Y-16504443D02*
X8397614Y-16513967D01*
X8397614Y-16513967D02*
X8407138Y-16533015D01*
X8407138Y-16533015D02*
X8416661Y-16571110D01*
X8416661Y-16571110D02*
X8416661Y-16618729D01*
X8416661Y-16618729D02*
X8407138Y-16656824D01*
X8407138Y-16656824D02*
X8397614Y-16675872D01*
X8397614Y-16675872D02*
X8388090Y-16685396D01*
X8388090Y-16685396D02*
X8369042Y-16694919D01*
X8369042Y-16694919D02*
X8349995Y-16694919D01*
X8349995Y-16694919D02*
X8330947Y-16685396D01*
X8330947Y-16685396D02*
X8321423Y-16675872D01*
X8321423Y-16675872D02*
X8311899Y-16656824D01*
X8311899Y-16656824D02*
X8302376Y-16618729D01*
X8302376Y-16618729D02*
X8302376Y-16571110D01*
X8302376Y-16571110D02*
X8311899Y-16533015D01*
X8311899Y-16533015D02*
X8321423Y-16513967D01*
X8321423Y-16513967D02*
X8330947Y-16504443D01*
X8330947Y-16504443D02*
X8349995Y-16494919D01*
X8502376Y-16675872D02*
X8511899Y-16685396D01*
X8511899Y-16685396D02*
X8502376Y-16694919D01*
X8502376Y-16694919D02*
X8492852Y-16685396D01*
X8492852Y-16685396D02*
X8502376Y-16675872D01*
X8502376Y-16675872D02*
X8502376Y-16694919D01*
X8692852Y-16494919D02*
X8597614Y-16494919D01*
X8597614Y-16494919D02*
X8588090Y-16590158D01*
X8588090Y-16590158D02*
X8597614Y-16580634D01*
X8597614Y-16580634D02*
X8616661Y-16571110D01*
X8616661Y-16571110D02*
X8664280Y-16571110D01*
X8664280Y-16571110D02*
X8683328Y-16580634D01*
X8683328Y-16580634D02*
X8692852Y-16590158D01*
X8692852Y-16590158D02*
X8702376Y-16609205D01*
X8702376Y-16609205D02*
X8702376Y-16656824D01*
X8702376Y-16656824D02*
X8692852Y-16675872D01*
X8692852Y-16675872D02*
X8683328Y-16685396D01*
X8683328Y-16685396D02*
X8664280Y-16694919D01*
X8664280Y-16694919D02*
X8616661Y-16694919D01*
X8616661Y-16694919D02*
X8597614Y-16685396D01*
X8597614Y-16685396D02*
X8588090Y-16675872D01*
X8826185Y-16494919D02*
X8845233Y-16494919D01*
X8845233Y-16494919D02*
X8864280Y-16504443D01*
X8864280Y-16504443D02*
X8873804Y-16513967D01*
X8873804Y-16513967D02*
X8883328Y-16533015D01*
X8883328Y-16533015D02*
X8892852Y-16571110D01*
X8892852Y-16571110D02*
X8892852Y-16618729D01*
X8892852Y-16618729D02*
X8883328Y-16656824D01*
X8883328Y-16656824D02*
X8873804Y-16675872D01*
X8873804Y-16675872D02*
X8864280Y-16685396D01*
X8864280Y-16685396D02*
X8845233Y-16694919D01*
X8845233Y-16694919D02*
X8826185Y-16694919D01*
X8826185Y-16694919D02*
X8807138Y-16685396D01*
X8807138Y-16685396D02*
X8797614Y-16675872D01*
X8797614Y-16675872D02*
X8788090Y-16656824D01*
X8788090Y-16656824D02*
X8778566Y-16618729D01*
X8778566Y-16618729D02*
X8778566Y-16571110D01*
X8778566Y-16571110D02*
X8788090Y-16533015D01*
X8788090Y-16533015D02*
X8797614Y-16513967D01*
X8797614Y-16513967D02*
X8807138Y-16504443D01*
X8807138Y-16504443D02*
X8826185Y-16494919D01*
X9016661Y-16494919D02*
X9035709Y-16494919D01*
X9035709Y-16494919D02*
X9054757Y-16504443D01*
X9054757Y-16504443D02*
X9064280Y-16513967D01*
X9064280Y-16513967D02*
X9073804Y-16533015D01*
X9073804Y-16533015D02*
X9083328Y-16571110D01*
X9083328Y-16571110D02*
X9083328Y-16618729D01*
X9083328Y-16618729D02*
X9073804Y-16656824D01*
X9073804Y-16656824D02*
X9064280Y-16675872D01*
X9064280Y-16675872D02*
X9054757Y-16685396D01*
X9054757Y-16685396D02*
X9035709Y-16694919D01*
X9035709Y-16694919D02*
X9016661Y-16694919D01*
X9016661Y-16694919D02*
X8997614Y-16685396D01*
X8997614Y-16685396D02*
X8988090Y-16675872D01*
X8988090Y-16675872D02*
X8978566Y-16656824D01*
X8978566Y-16656824D02*
X8969042Y-16618729D01*
X8969042Y-16618729D02*
X8969042Y-16571110D01*
X8969042Y-16571110D02*
X8978566Y-16533015D01*
X8978566Y-16533015D02*
X8988090Y-16513967D01*
X8988090Y-16513967D02*
X8997614Y-16504443D01*
X8997614Y-16504443D02*
X9016661Y-16494919D01*
X9169042Y-16694919D02*
X9169042Y-16561586D01*
X9169042Y-16580634D02*
X9178566Y-16571110D01*
X9178566Y-16571110D02*
X9197614Y-16561586D01*
X9197614Y-16561586D02*
X9226185Y-16561586D01*
X9226185Y-16561586D02*
X9245233Y-16571110D01*
X9245233Y-16571110D02*
X9254757Y-16590158D01*
X9254757Y-16590158D02*
X9254757Y-16694919D01*
X9254757Y-16590158D02*
X9264280Y-16571110D01*
X9264280Y-16571110D02*
X9283328Y-16561586D01*
X9283328Y-16561586D02*
X9311899Y-16561586D01*
X9311899Y-16561586D02*
X9330947Y-16571110D01*
X9330947Y-16571110D02*
X9340471Y-16590158D01*
X9340471Y-16590158D02*
X9340471Y-16694919D01*
X9435709Y-16694919D02*
X9435709Y-16561586D01*
X9435709Y-16580634D02*
X9445233Y-16571110D01*
X9445233Y-16571110D02*
X9464280Y-16561586D01*
X9464280Y-16561586D02*
X9492852Y-16561586D01*
X9492852Y-16561586D02*
X9511900Y-16571110D01*
X9511900Y-16571110D02*
X9521423Y-16590158D01*
X9521423Y-16590158D02*
X9521423Y-16694919D01*
X9521423Y-16590158D02*
X9530947Y-16571110D01*
X9530947Y-16571110D02*
X9549995Y-16561586D01*
X9549995Y-16561586D02*
X9578566Y-16561586D01*
X9578566Y-16561586D02*
X9597614Y-16571110D01*
X9597614Y-16571110D02*
X9607138Y-16590158D01*
X9607138Y-16590158D02*
X9607138Y-16694919D01*
X9997614Y-16485396D02*
X9826185Y-16742538D01*
X10254757Y-16494919D02*
X10273804Y-16494919D01*
X10273804Y-16494919D02*
X10292852Y-16504443D01*
X10292852Y-16504443D02*
X10302376Y-16513967D01*
X10302376Y-16513967D02*
X10311900Y-16533015D01*
X10311900Y-16533015D02*
X10321423Y-16571110D01*
X10321423Y-16571110D02*
X10321423Y-16618729D01*
X10321423Y-16618729D02*
X10311900Y-16656824D01*
X10311900Y-16656824D02*
X10302376Y-16675872D01*
X10302376Y-16675872D02*
X10292852Y-16685396D01*
X10292852Y-16685396D02*
X10273804Y-16694919D01*
X10273804Y-16694919D02*
X10254757Y-16694919D01*
X10254757Y-16694919D02*
X10235709Y-16685396D01*
X10235709Y-16685396D02*
X10226185Y-16675872D01*
X10226185Y-16675872D02*
X10216662Y-16656824D01*
X10216662Y-16656824D02*
X10207138Y-16618729D01*
X10207138Y-16618729D02*
X10207138Y-16571110D01*
X10207138Y-16571110D02*
X10216662Y-16533015D01*
X10216662Y-16533015D02*
X10226185Y-16513967D01*
X10226185Y-16513967D02*
X10235709Y-16504443D01*
X10235709Y-16504443D02*
X10254757Y-16494919D01*
X10407138Y-16675872D02*
X10416662Y-16685396D01*
X10416662Y-16685396D02*
X10407138Y-16694919D01*
X10407138Y-16694919D02*
X10397614Y-16685396D01*
X10397614Y-16685396D02*
X10407138Y-16675872D01*
X10407138Y-16675872D02*
X10407138Y-16694919D01*
X10540471Y-16494919D02*
X10559519Y-16494919D01*
X10559519Y-16494919D02*
X10578566Y-16504443D01*
X10578566Y-16504443D02*
X10588090Y-16513967D01*
X10588090Y-16513967D02*
X10597614Y-16533015D01*
X10597614Y-16533015D02*
X10607138Y-16571110D01*
X10607138Y-16571110D02*
X10607138Y-16618729D01*
X10607138Y-16618729D02*
X10597614Y-16656824D01*
X10597614Y-16656824D02*
X10588090Y-16675872D01*
X10588090Y-16675872D02*
X10578566Y-16685396D01*
X10578566Y-16685396D02*
X10559519Y-16694919D01*
X10559519Y-16694919D02*
X10540471Y-16694919D01*
X10540471Y-16694919D02*
X10521423Y-16685396D01*
X10521423Y-16685396D02*
X10511900Y-16675872D01*
X10511900Y-16675872D02*
X10502376Y-16656824D01*
X10502376Y-16656824D02*
X10492852Y-16618729D01*
X10492852Y-16618729D02*
X10492852Y-16571110D01*
X10492852Y-16571110D02*
X10502376Y-16533015D01*
X10502376Y-16533015D02*
X10511900Y-16513967D01*
X10511900Y-16513967D02*
X10521423Y-16504443D01*
X10521423Y-16504443D02*
X10540471Y-16494919D01*
X10797614Y-16694919D02*
X10683328Y-16694919D01*
X10740471Y-16694919D02*
X10740471Y-16494919D01*
X10740471Y-16494919D02*
X10721423Y-16523491D01*
X10721423Y-16523491D02*
X10702376Y-16542538D01*
X10702376Y-16542538D02*
X10683328Y-16552062D01*
X10892852Y-16694919D02*
X10930947Y-16694919D01*
X10930947Y-16694919D02*
X10949995Y-16685396D01*
X10949995Y-16685396D02*
X10959519Y-16675872D01*
X10959519Y-16675872D02*
X10978566Y-16647300D01*
X10978566Y-16647300D02*
X10988090Y-16609205D01*
X10988090Y-16609205D02*
X10988090Y-16533015D01*
X10988090Y-16533015D02*
X10978566Y-16513967D01*
X10978566Y-16513967D02*
X10969043Y-16504443D01*
X10969043Y-16504443D02*
X10949995Y-16494919D01*
X10949995Y-16494919D02*
X10911900Y-16494919D01*
X10911900Y-16494919D02*
X10892852Y-16504443D01*
X10892852Y-16504443D02*
X10883328Y-16513967D01*
X10883328Y-16513967D02*
X10873804Y-16533015D01*
X10873804Y-16533015D02*
X10873804Y-16580634D01*
X10873804Y-16580634D02*
X10883328Y-16599681D01*
X10883328Y-16599681D02*
X10892852Y-16609205D01*
X10892852Y-16609205D02*
X10911900Y-16618729D01*
X10911900Y-16618729D02*
X10949995Y-16618729D01*
X10949995Y-16618729D02*
X10969043Y-16609205D01*
X10969043Y-16609205D02*
X10978566Y-16599681D01*
X10978566Y-16599681D02*
X10988090Y-16580634D01*
X11054757Y-16494919D02*
X11188090Y-16494919D01*
X11188090Y-16494919D02*
X11102376Y-16694919D01*
X11254757Y-16494919D02*
X11254757Y-16533015D01*
X11330947Y-16494919D02*
X11330947Y-16533015D01*
X11626185Y-16771110D02*
X11616662Y-16761586D01*
X11616662Y-16761586D02*
X11597614Y-16733015D01*
X11597614Y-16733015D02*
X11588090Y-16713967D01*
X11588090Y-16713967D02*
X11578566Y-16685396D01*
X11578566Y-16685396D02*
X11569043Y-16637777D01*
X11569043Y-16637777D02*
X11569043Y-16599681D01*
X11569043Y-16599681D02*
X11578566Y-16552062D01*
X11578566Y-16552062D02*
X11588090Y-16523491D01*
X11588090Y-16523491D02*
X11597614Y-16504443D01*
X11597614Y-16504443D02*
X11616662Y-16475872D01*
X11616662Y-16475872D02*
X11626185Y-16466348D01*
X11740471Y-16494919D02*
X11759519Y-16494919D01*
X11759519Y-16494919D02*
X11778566Y-16504443D01*
X11778566Y-16504443D02*
X11788090Y-16513967D01*
X11788090Y-16513967D02*
X11797614Y-16533015D01*
X11797614Y-16533015D02*
X11807138Y-16571110D01*
X11807138Y-16571110D02*
X11807138Y-16618729D01*
X11807138Y-16618729D02*
X11797614Y-16656824D01*
X11797614Y-16656824D02*
X11788090Y-16675872D01*
X11788090Y-16675872D02*
X11778566Y-16685396D01*
X11778566Y-16685396D02*
X11759519Y-16694919D01*
X11759519Y-16694919D02*
X11740471Y-16694919D01*
X11740471Y-16694919D02*
X11721423Y-16685396D01*
X11721423Y-16685396D02*
X11711900Y-16675872D01*
X11711900Y-16675872D02*
X11702376Y-16656824D01*
X11702376Y-16656824D02*
X11692852Y-16618729D01*
X11692852Y-16618729D02*
X11692852Y-16571110D01*
X11692852Y-16571110D02*
X11702376Y-16533015D01*
X11702376Y-16533015D02*
X11711900Y-16513967D01*
X11711900Y-16513967D02*
X11721423Y-16504443D01*
X11721423Y-16504443D02*
X11740471Y-16494919D01*
X12045233Y-16694919D02*
X12045233Y-16494919D01*
X12130947Y-16694919D02*
X12130947Y-16590158D01*
X12130947Y-16590158D02*
X12121424Y-16571110D01*
X12121424Y-16571110D02*
X12102376Y-16561586D01*
X12102376Y-16561586D02*
X12073804Y-16561586D01*
X12073804Y-16561586D02*
X12054757Y-16571110D01*
X12054757Y-16571110D02*
X12045233Y-16580634D01*
X12254757Y-16694919D02*
X12235709Y-16685396D01*
X12235709Y-16685396D02*
X12226185Y-16675872D01*
X12226185Y-16675872D02*
X12216662Y-16656824D01*
X12216662Y-16656824D02*
X12216662Y-16599681D01*
X12216662Y-16599681D02*
X12226185Y-16580634D01*
X12226185Y-16580634D02*
X12235709Y-16571110D01*
X12235709Y-16571110D02*
X12254757Y-16561586D01*
X12254757Y-16561586D02*
X12283328Y-16561586D01*
X12283328Y-16561586D02*
X12302376Y-16571110D01*
X12302376Y-16571110D02*
X12311900Y-16580634D01*
X12311900Y-16580634D02*
X12321424Y-16599681D01*
X12321424Y-16599681D02*
X12321424Y-16656824D01*
X12321424Y-16656824D02*
X12311900Y-16675872D01*
X12311900Y-16675872D02*
X12302376Y-16685396D01*
X12302376Y-16685396D02*
X12283328Y-16694919D01*
X12283328Y-16694919D02*
X12254757Y-16694919D01*
X12435709Y-16694919D02*
X12416662Y-16685396D01*
X12416662Y-16685396D02*
X12407138Y-16666348D01*
X12407138Y-16666348D02*
X12407138Y-16494919D01*
X12588090Y-16685396D02*
X12569043Y-16694919D01*
X12569043Y-16694919D02*
X12530947Y-16694919D01*
X12530947Y-16694919D02*
X12511900Y-16685396D01*
X12511900Y-16685396D02*
X12502376Y-16666348D01*
X12502376Y-16666348D02*
X12502376Y-16590158D01*
X12502376Y-16590158D02*
X12511900Y-16571110D01*
X12511900Y-16571110D02*
X12530947Y-16561586D01*
X12530947Y-16561586D02*
X12569043Y-16561586D01*
X12569043Y-16561586D02*
X12588090Y-16571110D01*
X12588090Y-16571110D02*
X12597614Y-16590158D01*
X12597614Y-16590158D02*
X12597614Y-16609205D01*
X12597614Y-16609205D02*
X12502376Y-16628253D01*
X12673805Y-16685396D02*
X12692852Y-16694919D01*
X12692852Y-16694919D02*
X12730947Y-16694919D01*
X12730947Y-16694919D02*
X12749995Y-16685396D01*
X12749995Y-16685396D02*
X12759519Y-16666348D01*
X12759519Y-16666348D02*
X12759519Y-16656824D01*
X12759519Y-16656824D02*
X12749995Y-16637777D01*
X12749995Y-16637777D02*
X12730947Y-16628253D01*
X12730947Y-16628253D02*
X12702376Y-16628253D01*
X12702376Y-16628253D02*
X12683328Y-16618729D01*
X12683328Y-16618729D02*
X12673805Y-16599681D01*
X12673805Y-16599681D02*
X12673805Y-16590158D01*
X12673805Y-16590158D02*
X12683328Y-16571110D01*
X12683328Y-16571110D02*
X12702376Y-16561586D01*
X12702376Y-16561586D02*
X12730947Y-16561586D01*
X12730947Y-16561586D02*
X12749995Y-16571110D01*
X12997614Y-16618729D02*
X13149995Y-16618729D01*
X13073805Y-16694919D02*
X13073805Y-16542538D01*
X13483328Y-16561586D02*
X13483328Y-16694919D01*
X13435709Y-16485396D02*
X13388090Y-16628253D01*
X13388090Y-16628253D02*
X13511900Y-16628253D01*
X13730948Y-16685396D02*
X13749995Y-16694919D01*
X13749995Y-16694919D02*
X13788090Y-16694919D01*
X13788090Y-16694919D02*
X13807138Y-16685396D01*
X13807138Y-16685396D02*
X13816662Y-16666348D01*
X13816662Y-16666348D02*
X13816662Y-16656824D01*
X13816662Y-16656824D02*
X13807138Y-16637777D01*
X13807138Y-16637777D02*
X13788090Y-16628253D01*
X13788090Y-16628253D02*
X13759519Y-16628253D01*
X13759519Y-16628253D02*
X13740471Y-16618729D01*
X13740471Y-16618729D02*
X13730948Y-16599681D01*
X13730948Y-16599681D02*
X13730948Y-16590158D01*
X13730948Y-16590158D02*
X13740471Y-16571110D01*
X13740471Y-16571110D02*
X13759519Y-16561586D01*
X13759519Y-16561586D02*
X13788090Y-16561586D01*
X13788090Y-16561586D02*
X13807138Y-16571110D01*
X13930948Y-16694919D02*
X13911900Y-16685396D01*
X13911900Y-16685396D02*
X13902376Y-16666348D01*
X13902376Y-16666348D02*
X13902376Y-16494919D01*
X14035709Y-16694919D02*
X14016662Y-16685396D01*
X14016662Y-16685396D02*
X14007138Y-16675872D01*
X14007138Y-16675872D02*
X13997614Y-16656824D01*
X13997614Y-16656824D02*
X13997614Y-16599681D01*
X13997614Y-16599681D02*
X14007138Y-16580634D01*
X14007138Y-16580634D02*
X14016662Y-16571110D01*
X14016662Y-16571110D02*
X14035709Y-16561586D01*
X14035709Y-16561586D02*
X14064281Y-16561586D01*
X14064281Y-16561586D02*
X14083329Y-16571110D01*
X14083329Y-16571110D02*
X14092852Y-16580634D01*
X14092852Y-16580634D02*
X14102376Y-16599681D01*
X14102376Y-16599681D02*
X14102376Y-16656824D01*
X14102376Y-16656824D02*
X14092852Y-16675872D01*
X14092852Y-16675872D02*
X14083329Y-16685396D01*
X14083329Y-16685396D02*
X14064281Y-16694919D01*
X14064281Y-16694919D02*
X14035709Y-16694919D01*
X14159519Y-16561586D02*
X14235709Y-16561586D01*
X14188090Y-16494919D02*
X14188090Y-16666348D01*
X14188090Y-16666348D02*
X14197614Y-16685396D01*
X14197614Y-16685396D02*
X14216662Y-16694919D01*
X14216662Y-16694919D02*
X14235709Y-16694919D01*
X14292852Y-16685396D02*
X14311900Y-16694919D01*
X14311900Y-16694919D02*
X14349995Y-16694919D01*
X14349995Y-16694919D02*
X14369043Y-16685396D01*
X14369043Y-16685396D02*
X14378567Y-16666348D01*
X14378567Y-16666348D02*
X14378567Y-16656824D01*
X14378567Y-16656824D02*
X14369043Y-16637777D01*
X14369043Y-16637777D02*
X14349995Y-16628253D01*
X14349995Y-16628253D02*
X14321424Y-16628253D01*
X14321424Y-16628253D02*
X14302376Y-16618729D01*
X14302376Y-16618729D02*
X14292852Y-16599681D01*
X14292852Y-16599681D02*
X14292852Y-16590158D01*
X14292852Y-16590158D02*
X14302376Y-16571110D01*
X14302376Y-16571110D02*
X14321424Y-16561586D01*
X14321424Y-16561586D02*
X14349995Y-16561586D01*
X14349995Y-16561586D02*
X14369043Y-16571110D01*
X14445233Y-16771110D02*
X14454757Y-16761586D01*
X14454757Y-16761586D02*
X14473805Y-16733015D01*
X14473805Y-16733015D02*
X14483329Y-16713967D01*
X14483329Y-16713967D02*
X14492852Y-16685396D01*
X14492852Y-16685396D02*
X14502376Y-16637777D01*
X14502376Y-16637777D02*
X14502376Y-16599681D01*
X14502376Y-16599681D02*
X14492852Y-16552062D01*
X14492852Y-16552062D02*
X14483329Y-16523491D01*
X14483329Y-16523491D02*
X14473805Y-16504443D01*
X14473805Y-16504443D02*
X14454757Y-16475872D01*
X14454757Y-16475872D02*
X14445233Y-16466348D01*
D11*
X8011123Y-16907436D02*
X8051123Y-16867436D01*
X8011123Y-16827436D01*
X7971123Y-16867436D01*
X8011123Y-16907436D01*
D10*
X8349995Y-16758919D02*
X8369042Y-16758919D01*
X8369042Y-16758919D02*
X8388090Y-16768443D01*
X8388090Y-16768443D02*
X8397614Y-16777967D01*
X8397614Y-16777967D02*
X8407138Y-16797015D01*
X8407138Y-16797015D02*
X8416661Y-16835110D01*
X8416661Y-16835110D02*
X8416661Y-16882729D01*
X8416661Y-16882729D02*
X8407138Y-16920824D01*
X8407138Y-16920824D02*
X8397614Y-16939872D01*
X8397614Y-16939872D02*
X8388090Y-16949396D01*
X8388090Y-16949396D02*
X8369042Y-16958920D01*
X8369042Y-16958920D02*
X8349995Y-16958920D01*
X8349995Y-16958920D02*
X8330947Y-16949396D01*
X8330947Y-16949396D02*
X8321423Y-16939872D01*
X8321423Y-16939872D02*
X8311899Y-16920824D01*
X8311899Y-16920824D02*
X8302376Y-16882729D01*
X8302376Y-16882729D02*
X8302376Y-16835110D01*
X8302376Y-16835110D02*
X8311899Y-16797015D01*
X8311899Y-16797015D02*
X8321423Y-16777967D01*
X8321423Y-16777967D02*
X8330947Y-16768443D01*
X8330947Y-16768443D02*
X8349995Y-16758919D01*
X8502376Y-16939872D02*
X8511899Y-16949396D01*
X8511899Y-16949396D02*
X8502376Y-16958920D01*
X8502376Y-16958920D02*
X8492852Y-16949396D01*
X8492852Y-16949396D02*
X8502376Y-16939872D01*
X8502376Y-16939872D02*
X8502376Y-16958920D01*
X8626185Y-16844634D02*
X8607138Y-16835110D01*
X8607138Y-16835110D02*
X8597614Y-16825586D01*
X8597614Y-16825586D02*
X8588090Y-16806539D01*
X8588090Y-16806539D02*
X8588090Y-16797015D01*
X8588090Y-16797015D02*
X8597614Y-16777967D01*
X8597614Y-16777967D02*
X8607138Y-16768443D01*
X8607138Y-16768443D02*
X8626185Y-16758919D01*
X8626185Y-16758919D02*
X8664280Y-16758919D01*
X8664280Y-16758919D02*
X8683328Y-16768443D01*
X8683328Y-16768443D02*
X8692852Y-16777967D01*
X8692852Y-16777967D02*
X8702376Y-16797015D01*
X8702376Y-16797015D02*
X8702376Y-16806539D01*
X8702376Y-16806539D02*
X8692852Y-16825586D01*
X8692852Y-16825586D02*
X8683328Y-16835110D01*
X8683328Y-16835110D02*
X8664280Y-16844634D01*
X8664280Y-16844634D02*
X8626185Y-16844634D01*
X8626185Y-16844634D02*
X8607138Y-16854158D01*
X8607138Y-16854158D02*
X8597614Y-16863681D01*
X8597614Y-16863681D02*
X8588090Y-16882729D01*
X8588090Y-16882729D02*
X8588090Y-16920824D01*
X8588090Y-16920824D02*
X8597614Y-16939872D01*
X8597614Y-16939872D02*
X8607138Y-16949396D01*
X8607138Y-16949396D02*
X8626185Y-16958920D01*
X8626185Y-16958920D02*
X8664280Y-16958920D01*
X8664280Y-16958920D02*
X8683328Y-16949396D01*
X8683328Y-16949396D02*
X8692852Y-16939872D01*
X8692852Y-16939872D02*
X8702376Y-16920824D01*
X8702376Y-16920824D02*
X8702376Y-16882729D01*
X8702376Y-16882729D02*
X8692852Y-16863681D01*
X8692852Y-16863681D02*
X8683328Y-16854158D01*
X8683328Y-16854158D02*
X8664280Y-16844634D01*
X8826185Y-16758919D02*
X8845233Y-16758919D01*
X8845233Y-16758919D02*
X8864280Y-16768443D01*
X8864280Y-16768443D02*
X8873804Y-16777967D01*
X8873804Y-16777967D02*
X8883328Y-16797015D01*
X8883328Y-16797015D02*
X8892852Y-16835110D01*
X8892852Y-16835110D02*
X8892852Y-16882729D01*
X8892852Y-16882729D02*
X8883328Y-16920824D01*
X8883328Y-16920824D02*
X8873804Y-16939872D01*
X8873804Y-16939872D02*
X8864280Y-16949396D01*
X8864280Y-16949396D02*
X8845233Y-16958920D01*
X8845233Y-16958920D02*
X8826185Y-16958920D01*
X8826185Y-16958920D02*
X8807138Y-16949396D01*
X8807138Y-16949396D02*
X8797614Y-16939872D01*
X8797614Y-16939872D02*
X8788090Y-16920824D01*
X8788090Y-16920824D02*
X8778566Y-16882729D01*
X8778566Y-16882729D02*
X8778566Y-16835110D01*
X8778566Y-16835110D02*
X8788090Y-16797015D01*
X8788090Y-16797015D02*
X8797614Y-16777967D01*
X8797614Y-16777967D02*
X8807138Y-16768443D01*
X8807138Y-16768443D02*
X8826185Y-16758919D01*
X9016661Y-16758919D02*
X9035709Y-16758919D01*
X9035709Y-16758919D02*
X9054757Y-16768443D01*
X9054757Y-16768443D02*
X9064280Y-16777967D01*
X9064280Y-16777967D02*
X9073804Y-16797015D01*
X9073804Y-16797015D02*
X9083328Y-16835110D01*
X9083328Y-16835110D02*
X9083328Y-16882729D01*
X9083328Y-16882729D02*
X9073804Y-16920824D01*
X9073804Y-16920824D02*
X9064280Y-16939872D01*
X9064280Y-16939872D02*
X9054757Y-16949396D01*
X9054757Y-16949396D02*
X9035709Y-16958920D01*
X9035709Y-16958920D02*
X9016661Y-16958920D01*
X9016661Y-16958920D02*
X8997614Y-16949396D01*
X8997614Y-16949396D02*
X8988090Y-16939872D01*
X8988090Y-16939872D02*
X8978566Y-16920824D01*
X8978566Y-16920824D02*
X8969042Y-16882729D01*
X8969042Y-16882729D02*
X8969042Y-16835110D01*
X8969042Y-16835110D02*
X8978566Y-16797015D01*
X8978566Y-16797015D02*
X8988090Y-16777967D01*
X8988090Y-16777967D02*
X8997614Y-16768443D01*
X8997614Y-16768443D02*
X9016661Y-16758919D01*
X9169042Y-16958920D02*
X9169042Y-16825586D01*
X9169042Y-16844634D02*
X9178566Y-16835110D01*
X9178566Y-16835110D02*
X9197614Y-16825586D01*
X9197614Y-16825586D02*
X9226185Y-16825586D01*
X9226185Y-16825586D02*
X9245233Y-16835110D01*
X9245233Y-16835110D02*
X9254757Y-16854158D01*
X9254757Y-16854158D02*
X9254757Y-16958920D01*
X9254757Y-16854158D02*
X9264280Y-16835110D01*
X9264280Y-16835110D02*
X9283328Y-16825586D01*
X9283328Y-16825586D02*
X9311899Y-16825586D01*
X9311899Y-16825586D02*
X9330947Y-16835110D01*
X9330947Y-16835110D02*
X9340471Y-16854158D01*
X9340471Y-16854158D02*
X9340471Y-16958920D01*
X9435709Y-16958920D02*
X9435709Y-16825586D01*
X9435709Y-16844634D02*
X9445233Y-16835110D01*
X9445233Y-16835110D02*
X9464280Y-16825586D01*
X9464280Y-16825586D02*
X9492852Y-16825586D01*
X9492852Y-16825586D02*
X9511900Y-16835110D01*
X9511900Y-16835110D02*
X9521423Y-16854158D01*
X9521423Y-16854158D02*
X9521423Y-16958920D01*
X9521423Y-16854158D02*
X9530947Y-16835110D01*
X9530947Y-16835110D02*
X9549995Y-16825586D01*
X9549995Y-16825586D02*
X9578566Y-16825586D01*
X9578566Y-16825586D02*
X9597614Y-16835110D01*
X9597614Y-16835110D02*
X9607138Y-16854158D01*
X9607138Y-16854158D02*
X9607138Y-16958920D01*
X9997614Y-16749396D02*
X9826185Y-17006539D01*
X10254757Y-16758919D02*
X10273804Y-16758919D01*
X10273804Y-16758919D02*
X10292852Y-16768443D01*
X10292852Y-16768443D02*
X10302376Y-16777967D01*
X10302376Y-16777967D02*
X10311900Y-16797015D01*
X10311900Y-16797015D02*
X10321423Y-16835110D01*
X10321423Y-16835110D02*
X10321423Y-16882729D01*
X10321423Y-16882729D02*
X10311900Y-16920824D01*
X10311900Y-16920824D02*
X10302376Y-16939872D01*
X10302376Y-16939872D02*
X10292852Y-16949396D01*
X10292852Y-16949396D02*
X10273804Y-16958920D01*
X10273804Y-16958920D02*
X10254757Y-16958920D01*
X10254757Y-16958920D02*
X10235709Y-16949396D01*
X10235709Y-16949396D02*
X10226185Y-16939872D01*
X10226185Y-16939872D02*
X10216662Y-16920824D01*
X10216662Y-16920824D02*
X10207138Y-16882729D01*
X10207138Y-16882729D02*
X10207138Y-16835110D01*
X10207138Y-16835110D02*
X10216662Y-16797015D01*
X10216662Y-16797015D02*
X10226185Y-16777967D01*
X10226185Y-16777967D02*
X10235709Y-16768443D01*
X10235709Y-16768443D02*
X10254757Y-16758919D01*
X10407138Y-16939872D02*
X10416662Y-16949396D01*
X10416662Y-16949396D02*
X10407138Y-16958920D01*
X10407138Y-16958920D02*
X10397614Y-16949396D01*
X10397614Y-16949396D02*
X10407138Y-16939872D01*
X10407138Y-16939872D02*
X10407138Y-16958920D01*
X10540471Y-16758919D02*
X10559519Y-16758919D01*
X10559519Y-16758919D02*
X10578566Y-16768443D01*
X10578566Y-16768443D02*
X10588090Y-16777967D01*
X10588090Y-16777967D02*
X10597614Y-16797015D01*
X10597614Y-16797015D02*
X10607138Y-16835110D01*
X10607138Y-16835110D02*
X10607138Y-16882729D01*
X10607138Y-16882729D02*
X10597614Y-16920824D01*
X10597614Y-16920824D02*
X10588090Y-16939872D01*
X10588090Y-16939872D02*
X10578566Y-16949396D01*
X10578566Y-16949396D02*
X10559519Y-16958920D01*
X10559519Y-16958920D02*
X10540471Y-16958920D01*
X10540471Y-16958920D02*
X10521423Y-16949396D01*
X10521423Y-16949396D02*
X10511900Y-16939872D01*
X10511900Y-16939872D02*
X10502376Y-16920824D01*
X10502376Y-16920824D02*
X10492852Y-16882729D01*
X10492852Y-16882729D02*
X10492852Y-16835110D01*
X10492852Y-16835110D02*
X10502376Y-16797015D01*
X10502376Y-16797015D02*
X10511900Y-16777967D01*
X10511900Y-16777967D02*
X10521423Y-16768443D01*
X10521423Y-16768443D02*
X10540471Y-16758919D01*
X10673804Y-16758919D02*
X10797614Y-16758919D01*
X10797614Y-16758919D02*
X10730947Y-16835110D01*
X10730947Y-16835110D02*
X10759519Y-16835110D01*
X10759519Y-16835110D02*
X10778566Y-16844634D01*
X10778566Y-16844634D02*
X10788090Y-16854158D01*
X10788090Y-16854158D02*
X10797614Y-16873205D01*
X10797614Y-16873205D02*
X10797614Y-16920824D01*
X10797614Y-16920824D02*
X10788090Y-16939872D01*
X10788090Y-16939872D02*
X10778566Y-16949396D01*
X10778566Y-16949396D02*
X10759519Y-16958920D01*
X10759519Y-16958920D02*
X10702376Y-16958920D01*
X10702376Y-16958920D02*
X10683328Y-16949396D01*
X10683328Y-16949396D02*
X10673804Y-16939872D01*
X10988090Y-16958920D02*
X10873804Y-16958920D01*
X10930947Y-16958920D02*
X10930947Y-16758919D01*
X10930947Y-16758919D02*
X10911900Y-16787491D01*
X10911900Y-16787491D02*
X10892852Y-16806539D01*
X10892852Y-16806539D02*
X10873804Y-16816062D01*
X11169043Y-16758919D02*
X11073804Y-16758919D01*
X11073804Y-16758919D02*
X11064281Y-16854158D01*
X11064281Y-16854158D02*
X11073804Y-16844634D01*
X11073804Y-16844634D02*
X11092852Y-16835110D01*
X11092852Y-16835110D02*
X11140471Y-16835110D01*
X11140471Y-16835110D02*
X11159519Y-16844634D01*
X11159519Y-16844634D02*
X11169043Y-16854158D01*
X11169043Y-16854158D02*
X11178566Y-16873205D01*
X11178566Y-16873205D02*
X11178566Y-16920824D01*
X11178566Y-16920824D02*
X11169043Y-16939872D01*
X11169043Y-16939872D02*
X11159519Y-16949396D01*
X11159519Y-16949396D02*
X11140471Y-16958920D01*
X11140471Y-16958920D02*
X11092852Y-16958920D01*
X11092852Y-16958920D02*
X11073804Y-16949396D01*
X11073804Y-16949396D02*
X11064281Y-16939872D01*
X11254757Y-16758919D02*
X11254757Y-16797015D01*
X11330947Y-16758919D02*
X11330947Y-16797015D01*
X11626185Y-17035110D02*
X11616662Y-17025586D01*
X11616662Y-17025586D02*
X11597614Y-16997015D01*
X11597614Y-16997015D02*
X11588090Y-16977967D01*
X11588090Y-16977967D02*
X11578566Y-16949396D01*
X11578566Y-16949396D02*
X11569043Y-16901777D01*
X11569043Y-16901777D02*
X11569043Y-16863681D01*
X11569043Y-16863681D02*
X11578566Y-16816062D01*
X11578566Y-16816062D02*
X11588090Y-16787491D01*
X11588090Y-16787491D02*
X11597614Y-16768443D01*
X11597614Y-16768443D02*
X11616662Y-16739872D01*
X11616662Y-16739872D02*
X11626185Y-16730348D01*
X11788090Y-16758919D02*
X11749995Y-16758919D01*
X11749995Y-16758919D02*
X11730947Y-16768443D01*
X11730947Y-16768443D02*
X11721423Y-16777967D01*
X11721423Y-16777967D02*
X11702376Y-16806539D01*
X11702376Y-16806539D02*
X11692852Y-16844634D01*
X11692852Y-16844634D02*
X11692852Y-16920824D01*
X11692852Y-16920824D02*
X11702376Y-16939872D01*
X11702376Y-16939872D02*
X11711900Y-16949396D01*
X11711900Y-16949396D02*
X11730947Y-16958920D01*
X11730947Y-16958920D02*
X11769043Y-16958920D01*
X11769043Y-16958920D02*
X11788090Y-16949396D01*
X11788090Y-16949396D02*
X11797614Y-16939872D01*
X11797614Y-16939872D02*
X11807138Y-16920824D01*
X11807138Y-16920824D02*
X11807138Y-16873205D01*
X11807138Y-16873205D02*
X11797614Y-16854158D01*
X11797614Y-16854158D02*
X11788090Y-16844634D01*
X11788090Y-16844634D02*
X11769043Y-16835110D01*
X11769043Y-16835110D02*
X11730947Y-16835110D01*
X11730947Y-16835110D02*
X11711900Y-16844634D01*
X11711900Y-16844634D02*
X11702376Y-16854158D01*
X11702376Y-16854158D02*
X11692852Y-16873205D01*
X12045233Y-16958920D02*
X12045233Y-16758919D01*
X12130947Y-16958920D02*
X12130947Y-16854158D01*
X12130947Y-16854158D02*
X12121424Y-16835110D01*
X12121424Y-16835110D02*
X12102376Y-16825586D01*
X12102376Y-16825586D02*
X12073804Y-16825586D01*
X12073804Y-16825586D02*
X12054757Y-16835110D01*
X12054757Y-16835110D02*
X12045233Y-16844634D01*
X12254757Y-16958920D02*
X12235709Y-16949396D01*
X12235709Y-16949396D02*
X12226185Y-16939872D01*
X12226185Y-16939872D02*
X12216662Y-16920824D01*
X12216662Y-16920824D02*
X12216662Y-16863681D01*
X12216662Y-16863681D02*
X12226185Y-16844634D01*
X12226185Y-16844634D02*
X12235709Y-16835110D01*
X12235709Y-16835110D02*
X12254757Y-16825586D01*
X12254757Y-16825586D02*
X12283328Y-16825586D01*
X12283328Y-16825586D02*
X12302376Y-16835110D01*
X12302376Y-16835110D02*
X12311900Y-16844634D01*
X12311900Y-16844634D02*
X12321424Y-16863681D01*
X12321424Y-16863681D02*
X12321424Y-16920824D01*
X12321424Y-16920824D02*
X12311900Y-16939872D01*
X12311900Y-16939872D02*
X12302376Y-16949396D01*
X12302376Y-16949396D02*
X12283328Y-16958920D01*
X12283328Y-16958920D02*
X12254757Y-16958920D01*
X12435709Y-16958920D02*
X12416662Y-16949396D01*
X12416662Y-16949396D02*
X12407138Y-16930348D01*
X12407138Y-16930348D02*
X12407138Y-16758919D01*
X12588090Y-16949396D02*
X12569043Y-16958920D01*
X12569043Y-16958920D02*
X12530947Y-16958920D01*
X12530947Y-16958920D02*
X12511900Y-16949396D01*
X12511900Y-16949396D02*
X12502376Y-16930348D01*
X12502376Y-16930348D02*
X12502376Y-16854158D01*
X12502376Y-16854158D02*
X12511900Y-16835110D01*
X12511900Y-16835110D02*
X12530947Y-16825586D01*
X12530947Y-16825586D02*
X12569043Y-16825586D01*
X12569043Y-16825586D02*
X12588090Y-16835110D01*
X12588090Y-16835110D02*
X12597614Y-16854158D01*
X12597614Y-16854158D02*
X12597614Y-16873205D01*
X12597614Y-16873205D02*
X12502376Y-16892253D01*
X12673805Y-16949396D02*
X12692852Y-16958920D01*
X12692852Y-16958920D02*
X12730947Y-16958920D01*
X12730947Y-16958920D02*
X12749995Y-16949396D01*
X12749995Y-16949396D02*
X12759519Y-16930348D01*
X12759519Y-16930348D02*
X12759519Y-16920824D01*
X12759519Y-16920824D02*
X12749995Y-16901777D01*
X12749995Y-16901777D02*
X12730947Y-16892253D01*
X12730947Y-16892253D02*
X12702376Y-16892253D01*
X12702376Y-16892253D02*
X12683328Y-16882729D01*
X12683328Y-16882729D02*
X12673805Y-16863681D01*
X12673805Y-16863681D02*
X12673805Y-16854158D01*
X12673805Y-16854158D02*
X12683328Y-16835110D01*
X12683328Y-16835110D02*
X12702376Y-16825586D01*
X12702376Y-16825586D02*
X12730947Y-16825586D01*
X12730947Y-16825586D02*
X12749995Y-16835110D01*
X12826186Y-17035110D02*
X12835709Y-17025586D01*
X12835709Y-17025586D02*
X12854757Y-16997015D01*
X12854757Y-16997015D02*
X12864281Y-16977967D01*
X12864281Y-16977967D02*
X12873805Y-16949396D01*
X12873805Y-16949396D02*
X12883328Y-16901777D01*
X12883328Y-16901777D02*
X12883328Y-16863681D01*
X12883328Y-16863681D02*
X12873805Y-16816062D01*
X12873805Y-16816062D02*
X12864281Y-16787491D01*
X12864281Y-16787491D02*
X12854757Y-16768443D01*
X12854757Y-16768443D02*
X12835709Y-16739872D01*
X12835709Y-16739872D02*
X12826186Y-16730348D01*
D11*
X7961123Y-17086436D02*
X8051123Y-17176436D01*
X8051123Y-17086436D02*
X7961123Y-17176436D01*
X8051123Y-17131436D02*
G75*
G02*
X7961123Y-17131436I-45000J0D01*
G01*
X7961123Y-17131436D02*
G75*
G02*
X8051123Y-17131436I45000J0D01*
G01*
D10*
X8349995Y-17022920D02*
X8369042Y-17022920D01*
X8369042Y-17022920D02*
X8388090Y-17032443D01*
X8388090Y-17032443D02*
X8397614Y-17041967D01*
X8397614Y-17041967D02*
X8407138Y-17061015D01*
X8407138Y-17061015D02*
X8416661Y-17099110D01*
X8416661Y-17099110D02*
X8416661Y-17146729D01*
X8416661Y-17146729D02*
X8407138Y-17184824D01*
X8407138Y-17184824D02*
X8397614Y-17203872D01*
X8397614Y-17203872D02*
X8388090Y-17213396D01*
X8388090Y-17213396D02*
X8369042Y-17222920D01*
X8369042Y-17222920D02*
X8349995Y-17222920D01*
X8349995Y-17222920D02*
X8330947Y-17213396D01*
X8330947Y-17213396D02*
X8321423Y-17203872D01*
X8321423Y-17203872D02*
X8311899Y-17184824D01*
X8311899Y-17184824D02*
X8302376Y-17146729D01*
X8302376Y-17146729D02*
X8302376Y-17099110D01*
X8302376Y-17099110D02*
X8311899Y-17061015D01*
X8311899Y-17061015D02*
X8321423Y-17041967D01*
X8321423Y-17041967D02*
X8330947Y-17032443D01*
X8330947Y-17032443D02*
X8349995Y-17022920D01*
X8502376Y-17203872D02*
X8511899Y-17213396D01*
X8511899Y-17213396D02*
X8502376Y-17222920D01*
X8502376Y-17222920D02*
X8492852Y-17213396D01*
X8492852Y-17213396D02*
X8502376Y-17203872D01*
X8502376Y-17203872D02*
X8502376Y-17222920D01*
X8607138Y-17222920D02*
X8645233Y-17222920D01*
X8645233Y-17222920D02*
X8664280Y-17213396D01*
X8664280Y-17213396D02*
X8673804Y-17203872D01*
X8673804Y-17203872D02*
X8692852Y-17175300D01*
X8692852Y-17175300D02*
X8702376Y-17137205D01*
X8702376Y-17137205D02*
X8702376Y-17061015D01*
X8702376Y-17061015D02*
X8692852Y-17041967D01*
X8692852Y-17041967D02*
X8683328Y-17032443D01*
X8683328Y-17032443D02*
X8664280Y-17022920D01*
X8664280Y-17022920D02*
X8626185Y-17022920D01*
X8626185Y-17022920D02*
X8607138Y-17032443D01*
X8607138Y-17032443D02*
X8597614Y-17041967D01*
X8597614Y-17041967D02*
X8588090Y-17061015D01*
X8588090Y-17061015D02*
X8588090Y-17108634D01*
X8588090Y-17108634D02*
X8597614Y-17127681D01*
X8597614Y-17127681D02*
X8607138Y-17137205D01*
X8607138Y-17137205D02*
X8626185Y-17146729D01*
X8626185Y-17146729D02*
X8664280Y-17146729D01*
X8664280Y-17146729D02*
X8683328Y-17137205D01*
X8683328Y-17137205D02*
X8692852Y-17127681D01*
X8692852Y-17127681D02*
X8702376Y-17108634D01*
X8826185Y-17022920D02*
X8845233Y-17022920D01*
X8845233Y-17022920D02*
X8864280Y-17032443D01*
X8864280Y-17032443D02*
X8873804Y-17041967D01*
X8873804Y-17041967D02*
X8883328Y-17061015D01*
X8883328Y-17061015D02*
X8892852Y-17099110D01*
X8892852Y-17099110D02*
X8892852Y-17146729D01*
X8892852Y-17146729D02*
X8883328Y-17184824D01*
X8883328Y-17184824D02*
X8873804Y-17203872D01*
X8873804Y-17203872D02*
X8864280Y-17213396D01*
X8864280Y-17213396D02*
X8845233Y-17222920D01*
X8845233Y-17222920D02*
X8826185Y-17222920D01*
X8826185Y-17222920D02*
X8807138Y-17213396D01*
X8807138Y-17213396D02*
X8797614Y-17203872D01*
X8797614Y-17203872D02*
X8788090Y-17184824D01*
X8788090Y-17184824D02*
X8778566Y-17146729D01*
X8778566Y-17146729D02*
X8778566Y-17099110D01*
X8778566Y-17099110D02*
X8788090Y-17061015D01*
X8788090Y-17061015D02*
X8797614Y-17041967D01*
X8797614Y-17041967D02*
X8807138Y-17032443D01*
X8807138Y-17032443D02*
X8826185Y-17022920D01*
X9016661Y-17022920D02*
X9035709Y-17022920D01*
X9035709Y-17022920D02*
X9054757Y-17032443D01*
X9054757Y-17032443D02*
X9064280Y-17041967D01*
X9064280Y-17041967D02*
X9073804Y-17061015D01*
X9073804Y-17061015D02*
X9083328Y-17099110D01*
X9083328Y-17099110D02*
X9083328Y-17146729D01*
X9083328Y-17146729D02*
X9073804Y-17184824D01*
X9073804Y-17184824D02*
X9064280Y-17203872D01*
X9064280Y-17203872D02*
X9054757Y-17213396D01*
X9054757Y-17213396D02*
X9035709Y-17222920D01*
X9035709Y-17222920D02*
X9016661Y-17222920D01*
X9016661Y-17222920D02*
X8997614Y-17213396D01*
X8997614Y-17213396D02*
X8988090Y-17203872D01*
X8988090Y-17203872D02*
X8978566Y-17184824D01*
X8978566Y-17184824D02*
X8969042Y-17146729D01*
X8969042Y-17146729D02*
X8969042Y-17099110D01*
X8969042Y-17099110D02*
X8978566Y-17061015D01*
X8978566Y-17061015D02*
X8988090Y-17041967D01*
X8988090Y-17041967D02*
X8997614Y-17032443D01*
X8997614Y-17032443D02*
X9016661Y-17022920D01*
X9169042Y-17222920D02*
X9169042Y-17089586D01*
X9169042Y-17108634D02*
X9178566Y-17099110D01*
X9178566Y-17099110D02*
X9197614Y-17089586D01*
X9197614Y-17089586D02*
X9226185Y-17089586D01*
X9226185Y-17089586D02*
X9245233Y-17099110D01*
X9245233Y-17099110D02*
X9254757Y-17118158D01*
X9254757Y-17118158D02*
X9254757Y-17222920D01*
X9254757Y-17118158D02*
X9264280Y-17099110D01*
X9264280Y-17099110D02*
X9283328Y-17089586D01*
X9283328Y-17089586D02*
X9311899Y-17089586D01*
X9311899Y-17089586D02*
X9330947Y-17099110D01*
X9330947Y-17099110D02*
X9340471Y-17118158D01*
X9340471Y-17118158D02*
X9340471Y-17222920D01*
X9435709Y-17222920D02*
X9435709Y-17089586D01*
X9435709Y-17108634D02*
X9445233Y-17099110D01*
X9445233Y-17099110D02*
X9464280Y-17089586D01*
X9464280Y-17089586D02*
X9492852Y-17089586D01*
X9492852Y-17089586D02*
X9511900Y-17099110D01*
X9511900Y-17099110D02*
X9521423Y-17118158D01*
X9521423Y-17118158D02*
X9521423Y-17222920D01*
X9521423Y-17118158D02*
X9530947Y-17099110D01*
X9530947Y-17099110D02*
X9549995Y-17089586D01*
X9549995Y-17089586D02*
X9578566Y-17089586D01*
X9578566Y-17089586D02*
X9597614Y-17099110D01*
X9597614Y-17099110D02*
X9607138Y-17118158D01*
X9607138Y-17118158D02*
X9607138Y-17222920D01*
X9997614Y-17013396D02*
X9826185Y-17270539D01*
X10254757Y-17022920D02*
X10273804Y-17022920D01*
X10273804Y-17022920D02*
X10292852Y-17032443D01*
X10292852Y-17032443D02*
X10302376Y-17041967D01*
X10302376Y-17041967D02*
X10311900Y-17061015D01*
X10311900Y-17061015D02*
X10321423Y-17099110D01*
X10321423Y-17099110D02*
X10321423Y-17146729D01*
X10321423Y-17146729D02*
X10311900Y-17184824D01*
X10311900Y-17184824D02*
X10302376Y-17203872D01*
X10302376Y-17203872D02*
X10292852Y-17213396D01*
X10292852Y-17213396D02*
X10273804Y-17222920D01*
X10273804Y-17222920D02*
X10254757Y-17222920D01*
X10254757Y-17222920D02*
X10235709Y-17213396D01*
X10235709Y-17213396D02*
X10226185Y-17203872D01*
X10226185Y-17203872D02*
X10216662Y-17184824D01*
X10216662Y-17184824D02*
X10207138Y-17146729D01*
X10207138Y-17146729D02*
X10207138Y-17099110D01*
X10207138Y-17099110D02*
X10216662Y-17061015D01*
X10216662Y-17061015D02*
X10226185Y-17041967D01*
X10226185Y-17041967D02*
X10235709Y-17032443D01*
X10235709Y-17032443D02*
X10254757Y-17022920D01*
X10407138Y-17203872D02*
X10416662Y-17213396D01*
X10416662Y-17213396D02*
X10407138Y-17222920D01*
X10407138Y-17222920D02*
X10397614Y-17213396D01*
X10397614Y-17213396D02*
X10407138Y-17203872D01*
X10407138Y-17203872D02*
X10407138Y-17222920D01*
X10540471Y-17022920D02*
X10559519Y-17022920D01*
X10559519Y-17022920D02*
X10578566Y-17032443D01*
X10578566Y-17032443D02*
X10588090Y-17041967D01*
X10588090Y-17041967D02*
X10597614Y-17061015D01*
X10597614Y-17061015D02*
X10607138Y-17099110D01*
X10607138Y-17099110D02*
X10607138Y-17146729D01*
X10607138Y-17146729D02*
X10597614Y-17184824D01*
X10597614Y-17184824D02*
X10588090Y-17203872D01*
X10588090Y-17203872D02*
X10578566Y-17213396D01*
X10578566Y-17213396D02*
X10559519Y-17222920D01*
X10559519Y-17222920D02*
X10540471Y-17222920D01*
X10540471Y-17222920D02*
X10521423Y-17213396D01*
X10521423Y-17213396D02*
X10511900Y-17203872D01*
X10511900Y-17203872D02*
X10502376Y-17184824D01*
X10502376Y-17184824D02*
X10492852Y-17146729D01*
X10492852Y-17146729D02*
X10492852Y-17099110D01*
X10492852Y-17099110D02*
X10502376Y-17061015D01*
X10502376Y-17061015D02*
X10511900Y-17041967D01*
X10511900Y-17041967D02*
X10521423Y-17032443D01*
X10521423Y-17032443D02*
X10540471Y-17022920D01*
X10673804Y-17022920D02*
X10797614Y-17022920D01*
X10797614Y-17022920D02*
X10730947Y-17099110D01*
X10730947Y-17099110D02*
X10759519Y-17099110D01*
X10759519Y-17099110D02*
X10778566Y-17108634D01*
X10778566Y-17108634D02*
X10788090Y-17118158D01*
X10788090Y-17118158D02*
X10797614Y-17137205D01*
X10797614Y-17137205D02*
X10797614Y-17184824D01*
X10797614Y-17184824D02*
X10788090Y-17203872D01*
X10788090Y-17203872D02*
X10778566Y-17213396D01*
X10778566Y-17213396D02*
X10759519Y-17222920D01*
X10759519Y-17222920D02*
X10702376Y-17222920D01*
X10702376Y-17222920D02*
X10683328Y-17213396D01*
X10683328Y-17213396D02*
X10673804Y-17203872D01*
X10978566Y-17022920D02*
X10883328Y-17022920D01*
X10883328Y-17022920D02*
X10873804Y-17118158D01*
X10873804Y-17118158D02*
X10883328Y-17108634D01*
X10883328Y-17108634D02*
X10902376Y-17099110D01*
X10902376Y-17099110D02*
X10949995Y-17099110D01*
X10949995Y-17099110D02*
X10969043Y-17108634D01*
X10969043Y-17108634D02*
X10978566Y-17118158D01*
X10978566Y-17118158D02*
X10988090Y-17137205D01*
X10988090Y-17137205D02*
X10988090Y-17184824D01*
X10988090Y-17184824D02*
X10978566Y-17203872D01*
X10978566Y-17203872D02*
X10969043Y-17213396D01*
X10969043Y-17213396D02*
X10949995Y-17222920D01*
X10949995Y-17222920D02*
X10902376Y-17222920D01*
X10902376Y-17222920D02*
X10883328Y-17213396D01*
X10883328Y-17213396D02*
X10873804Y-17203872D01*
X11159519Y-17089586D02*
X11159519Y-17222920D01*
X11111900Y-17013396D02*
X11064281Y-17156253D01*
X11064281Y-17156253D02*
X11188090Y-17156253D01*
X11254757Y-17022920D02*
X11254757Y-17061015D01*
X11330947Y-17022920D02*
X11330947Y-17061015D01*
X11626185Y-17299110D02*
X11616662Y-17289586D01*
X11616662Y-17289586D02*
X11597614Y-17261015D01*
X11597614Y-17261015D02*
X11588090Y-17241967D01*
X11588090Y-17241967D02*
X11578566Y-17213396D01*
X11578566Y-17213396D02*
X11569043Y-17165777D01*
X11569043Y-17165777D02*
X11569043Y-17127681D01*
X11569043Y-17127681D02*
X11578566Y-17080062D01*
X11578566Y-17080062D02*
X11588090Y-17051491D01*
X11588090Y-17051491D02*
X11597614Y-17032443D01*
X11597614Y-17032443D02*
X11616662Y-17003872D01*
X11616662Y-17003872D02*
X11626185Y-16994348D01*
X11730947Y-17108634D02*
X11711900Y-17099110D01*
X11711900Y-17099110D02*
X11702376Y-17089586D01*
X11702376Y-17089586D02*
X11692852Y-17070539D01*
X11692852Y-17070539D02*
X11692852Y-17061015D01*
X11692852Y-17061015D02*
X11702376Y-17041967D01*
X11702376Y-17041967D02*
X11711900Y-17032443D01*
X11711900Y-17032443D02*
X11730947Y-17022920D01*
X11730947Y-17022920D02*
X11769043Y-17022920D01*
X11769043Y-17022920D02*
X11788090Y-17032443D01*
X11788090Y-17032443D02*
X11797614Y-17041967D01*
X11797614Y-17041967D02*
X11807138Y-17061015D01*
X11807138Y-17061015D02*
X11807138Y-17070539D01*
X11807138Y-17070539D02*
X11797614Y-17089586D01*
X11797614Y-17089586D02*
X11788090Y-17099110D01*
X11788090Y-17099110D02*
X11769043Y-17108634D01*
X11769043Y-17108634D02*
X11730947Y-17108634D01*
X11730947Y-17108634D02*
X11711900Y-17118158D01*
X11711900Y-17118158D02*
X11702376Y-17127681D01*
X11702376Y-17127681D02*
X11692852Y-17146729D01*
X11692852Y-17146729D02*
X11692852Y-17184824D01*
X11692852Y-17184824D02*
X11702376Y-17203872D01*
X11702376Y-17203872D02*
X11711900Y-17213396D01*
X11711900Y-17213396D02*
X11730947Y-17222920D01*
X11730947Y-17222920D02*
X11769043Y-17222920D01*
X11769043Y-17222920D02*
X11788090Y-17213396D01*
X11788090Y-17213396D02*
X11797614Y-17203872D01*
X11797614Y-17203872D02*
X11807138Y-17184824D01*
X11807138Y-17184824D02*
X11807138Y-17146729D01*
X11807138Y-17146729D02*
X11797614Y-17127681D01*
X11797614Y-17127681D02*
X11788090Y-17118158D01*
X11788090Y-17118158D02*
X11769043Y-17108634D01*
X12045233Y-17222920D02*
X12045233Y-17022920D01*
X12130947Y-17222920D02*
X12130947Y-17118158D01*
X12130947Y-17118158D02*
X12121424Y-17099110D01*
X12121424Y-17099110D02*
X12102376Y-17089586D01*
X12102376Y-17089586D02*
X12073804Y-17089586D01*
X12073804Y-17089586D02*
X12054757Y-17099110D01*
X12054757Y-17099110D02*
X12045233Y-17108634D01*
X12254757Y-17222920D02*
X12235709Y-17213396D01*
X12235709Y-17213396D02*
X12226185Y-17203872D01*
X12226185Y-17203872D02*
X12216662Y-17184824D01*
X12216662Y-17184824D02*
X12216662Y-17127681D01*
X12216662Y-17127681D02*
X12226185Y-17108634D01*
X12226185Y-17108634D02*
X12235709Y-17099110D01*
X12235709Y-17099110D02*
X12254757Y-17089586D01*
X12254757Y-17089586D02*
X12283328Y-17089586D01*
X12283328Y-17089586D02*
X12302376Y-17099110D01*
X12302376Y-17099110D02*
X12311900Y-17108634D01*
X12311900Y-17108634D02*
X12321424Y-17127681D01*
X12321424Y-17127681D02*
X12321424Y-17184824D01*
X12321424Y-17184824D02*
X12311900Y-17203872D01*
X12311900Y-17203872D02*
X12302376Y-17213396D01*
X12302376Y-17213396D02*
X12283328Y-17222920D01*
X12283328Y-17222920D02*
X12254757Y-17222920D01*
X12435709Y-17222920D02*
X12416662Y-17213396D01*
X12416662Y-17213396D02*
X12407138Y-17194348D01*
X12407138Y-17194348D02*
X12407138Y-17022920D01*
X12588090Y-17213396D02*
X12569043Y-17222920D01*
X12569043Y-17222920D02*
X12530947Y-17222920D01*
X12530947Y-17222920D02*
X12511900Y-17213396D01*
X12511900Y-17213396D02*
X12502376Y-17194348D01*
X12502376Y-17194348D02*
X12502376Y-17118158D01*
X12502376Y-17118158D02*
X12511900Y-17099110D01*
X12511900Y-17099110D02*
X12530947Y-17089586D01*
X12530947Y-17089586D02*
X12569043Y-17089586D01*
X12569043Y-17089586D02*
X12588090Y-17099110D01*
X12588090Y-17099110D02*
X12597614Y-17118158D01*
X12597614Y-17118158D02*
X12597614Y-17137205D01*
X12597614Y-17137205D02*
X12502376Y-17156253D01*
X12673805Y-17213396D02*
X12692852Y-17222920D01*
X12692852Y-17222920D02*
X12730947Y-17222920D01*
X12730947Y-17222920D02*
X12749995Y-17213396D01*
X12749995Y-17213396D02*
X12759519Y-17194348D01*
X12759519Y-17194348D02*
X12759519Y-17184824D01*
X12759519Y-17184824D02*
X12749995Y-17165777D01*
X12749995Y-17165777D02*
X12730947Y-17156253D01*
X12730947Y-17156253D02*
X12702376Y-17156253D01*
X12702376Y-17156253D02*
X12683328Y-17146729D01*
X12683328Y-17146729D02*
X12673805Y-17127681D01*
X12673805Y-17127681D02*
X12673805Y-17118158D01*
X12673805Y-17118158D02*
X12683328Y-17099110D01*
X12683328Y-17099110D02*
X12702376Y-17089586D01*
X12702376Y-17089586D02*
X12730947Y-17089586D01*
X12730947Y-17089586D02*
X12749995Y-17099110D01*
X12826186Y-17299110D02*
X12835709Y-17289586D01*
X12835709Y-17289586D02*
X12854757Y-17261015D01*
X12854757Y-17261015D02*
X12864281Y-17241967D01*
X12864281Y-17241967D02*
X12873805Y-17213396D01*
X12873805Y-17213396D02*
X12883328Y-17165777D01*
X12883328Y-17165777D02*
X12883328Y-17127681D01*
X12883328Y-17127681D02*
X12873805Y-17080062D01*
X12873805Y-17080062D02*
X12864281Y-17051491D01*
X12864281Y-17051491D02*
X12854757Y-17032443D01*
X12854757Y-17032443D02*
X12835709Y-17003872D01*
X12835709Y-17003872D02*
X12826186Y-16994348D01*
D11*
X7951123Y-17345436D02*
X8051123Y-17445436D01*
X8051123Y-17345436D02*
X7951123Y-17445436D01*
X8001123Y-17345436D02*
X8001123Y-17445436D01*
X7951123Y-17395436D02*
X8051123Y-17395436D01*
D10*
X8416661Y-17486920D02*
X8302376Y-17486920D01*
X8359518Y-17486920D02*
X8359518Y-17286920D01*
X8359518Y-17286920D02*
X8340471Y-17315491D01*
X8340471Y-17315491D02*
X8321423Y-17334539D01*
X8321423Y-17334539D02*
X8302376Y-17344062D01*
X8502376Y-17467872D02*
X8511899Y-17477396D01*
X8511899Y-17477396D02*
X8502376Y-17486920D01*
X8502376Y-17486920D02*
X8492852Y-17477396D01*
X8492852Y-17477396D02*
X8502376Y-17467872D01*
X8502376Y-17467872D02*
X8502376Y-17486920D01*
X8635709Y-17286920D02*
X8654757Y-17286920D01*
X8654757Y-17286920D02*
X8673804Y-17296443D01*
X8673804Y-17296443D02*
X8683328Y-17305967D01*
X8683328Y-17305967D02*
X8692852Y-17325015D01*
X8692852Y-17325015D02*
X8702376Y-17363110D01*
X8702376Y-17363110D02*
X8702376Y-17410729D01*
X8702376Y-17410729D02*
X8692852Y-17448824D01*
X8692852Y-17448824D02*
X8683328Y-17467872D01*
X8683328Y-17467872D02*
X8673804Y-17477396D01*
X8673804Y-17477396D02*
X8654757Y-17486920D01*
X8654757Y-17486920D02*
X8635709Y-17486920D01*
X8635709Y-17486920D02*
X8616661Y-17477396D01*
X8616661Y-17477396D02*
X8607138Y-17467872D01*
X8607138Y-17467872D02*
X8597614Y-17448824D01*
X8597614Y-17448824D02*
X8588090Y-17410729D01*
X8588090Y-17410729D02*
X8588090Y-17363110D01*
X8588090Y-17363110D02*
X8597614Y-17325015D01*
X8597614Y-17325015D02*
X8607138Y-17305967D01*
X8607138Y-17305967D02*
X8616661Y-17296443D01*
X8616661Y-17296443D02*
X8635709Y-17286920D01*
X8826185Y-17286920D02*
X8845233Y-17286920D01*
X8845233Y-17286920D02*
X8864280Y-17296443D01*
X8864280Y-17296443D02*
X8873804Y-17305967D01*
X8873804Y-17305967D02*
X8883328Y-17325015D01*
X8883328Y-17325015D02*
X8892852Y-17363110D01*
X8892852Y-17363110D02*
X8892852Y-17410729D01*
X8892852Y-17410729D02*
X8883328Y-17448824D01*
X8883328Y-17448824D02*
X8873804Y-17467872D01*
X8873804Y-17467872D02*
X8864280Y-17477396D01*
X8864280Y-17477396D02*
X8845233Y-17486920D01*
X8845233Y-17486920D02*
X8826185Y-17486920D01*
X8826185Y-17486920D02*
X8807138Y-17477396D01*
X8807138Y-17477396D02*
X8797614Y-17467872D01*
X8797614Y-17467872D02*
X8788090Y-17448824D01*
X8788090Y-17448824D02*
X8778566Y-17410729D01*
X8778566Y-17410729D02*
X8778566Y-17363110D01*
X8778566Y-17363110D02*
X8788090Y-17325015D01*
X8788090Y-17325015D02*
X8797614Y-17305967D01*
X8797614Y-17305967D02*
X8807138Y-17296443D01*
X8807138Y-17296443D02*
X8826185Y-17286920D01*
X9016661Y-17286920D02*
X9035709Y-17286920D01*
X9035709Y-17286920D02*
X9054757Y-17296443D01*
X9054757Y-17296443D02*
X9064280Y-17305967D01*
X9064280Y-17305967D02*
X9073804Y-17325015D01*
X9073804Y-17325015D02*
X9083328Y-17363110D01*
X9083328Y-17363110D02*
X9083328Y-17410729D01*
X9083328Y-17410729D02*
X9073804Y-17448824D01*
X9073804Y-17448824D02*
X9064280Y-17467872D01*
X9064280Y-17467872D02*
X9054757Y-17477396D01*
X9054757Y-17477396D02*
X9035709Y-17486920D01*
X9035709Y-17486920D02*
X9016661Y-17486920D01*
X9016661Y-17486920D02*
X8997614Y-17477396D01*
X8997614Y-17477396D02*
X8988090Y-17467872D01*
X8988090Y-17467872D02*
X8978566Y-17448824D01*
X8978566Y-17448824D02*
X8969042Y-17410729D01*
X8969042Y-17410729D02*
X8969042Y-17363110D01*
X8969042Y-17363110D02*
X8978566Y-17325015D01*
X8978566Y-17325015D02*
X8988090Y-17305967D01*
X8988090Y-17305967D02*
X8997614Y-17296443D01*
X8997614Y-17296443D02*
X9016661Y-17286920D01*
X9169042Y-17486920D02*
X9169042Y-17353586D01*
X9169042Y-17372634D02*
X9178566Y-17363110D01*
X9178566Y-17363110D02*
X9197614Y-17353586D01*
X9197614Y-17353586D02*
X9226185Y-17353586D01*
X9226185Y-17353586D02*
X9245233Y-17363110D01*
X9245233Y-17363110D02*
X9254757Y-17382158D01*
X9254757Y-17382158D02*
X9254757Y-17486920D01*
X9254757Y-17382158D02*
X9264280Y-17363110D01*
X9264280Y-17363110D02*
X9283328Y-17353586D01*
X9283328Y-17353586D02*
X9311899Y-17353586D01*
X9311899Y-17353586D02*
X9330947Y-17363110D01*
X9330947Y-17363110D02*
X9340471Y-17382158D01*
X9340471Y-17382158D02*
X9340471Y-17486920D01*
X9435709Y-17486920D02*
X9435709Y-17353586D01*
X9435709Y-17372634D02*
X9445233Y-17363110D01*
X9445233Y-17363110D02*
X9464280Y-17353586D01*
X9464280Y-17353586D02*
X9492852Y-17353586D01*
X9492852Y-17353586D02*
X9511900Y-17363110D01*
X9511900Y-17363110D02*
X9521423Y-17382158D01*
X9521423Y-17382158D02*
X9521423Y-17486920D01*
X9521423Y-17382158D02*
X9530947Y-17363110D01*
X9530947Y-17363110D02*
X9549995Y-17353586D01*
X9549995Y-17353586D02*
X9578566Y-17353586D01*
X9578566Y-17353586D02*
X9597614Y-17363110D01*
X9597614Y-17363110D02*
X9607138Y-17382158D01*
X9607138Y-17382158D02*
X9607138Y-17486920D01*
X9997614Y-17277396D02*
X9826185Y-17534539D01*
X10254757Y-17286920D02*
X10273804Y-17286920D01*
X10273804Y-17286920D02*
X10292852Y-17296443D01*
X10292852Y-17296443D02*
X10302376Y-17305967D01*
X10302376Y-17305967D02*
X10311900Y-17325015D01*
X10311900Y-17325015D02*
X10321423Y-17363110D01*
X10321423Y-17363110D02*
X10321423Y-17410729D01*
X10321423Y-17410729D02*
X10311900Y-17448824D01*
X10311900Y-17448824D02*
X10302376Y-17467872D01*
X10302376Y-17467872D02*
X10292852Y-17477396D01*
X10292852Y-17477396D02*
X10273804Y-17486920D01*
X10273804Y-17486920D02*
X10254757Y-17486920D01*
X10254757Y-17486920D02*
X10235709Y-17477396D01*
X10235709Y-17477396D02*
X10226185Y-17467872D01*
X10226185Y-17467872D02*
X10216662Y-17448824D01*
X10216662Y-17448824D02*
X10207138Y-17410729D01*
X10207138Y-17410729D02*
X10207138Y-17363110D01*
X10207138Y-17363110D02*
X10216662Y-17325015D01*
X10216662Y-17325015D02*
X10226185Y-17305967D01*
X10226185Y-17305967D02*
X10235709Y-17296443D01*
X10235709Y-17296443D02*
X10254757Y-17286920D01*
X10407138Y-17467872D02*
X10416662Y-17477396D01*
X10416662Y-17477396D02*
X10407138Y-17486920D01*
X10407138Y-17486920D02*
X10397614Y-17477396D01*
X10397614Y-17477396D02*
X10407138Y-17467872D01*
X10407138Y-17467872D02*
X10407138Y-17486920D01*
X10540471Y-17286920D02*
X10559519Y-17286920D01*
X10559519Y-17286920D02*
X10578566Y-17296443D01*
X10578566Y-17296443D02*
X10588090Y-17305967D01*
X10588090Y-17305967D02*
X10597614Y-17325015D01*
X10597614Y-17325015D02*
X10607138Y-17363110D01*
X10607138Y-17363110D02*
X10607138Y-17410729D01*
X10607138Y-17410729D02*
X10597614Y-17448824D01*
X10597614Y-17448824D02*
X10588090Y-17467872D01*
X10588090Y-17467872D02*
X10578566Y-17477396D01*
X10578566Y-17477396D02*
X10559519Y-17486920D01*
X10559519Y-17486920D02*
X10540471Y-17486920D01*
X10540471Y-17486920D02*
X10521423Y-17477396D01*
X10521423Y-17477396D02*
X10511900Y-17467872D01*
X10511900Y-17467872D02*
X10502376Y-17448824D01*
X10502376Y-17448824D02*
X10492852Y-17410729D01*
X10492852Y-17410729D02*
X10492852Y-17363110D01*
X10492852Y-17363110D02*
X10502376Y-17325015D01*
X10502376Y-17325015D02*
X10511900Y-17305967D01*
X10511900Y-17305967D02*
X10521423Y-17296443D01*
X10521423Y-17296443D02*
X10540471Y-17286920D01*
X10673804Y-17286920D02*
X10797614Y-17286920D01*
X10797614Y-17286920D02*
X10730947Y-17363110D01*
X10730947Y-17363110D02*
X10759519Y-17363110D01*
X10759519Y-17363110D02*
X10778566Y-17372634D01*
X10778566Y-17372634D02*
X10788090Y-17382158D01*
X10788090Y-17382158D02*
X10797614Y-17401205D01*
X10797614Y-17401205D02*
X10797614Y-17448824D01*
X10797614Y-17448824D02*
X10788090Y-17467872D01*
X10788090Y-17467872D02*
X10778566Y-17477396D01*
X10778566Y-17477396D02*
X10759519Y-17486920D01*
X10759519Y-17486920D02*
X10702376Y-17486920D01*
X10702376Y-17486920D02*
X10683328Y-17477396D01*
X10683328Y-17477396D02*
X10673804Y-17467872D01*
X10892852Y-17486920D02*
X10930947Y-17486920D01*
X10930947Y-17486920D02*
X10949995Y-17477396D01*
X10949995Y-17477396D02*
X10959519Y-17467872D01*
X10959519Y-17467872D02*
X10978566Y-17439300D01*
X10978566Y-17439300D02*
X10988090Y-17401205D01*
X10988090Y-17401205D02*
X10988090Y-17325015D01*
X10988090Y-17325015D02*
X10978566Y-17305967D01*
X10978566Y-17305967D02*
X10969043Y-17296443D01*
X10969043Y-17296443D02*
X10949995Y-17286920D01*
X10949995Y-17286920D02*
X10911900Y-17286920D01*
X10911900Y-17286920D02*
X10892852Y-17296443D01*
X10892852Y-17296443D02*
X10883328Y-17305967D01*
X10883328Y-17305967D02*
X10873804Y-17325015D01*
X10873804Y-17325015D02*
X10873804Y-17372634D01*
X10873804Y-17372634D02*
X10883328Y-17391681D01*
X10883328Y-17391681D02*
X10892852Y-17401205D01*
X10892852Y-17401205D02*
X10911900Y-17410729D01*
X10911900Y-17410729D02*
X10949995Y-17410729D01*
X10949995Y-17410729D02*
X10969043Y-17401205D01*
X10969043Y-17401205D02*
X10978566Y-17391681D01*
X10978566Y-17391681D02*
X10988090Y-17372634D01*
X11159519Y-17353586D02*
X11159519Y-17486920D01*
X11111900Y-17277396D02*
X11064281Y-17420253D01*
X11064281Y-17420253D02*
X11188090Y-17420253D01*
X11254757Y-17286920D02*
X11254757Y-17325015D01*
X11330947Y-17286920D02*
X11330947Y-17325015D01*
X11626185Y-17563110D02*
X11616662Y-17553586D01*
X11616662Y-17553586D02*
X11597614Y-17525015D01*
X11597614Y-17525015D02*
X11588090Y-17505967D01*
X11588090Y-17505967D02*
X11578566Y-17477396D01*
X11578566Y-17477396D02*
X11569043Y-17429777D01*
X11569043Y-17429777D02*
X11569043Y-17391681D01*
X11569043Y-17391681D02*
X11578566Y-17344062D01*
X11578566Y-17344062D02*
X11588090Y-17315491D01*
X11588090Y-17315491D02*
X11597614Y-17296443D01*
X11597614Y-17296443D02*
X11616662Y-17267872D01*
X11616662Y-17267872D02*
X11626185Y-17258348D01*
X11788090Y-17353586D02*
X11788090Y-17486920D01*
X11740471Y-17277396D02*
X11692852Y-17420253D01*
X11692852Y-17420253D02*
X11816662Y-17420253D01*
X12045233Y-17486920D02*
X12045233Y-17286920D01*
X12130947Y-17486920D02*
X12130947Y-17382158D01*
X12130947Y-17382158D02*
X12121424Y-17363110D01*
X12121424Y-17363110D02*
X12102376Y-17353586D01*
X12102376Y-17353586D02*
X12073804Y-17353586D01*
X12073804Y-17353586D02*
X12054757Y-17363110D01*
X12054757Y-17363110D02*
X12045233Y-17372634D01*
X12254757Y-17486920D02*
X12235709Y-17477396D01*
X12235709Y-17477396D02*
X12226185Y-17467872D01*
X12226185Y-17467872D02*
X12216662Y-17448824D01*
X12216662Y-17448824D02*
X12216662Y-17391681D01*
X12216662Y-17391681D02*
X12226185Y-17372634D01*
X12226185Y-17372634D02*
X12235709Y-17363110D01*
X12235709Y-17363110D02*
X12254757Y-17353586D01*
X12254757Y-17353586D02*
X12283328Y-17353586D01*
X12283328Y-17353586D02*
X12302376Y-17363110D01*
X12302376Y-17363110D02*
X12311900Y-17372634D01*
X12311900Y-17372634D02*
X12321424Y-17391681D01*
X12321424Y-17391681D02*
X12321424Y-17448824D01*
X12321424Y-17448824D02*
X12311900Y-17467872D01*
X12311900Y-17467872D02*
X12302376Y-17477396D01*
X12302376Y-17477396D02*
X12283328Y-17486920D01*
X12283328Y-17486920D02*
X12254757Y-17486920D01*
X12435709Y-17486920D02*
X12416662Y-17477396D01*
X12416662Y-17477396D02*
X12407138Y-17458348D01*
X12407138Y-17458348D02*
X12407138Y-17286920D01*
X12588090Y-17477396D02*
X12569043Y-17486920D01*
X12569043Y-17486920D02*
X12530947Y-17486920D01*
X12530947Y-17486920D02*
X12511900Y-17477396D01*
X12511900Y-17477396D02*
X12502376Y-17458348D01*
X12502376Y-17458348D02*
X12502376Y-17382158D01*
X12502376Y-17382158D02*
X12511900Y-17363110D01*
X12511900Y-17363110D02*
X12530947Y-17353586D01*
X12530947Y-17353586D02*
X12569043Y-17353586D01*
X12569043Y-17353586D02*
X12588090Y-17363110D01*
X12588090Y-17363110D02*
X12597614Y-17382158D01*
X12597614Y-17382158D02*
X12597614Y-17401205D01*
X12597614Y-17401205D02*
X12502376Y-17420253D01*
X12673805Y-17477396D02*
X12692852Y-17486920D01*
X12692852Y-17486920D02*
X12730947Y-17486920D01*
X12730947Y-17486920D02*
X12749995Y-17477396D01*
X12749995Y-17477396D02*
X12759519Y-17458348D01*
X12759519Y-17458348D02*
X12759519Y-17448824D01*
X12759519Y-17448824D02*
X12749995Y-17429777D01*
X12749995Y-17429777D02*
X12730947Y-17420253D01*
X12730947Y-17420253D02*
X12702376Y-17420253D01*
X12702376Y-17420253D02*
X12683328Y-17410729D01*
X12683328Y-17410729D02*
X12673805Y-17391681D01*
X12673805Y-17391681D02*
X12673805Y-17382158D01*
X12673805Y-17382158D02*
X12683328Y-17363110D01*
X12683328Y-17363110D02*
X12702376Y-17353586D01*
X12702376Y-17353586D02*
X12730947Y-17353586D01*
X12730947Y-17353586D02*
X12749995Y-17363110D01*
X12826186Y-17563110D02*
X12835709Y-17553586D01*
X12835709Y-17553586D02*
X12854757Y-17525015D01*
X12854757Y-17525015D02*
X12864281Y-17505967D01*
X12864281Y-17505967D02*
X12873805Y-17477396D01*
X12873805Y-17477396D02*
X12883328Y-17429777D01*
X12883328Y-17429777D02*
X12883328Y-17391681D01*
X12883328Y-17391681D02*
X12873805Y-17344062D01*
X12873805Y-17344062D02*
X12864281Y-17315491D01*
X12864281Y-17315491D02*
X12854757Y-17296443D01*
X12854757Y-17296443D02*
X12835709Y-17267872D01*
X12835709Y-17267872D02*
X12826186Y-17258348D01*
D11*
X7951123Y-17609436D02*
X8051123Y-17709436D01*
X8051123Y-17609436D02*
X7951123Y-17709436D01*
X8036478Y-17694791D02*
X8036478Y-17624080D01*
X7965767Y-17624080D01*
X7965767Y-17694791D01*
X8036478Y-17694791D01*
D10*
X8416661Y-17750920D02*
X8302376Y-17750920D01*
X8359518Y-17750920D02*
X8359518Y-17550920D01*
X8359518Y-17550920D02*
X8340471Y-17579491D01*
X8340471Y-17579491D02*
X8321423Y-17598539D01*
X8321423Y-17598539D02*
X8302376Y-17608062D01*
X8502376Y-17731872D02*
X8511899Y-17741396D01*
X8511899Y-17741396D02*
X8502376Y-17750920D01*
X8502376Y-17750920D02*
X8492852Y-17741396D01*
X8492852Y-17741396D02*
X8502376Y-17731872D01*
X8502376Y-17731872D02*
X8502376Y-17750920D01*
X8635709Y-17550920D02*
X8654757Y-17550920D01*
X8654757Y-17550920D02*
X8673804Y-17560443D01*
X8673804Y-17560443D02*
X8683328Y-17569967D01*
X8683328Y-17569967D02*
X8692852Y-17589015D01*
X8692852Y-17589015D02*
X8702376Y-17627110D01*
X8702376Y-17627110D02*
X8702376Y-17674729D01*
X8702376Y-17674729D02*
X8692852Y-17712824D01*
X8692852Y-17712824D02*
X8683328Y-17731872D01*
X8683328Y-17731872D02*
X8673804Y-17741396D01*
X8673804Y-17741396D02*
X8654757Y-17750920D01*
X8654757Y-17750920D02*
X8635709Y-17750920D01*
X8635709Y-17750920D02*
X8616661Y-17741396D01*
X8616661Y-17741396D02*
X8607138Y-17731872D01*
X8607138Y-17731872D02*
X8597614Y-17712824D01*
X8597614Y-17712824D02*
X8588090Y-17674729D01*
X8588090Y-17674729D02*
X8588090Y-17627110D01*
X8588090Y-17627110D02*
X8597614Y-17589015D01*
X8597614Y-17589015D02*
X8607138Y-17569967D01*
X8607138Y-17569967D02*
X8616661Y-17560443D01*
X8616661Y-17560443D02*
X8635709Y-17550920D01*
X8826185Y-17550920D02*
X8845233Y-17550920D01*
X8845233Y-17550920D02*
X8864280Y-17560443D01*
X8864280Y-17560443D02*
X8873804Y-17569967D01*
X8873804Y-17569967D02*
X8883328Y-17589015D01*
X8883328Y-17589015D02*
X8892852Y-17627110D01*
X8892852Y-17627110D02*
X8892852Y-17674729D01*
X8892852Y-17674729D02*
X8883328Y-17712824D01*
X8883328Y-17712824D02*
X8873804Y-17731872D01*
X8873804Y-17731872D02*
X8864280Y-17741396D01*
X8864280Y-17741396D02*
X8845233Y-17750920D01*
X8845233Y-17750920D02*
X8826185Y-17750920D01*
X8826185Y-17750920D02*
X8807138Y-17741396D01*
X8807138Y-17741396D02*
X8797614Y-17731872D01*
X8797614Y-17731872D02*
X8788090Y-17712824D01*
X8788090Y-17712824D02*
X8778566Y-17674729D01*
X8778566Y-17674729D02*
X8778566Y-17627110D01*
X8778566Y-17627110D02*
X8788090Y-17589015D01*
X8788090Y-17589015D02*
X8797614Y-17569967D01*
X8797614Y-17569967D02*
X8807138Y-17560443D01*
X8807138Y-17560443D02*
X8826185Y-17550920D01*
X9016661Y-17550920D02*
X9035709Y-17550920D01*
X9035709Y-17550920D02*
X9054757Y-17560443D01*
X9054757Y-17560443D02*
X9064280Y-17569967D01*
X9064280Y-17569967D02*
X9073804Y-17589015D01*
X9073804Y-17589015D02*
X9083328Y-17627110D01*
X9083328Y-17627110D02*
X9083328Y-17674729D01*
X9083328Y-17674729D02*
X9073804Y-17712824D01*
X9073804Y-17712824D02*
X9064280Y-17731872D01*
X9064280Y-17731872D02*
X9054757Y-17741396D01*
X9054757Y-17741396D02*
X9035709Y-17750920D01*
X9035709Y-17750920D02*
X9016661Y-17750920D01*
X9016661Y-17750920D02*
X8997614Y-17741396D01*
X8997614Y-17741396D02*
X8988090Y-17731872D01*
X8988090Y-17731872D02*
X8978566Y-17712824D01*
X8978566Y-17712824D02*
X8969042Y-17674729D01*
X8969042Y-17674729D02*
X8969042Y-17627110D01*
X8969042Y-17627110D02*
X8978566Y-17589015D01*
X8978566Y-17589015D02*
X8988090Y-17569967D01*
X8988090Y-17569967D02*
X8997614Y-17560443D01*
X8997614Y-17560443D02*
X9016661Y-17550920D01*
X9169042Y-17750920D02*
X9169042Y-17617586D01*
X9169042Y-17636634D02*
X9178566Y-17627110D01*
X9178566Y-17627110D02*
X9197614Y-17617586D01*
X9197614Y-17617586D02*
X9226185Y-17617586D01*
X9226185Y-17617586D02*
X9245233Y-17627110D01*
X9245233Y-17627110D02*
X9254757Y-17646158D01*
X9254757Y-17646158D02*
X9254757Y-17750920D01*
X9254757Y-17646158D02*
X9264280Y-17627110D01*
X9264280Y-17627110D02*
X9283328Y-17617586D01*
X9283328Y-17617586D02*
X9311899Y-17617586D01*
X9311899Y-17617586D02*
X9330947Y-17627110D01*
X9330947Y-17627110D02*
X9340471Y-17646158D01*
X9340471Y-17646158D02*
X9340471Y-17750920D01*
X9435709Y-17750920D02*
X9435709Y-17617586D01*
X9435709Y-17636634D02*
X9445233Y-17627110D01*
X9445233Y-17627110D02*
X9464280Y-17617586D01*
X9464280Y-17617586D02*
X9492852Y-17617586D01*
X9492852Y-17617586D02*
X9511900Y-17627110D01*
X9511900Y-17627110D02*
X9521423Y-17646158D01*
X9521423Y-17646158D02*
X9521423Y-17750920D01*
X9521423Y-17646158D02*
X9530947Y-17627110D01*
X9530947Y-17627110D02*
X9549995Y-17617586D01*
X9549995Y-17617586D02*
X9578566Y-17617586D01*
X9578566Y-17617586D02*
X9597614Y-17627110D01*
X9597614Y-17627110D02*
X9607138Y-17646158D01*
X9607138Y-17646158D02*
X9607138Y-17750920D01*
X9997614Y-17541396D02*
X9826185Y-17798539D01*
X10254757Y-17550920D02*
X10273804Y-17550920D01*
X10273804Y-17550920D02*
X10292852Y-17560443D01*
X10292852Y-17560443D02*
X10302376Y-17569967D01*
X10302376Y-17569967D02*
X10311900Y-17589015D01*
X10311900Y-17589015D02*
X10321423Y-17627110D01*
X10321423Y-17627110D02*
X10321423Y-17674729D01*
X10321423Y-17674729D02*
X10311900Y-17712824D01*
X10311900Y-17712824D02*
X10302376Y-17731872D01*
X10302376Y-17731872D02*
X10292852Y-17741396D01*
X10292852Y-17741396D02*
X10273804Y-17750920D01*
X10273804Y-17750920D02*
X10254757Y-17750920D01*
X10254757Y-17750920D02*
X10235709Y-17741396D01*
X10235709Y-17741396D02*
X10226185Y-17731872D01*
X10226185Y-17731872D02*
X10216662Y-17712824D01*
X10216662Y-17712824D02*
X10207138Y-17674729D01*
X10207138Y-17674729D02*
X10207138Y-17627110D01*
X10207138Y-17627110D02*
X10216662Y-17589015D01*
X10216662Y-17589015D02*
X10226185Y-17569967D01*
X10226185Y-17569967D02*
X10235709Y-17560443D01*
X10235709Y-17560443D02*
X10254757Y-17550920D01*
X10407138Y-17731872D02*
X10416662Y-17741396D01*
X10416662Y-17741396D02*
X10407138Y-17750920D01*
X10407138Y-17750920D02*
X10397614Y-17741396D01*
X10397614Y-17741396D02*
X10407138Y-17731872D01*
X10407138Y-17731872D02*
X10407138Y-17750920D01*
X10540471Y-17550920D02*
X10559519Y-17550920D01*
X10559519Y-17550920D02*
X10578566Y-17560443D01*
X10578566Y-17560443D02*
X10588090Y-17569967D01*
X10588090Y-17569967D02*
X10597614Y-17589015D01*
X10597614Y-17589015D02*
X10607138Y-17627110D01*
X10607138Y-17627110D02*
X10607138Y-17674729D01*
X10607138Y-17674729D02*
X10597614Y-17712824D01*
X10597614Y-17712824D02*
X10588090Y-17731872D01*
X10588090Y-17731872D02*
X10578566Y-17741396D01*
X10578566Y-17741396D02*
X10559519Y-17750920D01*
X10559519Y-17750920D02*
X10540471Y-17750920D01*
X10540471Y-17750920D02*
X10521423Y-17741396D01*
X10521423Y-17741396D02*
X10511900Y-17731872D01*
X10511900Y-17731872D02*
X10502376Y-17712824D01*
X10502376Y-17712824D02*
X10492852Y-17674729D01*
X10492852Y-17674729D02*
X10492852Y-17627110D01*
X10492852Y-17627110D02*
X10502376Y-17589015D01*
X10502376Y-17589015D02*
X10511900Y-17569967D01*
X10511900Y-17569967D02*
X10521423Y-17560443D01*
X10521423Y-17560443D02*
X10540471Y-17550920D01*
X10673804Y-17550920D02*
X10797614Y-17550920D01*
X10797614Y-17550920D02*
X10730947Y-17627110D01*
X10730947Y-17627110D02*
X10759519Y-17627110D01*
X10759519Y-17627110D02*
X10778566Y-17636634D01*
X10778566Y-17636634D02*
X10788090Y-17646158D01*
X10788090Y-17646158D02*
X10797614Y-17665205D01*
X10797614Y-17665205D02*
X10797614Y-17712824D01*
X10797614Y-17712824D02*
X10788090Y-17731872D01*
X10788090Y-17731872D02*
X10778566Y-17741396D01*
X10778566Y-17741396D02*
X10759519Y-17750920D01*
X10759519Y-17750920D02*
X10702376Y-17750920D01*
X10702376Y-17750920D02*
X10683328Y-17741396D01*
X10683328Y-17741396D02*
X10673804Y-17731872D01*
X10892852Y-17750920D02*
X10930947Y-17750920D01*
X10930947Y-17750920D02*
X10949995Y-17741396D01*
X10949995Y-17741396D02*
X10959519Y-17731872D01*
X10959519Y-17731872D02*
X10978566Y-17703300D01*
X10978566Y-17703300D02*
X10988090Y-17665205D01*
X10988090Y-17665205D02*
X10988090Y-17589015D01*
X10988090Y-17589015D02*
X10978566Y-17569967D01*
X10978566Y-17569967D02*
X10969043Y-17560443D01*
X10969043Y-17560443D02*
X10949995Y-17550920D01*
X10949995Y-17550920D02*
X10911900Y-17550920D01*
X10911900Y-17550920D02*
X10892852Y-17560443D01*
X10892852Y-17560443D02*
X10883328Y-17569967D01*
X10883328Y-17569967D02*
X10873804Y-17589015D01*
X10873804Y-17589015D02*
X10873804Y-17636634D01*
X10873804Y-17636634D02*
X10883328Y-17655681D01*
X10883328Y-17655681D02*
X10892852Y-17665205D01*
X10892852Y-17665205D02*
X10911900Y-17674729D01*
X10911900Y-17674729D02*
X10949995Y-17674729D01*
X10949995Y-17674729D02*
X10969043Y-17665205D01*
X10969043Y-17665205D02*
X10978566Y-17655681D01*
X10978566Y-17655681D02*
X10988090Y-17636634D01*
X11159519Y-17617586D02*
X11159519Y-17750920D01*
X11111900Y-17541396D02*
X11064281Y-17684253D01*
X11064281Y-17684253D02*
X11188090Y-17684253D01*
X11254757Y-17550920D02*
X11254757Y-17589015D01*
X11330947Y-17550920D02*
X11330947Y-17589015D01*
X11626185Y-17827110D02*
X11616662Y-17817586D01*
X11616662Y-17817586D02*
X11597614Y-17789015D01*
X11597614Y-17789015D02*
X11588090Y-17769967D01*
X11588090Y-17769967D02*
X11578566Y-17741396D01*
X11578566Y-17741396D02*
X11569043Y-17693777D01*
X11569043Y-17693777D02*
X11569043Y-17655681D01*
X11569043Y-17655681D02*
X11578566Y-17608062D01*
X11578566Y-17608062D02*
X11588090Y-17579491D01*
X11588090Y-17579491D02*
X11597614Y-17560443D01*
X11597614Y-17560443D02*
X11616662Y-17531872D01*
X11616662Y-17531872D02*
X11626185Y-17522348D01*
X11807138Y-17750920D02*
X11692852Y-17750920D01*
X11749995Y-17750920D02*
X11749995Y-17550920D01*
X11749995Y-17550920D02*
X11730947Y-17579491D01*
X11730947Y-17579491D02*
X11711900Y-17598539D01*
X11711900Y-17598539D02*
X11692852Y-17608062D01*
X11883328Y-17569967D02*
X11892852Y-17560443D01*
X11892852Y-17560443D02*
X11911900Y-17550920D01*
X11911900Y-17550920D02*
X11959519Y-17550920D01*
X11959519Y-17550920D02*
X11978566Y-17560443D01*
X11978566Y-17560443D02*
X11988090Y-17569967D01*
X11988090Y-17569967D02*
X11997614Y-17589015D01*
X11997614Y-17589015D02*
X11997614Y-17608062D01*
X11997614Y-17608062D02*
X11988090Y-17636634D01*
X11988090Y-17636634D02*
X11873804Y-17750920D01*
X11873804Y-17750920D02*
X11997614Y-17750920D01*
X12235709Y-17750920D02*
X12235709Y-17550920D01*
X12321424Y-17750920D02*
X12321424Y-17646158D01*
X12321424Y-17646158D02*
X12311900Y-17627110D01*
X12311900Y-17627110D02*
X12292852Y-17617586D01*
X12292852Y-17617586D02*
X12264281Y-17617586D01*
X12264281Y-17617586D02*
X12245233Y-17627110D01*
X12245233Y-17627110D02*
X12235709Y-17636634D01*
X12445233Y-17750920D02*
X12426185Y-17741396D01*
X12426185Y-17741396D02*
X12416662Y-17731872D01*
X12416662Y-17731872D02*
X12407138Y-17712824D01*
X12407138Y-17712824D02*
X12407138Y-17655681D01*
X12407138Y-17655681D02*
X12416662Y-17636634D01*
X12416662Y-17636634D02*
X12426185Y-17627110D01*
X12426185Y-17627110D02*
X12445233Y-17617586D01*
X12445233Y-17617586D02*
X12473805Y-17617586D01*
X12473805Y-17617586D02*
X12492852Y-17627110D01*
X12492852Y-17627110D02*
X12502376Y-17636634D01*
X12502376Y-17636634D02*
X12511900Y-17655681D01*
X12511900Y-17655681D02*
X12511900Y-17712824D01*
X12511900Y-17712824D02*
X12502376Y-17731872D01*
X12502376Y-17731872D02*
X12492852Y-17741396D01*
X12492852Y-17741396D02*
X12473805Y-17750920D01*
X12473805Y-17750920D02*
X12445233Y-17750920D01*
X12626185Y-17750920D02*
X12607138Y-17741396D01*
X12607138Y-17741396D02*
X12597614Y-17722348D01*
X12597614Y-17722348D02*
X12597614Y-17550920D01*
X12778566Y-17741396D02*
X12759519Y-17750920D01*
X12759519Y-17750920D02*
X12721424Y-17750920D01*
X12721424Y-17750920D02*
X12702376Y-17741396D01*
X12702376Y-17741396D02*
X12692852Y-17722348D01*
X12692852Y-17722348D02*
X12692852Y-17646158D01*
X12692852Y-17646158D02*
X12702376Y-17627110D01*
X12702376Y-17627110D02*
X12721424Y-17617586D01*
X12721424Y-17617586D02*
X12759519Y-17617586D01*
X12759519Y-17617586D02*
X12778566Y-17627110D01*
X12778566Y-17627110D02*
X12788090Y-17646158D01*
X12788090Y-17646158D02*
X12788090Y-17665205D01*
X12788090Y-17665205D02*
X12692852Y-17684253D01*
X12864281Y-17741396D02*
X12883328Y-17750920D01*
X12883328Y-17750920D02*
X12921424Y-17750920D01*
X12921424Y-17750920D02*
X12940471Y-17741396D01*
X12940471Y-17741396D02*
X12949995Y-17722348D01*
X12949995Y-17722348D02*
X12949995Y-17712824D01*
X12949995Y-17712824D02*
X12940471Y-17693777D01*
X12940471Y-17693777D02*
X12921424Y-17684253D01*
X12921424Y-17684253D02*
X12892852Y-17684253D01*
X12892852Y-17684253D02*
X12873805Y-17674729D01*
X12873805Y-17674729D02*
X12864281Y-17655681D01*
X12864281Y-17655681D02*
X12864281Y-17646158D01*
X12864281Y-17646158D02*
X12873805Y-17627110D01*
X12873805Y-17627110D02*
X12892852Y-17617586D01*
X12892852Y-17617586D02*
X12921424Y-17617586D01*
X12921424Y-17617586D02*
X12940471Y-17627110D01*
X13016662Y-17827110D02*
X13026186Y-17817586D01*
X13026186Y-17817586D02*
X13045233Y-17789015D01*
X13045233Y-17789015D02*
X13054757Y-17769967D01*
X13054757Y-17769967D02*
X13064281Y-17741396D01*
X13064281Y-17741396D02*
X13073805Y-17693777D01*
X13073805Y-17693777D02*
X13073805Y-17655681D01*
X13073805Y-17655681D02*
X13064281Y-17608062D01*
X13064281Y-17608062D02*
X13054757Y-17579491D01*
X13054757Y-17579491D02*
X13045233Y-17560443D01*
X13045233Y-17560443D02*
X13026186Y-17531872D01*
X13026186Y-17531872D02*
X13016662Y-17522348D01*
D12*
X7931123Y-17863436D02*
X8051123Y-17983436D01*
X8051123Y-17863436D02*
X7931123Y-17983436D01*
X7991123Y-17983436D02*
X8051123Y-17923436D01*
X7991123Y-17863436D01*
X7931123Y-17923436D01*
X7991123Y-17983436D01*
D10*
X8416661Y-18014920D02*
X8302376Y-18014920D01*
X8359518Y-18014920D02*
X8359518Y-17814920D01*
X8359518Y-17814920D02*
X8340471Y-17843491D01*
X8340471Y-17843491D02*
X8321423Y-17862539D01*
X8321423Y-17862539D02*
X8302376Y-17872062D01*
X8502376Y-17995872D02*
X8511899Y-18005396D01*
X8511899Y-18005396D02*
X8502376Y-18014920D01*
X8502376Y-18014920D02*
X8492852Y-18005396D01*
X8492852Y-18005396D02*
X8502376Y-17995872D01*
X8502376Y-17995872D02*
X8502376Y-18014920D01*
X8588090Y-17833967D02*
X8597614Y-17824443D01*
X8597614Y-17824443D02*
X8616661Y-17814920D01*
X8616661Y-17814920D02*
X8664280Y-17814920D01*
X8664280Y-17814920D02*
X8683328Y-17824443D01*
X8683328Y-17824443D02*
X8692852Y-17833967D01*
X8692852Y-17833967D02*
X8702376Y-17853015D01*
X8702376Y-17853015D02*
X8702376Y-17872062D01*
X8702376Y-17872062D02*
X8692852Y-17900634D01*
X8692852Y-17900634D02*
X8578566Y-18014920D01*
X8578566Y-18014920D02*
X8702376Y-18014920D01*
X8826185Y-17814920D02*
X8845233Y-17814920D01*
X8845233Y-17814920D02*
X8864280Y-17824443D01*
X8864280Y-17824443D02*
X8873804Y-17833967D01*
X8873804Y-17833967D02*
X8883328Y-17853015D01*
X8883328Y-17853015D02*
X8892852Y-17891110D01*
X8892852Y-17891110D02*
X8892852Y-17938729D01*
X8892852Y-17938729D02*
X8883328Y-17976824D01*
X8883328Y-17976824D02*
X8873804Y-17995872D01*
X8873804Y-17995872D02*
X8864280Y-18005396D01*
X8864280Y-18005396D02*
X8845233Y-18014920D01*
X8845233Y-18014920D02*
X8826185Y-18014920D01*
X8826185Y-18014920D02*
X8807138Y-18005396D01*
X8807138Y-18005396D02*
X8797614Y-17995872D01*
X8797614Y-17995872D02*
X8788090Y-17976824D01*
X8788090Y-17976824D02*
X8778566Y-17938729D01*
X8778566Y-17938729D02*
X8778566Y-17891110D01*
X8778566Y-17891110D02*
X8788090Y-17853015D01*
X8788090Y-17853015D02*
X8797614Y-17833967D01*
X8797614Y-17833967D02*
X8807138Y-17824443D01*
X8807138Y-17824443D02*
X8826185Y-17814920D01*
X9016661Y-17814920D02*
X9035709Y-17814920D01*
X9035709Y-17814920D02*
X9054757Y-17824443D01*
X9054757Y-17824443D02*
X9064280Y-17833967D01*
X9064280Y-17833967D02*
X9073804Y-17853015D01*
X9073804Y-17853015D02*
X9083328Y-17891110D01*
X9083328Y-17891110D02*
X9083328Y-17938729D01*
X9083328Y-17938729D02*
X9073804Y-17976824D01*
X9073804Y-17976824D02*
X9064280Y-17995872D01*
X9064280Y-17995872D02*
X9054757Y-18005396D01*
X9054757Y-18005396D02*
X9035709Y-18014920D01*
X9035709Y-18014920D02*
X9016661Y-18014920D01*
X9016661Y-18014920D02*
X8997614Y-18005396D01*
X8997614Y-18005396D02*
X8988090Y-17995872D01*
X8988090Y-17995872D02*
X8978566Y-17976824D01*
X8978566Y-17976824D02*
X8969042Y-17938729D01*
X8969042Y-17938729D02*
X8969042Y-17891110D01*
X8969042Y-17891110D02*
X8978566Y-17853015D01*
X8978566Y-17853015D02*
X8988090Y-17833967D01*
X8988090Y-17833967D02*
X8997614Y-17824443D01*
X8997614Y-17824443D02*
X9016661Y-17814920D01*
X9169042Y-18014920D02*
X9169042Y-17881586D01*
X9169042Y-17900634D02*
X9178566Y-17891110D01*
X9178566Y-17891110D02*
X9197614Y-17881586D01*
X9197614Y-17881586D02*
X9226185Y-17881586D01*
X9226185Y-17881586D02*
X9245233Y-17891110D01*
X9245233Y-17891110D02*
X9254757Y-17910158D01*
X9254757Y-17910158D02*
X9254757Y-18014920D01*
X9254757Y-17910158D02*
X9264280Y-17891110D01*
X9264280Y-17891110D02*
X9283328Y-17881586D01*
X9283328Y-17881586D02*
X9311899Y-17881586D01*
X9311899Y-17881586D02*
X9330947Y-17891110D01*
X9330947Y-17891110D02*
X9340471Y-17910158D01*
X9340471Y-17910158D02*
X9340471Y-18014920D01*
X9435709Y-18014920D02*
X9435709Y-17881586D01*
X9435709Y-17900634D02*
X9445233Y-17891110D01*
X9445233Y-17891110D02*
X9464280Y-17881586D01*
X9464280Y-17881586D02*
X9492852Y-17881586D01*
X9492852Y-17881586D02*
X9511900Y-17891110D01*
X9511900Y-17891110D02*
X9521423Y-17910158D01*
X9521423Y-17910158D02*
X9521423Y-18014920D01*
X9521423Y-17910158D02*
X9530947Y-17891110D01*
X9530947Y-17891110D02*
X9549995Y-17881586D01*
X9549995Y-17881586D02*
X9578566Y-17881586D01*
X9578566Y-17881586D02*
X9597614Y-17891110D01*
X9597614Y-17891110D02*
X9607138Y-17910158D01*
X9607138Y-17910158D02*
X9607138Y-18014920D01*
X9997614Y-17805396D02*
X9826185Y-18062539D01*
X10254757Y-17814920D02*
X10273804Y-17814920D01*
X10273804Y-17814920D02*
X10292852Y-17824443D01*
X10292852Y-17824443D02*
X10302376Y-17833967D01*
X10302376Y-17833967D02*
X10311900Y-17853015D01*
X10311900Y-17853015D02*
X10321423Y-17891110D01*
X10321423Y-17891110D02*
X10321423Y-17938729D01*
X10321423Y-17938729D02*
X10311900Y-17976824D01*
X10311900Y-17976824D02*
X10302376Y-17995872D01*
X10302376Y-17995872D02*
X10292852Y-18005396D01*
X10292852Y-18005396D02*
X10273804Y-18014920D01*
X10273804Y-18014920D02*
X10254757Y-18014920D01*
X10254757Y-18014920D02*
X10235709Y-18005396D01*
X10235709Y-18005396D02*
X10226185Y-17995872D01*
X10226185Y-17995872D02*
X10216662Y-17976824D01*
X10216662Y-17976824D02*
X10207138Y-17938729D01*
X10207138Y-17938729D02*
X10207138Y-17891110D01*
X10207138Y-17891110D02*
X10216662Y-17853015D01*
X10216662Y-17853015D02*
X10226185Y-17833967D01*
X10226185Y-17833967D02*
X10235709Y-17824443D01*
X10235709Y-17824443D02*
X10254757Y-17814920D01*
X10407138Y-17995872D02*
X10416662Y-18005396D01*
X10416662Y-18005396D02*
X10407138Y-18014920D01*
X10407138Y-18014920D02*
X10397614Y-18005396D01*
X10397614Y-18005396D02*
X10407138Y-17995872D01*
X10407138Y-17995872D02*
X10407138Y-18014920D01*
X10540471Y-17814920D02*
X10559519Y-17814920D01*
X10559519Y-17814920D02*
X10578566Y-17824443D01*
X10578566Y-17824443D02*
X10588090Y-17833967D01*
X10588090Y-17833967D02*
X10597614Y-17853015D01*
X10597614Y-17853015D02*
X10607138Y-17891110D01*
X10607138Y-17891110D02*
X10607138Y-17938729D01*
X10607138Y-17938729D02*
X10597614Y-17976824D01*
X10597614Y-17976824D02*
X10588090Y-17995872D01*
X10588090Y-17995872D02*
X10578566Y-18005396D01*
X10578566Y-18005396D02*
X10559519Y-18014920D01*
X10559519Y-18014920D02*
X10540471Y-18014920D01*
X10540471Y-18014920D02*
X10521423Y-18005396D01*
X10521423Y-18005396D02*
X10511900Y-17995872D01*
X10511900Y-17995872D02*
X10502376Y-17976824D01*
X10502376Y-17976824D02*
X10492852Y-17938729D01*
X10492852Y-17938729D02*
X10492852Y-17891110D01*
X10492852Y-17891110D02*
X10502376Y-17853015D01*
X10502376Y-17853015D02*
X10511900Y-17833967D01*
X10511900Y-17833967D02*
X10521423Y-17824443D01*
X10521423Y-17824443D02*
X10540471Y-17814920D01*
X10778566Y-17881586D02*
X10778566Y-18014920D01*
X10730947Y-17805396D02*
X10683328Y-17948253D01*
X10683328Y-17948253D02*
X10807138Y-17948253D01*
X10864281Y-17814920D02*
X10997614Y-17814920D01*
X10997614Y-17814920D02*
X10911900Y-18014920D01*
X11064281Y-17833967D02*
X11073804Y-17824443D01*
X11073804Y-17824443D02*
X11092852Y-17814920D01*
X11092852Y-17814920D02*
X11140471Y-17814920D01*
X11140471Y-17814920D02*
X11159519Y-17824443D01*
X11159519Y-17824443D02*
X11169043Y-17833967D01*
X11169043Y-17833967D02*
X11178566Y-17853015D01*
X11178566Y-17853015D02*
X11178566Y-17872062D01*
X11178566Y-17872062D02*
X11169043Y-17900634D01*
X11169043Y-17900634D02*
X11054757Y-18014920D01*
X11054757Y-18014920D02*
X11178566Y-18014920D01*
X11254757Y-17814920D02*
X11254757Y-17853015D01*
X11330947Y-17814920D02*
X11330947Y-17853015D01*
X11626185Y-18091110D02*
X11616662Y-18081586D01*
X11616662Y-18081586D02*
X11597614Y-18053015D01*
X11597614Y-18053015D02*
X11588090Y-18033967D01*
X11588090Y-18033967D02*
X11578566Y-18005396D01*
X11578566Y-18005396D02*
X11569043Y-17957777D01*
X11569043Y-17957777D02*
X11569043Y-17919681D01*
X11569043Y-17919681D02*
X11578566Y-17872062D01*
X11578566Y-17872062D02*
X11588090Y-17843491D01*
X11588090Y-17843491D02*
X11597614Y-17824443D01*
X11597614Y-17824443D02*
X11616662Y-17795872D01*
X11616662Y-17795872D02*
X11626185Y-17786348D01*
X11807138Y-18014920D02*
X11692852Y-18014920D01*
X11749995Y-18014920D02*
X11749995Y-17814920D01*
X11749995Y-17814920D02*
X11730947Y-17843491D01*
X11730947Y-17843491D02*
X11711900Y-17862539D01*
X11711900Y-17862539D02*
X11692852Y-17872062D01*
X11883328Y-17833967D02*
X11892852Y-17824443D01*
X11892852Y-17824443D02*
X11911900Y-17814920D01*
X11911900Y-17814920D02*
X11959519Y-17814920D01*
X11959519Y-17814920D02*
X11978566Y-17824443D01*
X11978566Y-17824443D02*
X11988090Y-17833967D01*
X11988090Y-17833967D02*
X11997614Y-17853015D01*
X11997614Y-17853015D02*
X11997614Y-17872062D01*
X11997614Y-17872062D02*
X11988090Y-17900634D01*
X11988090Y-17900634D02*
X11873804Y-18014920D01*
X11873804Y-18014920D02*
X11997614Y-18014920D01*
X12235709Y-18014920D02*
X12235709Y-17814920D01*
X12321424Y-18014920D02*
X12321424Y-17910158D01*
X12321424Y-17910158D02*
X12311900Y-17891110D01*
X12311900Y-17891110D02*
X12292852Y-17881586D01*
X12292852Y-17881586D02*
X12264281Y-17881586D01*
X12264281Y-17881586D02*
X12245233Y-17891110D01*
X12245233Y-17891110D02*
X12235709Y-17900634D01*
X12445233Y-18014920D02*
X12426185Y-18005396D01*
X12426185Y-18005396D02*
X12416662Y-17995872D01*
X12416662Y-17995872D02*
X12407138Y-17976824D01*
X12407138Y-17976824D02*
X12407138Y-17919681D01*
X12407138Y-17919681D02*
X12416662Y-17900634D01*
X12416662Y-17900634D02*
X12426185Y-17891110D01*
X12426185Y-17891110D02*
X12445233Y-17881586D01*
X12445233Y-17881586D02*
X12473805Y-17881586D01*
X12473805Y-17881586D02*
X12492852Y-17891110D01*
X12492852Y-17891110D02*
X12502376Y-17900634D01*
X12502376Y-17900634D02*
X12511900Y-17919681D01*
X12511900Y-17919681D02*
X12511900Y-17976824D01*
X12511900Y-17976824D02*
X12502376Y-17995872D01*
X12502376Y-17995872D02*
X12492852Y-18005396D01*
X12492852Y-18005396D02*
X12473805Y-18014920D01*
X12473805Y-18014920D02*
X12445233Y-18014920D01*
X12626185Y-18014920D02*
X12607138Y-18005396D01*
X12607138Y-18005396D02*
X12597614Y-17986348D01*
X12597614Y-17986348D02*
X12597614Y-17814920D01*
X12778566Y-18005396D02*
X12759519Y-18014920D01*
X12759519Y-18014920D02*
X12721424Y-18014920D01*
X12721424Y-18014920D02*
X12702376Y-18005396D01*
X12702376Y-18005396D02*
X12692852Y-17986348D01*
X12692852Y-17986348D02*
X12692852Y-17910158D01*
X12692852Y-17910158D02*
X12702376Y-17891110D01*
X12702376Y-17891110D02*
X12721424Y-17881586D01*
X12721424Y-17881586D02*
X12759519Y-17881586D01*
X12759519Y-17881586D02*
X12778566Y-17891110D01*
X12778566Y-17891110D02*
X12788090Y-17910158D01*
X12788090Y-17910158D02*
X12788090Y-17929205D01*
X12788090Y-17929205D02*
X12692852Y-17948253D01*
X12864281Y-18005396D02*
X12883328Y-18014920D01*
X12883328Y-18014920D02*
X12921424Y-18014920D01*
X12921424Y-18014920D02*
X12940471Y-18005396D01*
X12940471Y-18005396D02*
X12949995Y-17986348D01*
X12949995Y-17986348D02*
X12949995Y-17976824D01*
X12949995Y-17976824D02*
X12940471Y-17957777D01*
X12940471Y-17957777D02*
X12921424Y-17948253D01*
X12921424Y-17948253D02*
X12892852Y-17948253D01*
X12892852Y-17948253D02*
X12873805Y-17938729D01*
X12873805Y-17938729D02*
X12864281Y-17919681D01*
X12864281Y-17919681D02*
X12864281Y-17910158D01*
X12864281Y-17910158D02*
X12873805Y-17891110D01*
X12873805Y-17891110D02*
X12892852Y-17881586D01*
X12892852Y-17881586D02*
X12921424Y-17881586D01*
X12921424Y-17881586D02*
X12940471Y-17891110D01*
X13016662Y-18091110D02*
X13026186Y-18081586D01*
X13026186Y-18081586D02*
X13045233Y-18053015D01*
X13045233Y-18053015D02*
X13054757Y-18033967D01*
X13054757Y-18033967D02*
X13064281Y-18005396D01*
X13064281Y-18005396D02*
X13073805Y-17957777D01*
X13073805Y-17957777D02*
X13073805Y-17919681D01*
X13073805Y-17919681D02*
X13064281Y-17872062D01*
X13064281Y-17872062D02*
X13054757Y-17843491D01*
X13054757Y-17843491D02*
X13045233Y-17824443D01*
X13045233Y-17824443D02*
X13026186Y-17795872D01*
X13026186Y-17795872D02*
X13016662Y-17786348D01*
M02*
