G04 #@! TF.GenerationSoftware,KiCad,Pcbnew,8.0.2*
G04 #@! TF.CreationDate,2024-09-01T00:55:05-07:00*
G04 #@! TF.ProjectId,progcc_3.2_main,70726f67-6363-45f3-932e-325f6d61696e,1*
G04 #@! TF.SameCoordinates,Original*
G04 #@! TF.FileFunction,Soldermask,Top*
G04 #@! TF.FilePolarity,Negative*
%FSLAX46Y46*%
G04 Gerber Fmt 4.6, Leading zero omitted, Abs format (unit mm)*
G04 Created by KiCad (PCBNEW 8.0.2) date 2024-09-01 00:55:05*
%MOMM*%
%LPD*%
G01*
G04 APERTURE LIST*
G04 Aperture macros list*
%AMRoundRect*
0 Rectangle with rounded corners*
0 $1 Rounding radius*
0 $2 $3 $4 $5 $6 $7 $8 $9 X,Y pos of 4 corners*
0 Add a 4 corners polygon primitive as box body*
4,1,4,$2,$3,$4,$5,$6,$7,$8,$9,$2,$3,0*
0 Add four circle primitives for the rounded corners*
1,1,$1+$1,$2,$3*
1,1,$1+$1,$4,$5*
1,1,$1+$1,$6,$7*
1,1,$1+$1,$8,$9*
0 Add four rect primitives between the rounded corners*
20,1,$1+$1,$2,$3,$4,$5,0*
20,1,$1+$1,$4,$5,$6,$7,0*
20,1,$1+$1,$6,$7,$8,$9,0*
20,1,$1+$1,$8,$9,$2,$3,0*%
G04 Aperture macros list end*
%ADD10C,1.050000*%
%ADD11C,0.010000*%
%ADD12C,0.025000*%
%ADD13RoundRect,0.100000X-0.130000X-0.100000X0.130000X-0.100000X0.130000X0.100000X-0.130000X0.100000X0*%
%ADD14RoundRect,0.250000X-0.250000X-0.475000X0.250000X-0.475000X0.250000X0.475000X-0.250000X0.475000X0*%
%ADD15O,0.400000X0.900000*%
%ADD16R,0.950000X1.700000*%
%ADD17R,0.900000X1.700000*%
%ADD18R,1.200000X0.600000*%
%ADD19RoundRect,0.100000X-0.100000X0.130000X-0.100000X-0.130000X0.100000X-0.130000X0.100000X0.130000X0*%
%ADD20RoundRect,0.150000X-0.150000X-0.200000X0.150000X-0.200000X0.150000X0.200000X-0.150000X0.200000X0*%
%ADD21R,0.370000X0.370000*%
%ADD22RoundRect,0.225000X-0.250000X0.225000X-0.250000X-0.225000X0.250000X-0.225000X0.250000X0.225000X0*%
%ADD23RoundRect,0.237500X-0.250000X-0.237500X0.250000X-0.237500X0.250000X0.237500X-0.250000X0.237500X0*%
%ADD24RoundRect,0.140000X0.140000X0.170000X-0.140000X0.170000X-0.140000X-0.170000X0.140000X-0.170000X0*%
%ADD25RoundRect,0.100000X0.100000X-0.130000X0.100000X0.130000X-0.100000X0.130000X-0.100000X-0.130000X0*%
%ADD26RoundRect,0.237500X-0.237500X0.250000X-0.237500X-0.250000X0.237500X-0.250000X0.237500X0.250000X0*%
%ADD27RoundRect,0.100000X0.100000X-0.712500X0.100000X0.712500X-0.100000X0.712500X-0.100000X-0.712500X0*%
%ADD28RoundRect,0.237500X-0.237500X0.300000X-0.237500X-0.300000X0.237500X-0.300000X0.237500X0.300000X0*%
%ADD29R,0.400000X0.650000*%
%ADD30RoundRect,0.135000X0.185000X-0.135000X0.185000X0.135000X-0.185000X0.135000X-0.185000X-0.135000X0*%
%ADD31RoundRect,0.237500X0.300000X0.237500X-0.300000X0.237500X-0.300000X-0.237500X0.300000X-0.237500X0*%
%ADD32RoundRect,0.250000X0.250000X0.250000X-0.250000X0.250000X-0.250000X-0.250000X0.250000X-0.250000X0*%
%ADD33RoundRect,0.100000X0.130000X0.100000X-0.130000X0.100000X-0.130000X-0.100000X0.130000X-0.100000X0*%
%ADD34RoundRect,0.135000X-0.135000X-0.185000X0.135000X-0.185000X0.135000X0.185000X-0.135000X0.185000X0*%
%ADD35R,2.000000X2.000000*%
%ADD36RoundRect,0.050000X-0.387500X-0.050000X0.387500X-0.050000X0.387500X0.050000X-0.387500X0.050000X0*%
%ADD37RoundRect,0.050000X-0.050000X-0.387500X0.050000X-0.387500X0.050000X0.387500X-0.050000X0.387500X0*%
%ADD38R,3.200000X3.200000*%
%ADD39C,1.500000*%
%ADD40R,0.400000X0.800000*%
%ADD41R,0.800000X0.400000*%
%ADD42R,1.450000X1.450000*%
%ADD43R,0.700000X0.700000*%
%ADD44RoundRect,0.140000X0.170000X-0.140000X0.170000X0.140000X-0.170000X0.140000X-0.170000X-0.140000X0*%
%ADD45RoundRect,0.250000X-0.250000X-0.250000X0.250000X-0.250000X0.250000X0.250000X-0.250000X0.250000X0*%
%ADD46RoundRect,0.150000X0.150000X0.200000X-0.150000X0.200000X-0.150000X-0.200000X0.150000X-0.200000X0*%
%ADD47RoundRect,0.150000X-0.587500X-0.150000X0.587500X-0.150000X0.587500X0.150000X-0.587500X0.150000X0*%
%ADD48RoundRect,0.135000X-0.185000X0.135000X-0.185000X-0.135000X0.185000X-0.135000X0.185000X0.135000X0*%
%ADD49RoundRect,0.225000X0.225000X0.250000X-0.225000X0.250000X-0.225000X-0.250000X0.225000X-0.250000X0*%
%ADD50C,0.230000*%
%ADD51RoundRect,0.102000X-0.250000X-0.500000X0.250000X-0.500000X0.250000X0.500000X-0.250000X0.500000X0*%
%ADD52RoundRect,0.102000X-0.600000X-0.850000X0.600000X-0.850000X0.600000X0.850000X-0.600000X0.850000X0*%
%ADD53R,0.300000X0.400000*%
%ADD54R,1.600000X0.200000*%
%ADD55RoundRect,0.237500X-0.300000X-0.237500X0.300000X-0.237500X0.300000X0.237500X-0.300000X0.237500X0*%
%ADD56RoundRect,0.250000X-0.450000X-0.425000X0.450000X-0.425000X0.450000X0.425000X-0.450000X0.425000X0*%
%ADD57R,1.000000X1.500000*%
%ADD58R,1.350000X1.350000*%
%ADD59O,1.350000X1.350000*%
%ADD60R,1.900000X0.400000*%
%ADD61RoundRect,0.225000X-0.225000X-0.250000X0.225000X-0.250000X0.225000X0.250000X-0.225000X0.250000X0*%
%ADD62R,1.300000X0.600000*%
%ADD63R,2.300000X3.200000*%
%ADD64C,2.450000*%
%ADD65C,1.600000*%
%ADD66C,1.250000*%
%ADD67C,2.000000*%
%ADD68RoundRect,0.150000X0.587500X0.150000X-0.587500X0.150000X-0.587500X-0.150000X0.587500X-0.150000X0*%
%ADD69R,0.500000X0.550000*%
%ADD70RoundRect,0.140000X-0.170000X0.140000X-0.170000X-0.140000X0.170000X-0.140000X0.170000X0.140000X0*%
%ADD71R,0.300000X1.300000*%
%ADD72R,1.800000X2.200000*%
%ADD73RoundRect,0.200000X-0.275000X0.200000X-0.275000X-0.200000X0.275000X-0.200000X0.275000X0.200000X0*%
%ADD74C,0.700000*%
%ADD75R,0.300000X0.900000*%
%ADD76C,0.650000*%
%ADD77O,1.000000X1.600000*%
%ADD78RoundRect,0.050000X0.075000X-0.225000X0.075000X0.225000X-0.075000X0.225000X-0.075000X-0.225000X0*%
%ADD79RoundRect,0.050000X0.050000X-0.225000X0.050000X0.225000X-0.050000X0.225000X-0.050000X-0.225000X0*%
%ADD80RoundRect,0.050000X0.250000X-0.100000X0.250000X0.100000X-0.250000X0.100000X-0.250000X-0.100000X0*%
%ADD81RoundRect,0.150000X-0.200000X0.150000X-0.200000X-0.150000X0.200000X-0.150000X0.200000X0.150000X0*%
%ADD82R,0.745000X0.280000*%
%ADD83R,0.280000X0.745000*%
%ADD84RoundRect,0.150000X0.200000X-0.150000X0.200000X0.150000X-0.200000X0.150000X-0.200000X-0.150000X0*%
%ADD85RoundRect,0.250000X-0.375000X-0.850000X0.375000X-0.850000X0.375000X0.850000X-0.375000X0.850000X0*%
%ADD86RoundRect,0.250000X-0.250000X0.250000X-0.250000X-0.250000X0.250000X-0.250000X0.250000X0.250000X0*%
%ADD87RoundRect,0.200000X0.275000X-0.200000X0.275000X0.200000X-0.275000X0.200000X-0.275000X-0.200000X0*%
%ADD88RoundRect,0.250000X-0.475000X0.250000X-0.475000X-0.250000X0.475000X-0.250000X0.475000X0.250000X0*%
G04 APERTURE END LIST*
D10*
X149758400Y-102463600D02*
G75*
G02*
X148708400Y-102463600I-525000J0D01*
G01*
X148708400Y-102463600D02*
G75*
G02*
X149758400Y-102463600I525000J0D01*
G01*
X152408400Y-102463600D02*
G75*
G02*
X151358400Y-102463600I-525000J0D01*
G01*
X151358400Y-102463600D02*
G75*
G02*
X152408400Y-102463600I525000J0D01*
G01*
X147108400Y-102463600D02*
G75*
G02*
X146058400Y-102463600I-525000J0D01*
G01*
X146058400Y-102463600D02*
G75*
G02*
X147108400Y-102463600I525000J0D01*
G01*
X155058400Y-102463600D02*
G75*
G02*
X154008400Y-102463600I-525000J0D01*
G01*
X154008400Y-102463600D02*
G75*
G02*
X155058400Y-102463600I525000J0D01*
G01*
D11*
X135019200Y-133323800D02*
X133969200Y-133323800D01*
X133369200Y-132723800D01*
X133369200Y-131673800D01*
X135019200Y-131673800D01*
X135019200Y-133323800D01*
G36*
X135019200Y-133323800D02*
G01*
X133969200Y-133323800D01*
X133369200Y-132723800D01*
X133369200Y-131673800D01*
X135019200Y-131673800D01*
X135019200Y-133323800D01*
G37*
X159590000Y-110970000D02*
X159210000Y-110970000D01*
X159210000Y-110230000D01*
X159590000Y-110230000D01*
X159590000Y-110970000D01*
G36*
X159590000Y-110970000D02*
G01*
X159210000Y-110970000D01*
X159210000Y-110230000D01*
X159590000Y-110230000D01*
X159590000Y-110970000D01*
G37*
X159590000Y-113770000D02*
X159210000Y-113770000D01*
X159210000Y-113030000D01*
X159590000Y-113030000D01*
X159590000Y-113770000D01*
G36*
X159590000Y-113770000D02*
G01*
X159210000Y-113770000D01*
X159210000Y-113030000D01*
X159590000Y-113030000D01*
X159590000Y-113770000D01*
G37*
X160090000Y-110970000D02*
X159710000Y-110970000D01*
X159710000Y-110230000D01*
X160090000Y-110230000D01*
X160090000Y-110970000D01*
G36*
X160090000Y-110970000D02*
G01*
X159710000Y-110970000D01*
X159710000Y-110230000D01*
X160090000Y-110230000D01*
X160090000Y-110970000D01*
G37*
X160090000Y-113770000D02*
X159710000Y-113770000D01*
X159710000Y-113030000D01*
X160090000Y-113030000D01*
X160090000Y-113770000D01*
G36*
X160090000Y-113770000D02*
G01*
X159710000Y-113770000D01*
X159710000Y-113030000D01*
X160090000Y-113030000D01*
X160090000Y-113770000D01*
G37*
X160590000Y-110970000D02*
X160210000Y-110970000D01*
X160210000Y-110230000D01*
X160590000Y-110230000D01*
X160590000Y-110970000D01*
G36*
X160590000Y-110970000D02*
G01*
X160210000Y-110970000D01*
X160210000Y-110230000D01*
X160590000Y-110230000D01*
X160590000Y-110970000D01*
G37*
X160590000Y-113770000D02*
X160210000Y-113770000D01*
X160210000Y-113030000D01*
X160590000Y-113030000D01*
X160590000Y-113770000D01*
G36*
X160590000Y-113770000D02*
G01*
X160210000Y-113770000D01*
X160210000Y-113030000D01*
X160590000Y-113030000D01*
X160590000Y-113770000D01*
G37*
X161090000Y-110970000D02*
X160710000Y-110970000D01*
X160710000Y-110230000D01*
X161090000Y-110230000D01*
X161090000Y-110970000D01*
G36*
X161090000Y-110970000D02*
G01*
X160710000Y-110970000D01*
X160710000Y-110230000D01*
X161090000Y-110230000D01*
X161090000Y-110970000D01*
G37*
X161090000Y-113770000D02*
X160710000Y-113770000D01*
X160710000Y-113030000D01*
X161090000Y-113030000D01*
X161090000Y-113770000D01*
G36*
X161090000Y-113770000D02*
G01*
X160710000Y-113770000D01*
X160710000Y-113030000D01*
X161090000Y-113030000D01*
X161090000Y-113770000D01*
G37*
X161590000Y-110970000D02*
X161210000Y-110970000D01*
X161210000Y-110230000D01*
X161590000Y-110230000D01*
X161590000Y-110970000D01*
G36*
X161590000Y-110970000D02*
G01*
X161210000Y-110970000D01*
X161210000Y-110230000D01*
X161590000Y-110230000D01*
X161590000Y-110970000D01*
G37*
X161590000Y-113770000D02*
X161210000Y-113770000D01*
X161210000Y-113030000D01*
X161590000Y-113030000D01*
X161590000Y-113770000D01*
G36*
X161590000Y-113770000D02*
G01*
X161210000Y-113770000D01*
X161210000Y-113030000D01*
X161590000Y-113030000D01*
X161590000Y-113770000D01*
G37*
X161670000Y-111555000D02*
X162170000Y-111555000D01*
X162170000Y-111945000D01*
X161670000Y-111945000D01*
X161670000Y-112055000D01*
X162170000Y-112055000D01*
X162170000Y-112445000D01*
X161670000Y-112445000D01*
X161670000Y-112895000D01*
X159130000Y-112895000D01*
X159130000Y-112445000D01*
X158630000Y-112445000D01*
X158630000Y-112055000D01*
X159130000Y-112055000D01*
X159130000Y-111945000D01*
X158630000Y-111945000D01*
X158630000Y-111555000D01*
X159130000Y-111555000D01*
X159130000Y-111105000D01*
X161670000Y-111105000D01*
X161670000Y-111555000D01*
G36*
X161670000Y-111555000D02*
G01*
X162170000Y-111555000D01*
X162170000Y-111945000D01*
X161670000Y-111945000D01*
X161670000Y-112055000D01*
X162170000Y-112055000D01*
X162170000Y-112445000D01*
X161670000Y-112445000D01*
X161670000Y-112895000D01*
X159130000Y-112895000D01*
X159130000Y-112445000D01*
X158630000Y-112445000D01*
X158630000Y-112055000D01*
X159130000Y-112055000D01*
X159130000Y-111945000D01*
X158630000Y-111945000D01*
X158630000Y-111555000D01*
X159130000Y-111555000D01*
X159130000Y-111105000D01*
X161670000Y-111105000D01*
X161670000Y-111555000D01*
G37*
D12*
X160069400Y-119197498D02*
X161023355Y-119197498D01*
X161023355Y-119866867D01*
X159436741Y-119866867D01*
X159436741Y-117313695D01*
X160069400Y-117313695D01*
X160069400Y-119197498D01*
G36*
X160069400Y-119197498D02*
G01*
X161023355Y-119197498D01*
X161023355Y-119866867D01*
X159436741Y-119866867D01*
X159436741Y-117313695D01*
X160069400Y-117313695D01*
X160069400Y-119197498D01*
G37*
X157303266Y-119866867D02*
X156622405Y-119866867D01*
X156622405Y-118898745D01*
X156382749Y-118898745D01*
X156382749Y-119866867D01*
X155697449Y-119866867D01*
X155697449Y-117314215D01*
X156380463Y-117313695D01*
X156380463Y-118236497D01*
X156622405Y-118236497D01*
X156622405Y-117313695D01*
X157303266Y-117313695D01*
X157303266Y-119866867D01*
G36*
X157303266Y-119866867D02*
G01*
X156622405Y-119866867D01*
X156622405Y-118898745D01*
X156382749Y-118898745D01*
X156382749Y-119866867D01*
X155697449Y-119866867D01*
X155697449Y-117314215D01*
X156380463Y-117313695D01*
X156380463Y-118236497D01*
X156622405Y-118236497D01*
X156622405Y-117313695D01*
X157303266Y-117313695D01*
X157303266Y-119866867D01*
G37*
X159153266Y-119866867D02*
X158472405Y-119866867D01*
X158472405Y-118898745D01*
X158232749Y-118898745D01*
X158232749Y-119866867D01*
X157547449Y-119866867D01*
X157547449Y-117314215D01*
X158230463Y-117313695D01*
X158230463Y-118236497D01*
X158472405Y-118236497D01*
X158472405Y-117313695D01*
X159153266Y-117313695D01*
X159153266Y-119866867D01*
G36*
X159153266Y-119866867D02*
G01*
X158472405Y-119866867D01*
X158472405Y-118898745D01*
X158232749Y-118898745D01*
X158232749Y-119866867D01*
X157547449Y-119866867D01*
X157547449Y-117314215D01*
X158230463Y-117313695D01*
X158230463Y-118236497D01*
X158472405Y-118236497D01*
X158472405Y-117313695D01*
X159153266Y-117313695D01*
X159153266Y-119866867D01*
G37*
D13*
X85360000Y-137280000D03*
X86000000Y-137280000D03*
D14*
X163320000Y-110770000D03*
X165220000Y-110770000D03*
D15*
X126333519Y-101965000D03*
X130633519Y-101965000D03*
D16*
X127208519Y-102740000D03*
D17*
X128483519Y-102740000D03*
D16*
X129758519Y-102740000D03*
D18*
X126583519Y-100840000D03*
X130383519Y-100840000D03*
D19*
X139611100Y-108543094D03*
X139611100Y-109183094D03*
D20*
X181421000Y-142494000D03*
X180021000Y-142494000D03*
D21*
X166985200Y-133857000D03*
X167655200Y-133857000D03*
X167655200Y-133187000D03*
X166985200Y-133187000D03*
D22*
X120018689Y-123258755D03*
X120018689Y-124808755D03*
D23*
X155527500Y-113670000D03*
X157352500Y-113670000D03*
D24*
X154356400Y-110163000D03*
X153396400Y-110163000D03*
D25*
X170739623Y-139288477D03*
X170739623Y-138648477D03*
D26*
X142350000Y-104987500D03*
X142350000Y-106812500D03*
D27*
X111750200Y-127791700D03*
X112400200Y-127791700D03*
X113050200Y-127791700D03*
X113700200Y-127791700D03*
X113700200Y-123566700D03*
X113050200Y-123566700D03*
X112400200Y-123566700D03*
X111750200Y-123566700D03*
D28*
X95317457Y-130017891D03*
X95317457Y-131742891D03*
D29*
X124546600Y-110556100D03*
X125196600Y-110556100D03*
X125846600Y-110556100D03*
X125846600Y-108656100D03*
X125196600Y-108656100D03*
X124546600Y-108656100D03*
D30*
X150418800Y-126290800D03*
X150418800Y-125270800D03*
D20*
X115685800Y-142773400D03*
X114285800Y-142773400D03*
D13*
X120838000Y-141224000D03*
X121478000Y-141224000D03*
X142807000Y-133583600D03*
X143447000Y-133583600D03*
D31*
X163312504Y-150698757D03*
X161587504Y-150698757D03*
D21*
X87042000Y-112267600D03*
X87712000Y-112267600D03*
X87712000Y-111597600D03*
X87042000Y-111597600D03*
D32*
X149352626Y-108746930D03*
X146852626Y-108746930D03*
D33*
X127660800Y-111612700D03*
X127020800Y-111612700D03*
D34*
X183741600Y-140411200D03*
X184761600Y-140411200D03*
D25*
X134950900Y-104884294D03*
X134950900Y-104244294D03*
D35*
X176936400Y-146021300D03*
D30*
X113055400Y-142038800D03*
X113055400Y-141018800D03*
D36*
X135348200Y-111508094D03*
X135348200Y-111908094D03*
X135348200Y-112308094D03*
X135348200Y-112708094D03*
X135348200Y-113108094D03*
X135348200Y-113508094D03*
X135348200Y-113908094D03*
X135348200Y-114308094D03*
X135348200Y-114708094D03*
X135348200Y-115108094D03*
X135348200Y-115508094D03*
X135348200Y-115908094D03*
X135348200Y-116308094D03*
X135348200Y-116708094D03*
D37*
X136185700Y-117545594D03*
X136585700Y-117545594D03*
X136985700Y-117545594D03*
X137385700Y-117545594D03*
X137785700Y-117545594D03*
X138185700Y-117545594D03*
X138585700Y-117545594D03*
X138985700Y-117545594D03*
X139385700Y-117545594D03*
X139785700Y-117545594D03*
X140185700Y-117545594D03*
X140585700Y-117545594D03*
X140985700Y-117545594D03*
X141385700Y-117545594D03*
D36*
X142223200Y-116708094D03*
X142223200Y-116308094D03*
X142223200Y-115908094D03*
X142223200Y-115508094D03*
X142223200Y-115108094D03*
X142223200Y-114708094D03*
X142223200Y-114308094D03*
X142223200Y-113908094D03*
X142223200Y-113508094D03*
X142223200Y-113108094D03*
X142223200Y-112708094D03*
X142223200Y-112308094D03*
X142223200Y-111908094D03*
X142223200Y-111508094D03*
D37*
X141385700Y-110670594D03*
X140985700Y-110670594D03*
X140585700Y-110670594D03*
X140185700Y-110670594D03*
X139785700Y-110670594D03*
X139385700Y-110670594D03*
X138985700Y-110670594D03*
X138585700Y-110670594D03*
X138185700Y-110670594D03*
X137785700Y-110670594D03*
X137385700Y-110670594D03*
X136985700Y-110670594D03*
X136585700Y-110670594D03*
X136185700Y-110670594D03*
D38*
X138785700Y-114108094D03*
D21*
X105042000Y-125267600D03*
X105712000Y-125267600D03*
X105712000Y-124597600D03*
X105042000Y-124597600D03*
D39*
X145872200Y-106324400D03*
D40*
X132144200Y-136448800D03*
X132944200Y-136448800D03*
X133744200Y-136448800D03*
X134544200Y-136448800D03*
X135344200Y-136448800D03*
X136144200Y-136448800D03*
X136944200Y-136448800D03*
X137744200Y-136448800D03*
X138544200Y-136448800D03*
X139344200Y-136448800D03*
X140144200Y-136448800D03*
D41*
X141044200Y-135348800D03*
X141044200Y-134548800D03*
X141044200Y-133748800D03*
X141044200Y-132948800D03*
X141044200Y-132148800D03*
X141044200Y-131348800D03*
X141044200Y-130548800D03*
X141044200Y-129748800D03*
X141044200Y-128948800D03*
X141044200Y-128148800D03*
X141044200Y-127348800D03*
X141044200Y-126548800D03*
X141044200Y-125748800D03*
D40*
X140144200Y-124648800D03*
X139344200Y-124648800D03*
X138544200Y-124648800D03*
X137744200Y-124648800D03*
X136944200Y-124648800D03*
X136144200Y-124648800D03*
X135344200Y-124648800D03*
X134544200Y-124648800D03*
X133744200Y-124648800D03*
X132944200Y-124648800D03*
X132144200Y-124648800D03*
D41*
X131244200Y-125748800D03*
X131244200Y-126548800D03*
X131244200Y-127348800D03*
X131244200Y-128148800D03*
X131244200Y-128948800D03*
X131244200Y-129748800D03*
X131244200Y-130548800D03*
X131244200Y-131348800D03*
X131244200Y-132148800D03*
X131244200Y-132948800D03*
X131244200Y-133748800D03*
X131244200Y-134548800D03*
X131244200Y-135348800D03*
D42*
X136144200Y-130548800D03*
D43*
X131194200Y-124598800D03*
X141094200Y-124598800D03*
X141094200Y-136498800D03*
X131194200Y-136498800D03*
D42*
X136144200Y-132498800D03*
X138094200Y-132498800D03*
X138094200Y-130548800D03*
X138094200Y-128598800D03*
X136144200Y-128598800D03*
X134194200Y-128598800D03*
X134194200Y-130548800D03*
D44*
X142151100Y-109137294D03*
X142151100Y-108177294D03*
D13*
X125206800Y-111612700D03*
X125846800Y-111612700D03*
D45*
X147441600Y-112649000D03*
X149941600Y-112649000D03*
D35*
X91623896Y-135440000D03*
D19*
X175412400Y-139938800D03*
X175412400Y-140578800D03*
D21*
X143746226Y-149724357D03*
X144416226Y-149724357D03*
X144416226Y-149054357D03*
X143746226Y-149054357D03*
D32*
X153599200Y-107238800D03*
X151099200Y-107238800D03*
D46*
X182738800Y-142494000D03*
X184138800Y-142494000D03*
D25*
X134251700Y-111164294D03*
X134251700Y-110524294D03*
D47*
X178005500Y-139015300D03*
X178005500Y-140915300D03*
X179880500Y-139965300D03*
D39*
X123164600Y-104927400D03*
D19*
X141274800Y-103108800D03*
X141274800Y-103748800D03*
D13*
X125181400Y-107599500D03*
X125821400Y-107599500D03*
D30*
X176326800Y-140997400D03*
X176326800Y-139977400D03*
D25*
X93268800Y-134762200D03*
X93268800Y-134122200D03*
D33*
X143447000Y-134396400D03*
X142807000Y-134396400D03*
D48*
X120853200Y-142085600D03*
X120853200Y-143105600D03*
D13*
X116143023Y-119981101D03*
X116783023Y-119981101D03*
D23*
X155527500Y-112140000D03*
X157352500Y-112140000D03*
D49*
X118314100Y-126547002D03*
X116764100Y-126547002D03*
D19*
X140322300Y-108543094D03*
X140322300Y-109183094D03*
X94056200Y-134122200D03*
X94056200Y-134762200D03*
D50*
X151288800Y-109969400D03*
X151688800Y-109969400D03*
X151288800Y-110369400D03*
X151688800Y-110369400D03*
X151288800Y-110769400D03*
X151688800Y-110769400D03*
X151288800Y-111169400D03*
X151688800Y-111169400D03*
D51*
X91840000Y-138495000D03*
X92640000Y-138495000D03*
D52*
X90540000Y-140445000D03*
X93940000Y-140445000D03*
D53*
X134949500Y-108081894D03*
X135449500Y-108081894D03*
X135949500Y-108081894D03*
X136449500Y-108081894D03*
X136449500Y-105681894D03*
X135949500Y-105681894D03*
X135449500Y-105681894D03*
X134949500Y-105681894D03*
D54*
X135699500Y-106881894D03*
D55*
X107418809Y-119497056D03*
X109143809Y-119497056D03*
D51*
X180330000Y-144055000D03*
X181130000Y-144055000D03*
D52*
X179030000Y-146005000D03*
X182430000Y-146005000D03*
D13*
X142072400Y-103073200D03*
X142712400Y-103073200D03*
D56*
X151304000Y-105130600D03*
X154004000Y-105130600D03*
D21*
X148985200Y-146857000D03*
X149655200Y-146857000D03*
X149655200Y-146187000D03*
X148985200Y-146187000D03*
D47*
X116744723Y-116922901D03*
X116744723Y-118822901D03*
X118619723Y-117872901D03*
D57*
X83271600Y-130352800D03*
X84571600Y-130352800D03*
D22*
X141938323Y-121038129D03*
X141938323Y-122588129D03*
D58*
X82810000Y-140310000D03*
D59*
X84810000Y-140310000D03*
X86810000Y-140310000D03*
X88810000Y-140310000D03*
D13*
X136738400Y-101752400D03*
X137378400Y-101752400D03*
D25*
X134975600Y-109564094D03*
X134975600Y-108924094D03*
D13*
X116132423Y-115764701D03*
X116772423Y-115764701D03*
D60*
X138595100Y-119236494D03*
X138595100Y-120436494D03*
X138595100Y-121636494D03*
D44*
X143471900Y-111197294D03*
X143471900Y-110237294D03*
D21*
X105042000Y-112267600D03*
X105712000Y-112267600D03*
X105712000Y-111597600D03*
X105042000Y-111597600D03*
D33*
X136641800Y-103505000D03*
X136001800Y-103505000D03*
D61*
X134454600Y-138226800D03*
X136004600Y-138226800D03*
D28*
X170738456Y-135352081D03*
X170738456Y-137077081D03*
D19*
X84175600Y-132329400D03*
X84175600Y-132969400D03*
D21*
X166985200Y-146857000D03*
X167655200Y-146857000D03*
X167655200Y-146187000D03*
X166985200Y-146187000D03*
D29*
X127391400Y-110556100D03*
X128041400Y-110556100D03*
X128691400Y-110556100D03*
X128691400Y-108656100D03*
X128041400Y-108656100D03*
X127391400Y-108656100D03*
D62*
X113227302Y-110726102D03*
X113227302Y-111726102D03*
X113227302Y-112726102D03*
X113227302Y-113726102D03*
X113227302Y-114726102D03*
X118727302Y-114726102D03*
X118727302Y-113726102D03*
X118727302Y-112726102D03*
X118727302Y-111726102D03*
X118727302Y-110726102D03*
D63*
X115977302Y-112726102D03*
D13*
X159325629Y-150847756D03*
X159965629Y-150847756D03*
D64*
X153320200Y-133697000D03*
X153320200Y-146347000D03*
D65*
X158320200Y-135722000D03*
X158320200Y-144322000D03*
D64*
X163320200Y-133697000D03*
X163320200Y-146347000D03*
D66*
X152670200Y-136772000D03*
X152670200Y-143272000D03*
X148170200Y-136772000D03*
X148170200Y-143272000D03*
D67*
X155820200Y-148722000D03*
X158320200Y-148722000D03*
X160820200Y-148722000D03*
X167020200Y-142522000D03*
X167020200Y-140022000D03*
X167020200Y-137522000D03*
D68*
X114708123Y-118822901D03*
X114708123Y-116922901D03*
X112833123Y-117872901D03*
D33*
X133873200Y-123266200D03*
X133233200Y-123266200D03*
D69*
X130435400Y-112119800D03*
X131235400Y-112119800D03*
X130435400Y-109469800D03*
X131235400Y-109469800D03*
D13*
X181315400Y-141300200D03*
X181955400Y-141300200D03*
X108365401Y-117977059D03*
X109005401Y-117977059D03*
D61*
X143678194Y-121060800D03*
X145228194Y-121060800D03*
D70*
X143065500Y-108177294D03*
X143065500Y-109137294D03*
D13*
X153353200Y-109274000D03*
X153993200Y-109274000D03*
D25*
X140703300Y-121121094D03*
X140703300Y-120481094D03*
D68*
X119301500Y-143088400D03*
X119301500Y-141188400D03*
X117426500Y-142138400D03*
D19*
X120225902Y-113736302D03*
X120225902Y-114376302D03*
D13*
X182788600Y-141300200D03*
X183428600Y-141300200D03*
D70*
X138747500Y-108179894D03*
X138747500Y-109139894D03*
D58*
X122920000Y-100228400D03*
D59*
X120920000Y-100228400D03*
D21*
X135646226Y-149724357D03*
X136316226Y-149724357D03*
X136316226Y-149054357D03*
X135646226Y-149054357D03*
D39*
X120599200Y-104952800D03*
D70*
X141236700Y-108179894D03*
X141236700Y-109139894D03*
D71*
X96540000Y-142030000D03*
X97040000Y-142030000D03*
X97540000Y-142030000D03*
X98040000Y-142030000D03*
X98540000Y-142030000D03*
X99040000Y-142030000D03*
X99540000Y-142030000D03*
X100040000Y-142030000D03*
X100540000Y-142030000D03*
X101040000Y-142030000D03*
X101540000Y-142030000D03*
X102040000Y-142030000D03*
X102540000Y-142030000D03*
X103040000Y-142030000D03*
D72*
X94640000Y-145280000D03*
X104940000Y-145280000D03*
D39*
X125679200Y-104724200D03*
D73*
X83007200Y-132321800D03*
X83007200Y-133971800D03*
D33*
X127624800Y-107599500D03*
X126984800Y-107599500D03*
D74*
X142060000Y-98275000D03*
X134710000Y-98275000D03*
D75*
X141210000Y-98835000D03*
X140710000Y-98835000D03*
X140210000Y-98835000D03*
X139710000Y-98835000D03*
X139210000Y-98835000D03*
X138710000Y-98835000D03*
X138210000Y-98835000D03*
X137710000Y-98835000D03*
X137210000Y-98835000D03*
X136710000Y-98835000D03*
X136210000Y-98835000D03*
X135710000Y-98835000D03*
D76*
X135660000Y-97625000D03*
X136060000Y-96925000D03*
X136860000Y-96925000D03*
X137260000Y-97625000D03*
X137660000Y-96925000D03*
X138060000Y-97625000D03*
X138860000Y-97625000D03*
X139260000Y-96925000D03*
X139660000Y-97625000D03*
X140060000Y-96925000D03*
X140860000Y-96925000D03*
X141260000Y-97625000D03*
D77*
X142950000Y-92635000D03*
X142590000Y-97025000D03*
X134330000Y-97025000D03*
X133970000Y-92635000D03*
D78*
X137807000Y-104688000D03*
D79*
X138307000Y-104688000D03*
X138807000Y-104688000D03*
D78*
X139307000Y-104688000D03*
D80*
X139457000Y-104013000D03*
D78*
X139307000Y-103338000D03*
D79*
X138807000Y-103338000D03*
X138307000Y-103338000D03*
D78*
X137807000Y-103338000D03*
D80*
X137657000Y-104013000D03*
D27*
X142865200Y-130915900D03*
X143515200Y-130915900D03*
X144165200Y-130915900D03*
X144815200Y-130915900D03*
X144815200Y-126690900D03*
X144165200Y-126690900D03*
X143515200Y-126690900D03*
X142865200Y-126690900D03*
D69*
X132861000Y-118385200D03*
X132061000Y-118385200D03*
X132861000Y-121035200D03*
X132061000Y-121035200D03*
D81*
X181635400Y-139968200D03*
X181635400Y-138568200D03*
D46*
X114285800Y-141300200D03*
X115685800Y-141300200D03*
D13*
X128432600Y-107599500D03*
X129072600Y-107599500D03*
D25*
X140220700Y-119664294D03*
X140220700Y-119024294D03*
D19*
X96933652Y-130932363D03*
X96933652Y-131572363D03*
D25*
X133248400Y-138521400D03*
X133248400Y-137881400D03*
D21*
X87042000Y-125267600D03*
X87712000Y-125267600D03*
X87712000Y-124597600D03*
X87042000Y-124597600D03*
D82*
X146159800Y-124295600D03*
X146159800Y-123795600D03*
X146159800Y-123295600D03*
X146159800Y-122795600D03*
D83*
X145261800Y-122397600D03*
X144761800Y-122397600D03*
X144261800Y-122397600D03*
D82*
X143363800Y-122795600D03*
X143363800Y-123295600D03*
X143363800Y-123795600D03*
X143363800Y-124295600D03*
D83*
X144261800Y-124693600D03*
X144761800Y-124693600D03*
X145261800Y-124693600D03*
D84*
X111785400Y-141590800D03*
X111785400Y-142990800D03*
D13*
X128443200Y-111612700D03*
X129083200Y-111612700D03*
D26*
X143870000Y-104987500D03*
X143870000Y-106812500D03*
D13*
X151143400Y-111864800D03*
X151783400Y-111864800D03*
D21*
X131596226Y-149724357D03*
X132266226Y-149724357D03*
X132266226Y-149054357D03*
X131596226Y-149054357D03*
D82*
X115841200Y-123303600D03*
X115841200Y-123803600D03*
X115841200Y-124303600D03*
X115841200Y-124803600D03*
D83*
X116739200Y-125201600D03*
X117239200Y-125201600D03*
X117739200Y-125201600D03*
D82*
X118637200Y-124803600D03*
X118637200Y-124303600D03*
X118637200Y-123803600D03*
X118637200Y-123303600D03*
D83*
X117739200Y-122905600D03*
X117239200Y-122905600D03*
X116739200Y-122905600D03*
D85*
X160015000Y-108340000D03*
X162165000Y-108340000D03*
D19*
X132257800Y-103718400D03*
X132257800Y-104358400D03*
D64*
X91377000Y-112107600D03*
X91377000Y-124757600D03*
D65*
X96377000Y-114132600D03*
X96377000Y-122732600D03*
D64*
X101377000Y-112107600D03*
X101377000Y-124757600D03*
D66*
X90727000Y-115182600D03*
X90727000Y-121682600D03*
X86227000Y-115182600D03*
X86227000Y-121682600D03*
D67*
X93877000Y-127132600D03*
X96377000Y-127132600D03*
X98877000Y-127132600D03*
X105077000Y-120932600D03*
X105077000Y-118432600D03*
X105077000Y-115932600D03*
D33*
X160538077Y-114402950D03*
X159898077Y-114402950D03*
D86*
X122758200Y-109392400D03*
X122758200Y-111892400D03*
D87*
X83007200Y-137007600D03*
X83007200Y-135357600D03*
D13*
X159258348Y-115214226D03*
X159898348Y-115214226D03*
D21*
X148985200Y-133857000D03*
X149655200Y-133857000D03*
X149655200Y-133187000D03*
X148985200Y-133187000D03*
X139696226Y-149724357D03*
X140366226Y-149724357D03*
X140366226Y-149054357D03*
X139696226Y-149054357D03*
D30*
X121894600Y-143105600D03*
X121894600Y-142085600D03*
D35*
X95740000Y-135410000D03*
X184556400Y-145995900D03*
D34*
X175486600Y-138988800D03*
X176506600Y-138988800D03*
D88*
X157782026Y-107324670D03*
X157782026Y-109224670D03*
D13*
X141056400Y-102311200D03*
X141696400Y-102311200D03*
D19*
X120019023Y-116562301D03*
X120019023Y-117202301D03*
D33*
X135346400Y-123266200D03*
X134706400Y-123266200D03*
M02*
