G04 #@! TF.GenerationSoftware,KiCad,Pcbnew,8.0.2*
G04 #@! TF.CreationDate,2024-09-01T00:55:05-07:00*
G04 #@! TF.ProjectId,progcc_3.2_main,70726f67-6363-45f3-932e-325f6d61696e,1*
G04 #@! TF.SameCoordinates,Original*
G04 #@! TF.FileFunction,Other,User*
%FSLAX46Y46*%
G04 Gerber Fmt 4.6, Leading zero omitted, Abs format (unit mm)*
G04 Created by KiCad (PCBNEW 8.0.2) date 2024-09-01 00:55:05*
%MOMM*%
%LPD*%
G01*
G04 APERTURE LIST*
%ADD10C,0.050000*%
G04 APERTURE END LIST*
D10*
X84980000Y-136930000D02*
X86380000Y-136930000D01*
X84980000Y-137630000D02*
X84980000Y-136930000D01*
X86380000Y-136930000D02*
X86380000Y-137630000D01*
X86380000Y-137630000D02*
X84980000Y-137630000D01*
X162570000Y-109790000D02*
X165970000Y-109790000D01*
X162570000Y-111750000D02*
X162570000Y-109790000D01*
X165970000Y-109790000D02*
X165970000Y-111750000D01*
X165970000Y-111750000D02*
X162570000Y-111750000D01*
X139261100Y-108163094D02*
X139961100Y-108163094D01*
X139261100Y-109563094D02*
X139261100Y-108163094D01*
X139961100Y-108163094D02*
X139961100Y-109563094D01*
X139961100Y-109563094D02*
X139261100Y-109563094D01*
X179471000Y-141794000D02*
X181971000Y-141794000D01*
X179471000Y-143194000D02*
X179471000Y-141794000D01*
X181971000Y-141794000D02*
X181971000Y-143194000D01*
X181971000Y-143194000D02*
X179471000Y-143194000D01*
X119288689Y-122553755D02*
X120748689Y-122553755D01*
X119288689Y-125513755D02*
X119288689Y-122553755D01*
X120748689Y-122553755D02*
X120748689Y-125513755D01*
X120748689Y-125513755D02*
X119288689Y-125513755D01*
X154790000Y-112940000D02*
X158090000Y-112940000D01*
X154790000Y-114400000D02*
X154790000Y-112940000D01*
X158090000Y-112940000D02*
X158090000Y-114400000D01*
X158090000Y-114400000D02*
X154790000Y-114400000D01*
X152966400Y-109703000D02*
X154786400Y-109703000D01*
X152966400Y-110623000D02*
X152966400Y-109703000D01*
X154786400Y-109703000D02*
X154786400Y-110623000D01*
X154786400Y-110623000D02*
X152966400Y-110623000D01*
X170389623Y-138268477D02*
X171089623Y-138268477D01*
X170389623Y-139668477D02*
X170389623Y-138268477D01*
X171089623Y-138268477D02*
X171089623Y-139668477D01*
X171089623Y-139668477D02*
X170389623Y-139668477D01*
X141620000Y-104250000D02*
X143080000Y-104250000D01*
X141620000Y-107550000D02*
X141620000Y-104250000D01*
X143080000Y-104250000D02*
X143080000Y-107550000D01*
X143080000Y-107550000D02*
X141620000Y-107550000D01*
X110975200Y-122499200D02*
X110975200Y-128859200D01*
X110975200Y-128859200D02*
X114475200Y-128859200D01*
X114475200Y-122499200D02*
X110975200Y-122499200D01*
X114475200Y-128859200D02*
X114475200Y-122499200D01*
X94587457Y-129230391D02*
X96047457Y-129230391D01*
X94587457Y-132530391D02*
X94587457Y-129230391D01*
X96047457Y-129230391D02*
X96047457Y-132530391D01*
X96047457Y-132530391D02*
X94587457Y-132530391D01*
X123796600Y-111206100D02*
X123796600Y-108006100D01*
X123796600Y-111206100D02*
X126596600Y-111206100D01*
X126596600Y-108006100D02*
X123796600Y-108006100D01*
X126596600Y-111206100D02*
X126596600Y-108006100D01*
X149948800Y-124850800D02*
X150888800Y-124850800D01*
X149948800Y-126710800D02*
X149948800Y-124850800D01*
X150888800Y-124850800D02*
X150888800Y-126710800D01*
X150888800Y-126710800D02*
X149948800Y-126710800D01*
X113735800Y-142073400D02*
X116235800Y-142073400D01*
X113735800Y-143473400D02*
X113735800Y-142073400D01*
X116235800Y-142073400D02*
X116235800Y-143473400D01*
X116235800Y-143473400D02*
X113735800Y-143473400D01*
X120458000Y-140874000D02*
X121858000Y-140874000D01*
X120458000Y-141574000D02*
X120458000Y-140874000D01*
X121858000Y-140874000D02*
X121858000Y-141574000D01*
X121858000Y-141574000D02*
X120458000Y-141574000D01*
X142427000Y-133233600D02*
X143827000Y-133233600D01*
X142427000Y-133933600D02*
X142427000Y-133233600D01*
X143827000Y-133233600D02*
X143827000Y-133933600D01*
X143827000Y-133933600D02*
X142427000Y-133933600D01*
X160800004Y-149968757D02*
X164100004Y-149968757D01*
X160800004Y-151428757D02*
X160800004Y-149968757D01*
X164100004Y-149968757D02*
X164100004Y-151428757D01*
X164100004Y-151428757D02*
X160800004Y-151428757D01*
X146102626Y-109696930D02*
X146102626Y-107796930D01*
X150102626Y-107796930D02*
X146102626Y-107796930D01*
X150102626Y-109696930D02*
X146102626Y-109696930D01*
X150102626Y-109696930D02*
X150102626Y-107796930D01*
X126640800Y-111262700D02*
X128040800Y-111262700D01*
X126640800Y-111962700D02*
X126640800Y-111262700D01*
X128040800Y-111262700D02*
X128040800Y-111962700D01*
X128040800Y-111962700D02*
X126640800Y-111962700D01*
X183321600Y-139941200D02*
X185181600Y-139941200D01*
X183321600Y-140881200D02*
X183321600Y-139941200D01*
X185181600Y-139941200D02*
X185181600Y-140881200D01*
X185181600Y-140881200D02*
X183321600Y-140881200D01*
X134600900Y-103864294D02*
X135300900Y-103864294D01*
X134600900Y-105264294D02*
X134600900Y-103864294D01*
X135300900Y-103864294D02*
X135300900Y-105264294D01*
X135300900Y-105264294D02*
X134600900Y-105264294D01*
X112585400Y-140598800D02*
X113525400Y-140598800D01*
X112585400Y-142458800D02*
X112585400Y-140598800D01*
X113525400Y-140598800D02*
X113525400Y-142458800D01*
X113525400Y-142458800D02*
X112585400Y-142458800D01*
X134665700Y-109988094D02*
X134665700Y-118228094D01*
X134665700Y-118228094D02*
X142905700Y-118228094D01*
X142905700Y-109988094D02*
X134665700Y-109988094D01*
X142905700Y-118228094D02*
X142905700Y-109988094D01*
X147122200Y-106324400D02*
G75*
G02*
X144622200Y-106324400I-1250000J0D01*
G01*
X144622200Y-106324400D02*
G75*
G02*
X147122200Y-106324400I1250000J0D01*
G01*
X124894200Y-123698800D02*
X124894200Y-137398800D01*
X124894200Y-137398800D02*
X141994200Y-137398800D01*
X141994200Y-123698800D02*
X124894200Y-123698800D01*
X141994200Y-137398800D02*
X141994200Y-123698800D01*
X141691100Y-107747294D02*
X142611100Y-107747294D01*
X141691100Y-109567294D02*
X141691100Y-107747294D01*
X142611100Y-107747294D02*
X142611100Y-109567294D01*
X142611100Y-109567294D02*
X141691100Y-109567294D01*
X124826800Y-111262700D02*
X126226800Y-111262700D01*
X124826800Y-111962700D02*
X124826800Y-111262700D01*
X126226800Y-111262700D02*
X126226800Y-111962700D01*
X126226800Y-111962700D02*
X124826800Y-111962700D01*
X146691600Y-111699000D02*
X146691600Y-113599000D01*
X146691600Y-111699000D02*
X150691600Y-111699000D01*
X146691600Y-113599000D02*
X150691600Y-113599000D01*
X150691600Y-111699000D02*
X150691600Y-113599000D01*
X175062400Y-139558800D02*
X175762400Y-139558800D01*
X175062400Y-140958800D02*
X175062400Y-139558800D01*
X175762400Y-139558800D02*
X175762400Y-140958800D01*
X175762400Y-140958800D02*
X175062400Y-140958800D01*
X150349200Y-108188800D02*
X150349200Y-106288800D01*
X154349200Y-106288800D02*
X150349200Y-106288800D01*
X154349200Y-108188800D02*
X150349200Y-108188800D01*
X154349200Y-108188800D02*
X154349200Y-106288800D01*
X182188800Y-141794000D02*
X184688800Y-141794000D01*
X182188800Y-143194000D02*
X182188800Y-141794000D01*
X184688800Y-141794000D02*
X184688800Y-143194000D01*
X184688800Y-143194000D02*
X182188800Y-143194000D01*
X133901700Y-110144294D02*
X134601700Y-110144294D01*
X133901700Y-111544294D02*
X133901700Y-110144294D01*
X134601700Y-110144294D02*
X134601700Y-111544294D01*
X134601700Y-111544294D02*
X133901700Y-111544294D01*
X177023000Y-138265300D02*
X177023000Y-141665300D01*
X177023000Y-141665300D02*
X180863000Y-141665300D01*
X180863000Y-138265300D02*
X177023000Y-138265300D01*
X180863000Y-141665300D02*
X180863000Y-138265300D01*
X124414600Y-104927400D02*
G75*
G02*
X121914600Y-104927400I-1250000J0D01*
G01*
X121914600Y-104927400D02*
G75*
G02*
X124414600Y-104927400I1250000J0D01*
G01*
X140924800Y-102728800D02*
X141624800Y-102728800D01*
X140924800Y-104128800D02*
X140924800Y-102728800D01*
X141624800Y-102728800D02*
X141624800Y-104128800D01*
X141624800Y-104128800D02*
X140924800Y-104128800D01*
X124801400Y-107249500D02*
X126201400Y-107249500D01*
X124801400Y-107949500D02*
X124801400Y-107249500D01*
X126201400Y-107249500D02*
X126201400Y-107949500D01*
X126201400Y-107949500D02*
X124801400Y-107949500D01*
X175856800Y-139557400D02*
X176796800Y-139557400D01*
X175856800Y-141417400D02*
X175856800Y-139557400D01*
X176796800Y-139557400D02*
X176796800Y-141417400D01*
X176796800Y-141417400D02*
X175856800Y-141417400D01*
X92918800Y-133742200D02*
X93618800Y-133742200D01*
X92918800Y-135142200D02*
X92918800Y-133742200D01*
X93618800Y-133742200D02*
X93618800Y-135142200D01*
X93618800Y-135142200D02*
X92918800Y-135142200D01*
X142427000Y-134046400D02*
X143827000Y-134046400D01*
X142427000Y-134746400D02*
X142427000Y-134046400D01*
X143827000Y-134046400D02*
X143827000Y-134746400D01*
X143827000Y-134746400D02*
X142427000Y-134746400D01*
X120383200Y-141665600D02*
X121323200Y-141665600D01*
X120383200Y-143525600D02*
X120383200Y-141665600D01*
X121323200Y-141665600D02*
X121323200Y-143525600D01*
X121323200Y-143525600D02*
X120383200Y-143525600D01*
X115763023Y-119631101D02*
X117163023Y-119631101D01*
X115763023Y-120331101D02*
X115763023Y-119631101D01*
X117163023Y-119631101D02*
X117163023Y-120331101D01*
X117163023Y-120331101D02*
X115763023Y-120331101D01*
X158450000Y-110050000D02*
X158450000Y-113950000D01*
X162350000Y-110050000D02*
X158450000Y-110050000D01*
X162350000Y-110050000D02*
X162350000Y-113950000D01*
X162350000Y-113950000D02*
X158450000Y-113950000D01*
X154790000Y-111410000D02*
X158090000Y-111410000D01*
X154790000Y-112870000D02*
X154790000Y-111410000D01*
X158090000Y-111410000D02*
X158090000Y-112870000D01*
X158090000Y-112870000D02*
X154790000Y-112870000D01*
X116059100Y-125817002D02*
X119019100Y-125817002D01*
X116059100Y-127277002D02*
X116059100Y-125817002D01*
X119019100Y-125817002D02*
X119019100Y-127277002D01*
X119019100Y-127277002D02*
X116059100Y-127277002D01*
X139972300Y-108163094D02*
X140672300Y-108163094D01*
X139972300Y-109563094D02*
X139972300Y-108163094D01*
X140672300Y-108163094D02*
X140672300Y-109563094D01*
X140672300Y-109563094D02*
X139972300Y-109563094D01*
X93706200Y-133742200D02*
X94406200Y-133742200D01*
X93706200Y-135142200D02*
X93706200Y-133742200D01*
X94406200Y-133742200D02*
X94406200Y-135142200D01*
X94406200Y-135142200D02*
X93706200Y-135142200D01*
X89690000Y-139345000D02*
X89690000Y-141545000D01*
X89690000Y-141545000D02*
X94790000Y-141545000D01*
X90090000Y-137745000D02*
X90090000Y-139345000D01*
X90090000Y-139345000D02*
X89690000Y-139345000D01*
X94390000Y-137745000D02*
X90090000Y-137745000D01*
X94390000Y-139345000D02*
X94390000Y-137745000D01*
X94790000Y-139345000D02*
X94390000Y-139345000D01*
X94790000Y-141545000D02*
X94790000Y-139345000D01*
X106631309Y-118767056D02*
X109931309Y-118767056D01*
X106631309Y-120227056D02*
X106631309Y-118767056D01*
X109931309Y-118767056D02*
X109931309Y-120227056D01*
X109931309Y-120227056D02*
X106631309Y-120227056D01*
X178180000Y-144905000D02*
X178180000Y-147105000D01*
X178180000Y-147105000D02*
X183280000Y-147105000D01*
X178580000Y-143305000D02*
X178580000Y-144905000D01*
X178580000Y-144905000D02*
X178180000Y-144905000D01*
X182880000Y-143305000D02*
X178580000Y-143305000D01*
X182880000Y-144905000D02*
X182880000Y-143305000D01*
X183280000Y-144905000D02*
X182880000Y-144905000D01*
X183280000Y-147105000D02*
X183280000Y-144905000D01*
X141692400Y-102723200D02*
X143092400Y-102723200D01*
X141692400Y-103423200D02*
X141692400Y-102723200D01*
X143092400Y-102723200D02*
X143092400Y-103423200D01*
X143092400Y-103423200D02*
X141692400Y-103423200D01*
X150354000Y-104080600D02*
X154954000Y-104080600D01*
X150354000Y-106180600D02*
X150354000Y-104080600D01*
X154954000Y-104080600D02*
X154954000Y-106180600D01*
X154954000Y-106180600D02*
X150354000Y-106180600D01*
X115762223Y-116172901D02*
X115762223Y-119572901D01*
X115762223Y-119572901D02*
X119602223Y-119572901D01*
X119602223Y-116172901D02*
X115762223Y-116172901D01*
X119602223Y-119572901D02*
X119602223Y-116172901D01*
X82271600Y-129102800D02*
X82271600Y-131602800D01*
X82271600Y-129102800D02*
X85571600Y-129102800D01*
X85571600Y-131602800D02*
X82271600Y-131602800D01*
X85571600Y-131602800D02*
X85571600Y-129102800D01*
X141208323Y-120333129D02*
X142668323Y-120333129D01*
X141208323Y-123293129D02*
X141208323Y-120333129D01*
X142668323Y-120333129D02*
X142668323Y-123293129D01*
X142668323Y-123293129D02*
X141208323Y-123293129D01*
X81310000Y-138810000D02*
X81310000Y-141810000D01*
X81310000Y-141810000D02*
X90310000Y-141810000D01*
X90310000Y-138810000D02*
X81310000Y-138810000D01*
X90310000Y-141810000D02*
X90310000Y-138810000D01*
X136358400Y-101402400D02*
X137758400Y-101402400D01*
X136358400Y-102102400D02*
X136358400Y-101402400D01*
X137758400Y-101402400D02*
X137758400Y-102102400D01*
X137758400Y-102102400D02*
X136358400Y-102102400D01*
X134625600Y-108544094D02*
X135325600Y-108544094D01*
X134625600Y-109944094D02*
X134625600Y-108544094D01*
X135325600Y-108544094D02*
X135325600Y-109944094D01*
X135325600Y-109944094D02*
X134625600Y-109944094D01*
X115752423Y-115414701D02*
X117152423Y-115414701D01*
X115752423Y-116114701D02*
X115752423Y-115414701D01*
X117152423Y-115414701D02*
X117152423Y-116114701D01*
X117152423Y-116114701D02*
X115752423Y-116114701D01*
X137395100Y-118686494D02*
X139795100Y-118686494D01*
X137395100Y-122186494D02*
X137395100Y-118686494D01*
X139795100Y-118686494D02*
X139795100Y-122186494D01*
X139795100Y-122186494D02*
X137395100Y-122186494D01*
X143011900Y-109807294D02*
X143931900Y-109807294D01*
X143011900Y-111627294D02*
X143011900Y-109807294D01*
X143931900Y-109807294D02*
X143931900Y-111627294D01*
X143931900Y-111627294D02*
X143011900Y-111627294D01*
X135621800Y-103155000D02*
X137021800Y-103155000D01*
X135621800Y-103855000D02*
X135621800Y-103155000D01*
X137021800Y-103155000D02*
X137021800Y-103855000D01*
X137021800Y-103855000D02*
X135621800Y-103855000D01*
X133749600Y-137496800D02*
X136709600Y-137496800D01*
X133749600Y-138956800D02*
X133749600Y-137496800D01*
X136709600Y-137496800D02*
X136709600Y-138956800D01*
X136709600Y-138956800D02*
X133749600Y-138956800D01*
X170008456Y-134564581D02*
X171468456Y-134564581D01*
X170008456Y-137864581D02*
X170008456Y-134564581D01*
X171468456Y-134564581D02*
X171468456Y-137864581D01*
X171468456Y-137864581D02*
X170008456Y-137864581D01*
X83825600Y-131949400D02*
X84525600Y-131949400D01*
X83825600Y-133349400D02*
X83825600Y-131949400D01*
X84525600Y-131949400D02*
X84525600Y-133349400D01*
X84525600Y-133349400D02*
X83825600Y-133349400D01*
X126641400Y-111206100D02*
X126641400Y-108006100D01*
X126641400Y-111206100D02*
X129441400Y-111206100D01*
X129441400Y-108006100D02*
X126641400Y-108006100D01*
X129441400Y-111206100D02*
X129441400Y-108006100D01*
X158945629Y-150497756D02*
X160345629Y-150497756D01*
X158945629Y-151197756D02*
X158945629Y-150497756D01*
X160345629Y-150497756D02*
X160345629Y-151197756D01*
X160345629Y-151197756D02*
X158945629Y-151197756D01*
X111850623Y-116172901D02*
X111850623Y-119572901D01*
X111850623Y-119572901D02*
X115690623Y-119572901D01*
X115690623Y-116172901D02*
X111850623Y-116172901D01*
X115690623Y-119572901D02*
X115690623Y-116172901D01*
X132853200Y-122916200D02*
X134253200Y-122916200D01*
X132853200Y-123616200D02*
X132853200Y-122916200D01*
X134253200Y-122916200D02*
X134253200Y-123616200D01*
X134253200Y-123616200D02*
X132853200Y-123616200D01*
X180935400Y-140950200D02*
X182335400Y-140950200D01*
X180935400Y-141650200D02*
X180935400Y-140950200D01*
X182335400Y-140950200D02*
X182335400Y-141650200D01*
X182335400Y-141650200D02*
X180935400Y-141650200D01*
X107985401Y-117627059D02*
X109385401Y-117627059D01*
X107985401Y-118327059D02*
X107985401Y-117627059D01*
X109385401Y-117627059D02*
X109385401Y-118327059D01*
X109385401Y-118327059D02*
X107985401Y-118327059D01*
X142973194Y-120330800D02*
X145933194Y-120330800D01*
X142973194Y-121790800D02*
X142973194Y-120330800D01*
X145933194Y-120330800D02*
X145933194Y-121790800D01*
X145933194Y-121790800D02*
X142973194Y-121790800D01*
X142605500Y-107747294D02*
X143525500Y-107747294D01*
X142605500Y-109567294D02*
X142605500Y-107747294D01*
X143525500Y-107747294D02*
X143525500Y-109567294D01*
X143525500Y-109567294D02*
X142605500Y-109567294D01*
X152973200Y-108924000D02*
X154373200Y-108924000D01*
X152973200Y-109624000D02*
X152973200Y-108924000D01*
X154373200Y-108924000D02*
X154373200Y-109624000D01*
X154373200Y-109624000D02*
X152973200Y-109624000D01*
X140353300Y-120101094D02*
X141053300Y-120101094D01*
X140353300Y-121501094D02*
X140353300Y-120101094D01*
X141053300Y-120101094D02*
X141053300Y-121501094D01*
X141053300Y-121501094D02*
X140353300Y-121501094D01*
X116444000Y-140438400D02*
X116444000Y-143838400D01*
X116444000Y-143838400D02*
X120284000Y-143838400D01*
X120284000Y-140438400D02*
X116444000Y-140438400D01*
X120284000Y-143838400D02*
X120284000Y-140438400D01*
X119875902Y-113356302D02*
X120575902Y-113356302D01*
X119875902Y-114756302D02*
X119875902Y-113356302D01*
X120575902Y-113356302D02*
X120575902Y-114756302D01*
X120575902Y-114756302D02*
X119875902Y-114756302D01*
X182408600Y-140950200D02*
X183808600Y-140950200D01*
X182408600Y-141650200D02*
X182408600Y-140950200D01*
X183808600Y-140950200D02*
X183808600Y-141650200D01*
X183808600Y-141650200D02*
X182408600Y-141650200D01*
X138287500Y-107749894D02*
X139207500Y-107749894D01*
X138287500Y-109569894D02*
X138287500Y-107749894D01*
X139207500Y-107749894D02*
X139207500Y-109569894D01*
X139207500Y-109569894D02*
X138287500Y-109569894D01*
X119420000Y-98728400D02*
X119420000Y-101728400D01*
X119420000Y-101728400D02*
X124420000Y-101728400D01*
X124420000Y-98728400D02*
X119420000Y-98728400D01*
X124420000Y-101728400D02*
X124420000Y-98728400D01*
X121849200Y-104952800D02*
G75*
G02*
X119349200Y-104952800I-1250000J0D01*
G01*
X119349200Y-104952800D02*
G75*
G02*
X121849200Y-104952800I1250000J0D01*
G01*
X140776700Y-107749894D02*
X141696700Y-107749894D01*
X140776700Y-109569894D02*
X140776700Y-107749894D01*
X141696700Y-107749894D02*
X141696700Y-109569894D01*
X141696700Y-109569894D02*
X140776700Y-109569894D01*
X126929200Y-104724200D02*
G75*
G02*
X124429200Y-104724200I-1250000J0D01*
G01*
X124429200Y-104724200D02*
G75*
G02*
X126929200Y-104724200I1250000J0D01*
G01*
X82277200Y-131666800D02*
X83737200Y-131666800D01*
X82277200Y-134626800D02*
X82277200Y-131666800D01*
X83737200Y-131666800D02*
X83737200Y-134626800D01*
X83737200Y-134626800D02*
X82277200Y-134626800D01*
X126604800Y-107249500D02*
X128004800Y-107249500D01*
X126604800Y-107949500D02*
X126604800Y-107249500D01*
X128004800Y-107249500D02*
X128004800Y-107949500D01*
X128004800Y-107949500D02*
X126604800Y-107949500D01*
X137107000Y-102813000D02*
X137107000Y-105213000D01*
X137107000Y-105213000D02*
X140007000Y-105213000D01*
X140007000Y-102813000D02*
X137107000Y-102813000D01*
X140007000Y-105213000D02*
X140007000Y-102813000D01*
X142090200Y-125623400D02*
X142090200Y-131983400D01*
X142090200Y-131983400D02*
X145590200Y-131983400D01*
X145590200Y-125623400D02*
X142090200Y-125623400D01*
X145590200Y-131983400D02*
X145590200Y-125623400D01*
X180935400Y-138018200D02*
X182335400Y-138018200D01*
X180935400Y-140518200D02*
X180935400Y-138018200D01*
X182335400Y-138018200D02*
X182335400Y-140518200D01*
X182335400Y-140518200D02*
X180935400Y-140518200D01*
X113735800Y-140600200D02*
X116235800Y-140600200D01*
X113735800Y-142000200D02*
X113735800Y-140600200D01*
X116235800Y-140600200D02*
X116235800Y-142000200D01*
X116235800Y-142000200D02*
X113735800Y-142000200D01*
X128052600Y-107249500D02*
X129452600Y-107249500D01*
X128052600Y-107949500D02*
X128052600Y-107249500D01*
X129452600Y-107249500D02*
X129452600Y-107949500D01*
X129452600Y-107949500D02*
X128052600Y-107949500D01*
X139870700Y-118644294D02*
X140570700Y-118644294D01*
X139870700Y-120044294D02*
X139870700Y-118644294D01*
X140570700Y-118644294D02*
X140570700Y-120044294D01*
X140570700Y-120044294D02*
X139870700Y-120044294D01*
X96583652Y-130552363D02*
X97283652Y-130552363D01*
X96583652Y-131952363D02*
X96583652Y-130552363D01*
X97283652Y-130552363D02*
X97283652Y-131952363D01*
X97283652Y-131952363D02*
X96583652Y-131952363D01*
X132898400Y-137501400D02*
X133598400Y-137501400D01*
X132898400Y-138901400D02*
X132898400Y-137501400D01*
X133598400Y-137501400D02*
X133598400Y-138901400D01*
X133598400Y-138901400D02*
X132898400Y-138901400D01*
X111085400Y-141040800D02*
X112485400Y-141040800D01*
X111085400Y-143540800D02*
X111085400Y-141040800D01*
X112485400Y-141040800D02*
X112485400Y-143540800D01*
X112485400Y-143540800D02*
X111085400Y-143540800D01*
X128063200Y-111262700D02*
X129463200Y-111262700D01*
X128063200Y-111962700D02*
X128063200Y-111262700D01*
X129463200Y-111262700D02*
X129463200Y-111962700D01*
X129463200Y-111962700D02*
X128063200Y-111962700D01*
X143140000Y-104250000D02*
X144600000Y-104250000D01*
X143140000Y-107550000D02*
X143140000Y-104250000D01*
X144600000Y-104250000D02*
X144600000Y-107550000D01*
X144600000Y-107550000D02*
X143140000Y-107550000D01*
X150763400Y-111514800D02*
X152163400Y-111514800D01*
X150763400Y-112214800D02*
X150763400Y-111514800D01*
X152163400Y-111514800D02*
X152163400Y-112214800D01*
X152163400Y-112214800D02*
X150763400Y-112214800D01*
X159140000Y-106990000D02*
X163040000Y-106990000D01*
X159140000Y-109690000D02*
X159140000Y-106990000D01*
X163040000Y-106990000D02*
X163040000Y-109690000D01*
X163040000Y-109690000D02*
X159140000Y-109690000D01*
X131907800Y-103338400D02*
X132607800Y-103338400D01*
X131907800Y-104738400D02*
X131907800Y-103338400D01*
X132607800Y-103338400D02*
X132607800Y-104738400D01*
X132607800Y-104738400D02*
X131907800Y-104738400D01*
X159518077Y-114052950D02*
X160918077Y-114052950D01*
X159518077Y-114752950D02*
X159518077Y-114052950D01*
X160918077Y-114052950D02*
X160918077Y-114752950D01*
X160918077Y-114752950D02*
X159518077Y-114752950D01*
X121808200Y-108642400D02*
X121808200Y-112642400D01*
X123708200Y-108642400D02*
X121808200Y-108642400D01*
X123708200Y-108642400D02*
X123708200Y-112642400D01*
X123708200Y-112642400D02*
X121808200Y-112642400D01*
X82277200Y-134702600D02*
X83737200Y-134702600D01*
X82277200Y-137662600D02*
X82277200Y-134702600D01*
X83737200Y-134702600D02*
X83737200Y-137662600D01*
X83737200Y-137662600D02*
X82277200Y-137662600D01*
X158878348Y-114864226D02*
X160278348Y-114864226D01*
X158878348Y-115564226D02*
X158878348Y-114864226D01*
X160278348Y-114864226D02*
X160278348Y-115564226D01*
X160278348Y-115564226D02*
X158878348Y-115564226D01*
X121424600Y-141665600D02*
X122364600Y-141665600D01*
X121424600Y-143525600D02*
X121424600Y-141665600D01*
X122364600Y-141665600D02*
X122364600Y-143525600D01*
X122364600Y-143525600D02*
X121424600Y-143525600D01*
X175066600Y-138518800D02*
X176926600Y-138518800D01*
X175066600Y-139458800D02*
X175066600Y-138518800D01*
X176926600Y-138518800D02*
X176926600Y-139458800D01*
X176926600Y-139458800D02*
X175066600Y-139458800D01*
X156802026Y-106574670D02*
X158762026Y-106574670D01*
X156802026Y-109974670D02*
X156802026Y-106574670D01*
X158762026Y-106574670D02*
X158762026Y-109974670D01*
X158762026Y-109974670D02*
X156802026Y-109974670D01*
X140676400Y-101961200D02*
X142076400Y-101961200D01*
X140676400Y-102661200D02*
X140676400Y-101961200D01*
X142076400Y-101961200D02*
X142076400Y-102661200D01*
X142076400Y-102661200D02*
X140676400Y-102661200D01*
X119669023Y-116182301D02*
X120369023Y-116182301D01*
X119669023Y-117582301D02*
X119669023Y-116182301D01*
X120369023Y-116182301D02*
X120369023Y-117582301D01*
X120369023Y-117582301D02*
X119669023Y-117582301D01*
X134326400Y-122916200D02*
X135726400Y-122916200D01*
X134326400Y-123616200D02*
X134326400Y-122916200D01*
X135726400Y-122916200D02*
X135726400Y-123616200D01*
X135726400Y-123616200D02*
X134326400Y-123616200D01*
M02*
