G04 #@! TF.GenerationSoftware,KiCad,Pcbnew,8.0.2*
G04 #@! TF.CreationDate,2024-10-26T14:53:53-07:00*
G04 #@! TF.ProjectId,progcc_3.2_main,70726f67-6363-45f3-932e-325f6d61696e,1*
G04 #@! TF.SameCoordinates,Original*
G04 #@! TF.FileFunction,Other,User*
%FSLAX46Y46*%
G04 Gerber Fmt 4.6, Leading zero omitted, Abs format (unit mm)*
G04 Created by KiCad (PCBNEW 8.0.2) date 2024-10-26 14:53:53*
%MOMM*%
%LPD*%
G01*
G04 APERTURE LIST*
%ADD10C,0.050000*%
G04 APERTURE END LIST*
D10*
X84980000Y-136930000D02*
X86380000Y-136930000D01*
X84980000Y-137630000D02*
X84980000Y-136930000D01*
X86380000Y-136930000D02*
X86380000Y-137630000D01*
X86380000Y-137630000D02*
X84980000Y-137630000D01*
X162570000Y-109790000D02*
X165970000Y-109790000D01*
X162570000Y-111750000D02*
X162570000Y-109790000D01*
X165970000Y-109790000D02*
X165970000Y-111750000D01*
X165970000Y-111750000D02*
X162570000Y-111750000D01*
X139261100Y-108163094D02*
X139961100Y-108163094D01*
X139261100Y-109563094D02*
X139261100Y-108163094D01*
X139961100Y-108163094D02*
X139961100Y-109563094D01*
X139961100Y-109563094D02*
X139261100Y-109563094D01*
X179471000Y-141794000D02*
X181971000Y-141794000D01*
X179471000Y-143194000D02*
X179471000Y-141794000D01*
X181971000Y-141794000D02*
X181971000Y-143194000D01*
X181971000Y-143194000D02*
X179471000Y-143194000D01*
X119581628Y-123655987D02*
X120281628Y-123655987D01*
X119581628Y-125055987D02*
X119581628Y-123655987D01*
X120281628Y-123655987D02*
X120281628Y-125055987D01*
X120281628Y-125055987D02*
X119581628Y-125055987D01*
X155740000Y-113320000D02*
X157140000Y-113320000D01*
X155740000Y-114020000D02*
X155740000Y-113320000D01*
X157140000Y-113320000D02*
X157140000Y-114020000D01*
X157140000Y-114020000D02*
X155740000Y-114020000D01*
X153100000Y-110420000D02*
X155060000Y-110420000D01*
X153100000Y-113820000D02*
X153100000Y-110420000D01*
X155060000Y-110420000D02*
X155060000Y-113820000D01*
X155060000Y-113820000D02*
X153100000Y-113820000D01*
X170389623Y-138268477D02*
X171089623Y-138268477D01*
X170389623Y-139668477D02*
X170389623Y-138268477D01*
X171089623Y-138268477D02*
X171089623Y-139668477D01*
X171089623Y-139668477D02*
X170389623Y-139668477D01*
X142000000Y-105200000D02*
X142700000Y-105200000D01*
X142000000Y-106600000D02*
X142000000Y-105200000D01*
X142700000Y-105200000D02*
X142700000Y-106600000D01*
X142700000Y-106600000D02*
X142000000Y-106600000D01*
X110975200Y-122499200D02*
X110975200Y-128859200D01*
X110975200Y-128859200D02*
X114475200Y-128859200D01*
X114475200Y-122499200D02*
X110975200Y-122499200D01*
X114475200Y-128859200D02*
X114475200Y-122499200D01*
X94587457Y-129400391D02*
X96047457Y-129400391D01*
X94587457Y-132360391D02*
X94587457Y-129400391D01*
X96047457Y-129400391D02*
X96047457Y-132360391D01*
X96047457Y-132360391D02*
X94587457Y-132360391D01*
X123796600Y-111206100D02*
X123796600Y-108006100D01*
X123796600Y-111206100D02*
X126596600Y-111206100D01*
X126596600Y-108006100D02*
X123796600Y-108006100D01*
X126596600Y-111206100D02*
X126596600Y-108006100D01*
X150068800Y-125080800D02*
X150768800Y-125080800D01*
X150068800Y-126480800D02*
X150068800Y-125080800D01*
X150768800Y-125080800D02*
X150768800Y-126480800D01*
X150768800Y-126480800D02*
X150068800Y-126480800D01*
X113735800Y-142073400D02*
X116235800Y-142073400D01*
X113735800Y-143473400D02*
X113735800Y-142073400D01*
X116235800Y-142073400D02*
X116235800Y-143473400D01*
X116235800Y-143473400D02*
X113735800Y-143473400D01*
X120458000Y-140874000D02*
X121858000Y-140874000D01*
X120458000Y-141574000D02*
X120458000Y-140874000D01*
X121858000Y-140874000D02*
X121858000Y-141574000D01*
X121858000Y-141574000D02*
X120458000Y-141574000D01*
X142427000Y-133233600D02*
X143827000Y-133233600D01*
X142427000Y-133933600D02*
X142427000Y-133233600D01*
X143827000Y-133233600D02*
X143827000Y-133933600D01*
X143827000Y-133933600D02*
X142427000Y-133933600D01*
X160970004Y-149968757D02*
X163930004Y-149968757D01*
X160970004Y-151428757D02*
X160970004Y-149968757D01*
X163930004Y-149968757D02*
X163930004Y-151428757D01*
X163930004Y-151428757D02*
X160970004Y-151428757D01*
X146102626Y-109696930D02*
X146102626Y-107796930D01*
X150102626Y-107796930D02*
X146102626Y-107796930D01*
X150102626Y-109696930D02*
X146102626Y-109696930D01*
X150102626Y-109696930D02*
X150102626Y-107796930D01*
X126640800Y-111262700D02*
X128040800Y-111262700D01*
X126640800Y-111962700D02*
X126640800Y-111262700D01*
X128040800Y-111262700D02*
X128040800Y-111962700D01*
X128040800Y-111962700D02*
X126640800Y-111962700D01*
X183551600Y-140061200D02*
X184951600Y-140061200D01*
X183551600Y-140761200D02*
X183551600Y-140061200D01*
X184951600Y-140061200D02*
X184951600Y-140761200D01*
X184951600Y-140761200D02*
X183551600Y-140761200D01*
X134600900Y-103864294D02*
X135300900Y-103864294D01*
X134600900Y-105264294D02*
X134600900Y-103864294D01*
X135300900Y-103864294D02*
X135300900Y-105264294D01*
X135300900Y-105264294D02*
X134600900Y-105264294D01*
X112705400Y-140828800D02*
X113405400Y-140828800D01*
X112705400Y-142228800D02*
X112705400Y-140828800D01*
X113405400Y-140828800D02*
X113405400Y-142228800D01*
X113405400Y-142228800D02*
X112705400Y-142228800D01*
X134665700Y-109988094D02*
X134665700Y-118228094D01*
X134665700Y-118228094D02*
X142905700Y-118228094D01*
X142905700Y-109988094D02*
X134665700Y-109988094D01*
X142905700Y-118228094D02*
X142905700Y-109988094D01*
X147122200Y-106324400D02*
G75*
G02*
X144622200Y-106324400I-1250000J0D01*
G01*
X144622200Y-106324400D02*
G75*
G02*
X147122200Y-106324400I1250000J0D01*
G01*
X124894200Y-123698800D02*
X124894200Y-137398800D01*
X124894200Y-137398800D02*
X141994200Y-137398800D01*
X141994200Y-123698800D02*
X124894200Y-123698800D01*
X141994200Y-137398800D02*
X141994200Y-123698800D01*
X141801100Y-107957294D02*
X142501100Y-107957294D01*
X141801100Y-109357294D02*
X141801100Y-107957294D01*
X142501100Y-107957294D02*
X142501100Y-109357294D01*
X142501100Y-109357294D02*
X141801100Y-109357294D01*
X124826800Y-111262700D02*
X126226800Y-111262700D01*
X124826800Y-111962700D02*
X124826800Y-111262700D01*
X126226800Y-111262700D02*
X126226800Y-111962700D01*
X126226800Y-111962700D02*
X124826800Y-111962700D01*
X146691600Y-111699000D02*
X146691600Y-113599000D01*
X146691600Y-111699000D02*
X150691600Y-111699000D01*
X146691600Y-113599000D02*
X150691600Y-113599000D01*
X150691600Y-111699000D02*
X150691600Y-113599000D01*
X175062400Y-139558800D02*
X175762400Y-139558800D01*
X175062400Y-140958800D02*
X175062400Y-139558800D01*
X175762400Y-139558800D02*
X175762400Y-140958800D01*
X175762400Y-140958800D02*
X175062400Y-140958800D01*
X150349200Y-108188800D02*
X150349200Y-106288800D01*
X154349200Y-106288800D02*
X150349200Y-106288800D01*
X154349200Y-108188800D02*
X150349200Y-108188800D01*
X154349200Y-108188800D02*
X154349200Y-106288800D01*
X182188800Y-141794000D02*
X184688800Y-141794000D01*
X182188800Y-143194000D02*
X182188800Y-141794000D01*
X184688800Y-141794000D02*
X184688800Y-143194000D01*
X184688800Y-143194000D02*
X182188800Y-143194000D01*
X133901700Y-110144294D02*
X134601700Y-110144294D01*
X133901700Y-111544294D02*
X133901700Y-110144294D01*
X134601700Y-110144294D02*
X134601700Y-111544294D01*
X134601700Y-111544294D02*
X133901700Y-111544294D01*
X177023000Y-138265300D02*
X177023000Y-141665300D01*
X177023000Y-141665300D02*
X180863000Y-141665300D01*
X180863000Y-138265300D02*
X177023000Y-138265300D01*
X180863000Y-141665300D02*
X180863000Y-138265300D01*
X124414600Y-104927400D02*
G75*
G02*
X121914600Y-104927400I-1250000J0D01*
G01*
X121914600Y-104927400D02*
G75*
G02*
X124414600Y-104927400I1250000J0D01*
G01*
X140924800Y-102728800D02*
X141624800Y-102728800D01*
X140924800Y-104128800D02*
X140924800Y-102728800D01*
X141624800Y-102728800D02*
X141624800Y-104128800D01*
X141624800Y-104128800D02*
X140924800Y-104128800D01*
X124801400Y-107249500D02*
X126201400Y-107249500D01*
X124801400Y-107949500D02*
X124801400Y-107249500D01*
X126201400Y-107249500D02*
X126201400Y-107949500D01*
X126201400Y-107949500D02*
X124801400Y-107949500D01*
X175976800Y-139787400D02*
X176676800Y-139787400D01*
X175976800Y-141187400D02*
X175976800Y-139787400D01*
X176676800Y-139787400D02*
X176676800Y-141187400D01*
X176676800Y-141187400D02*
X175976800Y-141187400D01*
X92918800Y-133742200D02*
X93618800Y-133742200D01*
X92918800Y-135142200D02*
X92918800Y-133742200D01*
X93618800Y-133742200D02*
X93618800Y-135142200D01*
X93618800Y-135142200D02*
X92918800Y-135142200D01*
X142427000Y-134046400D02*
X143827000Y-134046400D01*
X142427000Y-134746400D02*
X142427000Y-134046400D01*
X143827000Y-134046400D02*
X143827000Y-134746400D01*
X143827000Y-134746400D02*
X142427000Y-134746400D01*
X120503200Y-141895600D02*
X121203200Y-141895600D01*
X120503200Y-143295600D02*
X120503200Y-141895600D01*
X121203200Y-141895600D02*
X121203200Y-143295600D01*
X121203200Y-143295600D02*
X120503200Y-143295600D01*
X115763023Y-119631101D02*
X117163023Y-119631101D01*
X115763023Y-120331101D02*
X115763023Y-119631101D01*
X117163023Y-119631101D02*
X117163023Y-120331101D01*
X117163023Y-120331101D02*
X115763023Y-120331101D01*
X158450000Y-110050000D02*
X158450000Y-113950000D01*
X162350000Y-110050000D02*
X158450000Y-110050000D01*
X162350000Y-110050000D02*
X162350000Y-113950000D01*
X162350000Y-113950000D02*
X158450000Y-113950000D01*
X155740000Y-111790000D02*
X157140000Y-111790000D01*
X155740000Y-112490000D02*
X155740000Y-111790000D01*
X157140000Y-111790000D02*
X157140000Y-112490000D01*
X157140000Y-112490000D02*
X155740000Y-112490000D01*
X116489690Y-126128122D02*
X117889690Y-126128122D01*
X116489690Y-126828122D02*
X116489690Y-126128122D01*
X117889690Y-126128122D02*
X117889690Y-126828122D01*
X117889690Y-126828122D02*
X116489690Y-126828122D01*
X139972300Y-108163094D02*
X140672300Y-108163094D01*
X139972300Y-109563094D02*
X139972300Y-108163094D01*
X140672300Y-108163094D02*
X140672300Y-109563094D01*
X140672300Y-109563094D02*
X139972300Y-109563094D01*
X93706200Y-133742200D02*
X94406200Y-133742200D01*
X93706200Y-135142200D02*
X93706200Y-133742200D01*
X94406200Y-133742200D02*
X94406200Y-135142200D01*
X94406200Y-135142200D02*
X93706200Y-135142200D01*
X89690000Y-139345000D02*
X89690000Y-141545000D01*
X89690000Y-141545000D02*
X94790000Y-141545000D01*
X90090000Y-137745000D02*
X90090000Y-139345000D01*
X90090000Y-139345000D02*
X89690000Y-139345000D01*
X94390000Y-137745000D02*
X90090000Y-137745000D01*
X94390000Y-139345000D02*
X94390000Y-137745000D01*
X94790000Y-139345000D02*
X94390000Y-139345000D01*
X94790000Y-141545000D02*
X94790000Y-139345000D01*
X106801309Y-118767056D02*
X109761309Y-118767056D01*
X106801309Y-120227056D02*
X106801309Y-118767056D01*
X109761309Y-118767056D02*
X109761309Y-120227056D01*
X109761309Y-120227056D02*
X106801309Y-120227056D01*
X178180000Y-144905000D02*
X178180000Y-147105000D01*
X178180000Y-147105000D02*
X183280000Y-147105000D01*
X178580000Y-143305000D02*
X178580000Y-144905000D01*
X178580000Y-144905000D02*
X178180000Y-144905000D01*
X182880000Y-143305000D02*
X178580000Y-143305000D01*
X182880000Y-144905000D02*
X182880000Y-143305000D01*
X183280000Y-144905000D02*
X182880000Y-144905000D01*
X183280000Y-147105000D02*
X183280000Y-144905000D01*
X141692400Y-102723200D02*
X143092400Y-102723200D01*
X141692400Y-103423200D02*
X141692400Y-102723200D01*
X143092400Y-102723200D02*
X143092400Y-103423200D01*
X143092400Y-103423200D02*
X141692400Y-103423200D01*
X150354000Y-104080600D02*
X154954000Y-104080600D01*
X150354000Y-106180600D02*
X150354000Y-104080600D01*
X154954000Y-104080600D02*
X154954000Y-106180600D01*
X154954000Y-106180600D02*
X150354000Y-106180600D01*
X115762223Y-116172901D02*
X115762223Y-119572901D01*
X115762223Y-119572901D02*
X119602223Y-119572901D01*
X119602223Y-116172901D02*
X115762223Y-116172901D01*
X119602223Y-119572901D02*
X119602223Y-116172901D01*
X82271600Y-129102800D02*
X82271600Y-131602800D01*
X82271600Y-129102800D02*
X85571600Y-129102800D01*
X85571600Y-131602800D02*
X82271600Y-131602800D01*
X85571600Y-131602800D02*
X85571600Y-129102800D01*
X142110000Y-121230000D02*
X142810000Y-121230000D01*
X142110000Y-122630000D02*
X142110000Y-121230000D01*
X142810000Y-121230000D02*
X142810000Y-122630000D01*
X142810000Y-122630000D02*
X142110000Y-122630000D01*
X81310000Y-138810000D02*
X81310000Y-141810000D01*
X81310000Y-141810000D02*
X90310000Y-141810000D01*
X90310000Y-138810000D02*
X81310000Y-138810000D01*
X90310000Y-141810000D02*
X90310000Y-138810000D01*
X136358400Y-101402400D02*
X137758400Y-101402400D01*
X136358400Y-102102400D02*
X136358400Y-101402400D01*
X137758400Y-101402400D02*
X137758400Y-102102400D01*
X137758400Y-102102400D02*
X136358400Y-102102400D01*
X134625600Y-108544094D02*
X135325600Y-108544094D01*
X134625600Y-109944094D02*
X134625600Y-108544094D01*
X135325600Y-108544094D02*
X135325600Y-109944094D01*
X135325600Y-109944094D02*
X134625600Y-109944094D01*
X115752423Y-115414701D02*
X117152423Y-115414701D01*
X115752423Y-116114701D02*
X115752423Y-115414701D01*
X117152423Y-115414701D02*
X117152423Y-116114701D01*
X117152423Y-116114701D02*
X115752423Y-116114701D01*
X137690000Y-120220000D02*
X137690000Y-123620000D01*
X137690000Y-123620000D02*
X141890000Y-123620000D01*
X141890000Y-120220000D02*
X137690000Y-120220000D01*
X141890000Y-123620000D02*
X141890000Y-120220000D01*
X143121900Y-110017294D02*
X143821900Y-110017294D01*
X143121900Y-111417294D02*
X143121900Y-110017294D01*
X143821900Y-110017294D02*
X143821900Y-111417294D01*
X143821900Y-111417294D02*
X143121900Y-111417294D01*
X135621800Y-103155000D02*
X137021800Y-103155000D01*
X135621800Y-103855000D02*
X135621800Y-103155000D01*
X137021800Y-103155000D02*
X137021800Y-103855000D01*
X137021800Y-103855000D02*
X135621800Y-103855000D01*
X133529600Y-137246800D02*
X136929600Y-137246800D01*
X133529600Y-139206800D02*
X133529600Y-137246800D01*
X136929600Y-137246800D02*
X136929600Y-139206800D01*
X136929600Y-139206800D02*
X133529600Y-139206800D01*
X170008456Y-134734581D02*
X171468456Y-134734581D01*
X170008456Y-137694581D02*
X170008456Y-134734581D01*
X171468456Y-134734581D02*
X171468456Y-137694581D01*
X171468456Y-137694581D02*
X170008456Y-137694581D01*
X136980000Y-119080000D02*
X138800000Y-119080000D01*
X136980000Y-120000000D02*
X136980000Y-119080000D01*
X138800000Y-119080000D02*
X138800000Y-120000000D01*
X138800000Y-120000000D02*
X136980000Y-120000000D01*
X83825600Y-131949400D02*
X84525600Y-131949400D01*
X83825600Y-133349400D02*
X83825600Y-131949400D01*
X84525600Y-131949400D02*
X84525600Y-133349400D01*
X84525600Y-133349400D02*
X83825600Y-133349400D01*
X126641400Y-111206100D02*
X126641400Y-108006100D01*
X126641400Y-111206100D02*
X129441400Y-111206100D01*
X129441400Y-108006100D02*
X126641400Y-108006100D01*
X129441400Y-111206100D02*
X129441400Y-108006100D01*
X158945629Y-150497756D02*
X160345629Y-150497756D01*
X158945629Y-151197756D02*
X158945629Y-150497756D01*
X160345629Y-150497756D02*
X160345629Y-151197756D01*
X160345629Y-151197756D02*
X158945629Y-151197756D01*
X111850623Y-116172901D02*
X111850623Y-119572901D01*
X111850623Y-119572901D02*
X115690623Y-119572901D01*
X115690623Y-116172901D02*
X111850623Y-116172901D01*
X115690623Y-119572901D02*
X115690623Y-116172901D01*
X132853200Y-122916200D02*
X134253200Y-122916200D01*
X132853200Y-123616200D02*
X132853200Y-122916200D01*
X134253200Y-122916200D02*
X134253200Y-123616200D01*
X134253200Y-123616200D02*
X132853200Y-123616200D01*
X180935400Y-140950200D02*
X182335400Y-140950200D01*
X180935400Y-141650200D02*
X180935400Y-140950200D01*
X182335400Y-140950200D02*
X182335400Y-141650200D01*
X182335400Y-141650200D02*
X180935400Y-141650200D01*
X107985401Y-117627059D02*
X109385401Y-117627059D01*
X107985401Y-118327059D02*
X107985401Y-117627059D01*
X109385401Y-117627059D02*
X109385401Y-118327059D01*
X109385401Y-118327059D02*
X107985401Y-118327059D01*
X143450000Y-120600000D02*
X144850000Y-120600000D01*
X143450000Y-121300000D02*
X143450000Y-120600000D01*
X144850000Y-120600000D02*
X144850000Y-121300000D01*
X144850000Y-121300000D02*
X143450000Y-121300000D01*
X142715500Y-107957294D02*
X143415500Y-107957294D01*
X142715500Y-109357294D02*
X142715500Y-107957294D01*
X143415500Y-107957294D02*
X143415500Y-109357294D01*
X143415500Y-109357294D02*
X142715500Y-109357294D01*
X152973200Y-108924000D02*
X154373200Y-108924000D01*
X152973200Y-109624000D02*
X152973200Y-108924000D01*
X154373200Y-108924000D02*
X154373200Y-109624000D01*
X154373200Y-109624000D02*
X152973200Y-109624000D01*
X140820000Y-119070000D02*
X142220000Y-119070000D01*
X140820000Y-119770000D02*
X140820000Y-119070000D01*
X142220000Y-119070000D02*
X142220000Y-119770000D01*
X142220000Y-119770000D02*
X140820000Y-119770000D01*
X116444000Y-140438400D02*
X116444000Y-143838400D01*
X116444000Y-143838400D02*
X120284000Y-143838400D01*
X120284000Y-140438400D02*
X116444000Y-140438400D01*
X120284000Y-143838400D02*
X120284000Y-140438400D01*
X119875902Y-113356302D02*
X120575902Y-113356302D01*
X119875902Y-114756302D02*
X119875902Y-113356302D01*
X120575902Y-113356302D02*
X120575902Y-114756302D01*
X120575902Y-114756302D02*
X119875902Y-114756302D01*
X182408600Y-140950200D02*
X183808600Y-140950200D01*
X182408600Y-141650200D02*
X182408600Y-140950200D01*
X183808600Y-140950200D02*
X183808600Y-141650200D01*
X183808600Y-141650200D02*
X182408600Y-141650200D01*
X138397500Y-107959894D02*
X139097500Y-107959894D01*
X138397500Y-109359894D02*
X138397500Y-107959894D01*
X139097500Y-107959894D02*
X139097500Y-109359894D01*
X139097500Y-109359894D02*
X138397500Y-109359894D01*
X119420000Y-98728400D02*
X119420000Y-101728400D01*
X119420000Y-101728400D02*
X124420000Y-101728400D01*
X124420000Y-98728400D02*
X119420000Y-98728400D01*
X124420000Y-101728400D02*
X124420000Y-98728400D01*
X138860000Y-119080000D02*
X140680000Y-119080000D01*
X138860000Y-120000000D02*
X138860000Y-119080000D01*
X140680000Y-119080000D02*
X140680000Y-120000000D01*
X140680000Y-120000000D02*
X138860000Y-120000000D01*
X121849200Y-104952800D02*
G75*
G02*
X119349200Y-104952800I-1250000J0D01*
G01*
X119349200Y-104952800D02*
G75*
G02*
X121849200Y-104952800I1250000J0D01*
G01*
X140886700Y-107959894D02*
X141586700Y-107959894D01*
X140886700Y-109359894D02*
X140886700Y-107959894D01*
X141586700Y-107959894D02*
X141586700Y-109359894D01*
X141586700Y-109359894D02*
X140886700Y-109359894D01*
X126929200Y-104724200D02*
G75*
G02*
X124429200Y-104724200I-1250000J0D01*
G01*
X124429200Y-104724200D02*
G75*
G02*
X126929200Y-104724200I1250000J0D01*
G01*
X82725375Y-132849089D02*
X83425375Y-132849089D01*
X82725375Y-134249089D02*
X82725375Y-132849089D01*
X83425375Y-132849089D02*
X83425375Y-134249089D01*
X83425375Y-134249089D02*
X82725375Y-134249089D01*
X126604800Y-107249500D02*
X128004800Y-107249500D01*
X126604800Y-107949500D02*
X126604800Y-107249500D01*
X128004800Y-107249500D02*
X128004800Y-107949500D01*
X128004800Y-107949500D02*
X126604800Y-107949500D01*
X137107000Y-102813000D02*
X137107000Y-105213000D01*
X137107000Y-105213000D02*
X140007000Y-105213000D01*
X140007000Y-102813000D02*
X137107000Y-102813000D01*
X140007000Y-105213000D02*
X140007000Y-102813000D01*
X142090200Y-125623400D02*
X142090200Y-131983400D01*
X142090200Y-131983400D02*
X145590200Y-131983400D01*
X145590200Y-125623400D02*
X142090200Y-125623400D01*
X145590200Y-131983400D02*
X145590200Y-125623400D01*
X180935400Y-138018200D02*
X182335400Y-138018200D01*
X180935400Y-140518200D02*
X180935400Y-138018200D01*
X182335400Y-138018200D02*
X182335400Y-140518200D01*
X182335400Y-140518200D02*
X180935400Y-140518200D01*
X113735800Y-140600200D02*
X116235800Y-140600200D01*
X113735800Y-142000200D02*
X113735800Y-140600200D01*
X116235800Y-140600200D02*
X116235800Y-142000200D01*
X116235800Y-142000200D02*
X113735800Y-142000200D01*
X128052600Y-107249500D02*
X129452600Y-107249500D01*
X128052600Y-107949500D02*
X128052600Y-107249500D01*
X129452600Y-107249500D02*
X129452600Y-107949500D01*
X129452600Y-107949500D02*
X128052600Y-107949500D01*
X138330000Y-118280000D02*
X139730000Y-118280000D01*
X138330000Y-118980000D02*
X138330000Y-118280000D01*
X139730000Y-118280000D02*
X139730000Y-118980000D01*
X139730000Y-118980000D02*
X138330000Y-118980000D01*
X96583652Y-130552363D02*
X97283652Y-130552363D01*
X96583652Y-131952363D02*
X96583652Y-130552363D01*
X97283652Y-130552363D02*
X97283652Y-131952363D01*
X97283652Y-131952363D02*
X96583652Y-131952363D01*
X132898400Y-137501400D02*
X133598400Y-137501400D01*
X132898400Y-138901400D02*
X132898400Y-137501400D01*
X133598400Y-137501400D02*
X133598400Y-138901400D01*
X133598400Y-138901400D02*
X132898400Y-138901400D01*
X111085400Y-141040800D02*
X112485400Y-141040800D01*
X111085400Y-143540800D02*
X111085400Y-141040800D01*
X112485400Y-141040800D02*
X112485400Y-143540800D01*
X112485400Y-143540800D02*
X111085400Y-143540800D01*
X128063200Y-111262700D02*
X129463200Y-111262700D01*
X128063200Y-111962700D02*
X128063200Y-111262700D01*
X129463200Y-111262700D02*
X129463200Y-111962700D01*
X129463200Y-111962700D02*
X128063200Y-111962700D01*
X143520000Y-105200000D02*
X144220000Y-105200000D01*
X143520000Y-106600000D02*
X143520000Y-105200000D01*
X144220000Y-105200000D02*
X144220000Y-106600000D01*
X144220000Y-106600000D02*
X143520000Y-106600000D01*
X150763400Y-111514800D02*
X152163400Y-111514800D01*
X150763400Y-112214800D02*
X150763400Y-111514800D01*
X152163400Y-111514800D02*
X152163400Y-112214800D01*
X152163400Y-112214800D02*
X150763400Y-112214800D01*
X159140000Y-106990000D02*
X163040000Y-106990000D01*
X159140000Y-109690000D02*
X159140000Y-106990000D01*
X163040000Y-106990000D02*
X163040000Y-109690000D01*
X163040000Y-109690000D02*
X159140000Y-109690000D01*
X131907800Y-103338400D02*
X132607800Y-103338400D01*
X131907800Y-104738400D02*
X131907800Y-103338400D01*
X132607800Y-103338400D02*
X132607800Y-104738400D01*
X132607800Y-104738400D02*
X131907800Y-104738400D01*
X159518077Y-114052950D02*
X160918077Y-114052950D01*
X159518077Y-114752950D02*
X159518077Y-114052950D01*
X160918077Y-114052950D02*
X160918077Y-114752950D01*
X160918077Y-114752950D02*
X159518077Y-114752950D01*
X121808200Y-108642400D02*
X121808200Y-112642400D01*
X123708200Y-108642400D02*
X121808200Y-108642400D01*
X123708200Y-108642400D02*
X123708200Y-112642400D01*
X123708200Y-112642400D02*
X121808200Y-112642400D01*
X82653941Y-135059076D02*
X83353941Y-135059076D01*
X82653941Y-136459076D02*
X82653941Y-135059076D01*
X83353941Y-135059076D02*
X83353941Y-136459076D01*
X83353941Y-136459076D02*
X82653941Y-136459076D01*
X158878348Y-114864226D02*
X160278348Y-114864226D01*
X158878348Y-115564226D02*
X158878348Y-114864226D01*
X160278348Y-114864226D02*
X160278348Y-115564226D01*
X160278348Y-115564226D02*
X158878348Y-115564226D01*
X121544600Y-141895600D02*
X122244600Y-141895600D01*
X121544600Y-143295600D02*
X121544600Y-141895600D01*
X122244600Y-141895600D02*
X122244600Y-143295600D01*
X122244600Y-143295600D02*
X121544600Y-143295600D01*
X175296600Y-138638800D02*
X176696600Y-138638800D01*
X175296600Y-139338800D02*
X175296600Y-138638800D01*
X176696600Y-138638800D02*
X176696600Y-139338800D01*
X176696600Y-139338800D02*
X175296600Y-139338800D01*
X156802026Y-106574670D02*
X158762026Y-106574670D01*
X156802026Y-109974670D02*
X156802026Y-106574670D01*
X158762026Y-106574670D02*
X158762026Y-109974670D01*
X158762026Y-109974670D02*
X156802026Y-109974670D01*
X140676400Y-101961200D02*
X142076400Y-101961200D01*
X140676400Y-102661200D02*
X140676400Y-101961200D01*
X142076400Y-101961200D02*
X142076400Y-102661200D01*
X142076400Y-102661200D02*
X140676400Y-102661200D01*
X119669023Y-116182301D02*
X120369023Y-116182301D01*
X119669023Y-117582301D02*
X119669023Y-116182301D01*
X120369023Y-116182301D02*
X120369023Y-117582301D01*
X120369023Y-117582301D02*
X119669023Y-117582301D01*
X134326400Y-122916200D02*
X135726400Y-122916200D01*
X134326400Y-123616200D02*
X134326400Y-122916200D01*
X135726400Y-122916200D02*
X135726400Y-123616200D01*
X135726400Y-123616200D02*
X134326400Y-123616200D01*
M02*
