G04 #@! TF.GenerationSoftware,KiCad,Pcbnew,8.0.2*
G04 #@! TF.CreationDate,2024-07-17T21:38:57-07:00*
G04 #@! TF.ProjectId,progcc_3.2_main,70726f67-6363-45f3-932e-325f6d61696e,1*
G04 #@! TF.SameCoordinates,Original*
G04 #@! TF.FileFunction,Soldermask,Bot*
G04 #@! TF.FilePolarity,Negative*
%FSLAX46Y46*%
G04 Gerber Fmt 4.6, Leading zero omitted, Abs format (unit mm)*
G04 Created by KiCad (PCBNEW 8.0.2) date 2024-07-17 21:38:57*
%MOMM*%
%LPD*%
G01*
G04 APERTURE LIST*
%ADD10C,1.175000*%
%ADD11O,0.400000X0.900000*%
%ADD12R,2.000000X2.000000*%
%ADD13R,1.350000X1.350000*%
%ADD14O,1.350000X1.350000*%
%ADD15C,2.450000*%
%ADD16C,1.600000*%
%ADD17C,1.250000*%
%ADD18C,2.000000*%
%ADD19C,0.700000*%
%ADD20C,0.650000*%
%ADD21O,1.000000X1.600000*%
%ADD22R,1.500000X1.500000*%
G04 APERTURE END LIST*
D10*
X155120900Y-102463600D02*
G75*
G02*
X153945900Y-102463600I-587500J0D01*
G01*
X153945900Y-102463600D02*
G75*
G02*
X155120900Y-102463600I587500J0D01*
G01*
X149820900Y-102463600D02*
G75*
G02*
X148645900Y-102463600I-587500J0D01*
G01*
X148645900Y-102463600D02*
G75*
G02*
X149820900Y-102463600I587500J0D01*
G01*
X147170900Y-102463600D02*
G75*
G02*
X145995900Y-102463600I-587500J0D01*
G01*
X145995900Y-102463600D02*
G75*
G02*
X147170900Y-102463600I587500J0D01*
G01*
X152470900Y-102463600D02*
G75*
G02*
X151295900Y-102463600I-587500J0D01*
G01*
X151295900Y-102463600D02*
G75*
G02*
X152470900Y-102463600I587500J0D01*
G01*
D11*
X126333519Y-101965000D03*
X130633519Y-101965000D03*
D12*
X176936400Y-146021300D03*
X91623896Y-135440000D03*
D13*
X82810000Y-140310000D03*
D14*
X84810000Y-140310000D03*
X86810000Y-140310000D03*
X88810000Y-140310000D03*
D15*
X153320200Y-133697000D03*
X153320200Y-146347000D03*
D16*
X158320200Y-135722000D03*
X158320200Y-144322000D03*
D15*
X163320200Y-133697000D03*
X163320200Y-146347000D03*
D17*
X152670200Y-136772000D03*
X152670200Y-143272000D03*
X148170200Y-136772000D03*
X148170200Y-143272000D03*
D18*
X155820200Y-148722000D03*
X158320200Y-148722000D03*
X160820200Y-148722000D03*
X167020200Y-142522000D03*
X167020200Y-140022000D03*
X167020200Y-137522000D03*
D13*
X122920000Y-100228400D03*
D14*
X120920000Y-100228400D03*
D19*
X142060000Y-98275000D03*
X134710000Y-98275000D03*
D20*
X135660000Y-97625000D03*
X136060000Y-96925000D03*
X136860000Y-96925000D03*
X137260000Y-97625000D03*
X137660000Y-96925000D03*
X138060000Y-97625000D03*
X138860000Y-97625000D03*
X139260000Y-96925000D03*
X139660000Y-97625000D03*
X140060000Y-96925000D03*
X140860000Y-96925000D03*
X141260000Y-97625000D03*
D21*
X142950000Y-92635000D03*
X142590000Y-97025000D03*
X134330000Y-97025000D03*
X133970000Y-92635000D03*
D15*
X91377000Y-112107600D03*
X91377000Y-124757600D03*
D16*
X96377000Y-114132600D03*
X96377000Y-122732600D03*
D15*
X101377000Y-112107600D03*
X101377000Y-124757600D03*
D17*
X90727000Y-115182600D03*
X90727000Y-121682600D03*
X86227000Y-115182600D03*
X86227000Y-121682600D03*
D18*
X93877000Y-127132600D03*
X96377000Y-127132600D03*
X98877000Y-127132600D03*
X105077000Y-120932600D03*
X105077000Y-118432600D03*
X105077000Y-115932600D03*
D12*
X95740000Y-135410000D03*
X184556400Y-145995900D03*
D22*
X88810600Y-139627400D03*
X86810600Y-139602400D03*
X84810600Y-139627400D03*
M02*
