G04 #@! TF.GenerationSoftware,KiCad,Pcbnew,8.0.3*
G04 #@! TF.CreationDate,2024-06-28T23:22:09-05:00*
G04 #@! TF.ProjectId,procon_gcc_main_pcb,70726f63-6f6e-45f6-9763-635f6d61696e,1*
G04 #@! TF.SameCoordinates,Original*
G04 #@! TF.FileFunction,Paste,Top*
G04 #@! TF.FilePolarity,Positive*
%FSLAX46Y46*%
G04 Gerber Fmt 4.6, Leading zero omitted, Abs format (unit mm)*
G04 Created by KiCad (PCBNEW 8.0.3) date 2024-06-28 23:22:09*
%MOMM*%
%LPD*%
G01*
G04 APERTURE LIST*
G04 Aperture macros list*
%AMRoundRect*
0 Rectangle with rounded corners*
0 $1 Rounding radius*
0 $2 $3 $4 $5 $6 $7 $8 $9 X,Y pos of 4 corners*
0 Add a 4 corners polygon primitive as box body*
4,1,4,$2,$3,$4,$5,$6,$7,$8,$9,$2,$3,0*
0 Add four circle primitives for the rounded corners*
1,1,$1+$1,$2,$3*
1,1,$1+$1,$4,$5*
1,1,$1+$1,$6,$7*
1,1,$1+$1,$8,$9*
0 Add four rect primitives between the rounded corners*
20,1,$1+$1,$2,$3,$4,$5,0*
20,1,$1+$1,$4,$5,$6,$7,0*
20,1,$1+$1,$6,$7,$8,$9,0*
20,1,$1+$1,$8,$9,$2,$3,0*%
G04 Aperture macros list end*
%ADD10C,0.010000*%
%ADD11RoundRect,0.079500X-0.079500X-0.100500X0.079500X-0.100500X0.079500X0.100500X-0.079500X0.100500X0*%
%ADD12RoundRect,0.250000X-0.250000X-0.475000X0.250000X-0.475000X0.250000X0.475000X-0.250000X0.475000X0*%
%ADD13R,0.950000X1.700000*%
%ADD14R,0.900000X1.700000*%
%ADD15R,1.200000X0.600000*%
%ADD16R,1.000000X1.000000*%
%ADD17RoundRect,0.079500X-0.100500X0.079500X-0.100500X-0.079500X0.100500X-0.079500X0.100500X0.079500X0*%
%ADD18R,0.370000X0.370000*%
%ADD19RoundRect,0.225000X-0.250000X0.225000X-0.250000X-0.225000X0.250000X-0.225000X0.250000X0.225000X0*%
%ADD20RoundRect,0.237500X-0.250000X-0.237500X0.250000X-0.237500X0.250000X0.237500X-0.250000X0.237500X0*%
%ADD21RoundRect,0.140000X0.140000X0.170000X-0.140000X0.170000X-0.140000X-0.170000X0.140000X-0.170000X0*%
%ADD22RoundRect,0.079500X0.100500X-0.079500X0.100500X0.079500X-0.100500X0.079500X-0.100500X-0.079500X0*%
%ADD23RoundRect,0.237500X-0.237500X0.250000X-0.237500X-0.250000X0.237500X-0.250000X0.237500X0.250000X0*%
%ADD24RoundRect,0.100000X0.100000X-0.712500X0.100000X0.712500X-0.100000X0.712500X-0.100000X-0.712500X0*%
%ADD25RoundRect,0.237500X-0.237500X0.300000X-0.237500X-0.300000X0.237500X-0.300000X0.237500X0.300000X0*%
%ADD26R,0.400000X0.650000*%
%ADD27RoundRect,0.135000X0.185000X-0.135000X0.185000X0.135000X-0.185000X0.135000X-0.185000X-0.135000X0*%
%ADD28RoundRect,0.237500X0.300000X0.237500X-0.300000X0.237500X-0.300000X-0.237500X0.300000X-0.237500X0*%
%ADD29RoundRect,0.250000X0.250000X0.250000X-0.250000X0.250000X-0.250000X-0.250000X0.250000X-0.250000X0*%
%ADD30RoundRect,0.079500X0.079500X0.100500X-0.079500X0.100500X-0.079500X-0.100500X0.079500X-0.100500X0*%
%ADD31RoundRect,0.249999X-0.395001X-0.395001X0.395001X-0.395001X0.395001X0.395001X-0.395001X0.395001X0*%
%ADD32RoundRect,0.050000X-0.387500X-0.050000X0.387500X-0.050000X0.387500X0.050000X-0.387500X0.050000X0*%
%ADD33RoundRect,0.050000X-0.050000X-0.387500X0.050000X-0.387500X0.050000X0.387500X-0.050000X0.387500X0*%
%ADD34R,0.400000X0.800000*%
%ADD35R,0.800000X0.400000*%
%ADD36R,1.450000X1.450000*%
%ADD37R,0.700000X0.700000*%
%ADD38RoundRect,0.140000X0.170000X-0.140000X0.170000X0.140000X-0.170000X0.140000X-0.170000X-0.140000X0*%
%ADD39RoundRect,0.250000X-0.250000X-0.250000X0.250000X-0.250000X0.250000X0.250000X-0.250000X0.250000X0*%
%ADD40RoundRect,0.007200X-0.112800X0.292800X-0.112800X-0.292800X0.112800X-0.292800X0.112800X0.292800X0*%
%ADD41RoundRect,0.225000X0.225000X0.250000X-0.225000X0.250000X-0.225000X-0.250000X0.225000X-0.250000X0*%
%ADD42R,0.500000X1.000000*%
%ADD43R,1.200000X1.700000*%
%ADD44R,0.300000X0.400000*%
%ADD45R,1.600000X0.200000*%
%ADD46RoundRect,0.237500X-0.300000X-0.237500X0.300000X-0.237500X0.300000X0.237500X-0.300000X0.237500X0*%
%ADD47RoundRect,0.250000X-0.450000X-0.425000X0.450000X-0.425000X0.450000X0.425000X-0.450000X0.425000X0*%
%ADD48RoundRect,0.150000X-0.587500X-0.150000X0.587500X-0.150000X0.587500X0.150000X-0.587500X0.150000X0*%
%ADD49R,1.900000X0.400000*%
%ADD50RoundRect,0.225000X-0.225000X-0.250000X0.225000X-0.250000X0.225000X0.250000X-0.225000X0.250000X0*%
%ADD51R,1.300000X0.600000*%
%ADD52R,2.300000X3.200000*%
%ADD53RoundRect,0.150000X0.587500X0.150000X-0.587500X0.150000X-0.587500X-0.150000X0.587500X-0.150000X0*%
%ADD54R,0.500000X0.550000*%
%ADD55RoundRect,0.140000X-0.170000X0.140000X-0.170000X-0.140000X0.170000X-0.140000X0.170000X0.140000X0*%
%ADD56R,0.300000X1.300000*%
%ADD57R,1.800000X2.200000*%
%ADD58RoundRect,0.200000X-0.275000X0.200000X-0.275000X-0.200000X0.275000X-0.200000X0.275000X0.200000X0*%
%ADD59R,0.300000X0.900000*%
%ADD60RoundRect,0.050000X0.075000X-0.225000X0.075000X0.225000X-0.075000X0.225000X-0.075000X-0.225000X0*%
%ADD61RoundRect,0.050000X0.050000X-0.225000X0.050000X0.225000X-0.050000X0.225000X-0.050000X-0.225000X0*%
%ADD62RoundRect,0.050000X0.250000X-0.100000X0.250000X0.100000X-0.250000X0.100000X-0.250000X-0.100000X0*%
%ADD63R,0.300000X0.300000*%
%ADD64C,0.165000*%
%ADD65R,0.745000X0.280000*%
%ADD66R,0.280000X0.745000*%
%ADD67RoundRect,0.250000X-0.375000X-0.850000X0.375000X-0.850000X0.375000X0.850000X-0.375000X0.850000X0*%
%ADD68RoundRect,0.250000X-0.250000X0.250000X-0.250000X-0.250000X0.250000X-0.250000X0.250000X0.250000X0*%
%ADD69RoundRect,0.200000X0.275000X-0.200000X0.275000X0.200000X-0.275000X0.200000X-0.275000X-0.200000X0*%
%ADD70RoundRect,0.250000X-0.475000X0.250000X-0.475000X-0.250000X0.475000X-0.250000X0.475000X0.250000X0*%
G04 APERTURE END LIST*
D10*
X134919200Y-133223800D02*
X134069200Y-133223800D01*
X133469200Y-132623800D01*
X133469200Y-131773800D01*
X134919200Y-131773800D01*
X134919200Y-133223800D01*
G36*
X134919200Y-133223800D02*
G01*
X134069200Y-133223800D01*
X133469200Y-132623800D01*
X133469200Y-131773800D01*
X134919200Y-131773800D01*
X134919200Y-133223800D01*
G37*
X159040000Y-111875000D02*
X158700000Y-111875000D01*
X158700000Y-111625000D01*
X159040000Y-111625000D01*
X159040000Y-111875000D01*
G36*
X159040000Y-111875000D02*
G01*
X158700000Y-111875000D01*
X158700000Y-111625000D01*
X159040000Y-111625000D01*
X159040000Y-111875000D01*
G37*
X159040000Y-112375000D02*
X158700000Y-112375000D01*
X158700000Y-112125000D01*
X159040000Y-112125000D01*
X159040000Y-112375000D01*
G36*
X159040000Y-112375000D02*
G01*
X158700000Y-112375000D01*
X158700000Y-112125000D01*
X159040000Y-112125000D01*
X159040000Y-112375000D01*
G37*
X160300000Y-112750000D02*
X159240000Y-112750000D01*
X159240000Y-111250000D01*
X160300000Y-111250000D01*
X160300000Y-112750000D01*
G36*
X160300000Y-112750000D02*
G01*
X159240000Y-112750000D01*
X159240000Y-111250000D01*
X160300000Y-111250000D01*
X160300000Y-112750000D01*
G37*
X161560000Y-112750000D02*
X160500000Y-112750000D01*
X160500000Y-111250000D01*
X161560000Y-111250000D01*
X161560000Y-112750000D01*
G36*
X161560000Y-112750000D02*
G01*
X160500000Y-112750000D01*
X160500000Y-111250000D01*
X161560000Y-111250000D01*
X161560000Y-112750000D01*
G37*
X162100000Y-111875000D02*
X161760000Y-111875000D01*
X161760000Y-111625000D01*
X162100000Y-111625000D01*
X162100000Y-111875000D01*
G36*
X162100000Y-111875000D02*
G01*
X161760000Y-111875000D01*
X161760000Y-111625000D01*
X162100000Y-111625000D01*
X162100000Y-111875000D01*
G37*
X162100000Y-112375000D02*
X161760000Y-112375000D01*
X161760000Y-112125000D01*
X162100000Y-112125000D01*
X162100000Y-112375000D01*
G36*
X162100000Y-112375000D02*
G01*
X161760000Y-112375000D01*
X161760000Y-112125000D01*
X162100000Y-112125000D01*
X162100000Y-112375000D01*
G37*
D11*
X85335000Y-137280000D03*
X86025000Y-137280000D03*
D12*
X163320000Y-110770000D03*
X165220000Y-110770000D03*
D13*
X127208519Y-102740000D03*
D14*
X128483519Y-102740000D03*
D13*
X129758519Y-102740000D03*
D15*
X126583519Y-100840000D03*
X130383519Y-100840000D03*
D16*
X105477000Y-119382600D03*
X105477000Y-117482600D03*
X102977000Y-118432600D03*
D17*
X139611100Y-108518094D03*
X139611100Y-109208094D03*
D18*
X166985200Y-133857000D03*
X167655200Y-133857000D03*
X167655200Y-133187000D03*
X166985200Y-133187000D03*
D19*
X120018689Y-123258755D03*
X120018689Y-124808755D03*
D20*
X155527500Y-113670000D03*
X157352500Y-113670000D03*
D21*
X154356400Y-110163000D03*
X153396400Y-110163000D03*
D22*
X170739623Y-139313477D03*
X170739623Y-138623477D03*
D23*
X142350000Y-104987500D03*
X142350000Y-106812500D03*
D24*
X111750200Y-127791700D03*
X112400200Y-127791700D03*
X113050200Y-127791700D03*
X113700200Y-127791700D03*
X113700200Y-123566700D03*
X113050200Y-123566700D03*
X112400200Y-123566700D03*
X111750200Y-123566700D03*
D25*
X95317457Y-130017891D03*
X95317457Y-131742891D03*
D26*
X124546600Y-110556100D03*
X125196600Y-110556100D03*
X125846600Y-110556100D03*
X125846600Y-108656100D03*
X125196600Y-108656100D03*
X124546600Y-108656100D03*
D27*
X150418800Y-126290800D03*
X150418800Y-125270800D03*
D11*
X142782000Y-133583600D03*
X143472000Y-133583600D03*
D28*
X163312504Y-150698757D03*
X161587504Y-150698757D03*
D18*
X87042000Y-112267600D03*
X87712000Y-112267600D03*
X87712000Y-111597600D03*
X87042000Y-111597600D03*
D29*
X149352626Y-108746930D03*
X146852626Y-108746930D03*
D30*
X127685800Y-111612700D03*
X126995800Y-111612700D03*
D22*
X134950900Y-104909294D03*
X134950900Y-104219294D03*
X152550000Y-114655000D03*
X152550000Y-113965000D03*
D31*
X137985700Y-113308094D03*
X137985700Y-114908094D03*
X139585700Y-113308094D03*
X139585700Y-114908094D03*
D32*
X135348200Y-111508094D03*
X135348200Y-111908094D03*
X135348200Y-112308094D03*
X135348200Y-112708094D03*
X135348200Y-113108094D03*
X135348200Y-113508094D03*
X135348200Y-113908094D03*
X135348200Y-114308094D03*
X135348200Y-114708094D03*
X135348200Y-115108094D03*
X135348200Y-115508094D03*
X135348200Y-115908094D03*
X135348200Y-116308094D03*
X135348200Y-116708094D03*
D33*
X136185700Y-117545594D03*
X136585700Y-117545594D03*
X136985700Y-117545594D03*
X137385700Y-117545594D03*
X137785700Y-117545594D03*
X138185700Y-117545594D03*
X138585700Y-117545594D03*
X138985700Y-117545594D03*
X139385700Y-117545594D03*
X139785700Y-117545594D03*
X140185700Y-117545594D03*
X140585700Y-117545594D03*
X140985700Y-117545594D03*
X141385700Y-117545594D03*
D32*
X142223200Y-116708094D03*
X142223200Y-116308094D03*
X142223200Y-115908094D03*
X142223200Y-115508094D03*
X142223200Y-115108094D03*
X142223200Y-114708094D03*
X142223200Y-114308094D03*
X142223200Y-113908094D03*
X142223200Y-113508094D03*
X142223200Y-113108094D03*
X142223200Y-112708094D03*
X142223200Y-112308094D03*
X142223200Y-111908094D03*
X142223200Y-111508094D03*
D33*
X141385700Y-110670594D03*
X140985700Y-110670594D03*
X140585700Y-110670594D03*
X140185700Y-110670594D03*
X139785700Y-110670594D03*
X139385700Y-110670594D03*
X138985700Y-110670594D03*
X138585700Y-110670594D03*
X138185700Y-110670594D03*
X137785700Y-110670594D03*
X137385700Y-110670594D03*
X136985700Y-110670594D03*
X136585700Y-110670594D03*
X136185700Y-110670594D03*
D18*
X105042000Y-125267600D03*
X105712000Y-125267600D03*
X105712000Y-124597600D03*
X105042000Y-124597600D03*
D34*
X132144200Y-136448800D03*
X132944200Y-136448800D03*
X133744200Y-136448800D03*
X134544200Y-136448800D03*
X135344200Y-136448800D03*
X136144200Y-136448800D03*
X136944200Y-136448800D03*
X137744200Y-136448800D03*
X138544200Y-136448800D03*
X139344200Y-136448800D03*
X140144200Y-136448800D03*
D35*
X141044200Y-135348800D03*
X141044200Y-134548800D03*
X141044200Y-133748800D03*
X141044200Y-132948800D03*
X141044200Y-132148800D03*
X141044200Y-131348800D03*
X141044200Y-130548800D03*
X141044200Y-129748800D03*
X141044200Y-128948800D03*
X141044200Y-128148800D03*
X141044200Y-127348800D03*
X141044200Y-126548800D03*
X141044200Y-125748800D03*
D34*
X140144200Y-124648800D03*
X139344200Y-124648800D03*
X138544200Y-124648800D03*
X137744200Y-124648800D03*
X136944200Y-124648800D03*
X136144200Y-124648800D03*
X135344200Y-124648800D03*
X134544200Y-124648800D03*
X133744200Y-124648800D03*
X132944200Y-124648800D03*
X132144200Y-124648800D03*
D35*
X131244200Y-125748800D03*
X131244200Y-126548800D03*
X131244200Y-127348800D03*
X131244200Y-128148800D03*
X131244200Y-128948800D03*
X131244200Y-129748800D03*
X131244200Y-130548800D03*
X131244200Y-131348800D03*
X131244200Y-132148800D03*
X131244200Y-132948800D03*
X131244200Y-133748800D03*
X131244200Y-134548800D03*
X131244200Y-135348800D03*
D36*
X136144200Y-130548800D03*
D37*
X131194200Y-124598800D03*
X141094200Y-124598800D03*
X141094200Y-136498800D03*
X131194200Y-136498800D03*
D36*
X136144200Y-132498800D03*
X138094200Y-132498800D03*
X138094200Y-130548800D03*
X138094200Y-128598800D03*
X136144200Y-128598800D03*
X134194200Y-128598800D03*
X134194200Y-130548800D03*
D38*
X142151100Y-109137294D03*
X142151100Y-108177294D03*
D11*
X125181800Y-111612700D03*
X125871800Y-111612700D03*
D39*
X147441600Y-112649000D03*
X149941600Y-112649000D03*
D22*
X153325000Y-114655000D03*
X153325000Y-113965000D03*
D18*
X143746226Y-149724357D03*
X144416226Y-149724357D03*
X144416226Y-149054357D03*
X143746226Y-149054357D03*
D29*
X153610000Y-106740000D03*
X151110000Y-106740000D03*
D22*
X134251700Y-111189294D03*
X134251700Y-110499294D03*
D17*
X141274800Y-103083800D03*
X141274800Y-103773800D03*
D11*
X125156400Y-107599500D03*
X125846400Y-107599500D03*
D30*
X160020000Y-121875000D03*
X159330000Y-121875000D03*
X143472000Y-134396400D03*
X142782000Y-134396400D03*
D22*
X158550000Y-119220000D03*
X158550000Y-118530000D03*
D11*
X116118023Y-119981101D03*
X116808023Y-119981101D03*
D40*
X161400000Y-110600000D03*
X160900000Y-110600000D03*
X160400000Y-110600000D03*
X159900000Y-110600000D03*
X159400000Y-110600000D03*
X159400000Y-113400000D03*
X159900000Y-113400000D03*
X160400000Y-113400000D03*
X160900000Y-113400000D03*
X161400000Y-113400000D03*
D20*
X155527500Y-112140000D03*
X157352500Y-112140000D03*
D41*
X118314100Y-126547002D03*
X116764100Y-126547002D03*
D16*
X157370200Y-149122000D03*
X159270200Y-149122000D03*
X158320200Y-146622000D03*
D17*
X140322300Y-108518094D03*
X140322300Y-109208094D03*
X162250000Y-116845000D03*
X162250000Y-117535000D03*
D42*
X91840000Y-138495000D03*
X92640000Y-138495000D03*
D43*
X90540000Y-140445000D03*
X93940000Y-140445000D03*
D44*
X134949500Y-108081894D03*
X135449500Y-108081894D03*
X135949500Y-108081894D03*
X136449500Y-108081894D03*
X136449500Y-105681894D03*
X135949500Y-105681894D03*
X135449500Y-105681894D03*
X134949500Y-105681894D03*
D45*
X135699500Y-106881894D03*
D46*
X107418809Y-119497056D03*
X109143809Y-119497056D03*
D42*
X180330000Y-144055000D03*
X181130000Y-144055000D03*
D43*
X179030000Y-146005000D03*
X182430000Y-146005000D03*
D11*
X142047400Y-103073200D03*
X142737400Y-103073200D03*
D47*
X151310000Y-104640000D03*
X154010000Y-104640000D03*
D18*
X148985200Y-146857000D03*
X149655200Y-146857000D03*
X149655200Y-146187000D03*
X148985200Y-146187000D03*
D48*
X116744723Y-116922901D03*
X116744723Y-118822901D03*
X118619723Y-117872901D03*
D19*
X141938323Y-121038129D03*
X141938323Y-122588129D03*
D11*
X136713400Y-101752400D03*
X137403400Y-101752400D03*
D22*
X134975600Y-109589094D03*
X134975600Y-108899094D03*
D11*
X116107423Y-115764701D03*
X116797423Y-115764701D03*
D49*
X138595100Y-119236494D03*
X138595100Y-120436494D03*
X138595100Y-121636494D03*
D38*
X143471900Y-111197294D03*
X143471900Y-110237294D03*
D18*
X105042000Y-112267600D03*
X105712000Y-112267600D03*
X105712000Y-111597600D03*
X105042000Y-111597600D03*
D30*
X136666800Y-103505000D03*
X135976800Y-103505000D03*
D50*
X134454600Y-138226800D03*
X136004600Y-138226800D03*
D25*
X170738456Y-135352081D03*
X170738456Y-137077081D03*
D17*
X84175600Y-132304400D03*
X84175600Y-132994400D03*
D18*
X166985200Y-146857000D03*
X167655200Y-146857000D03*
X167655200Y-146187000D03*
X166985200Y-146187000D03*
D26*
X127391400Y-110556100D03*
X128041400Y-110556100D03*
X128691400Y-110556100D03*
X128691400Y-108656100D03*
X128041400Y-108656100D03*
X127391400Y-108656100D03*
D51*
X113227302Y-110726102D03*
X113227302Y-111726102D03*
X113227302Y-112726102D03*
X113227302Y-113726102D03*
X113227302Y-114726102D03*
X118727302Y-114726102D03*
X118727302Y-113726102D03*
X118727302Y-112726102D03*
X118727302Y-111726102D03*
X118727302Y-110726102D03*
D52*
X115977302Y-112726102D03*
D11*
X159300629Y-150847756D03*
X159990629Y-150847756D03*
D53*
X114708123Y-118822901D03*
X114708123Y-116922901D03*
X112833123Y-117872901D03*
D30*
X133898200Y-123266200D03*
X133208200Y-123266200D03*
D54*
X130435400Y-112119800D03*
X131235400Y-112119800D03*
X130435400Y-109469800D03*
X131235400Y-109469800D03*
D16*
X95427000Y-127532600D03*
X97327000Y-127532600D03*
X96377000Y-125032600D03*
D11*
X108340401Y-117977059D03*
X109030401Y-117977059D03*
D50*
X143678194Y-121060800D03*
X145228194Y-121060800D03*
D55*
X143065500Y-108177294D03*
X143065500Y-109137294D03*
D11*
X153328200Y-109274000D03*
X154018200Y-109274000D03*
D22*
X140703300Y-121146094D03*
X140703300Y-120456094D03*
D17*
X120225902Y-113711302D03*
X120225902Y-114401302D03*
D55*
X138747500Y-108179894D03*
X138747500Y-109139894D03*
D18*
X135646226Y-149724357D03*
X136316226Y-149724357D03*
X136316226Y-149054357D03*
X135646226Y-149054357D03*
D55*
X141236700Y-108179894D03*
X141236700Y-109139894D03*
D56*
X96540000Y-142030000D03*
X97040000Y-142030000D03*
X97540000Y-142030000D03*
X98040000Y-142030000D03*
X98540000Y-142030000D03*
X99040000Y-142030000D03*
X99540000Y-142030000D03*
X100040000Y-142030000D03*
X100540000Y-142030000D03*
X101040000Y-142030000D03*
X101540000Y-142030000D03*
X102040000Y-142030000D03*
X102540000Y-142030000D03*
X103040000Y-142030000D03*
D57*
X94640000Y-145280000D03*
X104940000Y-145280000D03*
D58*
X83007200Y-132321800D03*
X83007200Y-133971800D03*
D30*
X127649800Y-107599500D03*
X126959800Y-107599500D03*
D59*
X141210000Y-98835000D03*
X140710000Y-98835000D03*
X140210000Y-98835000D03*
X139710000Y-98835000D03*
X139210000Y-98835000D03*
X138710000Y-98835000D03*
X138210000Y-98835000D03*
X137710000Y-98835000D03*
X137210000Y-98835000D03*
X136710000Y-98835000D03*
X136210000Y-98835000D03*
X135710000Y-98835000D03*
D60*
X137807000Y-104688000D03*
D61*
X138307000Y-104688000D03*
X138807000Y-104688000D03*
D60*
X139307000Y-104688000D03*
D62*
X139457000Y-104013000D03*
D60*
X139307000Y-103338000D03*
D61*
X138807000Y-103338000D03*
X138307000Y-103338000D03*
D60*
X137807000Y-103338000D03*
D62*
X137657000Y-104013000D03*
D24*
X142865200Y-130915900D03*
X143515200Y-130915900D03*
X144165200Y-130915900D03*
X144815200Y-130915900D03*
X144815200Y-126690900D03*
X144165200Y-126690900D03*
X143515200Y-126690900D03*
X142865200Y-126690900D03*
D54*
X132861000Y-118385200D03*
X132061000Y-118385200D03*
X132861000Y-121035200D03*
X132061000Y-121035200D03*
D11*
X128407600Y-107599500D03*
X129097600Y-107599500D03*
D22*
X140220700Y-119689294D03*
X140220700Y-118999294D03*
D17*
X96933652Y-130907363D03*
X96933652Y-131597363D03*
D22*
X133248400Y-138546400D03*
X133248400Y-137856400D03*
D18*
X87042000Y-125267600D03*
X87712000Y-125267600D03*
X87712000Y-124597600D03*
X87042000Y-124597600D03*
D63*
X160200000Y-119200000D03*
X160200000Y-119700000D03*
X160200000Y-120200000D03*
X160700000Y-119200000D03*
X160700000Y-119700000D03*
X160700000Y-120200000D03*
X161200000Y-119200000D03*
X161200000Y-119700000D03*
X161200000Y-120200000D03*
D64*
X161200000Y-119700000D03*
D65*
X146159800Y-124295600D03*
X146159800Y-123795600D03*
X146159800Y-123295600D03*
X146159800Y-122795600D03*
D66*
X145261800Y-122397600D03*
X144761800Y-122397600D03*
X144261800Y-122397600D03*
D65*
X143363800Y-122795600D03*
X143363800Y-123295600D03*
X143363800Y-123795600D03*
X143363800Y-124295600D03*
D66*
X144261800Y-124693600D03*
X144761800Y-124693600D03*
X145261800Y-124693600D03*
D11*
X128418200Y-111612700D03*
X129108200Y-111612700D03*
D23*
X143870000Y-104987500D03*
X143870000Y-106812500D03*
D11*
X151118400Y-111864800D03*
X151808400Y-111864800D03*
D18*
X131596226Y-149724357D03*
X132266226Y-149724357D03*
X132266226Y-149054357D03*
X131596226Y-149054357D03*
D65*
X115841200Y-123303600D03*
X115841200Y-123803600D03*
X115841200Y-124303600D03*
X115841200Y-124803600D03*
D66*
X116739200Y-125201600D03*
X117239200Y-125201600D03*
X117739200Y-125201600D03*
D65*
X118637200Y-124803600D03*
X118637200Y-124303600D03*
X118637200Y-123803600D03*
X118637200Y-123303600D03*
D66*
X117739200Y-122905600D03*
X117239200Y-122905600D03*
X116739200Y-122905600D03*
D67*
X160015000Y-108340000D03*
X162165000Y-108340000D03*
D17*
X132257800Y-103693400D03*
X132257800Y-104383400D03*
D30*
X160563077Y-114402950D03*
X159873077Y-114402950D03*
D68*
X122758200Y-109392400D03*
X122758200Y-111892400D03*
D16*
X167420200Y-140972000D03*
X167420200Y-139072000D03*
X164920200Y-140022000D03*
D69*
X83007200Y-137007600D03*
X83007200Y-135357600D03*
D11*
X159233348Y-115214226D03*
X159923348Y-115214226D03*
D18*
X148985200Y-133857000D03*
X149655200Y-133857000D03*
X149655200Y-133187000D03*
X148985200Y-133187000D03*
X139696226Y-149724357D03*
X140366226Y-149724357D03*
X140366226Y-149054357D03*
X139696226Y-149054357D03*
D30*
X151757400Y-113958800D03*
X151067400Y-113958800D03*
D70*
X157782026Y-107324670D03*
X157782026Y-109224670D03*
D11*
X141031400Y-102311200D03*
X141721400Y-102311200D03*
D17*
X120019023Y-116537301D03*
X120019023Y-117227301D03*
D30*
X135371400Y-123266200D03*
X134681400Y-123266200D03*
M02*
