G04 #@! TF.GenerationSoftware,KiCad,Pcbnew,8.0.3*
G04 #@! TF.CreationDate,2024-06-28T23:22:09-05:00*
G04 #@! TF.ProjectId,procon_gcc_main_pcb,70726f63-6f6e-45f6-9763-635f6d61696e,1*
G04 #@! TF.SameCoordinates,Original*
G04 #@! TF.FileFunction,AssemblyDrawing,Bot*
%FSLAX46Y46*%
G04 Gerber Fmt 4.6, Leading zero omitted, Abs format (unit mm)*
G04 Created by KiCad (PCBNEW 8.0.3) date 2024-06-28 23:22:09*
%MOMM*%
%LPD*%
G01*
G04 APERTURE LIST*
%ADD10C,0.150000*%
G04 APERTURE END LIST*
D10*
X138313894Y-91099019D02*
X137742466Y-91099019D01*
X138028180Y-92099019D02*
X138028180Y-91099019D01*
X137409132Y-92099019D02*
X137409132Y-91099019D01*
X137409132Y-91099019D02*
X137028180Y-91099019D01*
X137028180Y-91099019D02*
X136932942Y-91146638D01*
X136932942Y-91146638D02*
X136885323Y-91194257D01*
X136885323Y-91194257D02*
X136837704Y-91289495D01*
X136837704Y-91289495D02*
X136837704Y-91432352D01*
X136837704Y-91432352D02*
X136885323Y-91527590D01*
X136885323Y-91527590D02*
X136932942Y-91575209D01*
X136932942Y-91575209D02*
X137028180Y-91622828D01*
X137028180Y-91622828D02*
X137409132Y-91622828D01*
X135885323Y-92099019D02*
X136456751Y-92099019D01*
X136171037Y-92099019D02*
X136171037Y-91099019D01*
X136171037Y-91099019D02*
X136266275Y-91241876D01*
X136266275Y-91241876D02*
X136361513Y-91337114D01*
X136361513Y-91337114D02*
X136456751Y-91384733D01*
X135504370Y-91194257D02*
X135456751Y-91146638D01*
X135456751Y-91146638D02*
X135361513Y-91099019D01*
X135361513Y-91099019D02*
X135123418Y-91099019D01*
X135123418Y-91099019D02*
X135028180Y-91146638D01*
X135028180Y-91146638D02*
X134980561Y-91194257D01*
X134980561Y-91194257D02*
X134932942Y-91289495D01*
X134932942Y-91289495D02*
X134932942Y-91384733D01*
X134932942Y-91384733D02*
X134980561Y-91527590D01*
X134980561Y-91527590D02*
X135551989Y-92099019D01*
X135551989Y-92099019D02*
X134932942Y-92099019D01*
X142098494Y-91099019D02*
X141527066Y-91099019D01*
X141812780Y-92099019D02*
X141812780Y-91099019D01*
X141193732Y-92099019D02*
X141193732Y-91099019D01*
X141193732Y-91099019D02*
X140812780Y-91099019D01*
X140812780Y-91099019D02*
X140717542Y-91146638D01*
X140717542Y-91146638D02*
X140669923Y-91194257D01*
X140669923Y-91194257D02*
X140622304Y-91289495D01*
X140622304Y-91289495D02*
X140622304Y-91432352D01*
X140622304Y-91432352D02*
X140669923Y-91527590D01*
X140669923Y-91527590D02*
X140717542Y-91575209D01*
X140717542Y-91575209D02*
X140812780Y-91622828D01*
X140812780Y-91622828D02*
X141193732Y-91622828D01*
X139669923Y-92099019D02*
X140241351Y-92099019D01*
X139955637Y-92099019D02*
X139955637Y-91099019D01*
X139955637Y-91099019D02*
X140050875Y-91241876D01*
X140050875Y-91241876D02*
X140146113Y-91337114D01*
X140146113Y-91337114D02*
X140241351Y-91384733D01*
X139050875Y-91099019D02*
X138955637Y-91099019D01*
X138955637Y-91099019D02*
X138860399Y-91146638D01*
X138860399Y-91146638D02*
X138812780Y-91194257D01*
X138812780Y-91194257D02*
X138765161Y-91289495D01*
X138765161Y-91289495D02*
X138717542Y-91479971D01*
X138717542Y-91479971D02*
X138717542Y-91718066D01*
X138717542Y-91718066D02*
X138765161Y-91908542D01*
X138765161Y-91908542D02*
X138812780Y-92003780D01*
X138812780Y-92003780D02*
X138860399Y-92051400D01*
X138860399Y-92051400D02*
X138955637Y-92099019D01*
X138955637Y-92099019D02*
X139050875Y-92099019D01*
X139050875Y-92099019D02*
X139146113Y-92051400D01*
X139146113Y-92051400D02*
X139193732Y-92003780D01*
X139193732Y-92003780D02*
X139241351Y-91908542D01*
X139241351Y-91908542D02*
X139288970Y-91718066D01*
X139288970Y-91718066D02*
X139288970Y-91479971D01*
X139288970Y-91479971D02*
X139241351Y-91289495D01*
X139241351Y-91289495D02*
X139193732Y-91194257D01*
X139193732Y-91194257D02*
X139146113Y-91146638D01*
X139146113Y-91146638D02*
X139050875Y-91099019D01*
X86143933Y-138432219D02*
X86477266Y-137956028D01*
X86715361Y-138432219D02*
X86715361Y-137432219D01*
X86715361Y-137432219D02*
X86334409Y-137432219D01*
X86334409Y-137432219D02*
X86239171Y-137479838D01*
X86239171Y-137479838D02*
X86191552Y-137527457D01*
X86191552Y-137527457D02*
X86143933Y-137622695D01*
X86143933Y-137622695D02*
X86143933Y-137765552D01*
X86143933Y-137765552D02*
X86191552Y-137860790D01*
X86191552Y-137860790D02*
X86239171Y-137908409D01*
X86239171Y-137908409D02*
X86334409Y-137956028D01*
X86334409Y-137956028D02*
X86715361Y-137956028D01*
X85715361Y-137908409D02*
X85382028Y-137908409D01*
X85239171Y-138432219D02*
X85715361Y-138432219D01*
X85715361Y-138432219D02*
X85715361Y-137432219D01*
X85715361Y-137432219D02*
X85239171Y-137432219D01*
X84477266Y-137908409D02*
X84810599Y-137908409D01*
X84810599Y-138432219D02*
X84810599Y-137432219D01*
X84810599Y-137432219D02*
X84334409Y-137432219D01*
X83810599Y-137432219D02*
X83810599Y-137670314D01*
X84048694Y-137575076D02*
X83810599Y-137670314D01*
X83810599Y-137670314D02*
X83572504Y-137575076D01*
X83953456Y-137860790D02*
X83810599Y-137670314D01*
X83810599Y-137670314D02*
X83667742Y-137860790D01*
X83048694Y-137432219D02*
X83048694Y-137670314D01*
X83286789Y-137575076D02*
X83048694Y-137670314D01*
X83048694Y-137670314D02*
X82810599Y-137575076D01*
X83191551Y-137860790D02*
X83048694Y-137670314D01*
X83048694Y-137670314D02*
X82905837Y-137860790D01*
M02*
