M48
; DRILL file {KiCad 7.0.6} date Tue Mar  5 15:59:27 2024
; FORMAT={-:-/ absolute / inch / decimal}
; #@! TF.CreationDate,2024-03-05T15:59:27-08:00
; #@! TF.GenerationSoftware,Kicad,Pcbnew,7.0.6
; #@! TF.FileFunction,Plated,1,4,PTH
FMAT,2
INCH
; #@! TA.AperFunction,Plated,PTH,ViaDrill
T1C0.0138
; #@! TA.AperFunction,Plated,PTH,ViaDrill
T2C0.0157
; #@! TA.AperFunction,Plated,PTH,ComponentDrill
T3C0.0157
; #@! TA.AperFunction,Plated,PTH,ComponentDrill
T4C0.0197
; #@! TA.AperFunction,Plated,PTH,ComponentDrill
T5C0.0315
; #@! TA.AperFunction,Plated,PTH,ComponentDrill
T6C0.0354
; #@! TA.AperFunction,Plated,PTH,ComponentDrill
T7C0.0472
%
G90
G05
T1
X3.374Y-5.206
X3.398Y-5.146
X3.48Y-4.473
X3.485Y-4.983
X3.707Y-5.026
X3.8791Y-5.4957
X3.9012Y-5.4661
X4.081Y-4.94
X4.176Y-4.472
X4.177Y-4.982
X4.2776Y-5.5248
X4.295Y-4.94
X4.347Y-4.78
X4.403Y-4.45
X4.404Y-4.8
X4.426Y-4.725
X4.435Y-4.682
X4.443Y-4.961
X4.4904Y-4.9243
X4.507Y-4.831
X4.616Y-4.885
X4.628Y-4.723
X4.639Y-4.795
X4.739Y-4.396
X4.74Y-4.353
X4.741Y-4.542
X4.773Y-4.398
X4.885Y-4.8154
X4.8899Y-4.7809
X4.8905Y-4.7445
X4.891Y-4.2362
X5.0253Y-4.1053
X5.04Y-4.2162
X5.11Y-4.282
X5.117Y-4.704
X5.158Y-4.855
X5.2004Y-4.4129
X5.2253Y-4.3887
X5.232Y-4.354
X5.258Y-4.376
X5.264Y-4.789
X5.284Y-4.182
X5.2865Y-4.2259
X5.298Y-4.79
X5.316Y-3.975
X5.321Y-4.966
X5.341Y-4.031
X5.342Y-3.997
X5.347Y-4.789
X5.354Y-4.955
X5.358Y-3.934
X5.366Y-4.848
X5.372Y-4.532
X5.3762Y-4.103
X5.384Y-4.702
X5.3965Y-4.769
X5.4Y-4.842
X5.407Y-4.967
X5.4082Y-4.034
X5.4372Y-4.0173
X5.4413Y-4.2304
X5.4415Y-4.194
X5.4575Y-4.5859
X5.464Y-4.492
X5.4707Y-4.0184
X5.472Y-4.836
X5.492Y-4.2138
X5.4985Y-4.5839
X5.502Y-5.222
X5.504Y-4.0228
X5.5268Y-4.1886
X5.5303Y-4.1461
X5.5336Y-4.3969
X5.535Y-4.086
X5.535Y-3.956
X5.5483Y-4.8263
X5.5535Y-4.1218
X5.564Y-4.691
X5.595Y-4.706
X5.6043Y-4.1334
X5.6043Y-4.2053
X5.61Y-4.925
X5.617Y-5.046
X5.623Y-4.7653
X5.6504Y-4.5385
X5.6642Y-4.1334
X5.6642Y-4.2052
X5.665Y-4.293
X5.665Y-5.057
X5.6736Y-4.2587
X5.678Y-5.294
X5.681Y-4.335
X5.681Y-4.378
X5.684Y-4.87
X5.699Y-5.088
X5.7144Y-4.4304
X5.721Y-4.723
X5.738Y-4.946
X5.7405Y-4.5358
X5.758Y-4.398
X5.7625Y-4.4405
X5.763Y-4.5819
X5.784Y-4.4891
X5.787Y-5.461
X5.787Y-5.497
X5.789Y-4.852
X5.824Y-4.818
X5.825Y-4.89
X5.8435Y-4.0797
X5.85Y-4.795
X5.857Y-4.3453
X5.8646Y-4.1134
X5.881Y-4.369
X5.8814Y-4.8108
X5.916Y-4.701
X5.9459Y-4.25
X5.9853Y-4.2979
X6.0086Y-4.3733
X6.0291Y-4.4457
X6.0374Y-4.3967
X6.0756Y-4.5815
X6.128Y-4.3228
X6.1583Y-4.6209
X6.198Y-4.1598
X6.1998Y-4.7569
X6.2323Y-4.7293
X6.309Y-5.653
X6.419Y-5.683
X6.442Y-5.427
X6.58Y-5.684
T2
X3.302Y-5.328
X3.56Y-5.26
X4.164Y-4.751
X4.408Y-4.3613
X4.408Y-4.4027
X4.551Y-4.983
X4.6853Y-4.5974
X4.688Y-4.783
X4.7238Y-4.6466
X4.726Y-4.9606
X4.748Y-4.144
X4.765Y-4.495
X4.834Y-4.358
X4.851Y-4.142
X4.9497Y-4.1321
X5.007Y-4.1941
X5.126Y-4.1907
X5.154Y-4.707
X5.165Y-4.651
X5.173Y-4.104
X5.235Y-3.932
X5.2457Y-5.7902
X5.265Y-4.966
X5.295Y-5.488
X5.377Y-3.673
X5.415Y-5.7949
X5.486Y-4.954
X5.526Y-3.673
X5.5713Y-5.7949
X5.612Y-4.005
X5.613Y-3.963
X5.688Y-5.259
X5.7311Y-5.7358
X5.903Y-4.563
X5.912Y-4.617
X5.947Y-5.287
X5.947Y-5.809
X6.0101Y-4.3371
X6.088Y-5.531
X6.0988Y-4.2028
X6.1232Y-4.4462
X6.1343Y-4.0402
X6.143Y-5.879
X6.173Y-5.245
X6.186Y-5.127
X6.2119Y-4.3579
X6.2146Y-4.6299
X6.2227Y-4.542
X6.2837Y-4.41
X6.2923Y-4.8661
X6.3317Y-4.8346
X6.3464Y-4.4098
X6.3811Y-4.5083
X6.3849Y-4.3496
X6.505Y-4.419
X6.597Y-5.607
X6.608Y-5.321
X6.656Y-5.794
X6.9697Y-5.6264
X6.9839Y-5.6677
X7.1319Y-5.6173
T3
X5.3409Y-3.8435
X5.3567Y-3.8159
X5.3882Y-3.8159
X5.4039Y-3.8435
X5.4197Y-3.8159
X5.4354Y-3.8435
X5.4669Y-3.8435
X5.4827Y-3.8159
X5.4984Y-3.8435
X5.5142Y-3.8159
X5.5457Y-3.8159
X5.5614Y-3.8435
T5
X3.2785Y-5.519
X3.3573Y-5.519
X3.436Y-5.519
X3.5147Y-5.519
X4.7606Y-3.946
X4.8394Y-3.946
T6
X3.3948Y-4.5347
X3.3948Y-4.7907
X3.5719Y-4.5347
X3.5719Y-4.7907
X5.8335Y-5.3847
X5.8335Y-5.6406
X6.0106Y-5.3847
X6.0106Y-5.6406
T7
X3.5975Y-4.4137
X3.5975Y-4.9117
X3.7158Y-5.3125
X3.7158Y-5.4698
X3.9912Y-4.4137
X3.9912Y-4.9117
X6.0362Y-5.2637
X6.0362Y-5.7617
X6.4299Y-5.2637
X6.4299Y-5.7617
X7.0268Y-5.5083
X7.2039Y-5.5083
T4
G00X5.2744Y-3.6589
M15
G01X5.2744Y-3.6352
M16
G05
G00X5.2886Y-3.8317
M15
G01X5.2886Y-3.8081
M16
G05
G00X5.6138Y-3.8317
M15
G01X5.6138Y-3.8081
M16
G05
G00X5.628Y-3.6589
M15
G01X5.628Y-3.6352
M16
G05
T0
M30
